<?xml version="1.0" encoding="UTF-8" standalone="no"?>
<!DOCTYPE svg PUBLIC "-//W3C//DTD SVG 1.1//EN"
 "http://www.w3.org/Graphics/SVG/1.1/DTD/svg11.dtd">
<!-- Generated by graphviz version 2.47.3 (20210619.1520)
 -->
<!-- Title: dependencies Pages: 1 -->
<svg width="190pt" height="247pt"
 viewBox="0.00 0.00 190.00 246.80" xmlns="http://www.w3.org/2000/svg" xmlns:xlink="http://www.w3.org/1999/xlink">
<g id="graph0" class="graph" transform="scale(1 1) rotate(0) translate(4 242.8)">
<title>dependencies</title>
<polygon fill="white" stroke="transparent" points="-4,4 -4,-242.8 186,-242.8 186,4 -4,4"/>
<text text-anchor="middle" x="91" y="-8.2" font-family="sans-serif" font-size="14.00">dependencies</text>
<g id="clust1" class="cluster">
<title>cluster_OptionModule</title>
<polygon fill="none" stroke="black" stroke-dasharray="1,5" points="8,-32.8 8,-230.8 174,-230.8 174,-32.8 8,-32.8"/>
</g>
<g id="clust6" class="cluster">
<title>cluster_OptionModule_providers</title>
<polygon fill="none" stroke="black" points="16,-40.8 16,-92.8 166,-92.8 166,-40.8 16,-40.8"/>
</g>
<g id="clust4" class="cluster">
<title>cluster_OptionModule_exports</title>
<polygon fill="none" stroke="black" points="33,-170.8 33,-222.8 149,-222.8 149,-170.8 33,-170.8"/>
</g>
<!-- OptionService  -->
<g id="node1" class="node">
<title>OptionService </title>
<polygon fill="#fb8072" stroke="black" points="141.37,-214.8 40.63,-214.8 40.63,-178.8 141.37,-178.8 141.37,-214.8"/>
<text text-anchor="middle" x="91" y="-192.6" font-family="Times,serif" font-size="14.00">OptionService </text>
</g>
<!-- OptionModule -->
<g id="node2" class="node">
<title>OptionModule</title>
<polygon fill="#8dd3c7" stroke="black" points="140.44,-149.8 137.44,-153.8 116.44,-153.8 113.44,-149.8 41.56,-149.8 41.56,-113.8 140.44,-113.8 140.44,-149.8"/>
<text text-anchor="middle" x="91" y="-127.6" font-family="Times,serif" font-size="14.00">OptionModule</text>
</g>
<!-- OptionModule&#45;&gt;OptionService  -->
<g id="edge1" class="edge">
<title>OptionModule&#45;&gt;OptionService </title>
<path fill="none" stroke="black" stroke-dasharray="5,2" d="M91,-149.91C91,-149.91 91,-168.79 91,-168.79"/>
<polygon fill="black" stroke="black" points="87.5,-168.79 91,-178.79 94.5,-168.79 87.5,-168.79"/>
</g>
<!-- OptionService -->
<g id="node3" class="node">
<title>OptionService</title>
<ellipse fill="#fdb462" stroke="black" cx="91" cy="-66.8" rx="66.63" ry="18"/>
<text text-anchor="middle" x="91" y="-62.6" font-family="Times,serif" font-size="14.00">OptionService</text>
</g>
<!-- OptionService&#45;&gt;OptionModule -->
<g id="edge2" class="edge">
<title>OptionService&#45;&gt;OptionModule</title>
<path fill="none" stroke="black" d="M91,-84.91C91,-84.91 91,-103.79 91,-103.79"/>
<polygon fill="black" stroke="black" points="87.5,-103.79 91,-113.79 94.5,-103.79 87.5,-103.79"/>
</g>
</g>
</svg>
