<?xml version="1.0" encoding="UTF-8" standalone="no"?>
<!DOCTYPE svg PUBLIC "-//W3C//DTD SVG 1.1//EN"
 "http://www.w3.org/Graphics/SVG/1.1/DTD/svg11.dtd">
<!-- Generated by graphviz version 2.47.0 (20210316.0004)
 -->
<!-- Title: dependencies Pages: 1 -->
<svg width="504pt" height="284pt"
 viewBox="0.00 0.00 504.00 284.00" xmlns="http://www.w3.org/2000/svg" xmlns:xlink="http://www.w3.org/1999/xlink">
<g id="graph0" class="graph" transform="scale(1 1) rotate(0) translate(4 280)">
<title>dependencies</title>
<polygon fill="white" stroke="transparent" points="-4,4 -4,-280 500,-280 500,4 -4,4"/>
<text text-anchor="start" x="227.01" y="-42.4" font-family="Times-12" font-weight="bold" font-size="14.00">Legend</text>
<polygon fill="#ffffb3" stroke="transparent" points="14,-10 14,-30 34,-30 34,-10 14,-10"/>
<text text-anchor="start" x="37.63" y="-15.4" font-family="Times-12" font-size="14.00"> &#160;Declarations</text>
<polygon fill="#8dd3c7" stroke="transparent" points="127,-10 127,-30 147,-30 147,-10 127,-10"/>
<text text-anchor="start" x="150.73" y="-15.4" font-family="Times-12" font-size="14.00"> &#160;Module</text>
<polygon fill="#80b1d3" stroke="transparent" points="213,-10 213,-30 233,-30 233,-10 213,-10"/>
<text text-anchor="start" x="236.78" y="-15.4" font-family="Times-12" font-size="14.00"> &#160;Bootstrap</text>
<polygon fill="#fdb462" stroke="transparent" points="310,-10 310,-30 330,-30 330,-10 310,-10"/>
<text text-anchor="start" x="333.67" y="-15.4" font-family="Times-12" font-size="14.00"> &#160;Providers</text>
<polygon fill="#fb8072" stroke="transparent" points="406,-10 406,-30 426,-30 426,-10 406,-10"/>
<text text-anchor="start" x="429.73" y="-15.4" font-family="Times-12" font-size="14.00"> &#160;Exports</text>
<g id="clust1" class="cluster">
<title>cluster_CacheModule</title>
<polygon fill="none" stroke="black" stroke-dasharray="1,5" points="23,-70 23,-268 473,-268 473,-70 23,-70"/>
</g>
<g id="clust6" class="cluster">
<title>cluster_CacheModule_providers</title>
<polygon fill="none" stroke="black" points="31,-78 31,-130 465,-130 465,-78 31,-78"/>
</g>
<g id="clust4" class="cluster">
<title>cluster_CacheModule_exports</title>
<polygon fill="none" stroke="black" points="135,-208 135,-260 359,-260 359,-208 135,-208"/>
</g>
<!-- CacheService  -->
<g id="node1" class="node">
<title>CacheService </title>
<polygon fill="#fb8072" stroke="black" points="351.46,-252 254.54,-252 254.54,-216 351.46,-216 351.46,-252"/>
<text text-anchor="middle" x="303" y="-229.8" font-family="Times,serif" font-size="14.00">CacheService </text>
</g>
<!-- RedisService  -->
<g id="node2" class="node">
<title>RedisService </title>
<polygon fill="#fb8072" stroke="black" points="236.86,-252 143.14,-252 143.14,-216 236.86,-216 236.86,-252"/>
<text text-anchor="middle" x="190" y="-229.8" font-family="Times,serif" font-size="14.00">RedisService </text>
</g>
<!-- CacheModule -->
<g id="node3" class="node">
<title>CacheModule</title>
<polygon fill="#8dd3c7" stroke="black" points="293.03,-187 290.03,-191 269.03,-191 266.03,-187 198.97,-187 198.97,-151 293.03,-151 293.03,-187"/>
<text text-anchor="middle" x="246" y="-164.8" font-family="Times,serif" font-size="14.00">CacheModule</text>
</g>
<!-- CacheModule&#45;&gt;CacheService  -->
<g id="edge1" class="edge">
<title>CacheModule&#45;&gt;CacheService </title>
<path fill="none" stroke="black" stroke-dasharray="5,2" d="M274.02,-187.11C274.02,-187.11 274.02,-205.99 274.02,-205.99"/>
<polygon fill="black" stroke="black" points="270.52,-205.99 274.02,-215.99 277.52,-205.99 270.52,-205.99"/>
</g>
<!-- CacheModule&#45;&gt;RedisService  -->
<g id="edge2" class="edge">
<title>CacheModule&#45;&gt;RedisService </title>
<path fill="none" stroke="black" stroke-dasharray="5,2" d="M217.71,-187.11C217.71,-187.11 217.71,-205.99 217.71,-205.99"/>
<polygon fill="black" stroke="black" points="214.21,-205.99 217.71,-215.99 221.21,-205.99 214.21,-205.99"/>
</g>
<!-- CacheService -->
<g id="node4" class="node">
<title>CacheService</title>
<ellipse fill="#fdb462" stroke="black" cx="393" cy="-104" rx="64.24" ry="18"/>
<text text-anchor="middle" x="393" y="-99.8" font-family="Times,serif" font-size="14.00">CacheService</text>
</g>
<!-- CacheService&#45;&gt;CacheModule -->
<g id="edge3" class="edge">
<title>CacheService&#45;&gt;CacheModule</title>
<path fill="none" stroke="black" d="M340.05,-114.16C340.05,-132.44 340.05,-169 340.05,-169 340.05,-169 303.3,-169 303.3,-169"/>
<polygon fill="black" stroke="black" points="303.3,-165.5 293.3,-169 303.3,-172.5 303.3,-165.5"/>
</g>
<!-- RedisListener -->
<g id="node5" class="node">
<title>RedisListener</title>
<ellipse fill="#fdb462" stroke="black" cx="246" cy="-104" rx="64.84" ry="18"/>
<text text-anchor="middle" x="246" y="-99.8" font-family="Times,serif" font-size="14.00">RedisListener</text>
</g>
<!-- RedisListener&#45;&gt;CacheModule -->
<g id="edge4" class="edge">
<title>RedisListener&#45;&gt;CacheModule</title>
<path fill="none" stroke="black" d="M246,-122.11C246,-122.11 246,-140.99 246,-140.99"/>
<polygon fill="black" stroke="black" points="242.5,-140.99 246,-150.99 249.5,-140.99 242.5,-140.99"/>
</g>
<!-- RedisService -->
<g id="node6" class="node">
<title>RedisService</title>
<ellipse fill="#fdb462" stroke="black" cx="101" cy="-104" rx="61.97" ry="18"/>
<text text-anchor="middle" x="101" y="-99.8" font-family="Times,serif" font-size="14.00">RedisService</text>
</g>
<!-- RedisService&#45;&gt;CacheModule -->
<g id="edge5" class="edge">
<title>RedisService&#45;&gt;CacheModule</title>
<path fill="none" stroke="black" d="M153.15,-113.87C153.15,-132.06 153.15,-169 153.15,-169 153.15,-169 188.76,-169 188.76,-169"/>
<polygon fill="black" stroke="black" points="188.76,-172.5 198.76,-169 188.76,-165.5 188.76,-172.5"/>
</g>
</g>
</svg>
