<?xml version="1.0" encoding="UTF-8" standalone="no"?>
<!DOCTYPE svg PUBLIC "-//W3C//DTD SVG 1.1//EN"
 "http://www.w3.org/Graphics/SVG/1.1/DTD/svg11.dtd">
<!-- Generated by graphviz version 2.47.3 (20210619.1520)
 -->
<!-- Title: dependencies Pages: 1 -->
<svg width="384pt" height="247pt"
 viewBox="0.00 0.00 384.00 246.80" xmlns="http://www.w3.org/2000/svg" xmlns:xlink="http://www.w3.org/1999/xlink">
<g id="graph0" class="graph" transform="scale(1 1) rotate(0) translate(4 242.8)">
<title>dependencies</title>
<polygon fill="white" stroke="transparent" points="-4,4 -4,-242.8 380,-242.8 380,4 -4,4"/>
<text text-anchor="middle" x="188" y="-8.2" font-family="sans-serif" font-size="14.00">dependencies</text>
<g id="clust1" class="cluster">
<title>cluster_CacheModule</title>
<polygon fill="none" stroke="black" stroke-dasharray="1,5" points="8,-32.8 8,-230.8 368,-230.8 368,-32.8 8,-32.8"/>
</g>
<g id="clust6" class="cluster">
<title>cluster_CacheModule_providers</title>
<polygon fill="none" stroke="black" points="16,-40.8 16,-92.8 360,-92.8 360,-40.8 16,-40.8"/>
</g>
<g id="clust4" class="cluster">
<title>cluster_CacheModule_exports</title>
<polygon fill="none" stroke="black" points="118,-170.8 118,-222.8 230,-222.8 230,-170.8 118,-170.8"/>
</g>
<!-- CacheService  -->
<g id="node1" class="node">
<title>CacheService </title>
<polygon fill="#fb8072" stroke="black" points="222.46,-214.8 125.54,-214.8 125.54,-178.8 222.46,-178.8 222.46,-214.8"/>
<text text-anchor="middle" x="174" y="-192.6" font-family="Times,serif" font-size="14.00">CacheService </text>
</g>
<!-- CacheModule -->
<g id="node2" class="node">
<title>CacheModule</title>
<polygon fill="#8dd3c7" stroke="black" points="221.03,-149.8 218.03,-153.8 197.03,-153.8 194.03,-149.8 126.97,-149.8 126.97,-113.8 221.03,-113.8 221.03,-149.8"/>
<text text-anchor="middle" x="174" y="-127.6" font-family="Times,serif" font-size="14.00">CacheModule</text>
</g>
<!-- CacheModule&#45;&gt;CacheService  -->
<g id="edge1" class="edge">
<title>CacheModule&#45;&gt;CacheService </title>
<path fill="none" stroke="black" stroke-dasharray="5,2" d="M174,-149.91C174,-149.91 174,-168.79 174,-168.79"/>
<polygon fill="black" stroke="black" points="170.5,-168.79 174,-178.79 177.5,-168.79 170.5,-168.79"/>
</g>
<!-- CacheConfigService -->
<g id="node3" class="node">
<title>CacheConfigService</title>
<ellipse fill="#fdb462" stroke="black" cx="261" cy="-66.8" rx="90.89" ry="18"/>
<text text-anchor="middle" x="261" y="-62.6" font-family="Times,serif" font-size="14.00">CacheConfigService</text>
</g>
<!-- CacheConfigService&#45;&gt;CacheModule -->
<g id="edge2" class="edge">
<title>CacheConfigService&#45;&gt;CacheModule</title>
<path fill="none" stroke="black" d="M195.66,-79.33C195.66,-79.33 195.66,-103.65 195.66,-103.65"/>
<polygon fill="black" stroke="black" points="192.16,-103.65 195.66,-113.65 199.16,-103.65 192.16,-103.65"/>
</g>
<!-- CacheService -->
<g id="node4" class="node">
<title>CacheService</title>
<ellipse fill="#fdb462" stroke="black" cx="88" cy="-66.8" rx="64.24" ry="18"/>
<text text-anchor="middle" x="88" y="-62.6" font-family="Times,serif" font-size="14.00">CacheService</text>
</g>
<!-- CacheService&#45;&gt;CacheModule -->
<g id="edge3" class="edge">
<title>CacheService&#45;&gt;CacheModule</title>
<path fill="none" stroke="black" d="M139.43,-77.83C139.43,-77.83 139.43,-103.58 139.43,-103.58"/>
<polygon fill="black" stroke="black" points="135.93,-103.58 139.43,-113.58 142.93,-103.58 135.93,-103.58"/>
</g>
</g>
</svg>
