<?xml version="1.0" encoding="UTF-8" standalone="no"?>
<!DOCTYPE svg PUBLIC "-//W3C//DTD SVG 1.1//EN"
 "http://www.w3.org/Graphics/SVG/1.1/DTD/svg11.dtd">
<!-- Generated by graphviz version 2.47.0 (20210316.0004)
 -->
<!-- Title: dependencies Pages: 1 -->
<svg width="504pt" height="284pt"
 viewBox="0.00 0.00 504.00 284.00" xmlns="http://www.w3.org/2000/svg" xmlns:xlink="http://www.w3.org/1999/xlink">
<g id="graph0" class="graph" transform="scale(1 1) rotate(0) translate(4 280)">
<title>dependencies</title>
<polygon fill="white" stroke="transparent" points="-4,4 -4,-280 500,-280 500,4 -4,4"/>
<text text-anchor="start" x="227.01" y="-42.4" font-family="Times-12" font-weight="bold" font-size="14.00">Legend</text>
<polygon fill="#ffffb3" stroke="transparent" points="14,-10 14,-30 34,-30 34,-10 14,-10"/>
<text text-anchor="start" x="37.63" y="-15.4" font-family="Times-12" font-size="14.00"> &#160;Declarations</text>
<polygon fill="#8dd3c7" stroke="transparent" points="127,-10 127,-30 147,-30 147,-10 127,-10"/>
<text text-anchor="start" x="150.73" y="-15.4" font-family="Times-12" font-size="14.00"> &#160;Module</text>
<polygon fill="#80b1d3" stroke="transparent" points="213,-10 213,-30 233,-30 233,-10 213,-10"/>
<text text-anchor="start" x="236.78" y="-15.4" font-family="Times-12" font-size="14.00"> &#160;Bootstrap</text>
<polygon fill="#fdb462" stroke="transparent" points="310,-10 310,-30 330,-30 330,-10 310,-10"/>
<text text-anchor="start" x="333.67" y="-15.4" font-family="Times-12" font-size="14.00"> &#160;Providers</text>
<polygon fill="#fb8072" stroke="transparent" points="406,-10 406,-30 426,-30 426,-10 406,-10"/>
<text text-anchor="start" x="429.73" y="-15.4" font-family="Times-12" font-size="14.00"> &#160;Exports</text>
<g id="clust1" class="cluster">
<title>cluster_CacheModule</title>
<polygon fill="none" stroke="black" stroke-dasharray="1,5" points="97,-70 97,-268 399,-268 399,-70 97,-70"/>
</g>
<g id="clust6" class="cluster">
<title>cluster_CacheModule_providers</title>
<polygon fill="none" stroke="black" points="105,-78 105,-130 391,-130 391,-78 105,-78"/>
</g>
<g id="clust4" class="cluster">
<title>cluster_CacheModule_exports</title>
<polygon fill="none" stroke="black" points="124,-208 124,-260 348,-260 348,-208 124,-208"/>
</g>
<!-- CacheService  -->
<g id="node1" class="node">
<title>CacheService </title>
<polygon fill="#fb8072" stroke="black" points="340.46,-252 243.54,-252 243.54,-216 340.46,-216 340.46,-252"/>
<text text-anchor="middle" x="292" y="-229.8" font-family="Times,serif" font-size="14.00">CacheService </text>
</g>
<!-- RedisService  -->
<g id="node2" class="node">
<title>RedisService </title>
<polygon fill="#fb8072" stroke="black" points="225.86,-252 132.14,-252 132.14,-216 225.86,-216 225.86,-252"/>
<text text-anchor="middle" x="179" y="-229.8" font-family="Times,serif" font-size="14.00">RedisService </text>
</g>
<!-- CacheModule -->
<g id="node3" class="node">
<title>CacheModule</title>
<polygon fill="#8dd3c7" stroke="black" points="245.03,-187 242.03,-191 221.03,-191 218.03,-187 150.97,-187 150.97,-151 245.03,-151 245.03,-187"/>
<text text-anchor="middle" x="198" y="-164.8" font-family="Times,serif" font-size="14.00">CacheModule</text>
</g>
<!-- CacheModule&#45;&gt;CacheService  -->
<g id="edge1" class="edge">
<title>CacheModule&#45;&gt;CacheService </title>
<path fill="none" stroke="black" stroke-dasharray="5,2" d="M245.27,-169C248.24,-169 250.07,-169 250.07,-169 250.07,-169 250.07,-205.89 250.07,-205.89"/>
<polygon fill="black" stroke="black" points="246.57,-205.89 250.07,-215.89 253.57,-205.89 246.57,-205.89"/>
</g>
<!-- CacheModule&#45;&gt;RedisService  -->
<g id="edge2" class="edge">
<title>CacheModule&#45;&gt;RedisService </title>
<path fill="none" stroke="black" stroke-dasharray="5,2" d="M188.21,-187.11C188.21,-187.11 188.21,-205.99 188.21,-205.99"/>
<polygon fill="black" stroke="black" points="184.71,-205.99 188.21,-215.99 191.71,-205.99 184.71,-205.99"/>
</g>
<!-- CacheService -->
<g id="node4" class="node">
<title>CacheService</title>
<ellipse fill="#fdb462" stroke="black" cx="319" cy="-104" rx="64.24" ry="18"/>
<text text-anchor="middle" x="319" y="-99.8" font-family="Times,serif" font-size="14.00">CacheService</text>
</g>
<!-- CacheService&#45;&gt;CacheModule -->
<g id="edge3" class="edge">
<title>CacheService&#45;&gt;CacheModule</title>
<path fill="none" stroke="black" d="M254.69,-104C246.62,-104 241.13,-104 241.13,-104 241.13,-104 241.13,-140.89 241.13,-140.89"/>
<polygon fill="black" stroke="black" points="237.63,-140.89 241.13,-150.89 244.63,-140.89 237.63,-140.89"/>
</g>
<!-- RedisService -->
<g id="node5" class="node">
<title>RedisService</title>
<ellipse fill="#fdb462" stroke="black" cx="175" cy="-104" rx="61.97" ry="18"/>
<text text-anchor="middle" x="175" y="-99.8" font-family="Times,serif" font-size="14.00">RedisService</text>
</g>
<!-- RedisService&#45;&gt;CacheModule -->
<g id="edge4" class="edge">
<title>RedisService&#45;&gt;CacheModule</title>
<path fill="none" stroke="black" d="M193.86,-121.42C193.86,-121.42 193.86,-140.62 193.86,-140.62"/>
<polygon fill="black" stroke="black" points="190.36,-140.62 193.86,-150.62 197.36,-140.62 190.36,-140.62"/>
</g>
</g>
</svg>
