<?xml version="1.0" encoding="UTF-8" standalone="no"?>
<!DOCTYPE svg PUBLIC "-//W3C//DTD SVG 1.1//EN"
 "http://www.w3.org/Graphics/SVG/1.1/DTD/svg11.dtd">
<!-- Generated by graphviz version 2.47.3 (20210619.1520)
 -->
<!-- Title: dependencies Pages: 1 -->
<svg width="254pt" height="247pt"
 viewBox="0.00 0.00 254.00 246.80" xmlns="http://www.w3.org/2000/svg" xmlns:xlink="http://www.w3.org/1999/xlink">
<g id="graph0" class="graph" transform="scale(1 1) rotate(0) translate(4 242.8)">
<title>dependencies</title>
<polygon fill="white" stroke="transparent" points="-4,4 -4,-242.8 250,-242.8 250,4 -4,4"/>
<text text-anchor="middle" x="123" y="-8.2" font-family="sans-serif" font-size="14.00">dependencies</text>
<g id="clust1" class="cluster">
<title>cluster_AnnouncementModule</title>
<polygon fill="none" stroke="black" stroke-dasharray="1,5" points="8,-32.8 8,-230.8 238,-230.8 238,-32.8 8,-32.8"/>
</g>
<g id="clust4" class="cluster">
<title>cluster_AnnouncementModule_exports</title>
<polygon fill="none" stroke="black" points="41,-170.8 41,-222.8 205,-222.8 205,-170.8 41,-170.8"/>
</g>
<g id="clust6" class="cluster">
<title>cluster_AnnouncementModule_providers</title>
<polygon fill="none" stroke="black" points="16,-40.8 16,-92.8 230,-92.8 230,-40.8 16,-40.8"/>
</g>
<!-- AnnouncementService  -->
<g id="node1" class="node">
<title>AnnouncementService </title>
<polygon fill="#fb8072" stroke="black" points="196.51,-214.8 49.49,-214.8 49.49,-178.8 196.51,-178.8 196.51,-214.8"/>
<text text-anchor="middle" x="123" y="-192.6" font-family="Times,serif" font-size="14.00">AnnouncementService </text>
</g>
<!-- AnnouncementModule -->
<g id="node2" class="node">
<title>AnnouncementModule</title>
<polygon fill="#8dd3c7" stroke="black" points="195.58,-149.8 192.58,-153.8 171.58,-153.8 168.58,-149.8 50.42,-149.8 50.42,-113.8 195.58,-113.8 195.58,-149.8"/>
<text text-anchor="middle" x="123" y="-127.6" font-family="Times,serif" font-size="14.00">AnnouncementModule</text>
</g>
<!-- AnnouncementModule&#45;&gt;AnnouncementService  -->
<g id="edge1" class="edge">
<title>AnnouncementModule&#45;&gt;AnnouncementService </title>
<path fill="none" stroke="black" stroke-dasharray="5,2" d="M123,-149.91C123,-149.91 123,-168.79 123,-168.79"/>
<polygon fill="black" stroke="black" points="119.5,-168.79 123,-178.79 126.5,-168.79 119.5,-168.79"/>
</g>
<!-- AnnouncementService -->
<g id="node3" class="node">
<title>AnnouncementService</title>
<ellipse fill="#fdb462" stroke="black" cx="123" cy="-66.8" rx="98.98" ry="18"/>
<text text-anchor="middle" x="123" y="-62.6" font-family="Times,serif" font-size="14.00">AnnouncementService</text>
</g>
<!-- AnnouncementService&#45;&gt;AnnouncementModule -->
<g id="edge2" class="edge">
<title>AnnouncementService&#45;&gt;AnnouncementModule</title>
<path fill="none" stroke="black" d="M123,-84.91C123,-84.91 123,-103.79 123,-103.79"/>
<polygon fill="black" stroke="black" points="119.5,-103.79 123,-113.79 126.5,-103.79 119.5,-103.79"/>
</g>
</g>
</svg>
