<?xml version="1.0" encoding="UTF-8" standalone="no"?>
<!DOCTYPE svg PUBLIC "-//W3C//DTD SVG 1.1//EN"
 "http://www.w3.org/Graphics/SVG/1.1/DTD/svg11.dtd">
<!-- Generated by graphviz version 2.47.0 (20210316.0004)
 -->
<!-- Title: dependencies Pages: 1 -->
<svg width="504pt" height="284pt"
 viewBox="0.00 0.00 504.00 284.00" xmlns="http://www.w3.org/2000/svg" xmlns:xlink="http://www.w3.org/1999/xlink">
<g id="graph0" class="graph" transform="scale(1 1) rotate(0) translate(4 280)">
<title>dependencies</title>
<polygon fill="white" stroke="transparent" points="-4,4 -4,-280 500,-280 500,4 -4,4"/>
<text text-anchor="start" x="227.01" y="-42.4" font-family="Times-12" font-weight="bold" font-size="14.00">Legend</text>
<polygon fill="#ffffb3" stroke="transparent" points="14,-10 14,-30 34,-30 34,-10 14,-10"/>
<text text-anchor="start" x="37.63" y="-15.4" font-family="Times-12" font-size="14.00"> &#160;Declarations</text>
<polygon fill="#8dd3c7" stroke="transparent" points="127,-10 127,-30 147,-30 147,-10 127,-10"/>
<text text-anchor="start" x="150.73" y="-15.4" font-family="Times-12" font-size="14.00"> &#160;Module</text>
<polygon fill="#80b1d3" stroke="transparent" points="213,-10 213,-30 233,-30 233,-10 213,-10"/>
<text text-anchor="start" x="236.78" y="-15.4" font-family="Times-12" font-size="14.00"> &#160;Bootstrap</text>
<polygon fill="#fdb462" stroke="transparent" points="310,-10 310,-30 330,-30 330,-10 310,-10"/>
<text text-anchor="start" x="333.67" y="-15.4" font-family="Times-12" font-size="14.00"> &#160;Providers</text>
<polygon fill="#fb8072" stroke="transparent" points="406,-10 406,-30 426,-30 426,-10 406,-10"/>
<text text-anchor="start" x="429.73" y="-15.4" font-family="Times-12" font-size="14.00"> &#160;Exports</text>
<g id="clust1" class="cluster">
<title>cluster_WebhookModule</title>
<polygon fill="none" stroke="black" stroke-dasharray="1,5" points="65,-70 65,-268 431,-268 431,-70 65,-70"/>
</g>
<g id="clust4" class="cluster">
<title>cluster_WebhookModule_exports</title>
<polygon fill="none" stroke="black" points="181,-208 181,-260 313,-260 313,-208 181,-208"/>
</g>
<g id="clust6" class="cluster">
<title>cluster_WebhookModule_providers</title>
<polygon fill="none" stroke="black" points="73,-78 73,-130 423,-130 423,-78 73,-78"/>
</g>
<!-- WebhookService  -->
<g id="node1" class="node">
<title>WebhookService </title>
<polygon fill="#fb8072" stroke="black" points="304.91,-252 189.09,-252 189.09,-216 304.91,-216 304.91,-252"/>
<text text-anchor="middle" x="247" y="-229.8" font-family="Times,serif" font-size="14.00">WebhookService </text>
</g>
<!-- WebhookModule -->
<g id="node2" class="node">
<title>WebhookModule</title>
<polygon fill="#8dd3c7" stroke="black" points="303.98,-187 300.98,-191 279.98,-191 276.98,-187 190.02,-187 190.02,-151 303.98,-151 303.98,-187"/>
<text text-anchor="middle" x="247" y="-164.8" font-family="Times,serif" font-size="14.00">WebhookModule</text>
</g>
<!-- WebhookModule&#45;&gt;WebhookService  -->
<g id="edge1" class="edge">
<title>WebhookModule&#45;&gt;WebhookService </title>
<path fill="none" stroke="black" stroke-dasharray="5,2" d="M247,-187.11C247,-187.11 247,-205.99 247,-205.99"/>
<polygon fill="black" stroke="black" points="243.5,-205.99 247,-215.99 250.5,-205.99 243.5,-205.99"/>
</g>
<!-- WebhookListener -->
<g id="node3" class="node">
<title>WebhookListener</title>
<ellipse fill="#fdb462" stroke="black" cx="335" cy="-104" rx="80.44" ry="18"/>
<text text-anchor="middle" x="335" y="-99.8" font-family="Times,serif" font-size="14.00">WebhookListener</text>
</g>
<!-- WebhookListener&#45;&gt;WebhookModule -->
<g id="edge2" class="edge">
<title>WebhookListener&#45;&gt;WebhookModule</title>
<path fill="none" stroke="black" d="M279.38,-117.15C279.38,-117.15 279.38,-140.69 279.38,-140.69"/>
<polygon fill="black" stroke="black" points="275.88,-140.69 279.38,-150.69 282.88,-140.69 275.88,-140.69"/>
</g>
<!-- WebhookService -->
<g id="node4" class="node">
<title>WebhookService</title>
<ellipse fill="#fdb462" stroke="black" cx="159" cy="-104" rx="77.57" ry="18"/>
<text text-anchor="middle" x="159" y="-99.8" font-family="Times,serif" font-size="14.00">WebhookService</text>
</g>
<!-- WebhookService&#45;&gt;WebhookModule -->
<g id="edge3" class="edge">
<title>WebhookService&#45;&gt;WebhookModule</title>
<path fill="none" stroke="black" d="M213.27,-117.15C213.27,-117.15 213.27,-140.69 213.27,-140.69"/>
<polygon fill="black" stroke="black" points="209.77,-140.69 213.27,-150.69 216.77,-140.69 209.77,-140.69"/>
</g>
</g>
</svg>
