<?xml version="1.0" encoding="UTF-8" standalone="no"?>
<!DOCTYPE svg PUBLIC "-//W3C//DTD SVG 1.1//EN"
 "http://www.w3.org/Graphics/SVG/1.1/DTD/svg11.dtd">
<!-- Generated by graphviz version 2.47.0 (20210316.0004)
 -->
<!-- Title: dependencies Pages: 1 -->
<svg width="512pt" height="284pt"
 viewBox="0.00 0.00 512.00 284.00" xmlns="http://www.w3.org/2000/svg" xmlns:xlink="http://www.w3.org/1999/xlink">
<g id="graph0" class="graph" transform="scale(1 1) rotate(0) translate(4 280)">
<title>dependencies</title>
<polygon fill="white" stroke="transparent" points="-4,4 -4,-280 508,-280 508,4 -4,4"/>
<text text-anchor="start" x="231.01" y="-42.4" font-family="Times-12" font-weight="bold" font-size="14.00">Legend</text>
<polygon fill="#ffffb3" stroke="transparent" points="18,-10 18,-30 38,-30 38,-10 18,-10"/>
<text text-anchor="start" x="41.63" y="-15.4" font-family="Times-12" font-size="14.00"> &#160;Declarations</text>
<polygon fill="#8dd3c7" stroke="transparent" points="131,-10 131,-30 151,-30 151,-10 131,-10"/>
<text text-anchor="start" x="154.73" y="-15.4" font-family="Times-12" font-size="14.00"> &#160;Module</text>
<polygon fill="#80b1d3" stroke="transparent" points="217,-10 217,-30 237,-30 237,-10 217,-10"/>
<text text-anchor="start" x="240.78" y="-15.4" font-family="Times-12" font-size="14.00"> &#160;Bootstrap</text>
<polygon fill="#fdb462" stroke="transparent" points="314,-10 314,-30 334,-30 334,-10 314,-10"/>
<text text-anchor="start" x="337.67" y="-15.4" font-family="Times-12" font-size="14.00"> &#160;Providers</text>
<polygon fill="#fb8072" stroke="transparent" points="410,-10 410,-30 430,-30 430,-10 410,-10"/>
<text text-anchor="start" x="433.73" y="-15.4" font-family="Times-12" font-size="14.00"> &#160;Exports</text>
<g id="clust1" class="cluster">
<title>cluster_WebhookModule</title>
<polygon fill="none" stroke="black" stroke-dasharray="1,5" points="8,-70 8,-268 496,-268 496,-70 8,-70"/>
</g>
<g id="clust3" class="cluster">
<title>cluster_WebhookModule_imports</title>
<polygon fill="none" stroke="black" points="374,-78 374,-130 488,-130 488,-78 374,-78"/>
</g>
<g id="clust4" class="cluster">
<title>cluster_WebhookModule_exports</title>
<polygon fill="none" stroke="black" points="212,-208 212,-260 344,-260 344,-208 212,-208"/>
</g>
<g id="clust6" class="cluster">
<title>cluster_WebhookModule_providers</title>
<polygon fill="none" stroke="black" points="16,-78 16,-130 366,-130 366,-78 16,-78"/>
</g>
<!-- ArticleModule -->
<g id="node1" class="node">
<title>ArticleModule</title>
<polygon fill="#8dd3c7" stroke="black" points="480.42,-122 477.42,-126 456.42,-126 453.42,-122 381.58,-122 381.58,-86 480.42,-86 480.42,-122"/>
<text text-anchor="middle" x="431" y="-99.8" font-family="Times,serif" font-size="14.00">ArticleModule</text>
</g>
<!-- WebhookModule -->
<g id="node2" class="node">
<title>WebhookModule</title>
<polygon fill="#8dd3c7" stroke="black" points="334.98,-187 331.98,-191 310.98,-191 307.98,-187 221.02,-187 221.02,-151 334.98,-151 334.98,-187"/>
<text text-anchor="middle" x="278" y="-164.8" font-family="Times,serif" font-size="14.00">WebhookModule</text>
</g>
<!-- ArticleModule&#45;&gt;WebhookModule -->
<g id="edge1" class="edge">
<title>ArticleModule&#45;&gt;WebhookModule</title>
<path fill="none" stroke="black" d="M431,-122.11C431,-141.34 431,-169 431,-169 431,-169 345.41,-169 345.41,-169"/>
<polygon fill="black" stroke="black" points="345.41,-165.5 335.41,-169 345.41,-172.5 345.41,-165.5"/>
</g>
<!-- WebhookService  -->
<g id="node3" class="node">
<title>WebhookService </title>
<polygon fill="#fb8072" stroke="black" points="335.91,-252 220.09,-252 220.09,-216 335.91,-216 335.91,-252"/>
<text text-anchor="middle" x="278" y="-229.8" font-family="Times,serif" font-size="14.00">WebhookService </text>
</g>
<!-- WebhookModule&#45;&gt;WebhookService  -->
<g id="edge2" class="edge">
<title>WebhookModule&#45;&gt;WebhookService </title>
<path fill="none" stroke="black" stroke-dasharray="5,2" d="M278,-187.11C278,-187.11 278,-205.99 278,-205.99"/>
<polygon fill="black" stroke="black" points="274.5,-205.99 278,-215.99 281.5,-205.99 274.5,-205.99"/>
</g>
<!-- WebhookListener -->
<g id="node4" class="node">
<title>WebhookListener</title>
<ellipse fill="#fdb462" stroke="black" cx="278" cy="-104" rx="80.44" ry="18"/>
<text text-anchor="middle" x="278" y="-99.8" font-family="Times,serif" font-size="14.00">WebhookListener</text>
</g>
<!-- WebhookListener&#45;&gt;WebhookModule -->
<g id="edge3" class="edge">
<title>WebhookListener&#45;&gt;WebhookModule</title>
<path fill="none" stroke="black" d="M278,-122.11C278,-122.11 278,-140.99 278,-140.99"/>
<polygon fill="black" stroke="black" points="274.5,-140.99 278,-150.99 281.5,-140.99 274.5,-140.99"/>
</g>
<!-- WebhookService -->
<g id="node5" class="node">
<title>WebhookService</title>
<ellipse fill="#fdb462" stroke="black" cx="102" cy="-104" rx="77.57" ry="18"/>
<text text-anchor="middle" x="102" y="-99.8" font-family="Times,serif" font-size="14.00">WebhookService</text>
</g>
<!-- WebhookService&#45;&gt;WebhookModule -->
<g id="edge4" class="edge">
<title>WebhookService&#45;&gt;WebhookModule</title>
<path fill="none" stroke="black" d="M102,-122.11C102,-141.34 102,-169 102,-169 102,-169 210.86,-169 210.86,-169"/>
<polygon fill="black" stroke="black" points="210.86,-172.5 220.86,-169 210.86,-165.5 210.86,-172.5"/>
</g>
</g>
</svg>
