<?xml version="1.0" encoding="UTF-8" standalone="no"?>
<!DOCTYPE svg PUBLIC "-//W3C//DTD SVG 1.1//EN"
 "http://www.w3.org/Graphics/SVG/1.1/DTD/svg11.dtd">
<!-- Generated by graphviz version 2.47.0 (20210316.0004)
 -->
<!-- Title: dependencies Pages: 1 -->
<svg width="972pt" height="284pt"
 viewBox="0.00 0.00 972.00 284.00" xmlns="http://www.w3.org/2000/svg" xmlns:xlink="http://www.w3.org/1999/xlink">
<g id="graph0" class="graph" transform="scale(1 1) rotate(0) translate(4 280)">
<title>dependencies</title>
<polygon fill="white" stroke="transparent" points="-4,4 -4,-280 968,-280 968,4 -4,4"/>
<text text-anchor="start" x="461.01" y="-42.4" font-family="Times-12" font-weight="bold" font-size="14.00">Legend</text>
<polygon fill="#ffffb3" stroke="transparent" points="248,-10 248,-30 268,-30 268,-10 248,-10"/>
<text text-anchor="start" x="271.63" y="-15.4" font-family="Times-12" font-size="14.00"> &#160;Declarations</text>
<polygon fill="#8dd3c7" stroke="transparent" points="361,-10 361,-30 381,-30 381,-10 361,-10"/>
<text text-anchor="start" x="384.73" y="-15.4" font-family="Times-12" font-size="14.00"> &#160;Module</text>
<polygon fill="#80b1d3" stroke="transparent" points="447,-10 447,-30 467,-30 467,-10 447,-10"/>
<text text-anchor="start" x="470.78" y="-15.4" font-family="Times-12" font-size="14.00"> &#160;Bootstrap</text>
<polygon fill="#fdb462" stroke="transparent" points="544,-10 544,-30 564,-30 564,-10 544,-10"/>
<text text-anchor="start" x="567.67" y="-15.4" font-family="Times-12" font-size="14.00"> &#160;Providers</text>
<polygon fill="#fb8072" stroke="transparent" points="640,-10 640,-30 660,-30 660,-10 640,-10"/>
<text text-anchor="start" x="663.73" y="-15.4" font-family="Times-12" font-size="14.00"> &#160;Exports</text>
<g id="clust1" class="cluster">
<title>cluster_ExtensionModule</title>
<polygon fill="none" stroke="black" stroke-dasharray="1,5" points="8,-70 8,-268 956,-268 956,-70 8,-70"/>
</g>
<g id="clust3" class="cluster">
<title>cluster_ExtensionModule_imports</title>
<polygon fill="none" stroke="black" points="366,-78 366,-130 948,-130 948,-78 366,-78"/>
</g>
<g id="clust4" class="cluster">
<title>cluster_ExtensionModule_exports</title>
<polygon fill="none" stroke="black" points="392,-208 392,-260 656,-260 656,-208 392,-208"/>
</g>
<g id="clust6" class="cluster">
<title>cluster_ExtensionModule_providers</title>
<polygon fill="none" stroke="black" points="16,-78 16,-130 358,-130 358,-78 16,-78"/>
</g>
<!-- ArticleModule -->
<g id="node1" class="node">
<title>ArticleModule</title>
<polygon fill="#8dd3c7" stroke="black" points="940.42,-122 937.42,-126 916.42,-126 913.42,-122 841.58,-122 841.58,-86 940.42,-86 940.42,-122"/>
<text text-anchor="middle" x="891" y="-99.8" font-family="Times,serif" font-size="14.00">ArticleModule</text>
</g>
<!-- ExtensionModule -->
<g id="node6" class="node">
<title>ExtensionModule</title>
<polygon fill="#8dd3c7" stroke="black" points="576.54,-187 573.54,-191 552.54,-191 549.54,-187 461.46,-187 461.46,-151 576.54,-151 576.54,-187"/>
<text text-anchor="middle" x="519" y="-164.8" font-family="Times,serif" font-size="14.00">ExtensionModule</text>
</g>
<!-- ArticleModule&#45;&gt;ExtensionModule -->
<g id="edge1" class="edge">
<title>ArticleModule&#45;&gt;ExtensionModule</title>
<path fill="none" stroke="black" d="M891,-122.28C891,-143.32 891,-175 891,-175 891,-175 586.72,-175 586.72,-175"/>
<polygon fill="black" stroke="black" points="586.72,-171.5 576.72,-175 586.72,-178.5 586.72,-171.5"/>
</g>
<!-- CommentModule -->
<g id="node2" class="node">
<title>CommentModule</title>
<polygon fill="#8dd3c7" stroke="black" points="823.27,-122 820.27,-126 799.27,-126 796.27,-122 708.73,-122 708.73,-86 823.27,-86 823.27,-122"/>
<text text-anchor="middle" x="766" y="-99.8" font-family="Times,serif" font-size="14.00">CommentModule</text>
</g>
<!-- CommentModule&#45;&gt;ExtensionModule -->
<g id="edge2" class="edge">
<title>CommentModule&#45;&gt;ExtensionModule</title>
<path fill="none" stroke="black" d="M766,-122.02C766,-139.37 766,-163 766,-163 766,-163 586.6,-163 586.6,-163"/>
<polygon fill="black" stroke="black" points="586.6,-159.5 576.6,-163 586.6,-166.5 586.6,-159.5"/>
</g>
<!-- FeedbackModule -->
<g id="node3" class="node">
<title>FeedbackModule</title>
<polygon fill="#8dd3c7" stroke="black" points="690.69,-122 687.69,-126 666.69,-126 663.69,-122 577.31,-122 577.31,-86 690.69,-86 690.69,-122"/>
<text text-anchor="middle" x="634" y="-99.8" font-family="Times,serif" font-size="14.00">FeedbackModule</text>
</g>
<!-- FeedbackModule&#45;&gt;ExtensionModule -->
<g id="edge3" class="edge">
<title>FeedbackModule&#45;&gt;ExtensionModule</title>
<path fill="none" stroke="black" d="M577.36,-104C571.83,-104 568.21,-104 568.21,-104 568.21,-104 568.21,-140.89 568.21,-140.89"/>
<polygon fill="black" stroke="black" points="564.72,-140.89 568.21,-150.89 571.72,-140.89 564.72,-140.89"/>
</g>
<!-- TagModule -->
<g id="node4" class="node">
<title>TagModule</title>
<polygon fill="#8dd3c7" stroke="black" points="559.82,-122 556.82,-126 535.82,-126 532.82,-122 478.18,-122 478.18,-86 559.82,-86 559.82,-122"/>
<text text-anchor="middle" x="519" y="-99.8" font-family="Times,serif" font-size="14.00">TagModule</text>
</g>
<!-- TagModule&#45;&gt;ExtensionModule -->
<g id="edge4" class="edge">
<title>TagModule&#45;&gt;ExtensionModule</title>
<path fill="none" stroke="black" d="M519,-122.11C519,-122.11 519,-140.99 519,-140.99"/>
<polygon fill="black" stroke="black" points="515.5,-140.99 519,-150.99 522.5,-140.99 515.5,-140.99"/>
</g>
<!-- VoteModule -->
<g id="node5" class="node">
<title>VoteModule</title>
<polygon fill="#8dd3c7" stroke="black" points="460.26,-122 457.26,-126 436.26,-126 433.26,-122 373.74,-122 373.74,-86 460.26,-86 460.26,-122"/>
<text text-anchor="middle" x="417" y="-99.8" font-family="Times,serif" font-size="14.00">VoteModule</text>
</g>
<!-- VoteModule&#45;&gt;ExtensionModule -->
<g id="edge5" class="edge">
<title>VoteModule&#45;&gt;ExtensionModule</title>
<path fill="none" stroke="black" d="M460.59,-104C466.06,-104 469.79,-104 469.79,-104 469.79,-104 469.79,-140.89 469.79,-140.89"/>
<polygon fill="black" stroke="black" points="466.29,-140.89 469.79,-150.89 473.29,-140.89 466.29,-140.89"/>
</g>
<!-- DBBackupService  -->
<g id="node7" class="node">
<title>DBBackupService </title>
<polygon fill="#fb8072" stroke="black" points="647.69,-252 524.31,-252 524.31,-216 647.69,-216 647.69,-252"/>
<text text-anchor="middle" x="586" y="-229.8" font-family="Times,serif" font-size="14.00">DBBackupService </text>
</g>
<!-- ExtensionModule&#45;&gt;DBBackupService  -->
<g id="edge6" class="edge">
<title>ExtensionModule&#45;&gt;DBBackupService </title>
<path fill="none" stroke="black" stroke-dasharray="5,2" d="M550.46,-187.11C550.46,-187.11 550.46,-205.99 550.46,-205.99"/>
<polygon fill="black" stroke="black" points="546.96,-205.99 550.46,-215.99 553.96,-205.99 546.96,-205.99"/>
</g>
<!-- StatisticService  -->
<g id="node8" class="node">
<title>StatisticService </title>
<polygon fill="#fb8072" stroke="black" points="506.09,-252 399.91,-252 399.91,-216 506.09,-216 506.09,-252"/>
<text text-anchor="middle" x="453" y="-229.8" font-family="Times,serif" font-size="14.00">StatisticService </text>
</g>
<!-- ExtensionModule&#45;&gt;StatisticService  -->
<g id="edge7" class="edge">
<title>ExtensionModule&#45;&gt;StatisticService </title>
<path fill="none" stroke="black" stroke-dasharray="5,2" d="M483.76,-187.11C483.76,-187.11 483.76,-205.99 483.76,-205.99"/>
<polygon fill="black" stroke="black" points="480.26,-205.99 483.76,-215.99 487.26,-205.99 480.26,-205.99"/>
</g>
<!-- DBBackupService -->
<g id="node9" class="node">
<title>DBBackupService</title>
<ellipse fill="#fdb462" stroke="black" cx="267" cy="-104" rx="82.81" ry="18"/>
<text text-anchor="middle" x="267" y="-99.8" font-family="Times,serif" font-size="14.00">DBBackupService</text>
</g>
<!-- DBBackupService&#45;&gt;ExtensionModule -->
<g id="edge8" class="edge">
<title>DBBackupService&#45;&gt;ExtensionModule</title>
<path fill="none" stroke="black" d="M267,-122.02C267,-139.37 267,-163 267,-163 267,-163 451.19,-163 451.19,-163"/>
<polygon fill="black" stroke="black" points="451.19,-166.5 461.19,-163 451.19,-159.5 451.19,-166.5"/>
</g>
<!-- StatisticService -->
<g id="node10" class="node">
<title>StatisticService</title>
<ellipse fill="#fdb462" stroke="black" cx="95" cy="-104" rx="71.22" ry="18"/>
<text text-anchor="middle" x="95" y="-99.8" font-family="Times,serif" font-size="14.00">StatisticService</text>
</g>
<!-- StatisticService&#45;&gt;ExtensionModule -->
<g id="edge9" class="edge">
<title>StatisticService&#45;&gt;ExtensionModule</title>
<path fill="none" stroke="black" d="M95,-122.28C95,-143.32 95,-175 95,-175 95,-175 451.38,-175 451.38,-175"/>
<polygon fill="black" stroke="black" points="451.38,-178.5 461.38,-175 451.38,-171.5 451.38,-178.5"/>
</g>
</g>
</svg>
