<?xml version="1.0" encoding="UTF-8" standalone="no"?>
<!DOCTYPE svg PUBLIC "-//W3C//DTD SVG 1.1//EN"
 "http://www.w3.org/Graphics/SVG/1.1/DTD/svg11.dtd">
<!-- Generated by graphviz version 2.47.3 (20210619.1520)
 -->
<!-- Title: dependencies Pages: 1 -->
<svg width="868pt" height="247pt"
 viewBox="0.00 0.00 868.00 246.80" xmlns="http://www.w3.org/2000/svg" xmlns:xlink="http://www.w3.org/1999/xlink">
<g id="graph0" class="graph" transform="scale(1 1) rotate(0) translate(4 242.8)">
<title>dependencies</title>
<polygon fill="white" stroke="transparent" points="-4,4 -4,-242.8 864,-242.8 864,4 -4,4"/>
<text text-anchor="middle" x="430" y="-8.2" font-family="sans-serif" font-size="14.00">dependencies</text>
<g id="clust1" class="cluster">
<title>cluster_ExpansionModule</title>
<polygon fill="none" stroke="black" stroke-dasharray="1,5" points="8,-32.8 8,-230.8 852,-230.8 852,-32.8 8,-32.8"/>
</g>
<g id="clust4" class="cluster">
<title>cluster_ExpansionModule_exports</title>
<polygon fill="none" stroke="black" points="345,-170.8 345,-222.8 609,-222.8 609,-170.8 345,-170.8"/>
</g>
<g id="clust3" class="cluster">
<title>cluster_ExpansionModule_imports</title>
<polygon fill="none" stroke="black" points="366,-40.8 366,-92.8 844,-92.8 844,-40.8 366,-40.8"/>
</g>
<g id="clust6" class="cluster">
<title>cluster_ExpansionModule_providers</title>
<polygon fill="none" stroke="black" points="16,-40.8 16,-92.8 358,-92.8 358,-40.8 16,-40.8"/>
</g>
<!-- ArticleModule -->
<g id="node1" class="node">
<title>ArticleModule</title>
<polygon fill="#8dd3c7" stroke="black" points="836.42,-84.8 833.42,-88.8 812.42,-88.8 809.42,-84.8 737.58,-84.8 737.58,-48.8 836.42,-48.8 836.42,-84.8"/>
<text text-anchor="middle" x="787" y="-62.6" font-family="Times,serif" font-size="14.00">ArticleModule</text>
</g>
<!-- ExpansionModule -->
<g id="node5" class="node">
<title>ExpansionModule</title>
<polygon fill="#8dd3c7" stroke="black" points="531.15,-149.8 528.15,-153.8 507.15,-153.8 504.15,-149.8 412.85,-149.8 412.85,-113.8 531.15,-113.8 531.15,-149.8"/>
<text text-anchor="middle" x="472" y="-127.6" font-family="Times,serif" font-size="14.00">ExpansionModule</text>
</g>
<!-- ArticleModule&#45;&gt;ExpansionModule -->
<g id="edge1" class="edge">
<title>ArticleModule&#45;&gt;ExpansionModule</title>
<path fill="none" stroke="black" d="M787,-85.08C787,-106.12 787,-137.8 787,-137.8 787,-137.8 541.25,-137.8 541.25,-137.8"/>
<polygon fill="black" stroke="black" points="541.25,-134.3 531.25,-137.8 541.25,-141.3 541.25,-134.3"/>
</g>
<!-- CommentModule -->
<g id="node2" class="node">
<title>CommentModule</title>
<polygon fill="#8dd3c7" stroke="black" points="719.27,-84.8 716.27,-88.8 695.27,-88.8 692.27,-84.8 604.73,-84.8 604.73,-48.8 719.27,-48.8 719.27,-84.8"/>
<text text-anchor="middle" x="662" y="-62.6" font-family="Times,serif" font-size="14.00">CommentModule</text>
</g>
<!-- CommentModule&#45;&gt;ExpansionModule -->
<g id="edge2" class="edge">
<title>CommentModule&#45;&gt;ExpansionModule</title>
<path fill="none" stroke="black" d="M662,-84.82C662,-102.17 662,-125.8 662,-125.8 662,-125.8 541.34,-125.8 541.34,-125.8"/>
<polygon fill="black" stroke="black" points="541.34,-122.3 531.34,-125.8 541.34,-129.3 541.34,-122.3"/>
</g>
<!-- FeedbackModule -->
<g id="node3" class="node">
<title>FeedbackModule</title>
<polygon fill="#8dd3c7" stroke="black" points="586.69,-84.8 583.69,-88.8 562.69,-88.8 559.69,-84.8 473.31,-84.8 473.31,-48.8 586.69,-48.8 586.69,-84.8"/>
<text text-anchor="middle" x="530" y="-62.6" font-family="Times,serif" font-size="14.00">FeedbackModule</text>
</g>
<!-- FeedbackModule&#45;&gt;ExpansionModule -->
<g id="edge3" class="edge">
<title>FeedbackModule&#45;&gt;ExpansionModule</title>
<path fill="none" stroke="black" d="M502.37,-84.91C502.37,-84.91 502.37,-103.79 502.37,-103.79"/>
<polygon fill="black" stroke="black" points="498.87,-103.79 502.37,-113.79 505.87,-103.79 498.87,-103.79"/>
</g>
<!-- TagModule -->
<g id="node4" class="node">
<title>TagModule</title>
<polygon fill="#8dd3c7" stroke="black" points="455.82,-84.8 452.82,-88.8 431.82,-88.8 428.82,-84.8 374.18,-84.8 374.18,-48.8 455.82,-48.8 455.82,-84.8"/>
<text text-anchor="middle" x="415" y="-62.6" font-family="Times,serif" font-size="14.00">TagModule</text>
</g>
<!-- TagModule&#45;&gt;ExpansionModule -->
<g id="edge4" class="edge">
<title>TagModule&#45;&gt;ExpansionModule</title>
<path fill="none" stroke="black" d="M434.17,-84.91C434.17,-84.91 434.17,-103.79 434.17,-103.79"/>
<polygon fill="black" stroke="black" points="430.67,-103.79 434.17,-113.79 437.67,-103.79 430.67,-103.79"/>
</g>
<!-- DBBackupService  -->
<g id="node6" class="node">
<title>DBBackupService </title>
<polygon fill="#fb8072" stroke="black" points="600.69,-214.8 477.31,-214.8 477.31,-178.8 600.69,-178.8 600.69,-214.8"/>
<text text-anchor="middle" x="539" y="-192.6" font-family="Times,serif" font-size="14.00">DBBackupService </text>
</g>
<!-- ExpansionModule&#45;&gt;DBBackupService  -->
<g id="edge5" class="edge">
<title>ExpansionModule&#45;&gt;DBBackupService </title>
<path fill="none" stroke="black" stroke-dasharray="5,2" d="M504.24,-149.91C504.24,-149.91 504.24,-168.79 504.24,-168.79"/>
<polygon fill="black" stroke="black" points="500.74,-168.79 504.24,-178.79 507.74,-168.79 500.74,-168.79"/>
</g>
<!-- StatisticService  -->
<g id="node7" class="node">
<title>StatisticService </title>
<polygon fill="#fb8072" stroke="black" points="459.09,-214.8 352.91,-214.8 352.91,-178.8 459.09,-178.8 459.09,-214.8"/>
<text text-anchor="middle" x="406" y="-192.6" font-family="Times,serif" font-size="14.00">StatisticService </text>
</g>
<!-- ExpansionModule&#45;&gt;StatisticService  -->
<g id="edge6" class="edge">
<title>ExpansionModule&#45;&gt;StatisticService </title>
<path fill="none" stroke="black" stroke-dasharray="5,2" d="M435.98,-149.91C435.98,-149.91 435.98,-168.79 435.98,-168.79"/>
<polygon fill="black" stroke="black" points="432.48,-168.79 435.98,-178.79 439.48,-168.79 432.48,-168.79"/>
</g>
<!-- DBBackupService -->
<g id="node8" class="node">
<title>DBBackupService</title>
<ellipse fill="#fdb462" stroke="black" cx="267" cy="-66.8" rx="82.81" ry="18"/>
<text text-anchor="middle" x="267" y="-62.6" font-family="Times,serif" font-size="14.00">DBBackupService</text>
</g>
<!-- DBBackupService&#45;&gt;ExpansionModule -->
<g id="edge7" class="edge">
<title>DBBackupService&#45;&gt;ExpansionModule</title>
<path fill="none" stroke="black" d="M267,-84.82C267,-102.17 267,-125.8 267,-125.8 267,-125.8 402.71,-125.8 402.71,-125.8"/>
<polygon fill="black" stroke="black" points="402.71,-129.3 412.71,-125.8 402.71,-122.3 402.71,-129.3"/>
</g>
<!-- StatisticService -->
<g id="node9" class="node">
<title>StatisticService</title>
<ellipse fill="#fdb462" stroke="black" cx="95" cy="-66.8" rx="71.22" ry="18"/>
<text text-anchor="middle" x="95" y="-62.6" font-family="Times,serif" font-size="14.00">StatisticService</text>
</g>
<!-- StatisticService&#45;&gt;ExpansionModule -->
<g id="edge8" class="edge">
<title>StatisticService&#45;&gt;ExpansionModule</title>
<path fill="none" stroke="black" d="M95,-85.08C95,-106.12 95,-137.8 95,-137.8 95,-137.8 402.68,-137.8 402.68,-137.8"/>
<polygon fill="black" stroke="black" points="402.68,-141.3 412.68,-137.8 402.68,-134.3 402.68,-141.3"/>
</g>
</g>
</svg>
