<?xml version="1.0" encoding="UTF-8" standalone="no"?>
<!DOCTYPE svg PUBLIC "-//W3C//DTD SVG 1.1//EN"
 "http://www.w3.org/Graphics/SVG/1.1/DTD/svg11.dtd">
<!-- Generated by graphviz version 2.47.0 (20210316.0004)
 -->
<!-- Title: dependencies Pages: 1 -->
<svg width="868pt" height="284pt"
 viewBox="0.00 0.00 868.00 284.00" xmlns="http://www.w3.org/2000/svg" xmlns:xlink="http://www.w3.org/1999/xlink">
<g id="graph0" class="graph" transform="scale(1 1) rotate(0) translate(4 280)">
<title>dependencies</title>
<polygon fill="white" stroke="transparent" points="-4,4 -4,-280 864,-280 864,4 -4,4"/>
<text text-anchor="start" x="409.01" y="-42.4" font-family="Times-12" font-weight="bold" font-size="14.00">Legend</text>
<polygon fill="#ffffb3" stroke="transparent" points="196,-10 196,-30 216,-30 216,-10 196,-10"/>
<text text-anchor="start" x="219.63" y="-15.4" font-family="Times-12" font-size="14.00"> &#160;Declarations</text>
<polygon fill="#8dd3c7" stroke="transparent" points="309,-10 309,-30 329,-30 329,-10 309,-10"/>
<text text-anchor="start" x="332.73" y="-15.4" font-family="Times-12" font-size="14.00"> &#160;Module</text>
<polygon fill="#80b1d3" stroke="transparent" points="395,-10 395,-30 415,-30 415,-10 395,-10"/>
<text text-anchor="start" x="418.78" y="-15.4" font-family="Times-12" font-size="14.00"> &#160;Bootstrap</text>
<polygon fill="#fdb462" stroke="transparent" points="492,-10 492,-30 512,-30 512,-10 492,-10"/>
<text text-anchor="start" x="515.67" y="-15.4" font-family="Times-12" font-size="14.00"> &#160;Providers</text>
<polygon fill="#fb8072" stroke="transparent" points="588,-10 588,-30 608,-30 608,-10 588,-10"/>
<text text-anchor="start" x="611.73" y="-15.4" font-family="Times-12" font-size="14.00"> &#160;Exports</text>
<g id="clust1" class="cluster">
<title>cluster_ExpansionModule</title>
<polygon fill="none" stroke="black" stroke-dasharray="1,5" points="8,-70 8,-268 852,-268 852,-70 8,-70"/>
</g>
<g id="clust4" class="cluster">
<title>cluster_ExpansionModule_exports</title>
<polygon fill="none" stroke="black" points="345,-208 345,-260 609,-260 609,-208 345,-208"/>
</g>
<g id="clust3" class="cluster">
<title>cluster_ExpansionModule_imports</title>
<polygon fill="none" stroke="black" points="366,-78 366,-130 844,-130 844,-78 366,-78"/>
</g>
<g id="clust6" class="cluster">
<title>cluster_ExpansionModule_providers</title>
<polygon fill="none" stroke="black" points="16,-78 16,-130 358,-130 358,-78 16,-78"/>
</g>
<!-- ArticleModule -->
<g id="node1" class="node">
<title>ArticleModule</title>
<polygon fill="#8dd3c7" stroke="black" points="836.42,-122 833.42,-126 812.42,-126 809.42,-122 737.58,-122 737.58,-86 836.42,-86 836.42,-122"/>
<text text-anchor="middle" x="787" y="-99.8" font-family="Times,serif" font-size="14.00">ArticleModule</text>
</g>
<!-- ExpansionModule -->
<g id="node5" class="node">
<title>ExpansionModule</title>
<polygon fill="#8dd3c7" stroke="black" points="531.15,-187 528.15,-191 507.15,-191 504.15,-187 412.85,-187 412.85,-151 531.15,-151 531.15,-187"/>
<text text-anchor="middle" x="472" y="-164.8" font-family="Times,serif" font-size="14.00">ExpansionModule</text>
</g>
<!-- ArticleModule&#45;&gt;ExpansionModule -->
<g id="edge1" class="edge">
<title>ArticleModule&#45;&gt;ExpansionModule</title>
<path fill="none" stroke="black" d="M787,-122.28C787,-143.32 787,-175 787,-175 787,-175 541.25,-175 541.25,-175"/>
<polygon fill="black" stroke="black" points="541.25,-171.5 531.25,-175 541.25,-178.5 541.25,-171.5"/>
</g>
<!-- CommentModule -->
<g id="node2" class="node">
<title>CommentModule</title>
<polygon fill="#8dd3c7" stroke="black" points="719.27,-122 716.27,-126 695.27,-126 692.27,-122 604.73,-122 604.73,-86 719.27,-86 719.27,-122"/>
<text text-anchor="middle" x="662" y="-99.8" font-family="Times,serif" font-size="14.00">CommentModule</text>
</g>
<!-- CommentModule&#45;&gt;ExpansionModule -->
<g id="edge2" class="edge">
<title>CommentModule&#45;&gt;ExpansionModule</title>
<path fill="none" stroke="black" d="M662,-122.02C662,-139.37 662,-163 662,-163 662,-163 541.34,-163 541.34,-163"/>
<polygon fill="black" stroke="black" points="541.34,-159.5 531.34,-163 541.34,-166.5 541.34,-159.5"/>
</g>
<!-- FeedbackModule -->
<g id="node3" class="node">
<title>FeedbackModule</title>
<polygon fill="#8dd3c7" stroke="black" points="586.69,-122 583.69,-126 562.69,-126 559.69,-122 473.31,-122 473.31,-86 586.69,-86 586.69,-122"/>
<text text-anchor="middle" x="530" y="-99.8" font-family="Times,serif" font-size="14.00">FeedbackModule</text>
</g>
<!-- FeedbackModule&#45;&gt;ExpansionModule -->
<g id="edge3" class="edge">
<title>FeedbackModule&#45;&gt;ExpansionModule</title>
<path fill="none" stroke="black" d="M502.37,-122.11C502.37,-122.11 502.37,-140.99 502.37,-140.99"/>
<polygon fill="black" stroke="black" points="498.87,-140.99 502.37,-150.99 505.87,-140.99 498.87,-140.99"/>
</g>
<!-- TagModule -->
<g id="node4" class="node">
<title>TagModule</title>
<polygon fill="#8dd3c7" stroke="black" points="455.82,-122 452.82,-126 431.82,-126 428.82,-122 374.18,-122 374.18,-86 455.82,-86 455.82,-122"/>
<text text-anchor="middle" x="415" y="-99.8" font-family="Times,serif" font-size="14.00">TagModule</text>
</g>
<!-- TagModule&#45;&gt;ExpansionModule -->
<g id="edge4" class="edge">
<title>TagModule&#45;&gt;ExpansionModule</title>
<path fill="none" stroke="black" d="M434.17,-122.11C434.17,-122.11 434.17,-140.99 434.17,-140.99"/>
<polygon fill="black" stroke="black" points="430.67,-140.99 434.17,-150.99 437.67,-140.99 430.67,-140.99"/>
</g>
<!-- DBBackupService  -->
<g id="node6" class="node">
<title>DBBackupService </title>
<polygon fill="#fb8072" stroke="black" points="600.69,-252 477.31,-252 477.31,-216 600.69,-216 600.69,-252"/>
<text text-anchor="middle" x="539" y="-229.8" font-family="Times,serif" font-size="14.00">DBBackupService </text>
</g>
<!-- ExpansionModule&#45;&gt;DBBackupService  -->
<g id="edge5" class="edge">
<title>ExpansionModule&#45;&gt;DBBackupService </title>
<path fill="none" stroke="black" stroke-dasharray="5,2" d="M504.24,-187.11C504.24,-187.11 504.24,-205.99 504.24,-205.99"/>
<polygon fill="black" stroke="black" points="500.74,-205.99 504.24,-215.99 507.74,-205.99 500.74,-205.99"/>
</g>
<!-- StatisticService  -->
<g id="node7" class="node">
<title>StatisticService </title>
<polygon fill="#fb8072" stroke="black" points="459.09,-252 352.91,-252 352.91,-216 459.09,-216 459.09,-252"/>
<text text-anchor="middle" x="406" y="-229.8" font-family="Times,serif" font-size="14.00">StatisticService </text>
</g>
<!-- ExpansionModule&#45;&gt;StatisticService  -->
<g id="edge6" class="edge">
<title>ExpansionModule&#45;&gt;StatisticService </title>
<path fill="none" stroke="black" stroke-dasharray="5,2" d="M435.98,-187.11C435.98,-187.11 435.98,-205.99 435.98,-205.99"/>
<polygon fill="black" stroke="black" points="432.48,-205.99 435.98,-215.99 439.48,-205.99 432.48,-205.99"/>
</g>
<!-- DBBackupService -->
<g id="node8" class="node">
<title>DBBackupService</title>
<ellipse fill="#fdb462" stroke="black" cx="267" cy="-104" rx="82.81" ry="18"/>
<text text-anchor="middle" x="267" y="-99.8" font-family="Times,serif" font-size="14.00">DBBackupService</text>
</g>
<!-- DBBackupService&#45;&gt;ExpansionModule -->
<g id="edge7" class="edge">
<title>DBBackupService&#45;&gt;ExpansionModule</title>
<path fill="none" stroke="black" d="M267,-122.02C267,-139.37 267,-163 267,-163 267,-163 402.71,-163 402.71,-163"/>
<polygon fill="black" stroke="black" points="402.71,-166.5 412.71,-163 402.71,-159.5 402.71,-166.5"/>
</g>
<!-- StatisticService -->
<g id="node9" class="node">
<title>StatisticService</title>
<ellipse fill="#fdb462" stroke="black" cx="95" cy="-104" rx="71.22" ry="18"/>
<text text-anchor="middle" x="95" y="-99.8" font-family="Times,serif" font-size="14.00">StatisticService</text>
</g>
<!-- StatisticService&#45;&gt;ExpansionModule -->
<g id="edge8" class="edge">
<title>StatisticService&#45;&gt;ExpansionModule</title>
<path fill="none" stroke="black" d="M95,-122.28C95,-143.32 95,-175 95,-175 95,-175 402.68,-175 402.68,-175"/>
<polygon fill="black" stroke="black" points="402.68,-178.5 412.68,-175 402.68,-171.5 402.68,-178.5"/>
</g>
</g>
</svg>
