<?xml version="1.0" encoding="UTF-8" standalone="no"?>
<!DOCTYPE svg PUBLIC "-//W3C//DTD SVG 1.1//EN"
 "http://www.w3.org/Graphics/SVG/1.1/DTD/svg11.dtd">
<!-- Generated by graphviz version 2.47.3 (20210619.1520)
 -->
<!-- Title: dependencies Pages: 1 -->
<svg width="868pt" height="247pt"
 viewBox="0.00 0.00 868.00 246.80" xmlns="http://www.w3.org/2000/svg" xmlns:xlink="http://www.w3.org/1999/xlink">
<g id="graph0" class="graph" transform="scale(1 1) rotate(0) translate(4 242.8)">
<title>dependencies</title>
<polygon fill="white" stroke="transparent" points="-4,4 -4,-242.8 864,-242.8 864,4 -4,4"/>
<text text-anchor="middle" x="430" y="-8.2" font-family="sans-serif" font-size="14.00">dependencies</text>
<g id="clust1" class="cluster">
<title>cluster_ExpansionModule</title>
<polygon fill="none" stroke="black" stroke-dasharray="1,5" points="8,-32.8 8,-230.8 852,-230.8 852,-32.8 8,-32.8"/>
</g>
<g id="clust4" class="cluster">
<title>cluster_ExpansionModule_exports</title>
<polygon fill="none" stroke="black" points="247,-170.8 247,-222.8 511,-222.8 511,-170.8 247,-170.8"/>
</g>
<g id="clust6" class="cluster">
<title>cluster_ExpansionModule_providers</title>
<polygon fill="none" stroke="black" points="502,-40.8 502,-92.8 844,-92.8 844,-40.8 502,-40.8"/>
</g>
<g id="clust3" class="cluster">
<title>cluster_ExpansionModule_imports</title>
<polygon fill="none" stroke="black" points="16,-40.8 16,-92.8 494,-92.8 494,-40.8 16,-40.8"/>
</g>
<!-- ArticleModule -->
<g id="node1" class="node">
<title>ArticleModule</title>
<polygon fill="#8dd3c7" stroke="black" points="486.42,-84.8 483.42,-88.8 462.42,-88.8 459.42,-84.8 387.58,-84.8 387.58,-48.8 486.42,-48.8 486.42,-84.8"/>
<text text-anchor="middle" x="437" y="-62.6" font-family="Times,serif" font-size="14.00">ArticleModule</text>
</g>
<!-- ExpansionModule -->
<g id="node5" class="node">
<title>ExpansionModule</title>
<polygon fill="#8dd3c7" stroke="black" points="433.15,-149.8 430.15,-153.8 409.15,-153.8 406.15,-149.8 314.85,-149.8 314.85,-113.8 433.15,-113.8 433.15,-149.8"/>
<text text-anchor="middle" x="374" y="-127.6" font-family="Times,serif" font-size="14.00">ExpansionModule</text>
</g>
<!-- ArticleModule&#45;&gt;ExpansionModule -->
<g id="edge1" class="edge">
<title>ArticleModule&#45;&gt;ExpansionModule</title>
<path fill="none" stroke="black" d="M410.56,-84.91C410.56,-84.91 410.56,-103.79 410.56,-103.79"/>
<polygon fill="black" stroke="black" points="407.06,-103.79 410.56,-113.79 414.06,-103.79 407.06,-103.79"/>
</g>
<!-- CommentModule -->
<g id="node2" class="node">
<title>CommentModule</title>
<polygon fill="#8dd3c7" stroke="black" points="369.27,-84.8 366.27,-88.8 345.27,-88.8 342.27,-84.8 254.73,-84.8 254.73,-48.8 369.27,-48.8 369.27,-84.8"/>
<text text-anchor="middle" x="312" y="-62.6" font-family="Times,serif" font-size="14.00">CommentModule</text>
</g>
<!-- CommentModule&#45;&gt;ExpansionModule -->
<g id="edge2" class="edge">
<title>CommentModule&#45;&gt;ExpansionModule</title>
<path fill="none" stroke="black" d="M342.03,-84.91C342.03,-84.91 342.03,-103.79 342.03,-103.79"/>
<polygon fill="black" stroke="black" points="338.53,-103.79 342.03,-113.79 345.53,-103.79 338.53,-103.79"/>
</g>
<!-- FeedbackModule -->
<g id="node3" class="node">
<title>FeedbackModule</title>
<polygon fill="#8dd3c7" stroke="black" points="236.69,-84.8 233.69,-88.8 212.69,-88.8 209.69,-84.8 123.31,-84.8 123.31,-48.8 236.69,-48.8 236.69,-84.8"/>
<text text-anchor="middle" x="180" y="-62.6" font-family="Times,serif" font-size="14.00">FeedbackModule</text>
</g>
<!-- FeedbackModule&#45;&gt;ExpansionModule -->
<g id="edge3" class="edge">
<title>FeedbackModule&#45;&gt;ExpansionModule</title>
<path fill="none" stroke="black" d="M180,-84.82C180,-102.17 180,-125.8 180,-125.8 180,-125.8 304.74,-125.8 304.74,-125.8"/>
<polygon fill="black" stroke="black" points="304.74,-129.3 314.74,-125.8 304.74,-122.3 304.74,-129.3"/>
</g>
<!-- TagModule -->
<g id="node4" class="node">
<title>TagModule</title>
<polygon fill="#8dd3c7" stroke="black" points="105.82,-84.8 102.82,-88.8 81.82,-88.8 78.82,-84.8 24.18,-84.8 24.18,-48.8 105.82,-48.8 105.82,-84.8"/>
<text text-anchor="middle" x="65" y="-62.6" font-family="Times,serif" font-size="14.00">TagModule</text>
</g>
<!-- TagModule&#45;&gt;ExpansionModule -->
<g id="edge4" class="edge">
<title>TagModule&#45;&gt;ExpansionModule</title>
<path fill="none" stroke="black" d="M65,-85.08C65,-106.12 65,-137.8 65,-137.8 65,-137.8 304.79,-137.8 304.79,-137.8"/>
<polygon fill="black" stroke="black" points="304.79,-141.3 314.79,-137.8 304.79,-134.3 304.79,-141.3"/>
</g>
<!-- DBBackupService  -->
<g id="node6" class="node">
<title>DBBackupService </title>
<polygon fill="#fb8072" stroke="black" points="502.69,-214.8 379.31,-214.8 379.31,-178.8 502.69,-178.8 502.69,-214.8"/>
<text text-anchor="middle" x="441" y="-192.6" font-family="Times,serif" font-size="14.00">DBBackupService </text>
</g>
<!-- ExpansionModule&#45;&gt;DBBackupService  -->
<g id="edge5" class="edge">
<title>ExpansionModule&#45;&gt;DBBackupService </title>
<path fill="none" stroke="black" stroke-dasharray="5,2" d="M406.24,-149.91C406.24,-149.91 406.24,-168.79 406.24,-168.79"/>
<polygon fill="black" stroke="black" points="402.74,-168.79 406.24,-178.79 409.74,-168.79 402.74,-168.79"/>
</g>
<!-- StatisticService  -->
<g id="node7" class="node">
<title>StatisticService </title>
<polygon fill="#fb8072" stroke="black" points="361.09,-214.8 254.91,-214.8 254.91,-178.8 361.09,-178.8 361.09,-214.8"/>
<text text-anchor="middle" x="308" y="-192.6" font-family="Times,serif" font-size="14.00">StatisticService </text>
</g>
<!-- ExpansionModule&#45;&gt;StatisticService  -->
<g id="edge6" class="edge">
<title>ExpansionModule&#45;&gt;StatisticService </title>
<path fill="none" stroke="black" stroke-dasharray="5,2" d="M337.98,-149.91C337.98,-149.91 337.98,-168.79 337.98,-168.79"/>
<polygon fill="black" stroke="black" points="334.48,-168.79 337.98,-178.79 341.48,-168.79 334.48,-168.79"/>
</g>
<!-- DBBackupService -->
<g id="node8" class="node">
<title>DBBackupService</title>
<ellipse fill="#fdb462" stroke="black" cx="753" cy="-66.8" rx="82.81" ry="18"/>
<text text-anchor="middle" x="753" y="-62.6" font-family="Times,serif" font-size="14.00">DBBackupService</text>
</g>
<!-- DBBackupService&#45;&gt;ExpansionModule -->
<g id="edge7" class="edge">
<title>DBBackupService&#45;&gt;ExpansionModule</title>
<path fill="none" stroke="black" d="M753,-85.08C753,-106.12 753,-137.8 753,-137.8 753,-137.8 443.22,-137.8 443.22,-137.8"/>
<polygon fill="black" stroke="black" points="443.22,-134.3 433.22,-137.8 443.22,-141.3 443.22,-134.3"/>
</g>
<!-- StatisticService -->
<g id="node9" class="node">
<title>StatisticService</title>
<ellipse fill="#fdb462" stroke="black" cx="581" cy="-66.8" rx="71.22" ry="18"/>
<text text-anchor="middle" x="581" y="-62.6" font-family="Times,serif" font-size="14.00">StatisticService</text>
</g>
<!-- StatisticService&#45;&gt;ExpansionModule -->
<g id="edge8" class="edge">
<title>StatisticService&#45;&gt;ExpansionModule</title>
<path fill="none" stroke="black" d="M581,-84.82C581,-102.17 581,-125.8 581,-125.8 581,-125.8 443.32,-125.8 443.32,-125.8"/>
<polygon fill="black" stroke="black" points="443.32,-122.3 433.32,-125.8 443.32,-129.3 443.32,-122.3"/>
</g>
</g>
</svg>
