<?xml version="1.0" encoding="UTF-8" standalone="no"?>
<!DOCTYPE svg PUBLIC "-//W3C//DTD SVG 1.1//EN"
 "http://www.w3.org/Graphics/SVG/1.1/DTD/svg11.dtd">
<!-- Generated by graphviz version 2.47.3 (20210619.1520)
 -->
<!-- Title: dependencies Pages: 1 -->
<svg width="737pt" height="247pt"
 viewBox="0.00 0.00 737.00 246.80" xmlns="http://www.w3.org/2000/svg" xmlns:xlink="http://www.w3.org/1999/xlink">
<g id="graph0" class="graph" transform="scale(1 1) rotate(0) translate(4 242.8)">
<title>dependencies</title>
<polygon fill="white" stroke="transparent" points="-4,4 -4,-242.8 733,-242.8 733,4 -4,4"/>
<text text-anchor="middle" x="364.5" y="-8.2" font-family="sans-serif" font-size="14.00">dependencies</text>
<g id="clust1" class="cluster">
<title>cluster_ExpansionModule</title>
<polygon fill="none" stroke="black" stroke-dasharray="1,5" points="8,-32.8 8,-230.8 721,-230.8 721,-32.8 8,-32.8"/>
</g>
<g id="clust3" class="cluster">
<title>cluster_ExpansionModule_imports</title>
<polygon fill="none" stroke="black" points="366,-40.8 366,-92.8 713,-92.8 713,-40.8 366,-40.8"/>
</g>
<g id="clust6" class="cluster">
<title>cluster_ExpansionModule_providers</title>
<polygon fill="none" stroke="black" points="16,-40.8 16,-92.8 358,-92.8 358,-40.8 16,-40.8"/>
</g>
<g id="clust4" class="cluster">
<title>cluster_ExpansionModule_exports</title>
<polygon fill="none" stroke="black" points="288,-170.8 288,-222.8 552,-222.8 552,-170.8 288,-170.8"/>
</g>
<!-- ArticleModule -->
<g id="node1" class="node">
<title>ArticleModule</title>
<polygon fill="#8dd3c7" stroke="black" points="705.42,-84.8 702.42,-88.8 681.42,-88.8 678.42,-84.8 606.58,-84.8 606.58,-48.8 705.42,-48.8 705.42,-84.8"/>
<text text-anchor="middle" x="656" y="-62.6" font-family="Times,serif" font-size="14.00">ArticleModule</text>
</g>
<!-- ExpansionModule -->
<g id="node4" class="node">
<title>ExpansionModule</title>
<polygon fill="#8dd3c7" stroke="black" points="474.15,-149.8 471.15,-153.8 450.15,-153.8 447.15,-149.8 355.85,-149.8 355.85,-113.8 474.15,-113.8 474.15,-149.8"/>
<text text-anchor="middle" x="415" y="-127.6" font-family="Times,serif" font-size="14.00">ExpansionModule</text>
</g>
<!-- ArticleModule&#45;&gt;ExpansionModule -->
<g id="edge1" class="edge">
<title>ArticleModule&#45;&gt;ExpansionModule</title>
<path fill="none" stroke="black" d="M656,-84.91C656,-104.14 656,-131.8 656,-131.8 656,-131.8 484.26,-131.8 484.26,-131.8"/>
<polygon fill="black" stroke="black" points="484.26,-128.3 474.26,-131.8 484.26,-135.3 484.26,-128.3"/>
</g>
<!-- CommentModule -->
<g id="node2" class="node">
<title>CommentModule</title>
<polygon fill="#8dd3c7" stroke="black" points="588.27,-84.8 585.27,-88.8 564.27,-88.8 561.27,-84.8 473.73,-84.8 473.73,-48.8 588.27,-48.8 588.27,-84.8"/>
<text text-anchor="middle" x="531" y="-62.6" font-family="Times,serif" font-size="14.00">CommentModule</text>
</g>
<!-- CommentModule&#45;&gt;ExpansionModule -->
<g id="edge2" class="edge">
<title>CommentModule&#45;&gt;ExpansionModule</title>
<path fill="none" stroke="black" d="M473.59,-66.8C468.16,-66.8 464.64,-66.8 464.64,-66.8 464.64,-66.8 464.64,-103.69 464.64,-103.69"/>
<polygon fill="black" stroke="black" points="461.14,-103.69 464.64,-113.69 468.14,-103.69 461.14,-103.69"/>
</g>
<!-- TagModule -->
<g id="node3" class="node">
<title>TagModule</title>
<polygon fill="#8dd3c7" stroke="black" points="455.82,-84.8 452.82,-88.8 431.82,-88.8 428.82,-84.8 374.18,-84.8 374.18,-48.8 455.82,-48.8 455.82,-84.8"/>
<text text-anchor="middle" x="415" y="-62.6" font-family="Times,serif" font-size="14.00">TagModule</text>
</g>
<!-- TagModule&#45;&gt;ExpansionModule -->
<g id="edge3" class="edge">
<title>TagModule&#45;&gt;ExpansionModule</title>
<path fill="none" stroke="black" d="M415,-84.91C415,-84.91 415,-103.79 415,-103.79"/>
<polygon fill="black" stroke="black" points="411.5,-103.79 415,-113.79 418.5,-103.79 411.5,-103.79"/>
</g>
<!-- DBBackupService  -->
<g id="node5" class="node">
<title>DBBackupService </title>
<polygon fill="#fb8072" stroke="black" points="543.69,-214.8 420.31,-214.8 420.31,-178.8 543.69,-178.8 543.69,-214.8"/>
<text text-anchor="middle" x="482" y="-192.6" font-family="Times,serif" font-size="14.00">DBBackupService </text>
</g>
<!-- ExpansionModule&#45;&gt;DBBackupService  -->
<g id="edge4" class="edge">
<title>ExpansionModule&#45;&gt;DBBackupService </title>
<path fill="none" stroke="black" stroke-dasharray="5,2" d="M447.24,-149.91C447.24,-149.91 447.24,-168.79 447.24,-168.79"/>
<polygon fill="black" stroke="black" points="443.74,-168.79 447.24,-178.79 450.74,-168.79 443.74,-168.79"/>
</g>
<!-- StatisticService  -->
<g id="node6" class="node">
<title>StatisticService </title>
<polygon fill="#fb8072" stroke="black" points="402.09,-214.8 295.91,-214.8 295.91,-178.8 402.09,-178.8 402.09,-214.8"/>
<text text-anchor="middle" x="349" y="-192.6" font-family="Times,serif" font-size="14.00">StatisticService </text>
</g>
<!-- ExpansionModule&#45;&gt;StatisticService  -->
<g id="edge5" class="edge">
<title>ExpansionModule&#45;&gt;StatisticService </title>
<path fill="none" stroke="black" stroke-dasharray="5,2" d="M378.98,-149.91C378.98,-149.91 378.98,-168.79 378.98,-168.79"/>
<polygon fill="black" stroke="black" points="375.48,-168.79 378.98,-178.79 382.48,-168.79 375.48,-168.79"/>
</g>
<!-- DBBackupService -->
<g id="node7" class="node">
<title>DBBackupService</title>
<ellipse fill="#fdb462" stroke="black" cx="267" cy="-66.8" rx="82.81" ry="18"/>
<text text-anchor="middle" x="267" y="-62.6" font-family="Times,serif" font-size="14.00">DBBackupService</text>
</g>
<!-- DBBackupService&#45;&gt;ExpansionModule -->
<g id="edge6" class="edge">
<title>DBBackupService&#45;&gt;ExpansionModule</title>
<path fill="none" stroke="black" d="M350.12,-66.8C359.07,-66.8 365.01,-66.8 365.01,-66.8 365.01,-66.8 365.01,-103.69 365.01,-103.69"/>
<polygon fill="black" stroke="black" points="361.51,-103.69 365.01,-113.69 368.51,-103.69 361.51,-103.69"/>
</g>
<!-- StatisticService -->
<g id="node8" class="node">
<title>StatisticService</title>
<ellipse fill="#fdb462" stroke="black" cx="95" cy="-66.8" rx="71.22" ry="18"/>
<text text-anchor="middle" x="95" y="-62.6" font-family="Times,serif" font-size="14.00">StatisticService</text>
</g>
<!-- StatisticService&#45;&gt;ExpansionModule -->
<g id="edge7" class="edge">
<title>StatisticService&#45;&gt;ExpansionModule</title>
<path fill="none" stroke="black" d="M95,-84.91C95,-104.14 95,-131.8 95,-131.8 95,-131.8 345.56,-131.8 345.56,-131.8"/>
<polygon fill="black" stroke="black" points="345.56,-135.3 355.56,-131.8 345.56,-128.3 345.56,-135.3"/>
</g>
</g>
</svg>
