<?xml version="1.0" encoding="UTF-8" standalone="no"?>
<!DOCTYPE svg PUBLIC "-//W3C//DTD SVG 1.1//EN"
 "http://www.w3.org/Graphics/SVG/1.1/DTD/svg11.dtd">
<!-- Generated by graphviz version 2.47.0 (20210316.0004)
 -->
<!-- Title: dependencies Pages: 1 -->
<svg width="655pt" height="284pt"
 viewBox="0.00 0.00 655.00 284.00" xmlns="http://www.w3.org/2000/svg" xmlns:xlink="http://www.w3.org/1999/xlink">
<g id="graph0" class="graph" transform="scale(1 1) rotate(0) translate(4 280)">
<title>dependencies</title>
<polygon fill="white" stroke="transparent" points="-4,4 -4,-280 651,-280 651,4 -4,4"/>
<text text-anchor="start" x="302.51" y="-42.4" font-family="Times-12" font-weight="bold" font-size="14.00">Legend</text>
<polygon fill="#ffffb3" stroke="transparent" points="89.5,-10 89.5,-30 109.5,-30 109.5,-10 89.5,-10"/>
<text text-anchor="start" x="113.13" y="-15.4" font-family="Times-12" font-size="14.00"> &#160;Declarations</text>
<polygon fill="#8dd3c7" stroke="transparent" points="202.5,-10 202.5,-30 222.5,-30 222.5,-10 202.5,-10"/>
<text text-anchor="start" x="226.23" y="-15.4" font-family="Times-12" font-size="14.00"> &#160;Module</text>
<polygon fill="#80b1d3" stroke="transparent" points="288.5,-10 288.5,-30 308.5,-30 308.5,-10 288.5,-10"/>
<text text-anchor="start" x="312.28" y="-15.4" font-family="Times-12" font-size="14.00"> &#160;Bootstrap</text>
<polygon fill="#fdb462" stroke="transparent" points="385.5,-10 385.5,-30 405.5,-30 405.5,-10 385.5,-10"/>
<text text-anchor="start" x="409.17" y="-15.4" font-family="Times-12" font-size="14.00"> &#160;Providers</text>
<polygon fill="#fb8072" stroke="transparent" points="481.5,-10 481.5,-30 501.5,-30 501.5,-10 481.5,-10"/>
<text text-anchor="start" x="505.23" y="-15.4" font-family="Times-12" font-size="14.00"> &#160;Exports</text>
<g id="clust1" class="cluster">
<title>cluster_AiModule</title>
<polygon fill="none" stroke="black" stroke-dasharray="1,5" points="8,-70 8,-268 639,-268 639,-70 8,-70"/>
</g>
<g id="clust3" class="cluster">
<title>cluster_AiModule_imports</title>
<polygon fill="none" stroke="black" points="262,-78 262,-130 631,-130 631,-78 262,-78"/>
</g>
<g id="clust6" class="cluster">
<title>cluster_AiModule_providers</title>
<polygon fill="none" stroke="black" points="16,-78 16,-130 254,-130 254,-78 16,-78"/>
</g>
<g id="clust4" class="cluster">
<title>cluster_AiModule_exports</title>
<polygon fill="none" stroke="black" points="276,-208 276,-260 368,-260 368,-208 276,-208"/>
</g>
<!-- ArticleModule -->
<g id="node1" class="node">
<title>ArticleModule</title>
<polygon fill="#8dd3c7" stroke="black" points="623.42,-122 620.42,-126 599.42,-126 596.42,-122 524.58,-122 524.58,-86 623.42,-86 623.42,-122"/>
<text text-anchor="middle" x="574" y="-99.8" font-family="Times,serif" font-size="14.00">ArticleModule</text>
</g>
<!-- AiModule -->
<g id="node4" class="node">
<title>AiModule</title>
<polygon fill="#8dd3c7" stroke="black" points="358.55,-187 355.55,-191 334.55,-191 331.55,-187 285.45,-187 285.45,-151 358.55,-151 358.55,-187"/>
<text text-anchor="middle" x="322" y="-164.8" font-family="Times,serif" font-size="14.00">AiModule</text>
</g>
<!-- ArticleModule&#45;&gt;AiModule -->
<g id="edge1" class="edge">
<title>ArticleModule&#45;&gt;AiModule</title>
<path fill="none" stroke="black" d="M574,-122.28C574,-143.32 574,-175 574,-175 574,-175 368.64,-175 368.64,-175"/>
<polygon fill="black" stroke="black" points="368.64,-171.5 358.64,-175 368.64,-178.5 368.64,-171.5"/>
</g>
<!-- CommentModule -->
<g id="node2" class="node">
<title>CommentModule</title>
<polygon fill="#8dd3c7" stroke="black" points="506.27,-122 503.27,-126 482.27,-126 479.27,-122 391.73,-122 391.73,-86 506.27,-86 506.27,-122"/>
<text text-anchor="middle" x="449" y="-99.8" font-family="Times,serif" font-size="14.00">CommentModule</text>
</g>
<!-- CommentModule&#45;&gt;AiModule -->
<g id="edge2" class="edge">
<title>CommentModule&#45;&gt;AiModule</title>
<path fill="none" stroke="black" d="M449,-122.02C449,-139.37 449,-163 449,-163 449,-163 368.73,-163 368.73,-163"/>
<polygon fill="black" stroke="black" points="368.73,-159.5 358.73,-163 368.73,-166.5 368.73,-159.5"/>
</g>
<!-- OptionsModule -->
<g id="node3" class="node">
<title>OptionsModule</title>
<polygon fill="#8dd3c7" stroke="black" points="373.88,-122 370.88,-126 349.88,-126 346.88,-122 270.12,-122 270.12,-86 373.88,-86 373.88,-122"/>
<text text-anchor="middle" x="322" y="-99.8" font-family="Times,serif" font-size="14.00">OptionsModule</text>
</g>
<!-- OptionsModule&#45;&gt;AiModule -->
<g id="edge3" class="edge">
<title>OptionsModule&#45;&gt;AiModule</title>
<path fill="none" stroke="black" d="M322,-122.11C322,-122.11 322,-140.99 322,-140.99"/>
<polygon fill="black" stroke="black" points="318.5,-140.99 322,-150.99 325.5,-140.99 318.5,-140.99"/>
</g>
<!-- AiService  -->
<g id="node5" class="node">
<title>AiService </title>
<polygon fill="#fb8072" stroke="black" points="359.98,-252 284.02,-252 284.02,-216 359.98,-216 359.98,-252"/>
<text text-anchor="middle" x="322" y="-229.8" font-family="Times,serif" font-size="14.00">AiService </text>
</g>
<!-- AiModule&#45;&gt;AiService  -->
<g id="edge4" class="edge">
<title>AiModule&#45;&gt;AiService </title>
<path fill="none" stroke="black" stroke-dasharray="5,2" d="M322,-187.11C322,-187.11 322,-205.99 322,-205.99"/>
<polygon fill="black" stroke="black" points="318.5,-205.99 322,-215.99 325.5,-205.99 318.5,-205.99"/>
</g>
<!-- AiListener -->
<g id="node6" class="node">
<title>AiListener</title>
<ellipse fill="#fdb462" stroke="black" cx="194" cy="-104" rx="52.16" ry="18"/>
<text text-anchor="middle" x="194" y="-99.8" font-family="Times,serif" font-size="14.00">AiListener</text>
</g>
<!-- AiListener&#45;&gt;AiModule -->
<g id="edge5" class="edge">
<title>AiListener&#45;&gt;AiModule</title>
<path fill="none" stroke="black" d="M194,-122.02C194,-139.37 194,-163 194,-163 194,-163 275.32,-163 275.32,-163"/>
<polygon fill="black" stroke="black" points="275.32,-166.5 285.32,-163 275.32,-159.5 275.32,-166.5"/>
</g>
<!-- AiService -->
<g id="node7" class="node">
<title>AiService</title>
<ellipse fill="#fdb462" stroke="black" cx="74" cy="-104" rx="49.79" ry="18"/>
<text text-anchor="middle" x="74" y="-99.8" font-family="Times,serif" font-size="14.00">AiService</text>
</g>
<!-- AiService&#45;&gt;AiModule -->
<g id="edge6" class="edge">
<title>AiService&#45;&gt;AiModule</title>
<path fill="none" stroke="black" d="M74,-122.28C74,-143.32 74,-175 74,-175 74,-175 275.41,-175 275.41,-175"/>
<polygon fill="black" stroke="black" points="275.41,-178.5 285.41,-175 275.41,-171.5 275.41,-178.5"/>
</g>
</g>
</svg>
