<?xml version="1.0" encoding="UTF-8" standalone="no"?>
<!DOCTYPE svg PUBLIC "-//W3C//DTD SVG 1.1//EN"
 "http://www.w3.org/Graphics/SVG/1.1/DTD/svg11.dtd">
<!-- Generated by graphviz version 2.47.0 (20210316.0004)
 -->
<!-- Title: dependencies Pages: 1 -->
<svg width="772pt" height="284pt"
 viewBox="0.00 0.00 772.00 284.00" xmlns="http://www.w3.org/2000/svg" xmlns:xlink="http://www.w3.org/1999/xlink">
<g id="graph0" class="graph" transform="scale(1 1) rotate(0) translate(4 280)">
<title>dependencies</title>
<polygon fill="white" stroke="transparent" points="-4,4 -4,-280 768,-280 768,4 -4,4"/>
<text text-anchor="start" x="361.01" y="-42.4" font-family="Times-12" font-weight="bold" font-size="14.00">Legend</text>
<polygon fill="#ffffb3" stroke="transparent" points="148,-10 148,-30 168,-30 168,-10 148,-10"/>
<text text-anchor="start" x="171.63" y="-15.4" font-family="Times-12" font-size="14.00"> &#160;Declarations</text>
<polygon fill="#8dd3c7" stroke="transparent" points="261,-10 261,-30 281,-30 281,-10 261,-10"/>
<text text-anchor="start" x="284.73" y="-15.4" font-family="Times-12" font-size="14.00"> &#160;Module</text>
<polygon fill="#80b1d3" stroke="transparent" points="347,-10 347,-30 367,-30 367,-10 347,-10"/>
<text text-anchor="start" x="370.78" y="-15.4" font-family="Times-12" font-size="14.00"> &#160;Bootstrap</text>
<polygon fill="#fdb462" stroke="transparent" points="444,-10 444,-30 464,-30 464,-10 444,-10"/>
<text text-anchor="start" x="467.67" y="-15.4" font-family="Times-12" font-size="14.00"> &#160;Providers</text>
<polygon fill="#fb8072" stroke="transparent" points="540,-10 540,-30 560,-30 560,-10 540,-10"/>
<text text-anchor="start" x="563.73" y="-15.4" font-family="Times-12" font-size="14.00"> &#160;Exports</text>
<g id="clust1" class="cluster">
<title>cluster_AiModule</title>
<polygon fill="none" stroke="black" stroke-dasharray="1,5" points="8,-70 8,-268 756,-268 756,-70 8,-70"/>
</g>
<g id="clust4" class="cluster">
<title>cluster_AiModule_exports</title>
<polygon fill="none" stroke="black" points="336,-208 336,-260 428,-260 428,-208 336,-208"/>
</g>
<g id="clust6" class="cluster">
<title>cluster_AiModule_providers</title>
<polygon fill="none" stroke="black" points="510,-78 510,-130 748,-130 748,-78 510,-78"/>
</g>
<g id="clust3" class="cluster">
<title>cluster_AiModule_imports</title>
<polygon fill="none" stroke="black" points="16,-78 16,-130 502,-130 502,-78 16,-78"/>
</g>
<!-- ArticleModule -->
<g id="node1" class="node">
<title>ArticleModule</title>
<polygon fill="#8dd3c7" stroke="black" points="494.42,-122 491.42,-126 470.42,-126 467.42,-122 395.58,-122 395.58,-86 494.42,-86 494.42,-122"/>
<text text-anchor="middle" x="445" y="-99.8" font-family="Times,serif" font-size="14.00">ArticleModule</text>
</g>
<!-- AiModule -->
<g id="node5" class="node">
<title>AiModule</title>
<polygon fill="#8dd3c7" stroke="black" points="418.55,-187 415.55,-191 394.55,-191 391.55,-187 345.45,-187 345.45,-151 418.55,-151 418.55,-187"/>
<text text-anchor="middle" x="382" y="-164.8" font-family="Times,serif" font-size="14.00">AiModule</text>
</g>
<!-- ArticleModule&#45;&gt;AiModule -->
<g id="edge1" class="edge">
<title>ArticleModule&#45;&gt;AiModule</title>
<path fill="none" stroke="black" d="M407.28,-122.11C407.28,-122.11 407.28,-140.99 407.28,-140.99"/>
<polygon fill="black" stroke="black" points="403.78,-140.99 407.28,-150.99 410.78,-140.99 403.78,-140.99"/>
</g>
<!-- CommentModule -->
<g id="node2" class="node">
<title>CommentModule</title>
<polygon fill="#8dd3c7" stroke="black" points="377.27,-122 374.27,-126 353.27,-126 350.27,-122 262.73,-122 262.73,-86 377.27,-86 377.27,-122"/>
<text text-anchor="middle" x="320" y="-99.8" font-family="Times,serif" font-size="14.00">CommentModule</text>
</g>
<!-- CommentModule&#45;&gt;AiModule -->
<g id="edge2" class="edge">
<title>CommentModule&#45;&gt;AiModule</title>
<path fill="none" stroke="black" d="M361.31,-122.11C361.31,-122.11 361.31,-140.99 361.31,-140.99"/>
<polygon fill="black" stroke="black" points="357.81,-140.99 361.31,-150.99 364.81,-140.99 357.81,-140.99"/>
</g>
<!-- DisqusModule -->
<g id="node3" class="node">
<title>DisqusModule</title>
<polygon fill="#8dd3c7" stroke="black" points="244.44,-122 241.44,-126 220.44,-126 217.44,-122 145.56,-122 145.56,-86 244.44,-86 244.44,-122"/>
<text text-anchor="middle" x="195" y="-99.8" font-family="Times,serif" font-size="14.00">DisqusModule</text>
</g>
<!-- DisqusModule&#45;&gt;AiModule -->
<g id="edge3" class="edge">
<title>DisqusModule&#45;&gt;AiModule</title>
<path fill="none" stroke="black" d="M195,-122.02C195,-139.37 195,-163 195,-163 195,-163 335.05,-163 335.05,-163"/>
<polygon fill="black" stroke="black" points="335.05,-166.5 345.05,-163 335.05,-159.5 335.05,-166.5"/>
</g>
<!-- OptionsModule -->
<g id="node4" class="node">
<title>OptionsModule</title>
<polygon fill="#8dd3c7" stroke="black" points="127.88,-122 124.88,-126 103.88,-126 100.88,-122 24.12,-122 24.12,-86 127.88,-86 127.88,-122"/>
<text text-anchor="middle" x="76" y="-99.8" font-family="Times,serif" font-size="14.00">OptionsModule</text>
</g>
<!-- OptionsModule&#45;&gt;AiModule -->
<g id="edge4" class="edge">
<title>OptionsModule&#45;&gt;AiModule</title>
<path fill="none" stroke="black" d="M76,-122.28C76,-143.32 76,-175 76,-175 76,-175 335.39,-175 335.39,-175"/>
<polygon fill="black" stroke="black" points="335.39,-178.5 345.39,-175 335.39,-171.5 335.39,-178.5"/>
</g>
<!-- AiService  -->
<g id="node6" class="node">
<title>AiService </title>
<polygon fill="#fb8072" stroke="black" points="419.98,-252 344.02,-252 344.02,-216 419.98,-216 419.98,-252"/>
<text text-anchor="middle" x="382" y="-229.8" font-family="Times,serif" font-size="14.00">AiService </text>
</g>
<!-- AiModule&#45;&gt;AiService  -->
<g id="edge5" class="edge">
<title>AiModule&#45;&gt;AiService </title>
<path fill="none" stroke="black" stroke-dasharray="5,2" d="M382,-187.11C382,-187.11 382,-205.99 382,-205.99"/>
<polygon fill="black" stroke="black" points="378.5,-205.99 382,-215.99 385.5,-205.99 378.5,-205.99"/>
</g>
<!-- AiListener -->
<g id="node7" class="node">
<title>AiListener</title>
<ellipse fill="#fdb462" stroke="black" cx="688" cy="-104" rx="52.16" ry="18"/>
<text text-anchor="middle" x="688" y="-99.8" font-family="Times,serif" font-size="14.00">AiListener</text>
</g>
<!-- AiListener&#45;&gt;AiModule -->
<g id="edge6" class="edge">
<title>AiListener&#45;&gt;AiModule</title>
<path fill="none" stroke="black" d="M688,-122.28C688,-143.32 688,-175 688,-175 688,-175 428.61,-175 428.61,-175"/>
<polygon fill="black" stroke="black" points="428.61,-171.5 418.61,-175 428.61,-178.5 428.61,-171.5"/>
</g>
<!-- AiService -->
<g id="node8" class="node">
<title>AiService</title>
<ellipse fill="#fdb462" stroke="black" cx="568" cy="-104" rx="49.79" ry="18"/>
<text text-anchor="middle" x="568" y="-99.8" font-family="Times,serif" font-size="14.00">AiService</text>
</g>
<!-- AiService&#45;&gt;AiModule -->
<g id="edge7" class="edge">
<title>AiService&#45;&gt;AiModule</title>
<path fill="none" stroke="black" d="M568,-122.02C568,-139.37 568,-163 568,-163 568,-163 428.75,-163 428.75,-163"/>
<polygon fill="black" stroke="black" points="428.75,-159.5 418.75,-163 428.75,-166.5 428.75,-159.5"/>
</g>
</g>
</svg>
