<?xml version="1.0" encoding="UTF-8" standalone="no"?>
<!DOCTYPE svg PUBLIC "-//W3C//DTD SVG 1.1//EN"
 "http://www.w3.org/Graphics/SVG/1.1/DTD/svg11.dtd">
<!-- Generated by graphviz version 2.47.0 (20210316.0004)
 -->
<!-- Title: dependencies Pages: 1 -->
<svg width="655pt" height="284pt"
 viewBox="0.00 0.00 655.00 284.00" xmlns="http://www.w3.org/2000/svg" xmlns:xlink="http://www.w3.org/1999/xlink">
<g id="graph0" class="graph" transform="scale(1 1) rotate(0) translate(4 280)">
<title>dependencies</title>
<polygon fill="white" stroke="transparent" points="-4,4 -4,-280 651,-280 651,4 -4,4"/>
<text text-anchor="start" x="302.51" y="-42.4" font-family="Times-12" font-weight="bold" font-size="14.00">Legend</text>
<polygon fill="#ffffb3" stroke="transparent" points="89.5,-10 89.5,-30 109.5,-30 109.5,-10 89.5,-10"/>
<text text-anchor="start" x="113.13" y="-15.4" font-family="Times-12" font-size="14.00"> &#160;Declarations</text>
<polygon fill="#8dd3c7" stroke="transparent" points="202.5,-10 202.5,-30 222.5,-30 222.5,-10 202.5,-10"/>
<text text-anchor="start" x="226.23" y="-15.4" font-family="Times-12" font-size="14.00"> &#160;Module</text>
<polygon fill="#80b1d3" stroke="transparent" points="288.5,-10 288.5,-30 308.5,-30 308.5,-10 288.5,-10"/>
<text text-anchor="start" x="312.28" y="-15.4" font-family="Times-12" font-size="14.00"> &#160;Bootstrap</text>
<polygon fill="#fdb462" stroke="transparent" points="385.5,-10 385.5,-30 405.5,-30 405.5,-10 385.5,-10"/>
<text text-anchor="start" x="409.17" y="-15.4" font-family="Times-12" font-size="14.00"> &#160;Providers</text>
<polygon fill="#fb8072" stroke="transparent" points="481.5,-10 481.5,-30 501.5,-30 501.5,-10 481.5,-10"/>
<text text-anchor="start" x="505.23" y="-15.4" font-family="Times-12" font-size="14.00"> &#160;Exports</text>
<g id="clust1" class="cluster">
<title>cluster_AiModule</title>
<polygon fill="none" stroke="black" stroke-dasharray="1,5" points="8,-70 8,-268 639,-268 639,-70 8,-70"/>
</g>
<g id="clust6" class="cluster">
<title>cluster_AiModule_providers</title>
<polygon fill="none" stroke="black" points="393,-78 393,-130 631,-130 631,-78 393,-78"/>
</g>
<g id="clust4" class="cluster">
<title>cluster_AiModule_exports</title>
<polygon fill="none" stroke="black" points="282,-208 282,-260 374,-260 374,-208 282,-208"/>
</g>
<g id="clust3" class="cluster">
<title>cluster_AiModule_imports</title>
<polygon fill="none" stroke="black" points="16,-78 16,-130 385,-130 385,-78 16,-78"/>
</g>
<!-- ArticleModule -->
<g id="node1" class="node">
<title>ArticleModule</title>
<polygon fill="#8dd3c7" stroke="black" points="377.42,-122 374.42,-126 353.42,-126 350.42,-122 278.58,-122 278.58,-86 377.42,-86 377.42,-122"/>
<text text-anchor="middle" x="328" y="-99.8" font-family="Times,serif" font-size="14.00">ArticleModule</text>
</g>
<!-- AiModule -->
<g id="node4" class="node">
<title>AiModule</title>
<polygon fill="#8dd3c7" stroke="black" points="364.55,-187 361.55,-191 340.55,-191 337.55,-187 291.45,-187 291.45,-151 364.55,-151 364.55,-187"/>
<text text-anchor="middle" x="328" y="-164.8" font-family="Times,serif" font-size="14.00">AiModule</text>
</g>
<!-- ArticleModule&#45;&gt;AiModule -->
<g id="edge1" class="edge">
<title>ArticleModule&#45;&gt;AiModule</title>
<path fill="none" stroke="black" d="M328,-122.11C328,-122.11 328,-140.99 328,-140.99"/>
<polygon fill="black" stroke="black" points="324.5,-140.99 328,-150.99 331.5,-140.99 324.5,-140.99"/>
</g>
<!-- CommentModule -->
<g id="node2" class="node">
<title>CommentModule</title>
<polygon fill="#8dd3c7" stroke="black" points="260.27,-122 257.27,-126 236.27,-126 233.27,-122 145.73,-122 145.73,-86 260.27,-86 260.27,-122"/>
<text text-anchor="middle" x="203" y="-99.8" font-family="Times,serif" font-size="14.00">CommentModule</text>
</g>
<!-- CommentModule&#45;&gt;AiModule -->
<g id="edge2" class="edge">
<title>CommentModule&#45;&gt;AiModule</title>
<path fill="none" stroke="black" d="M203,-122.02C203,-139.37 203,-163 203,-163 203,-163 281.17,-163 281.17,-163"/>
<polygon fill="black" stroke="black" points="281.17,-166.5 291.17,-163 281.17,-159.5 281.17,-166.5"/>
</g>
<!-- OptionsModule -->
<g id="node3" class="node">
<title>OptionsModule</title>
<polygon fill="#8dd3c7" stroke="black" points="127.88,-122 124.88,-126 103.88,-126 100.88,-122 24.12,-122 24.12,-86 127.88,-86 127.88,-122"/>
<text text-anchor="middle" x="76" y="-99.8" font-family="Times,serif" font-size="14.00">OptionsModule</text>
</g>
<!-- OptionsModule&#45;&gt;AiModule -->
<g id="edge3" class="edge">
<title>OptionsModule&#45;&gt;AiModule</title>
<path fill="none" stroke="black" d="M76,-122.28C76,-143.32 76,-175 76,-175 76,-175 281.36,-175 281.36,-175"/>
<polygon fill="black" stroke="black" points="281.36,-178.5 291.36,-175 281.36,-171.5 281.36,-178.5"/>
</g>
<!-- AiService  -->
<g id="node5" class="node">
<title>AiService </title>
<polygon fill="#fb8072" stroke="black" points="365.98,-252 290.02,-252 290.02,-216 365.98,-216 365.98,-252"/>
<text text-anchor="middle" x="328" y="-229.8" font-family="Times,serif" font-size="14.00">AiService </text>
</g>
<!-- AiModule&#45;&gt;AiService  -->
<g id="edge4" class="edge">
<title>AiModule&#45;&gt;AiService </title>
<path fill="none" stroke="black" stroke-dasharray="5,2" d="M328,-187.11C328,-187.11 328,-205.99 328,-205.99"/>
<polygon fill="black" stroke="black" points="324.5,-205.99 328,-215.99 331.5,-205.99 324.5,-205.99"/>
</g>
<!-- AiListener -->
<g id="node6" class="node">
<title>AiListener</title>
<ellipse fill="#fdb462" stroke="black" cx="571" cy="-104" rx="52.16" ry="18"/>
<text text-anchor="middle" x="571" y="-99.8" font-family="Times,serif" font-size="14.00">AiListener</text>
</g>
<!-- AiListener&#45;&gt;AiModule -->
<g id="edge5" class="edge">
<title>AiListener&#45;&gt;AiModule</title>
<path fill="none" stroke="black" d="M571,-122.28C571,-143.32 571,-175 571,-175 571,-175 374.64,-175 374.64,-175"/>
<polygon fill="black" stroke="black" points="374.64,-171.5 364.64,-175 374.64,-178.5 374.64,-171.5"/>
</g>
<!-- AiService -->
<g id="node7" class="node">
<title>AiService</title>
<ellipse fill="#fdb462" stroke="black" cx="451" cy="-104" rx="49.79" ry="18"/>
<text text-anchor="middle" x="451" y="-99.8" font-family="Times,serif" font-size="14.00">AiService</text>
</g>
<!-- AiService&#45;&gt;AiModule -->
<g id="edge6" class="edge">
<title>AiService&#45;&gt;AiModule</title>
<path fill="none" stroke="black" d="M451,-122.02C451,-139.37 451,-163 451,-163 451,-163 374.57,-163 374.57,-163"/>
<polygon fill="black" stroke="black" points="374.57,-159.5 364.57,-163 374.57,-166.5 374.57,-159.5"/>
</g>
</g>
</svg>
