<?xml version="1.0" encoding="UTF-8" standalone="no"?>
<!DOCTYPE svg PUBLIC "-//W3C//DTD SVG 1.1//EN"
 "http://www.w3.org/Graphics/SVG/1.1/DTD/svg11.dtd">
<!-- Generated by graphviz version 2.47.0 (20210316.0004)
 -->
<!-- Title: dependencies Pages: 1 -->
<svg width="861pt" height="284pt"
 viewBox="0.00 0.00 861.00 284.00" xmlns="http://www.w3.org/2000/svg" xmlns:xlink="http://www.w3.org/1999/xlink">
<g id="graph0" class="graph" transform="scale(1 1) rotate(0) translate(4 280)">
<title>dependencies</title>
<polygon fill="white" stroke="transparent" points="-4,4 -4,-280 857,-280 857,4 -4,4"/>
<text text-anchor="start" x="405.51" y="-42.4" font-family="Times-12" font-weight="bold" font-size="14.00">Legend</text>
<polygon fill="#ffffb3" stroke="transparent" points="192.5,-10 192.5,-30 212.5,-30 212.5,-10 192.5,-10"/>
<text text-anchor="start" x="216.13" y="-15.4" font-family="Times-12" font-size="14.00"> &#160;Declarations</text>
<polygon fill="#8dd3c7" stroke="transparent" points="305.5,-10 305.5,-30 325.5,-30 325.5,-10 305.5,-10"/>
<text text-anchor="start" x="329.23" y="-15.4" font-family="Times-12" font-size="14.00"> &#160;Module</text>
<polygon fill="#80b1d3" stroke="transparent" points="391.5,-10 391.5,-30 411.5,-30 411.5,-10 391.5,-10"/>
<text text-anchor="start" x="415.28" y="-15.4" font-family="Times-12" font-size="14.00"> &#160;Bootstrap</text>
<polygon fill="#fdb462" stroke="transparent" points="488.5,-10 488.5,-30 508.5,-30 508.5,-10 488.5,-10"/>
<text text-anchor="start" x="512.17" y="-15.4" font-family="Times-12" font-size="14.00"> &#160;Providers</text>
<polygon fill="#fb8072" stroke="transparent" points="584.5,-10 584.5,-30 604.5,-30 604.5,-10 584.5,-10"/>
<text text-anchor="start" x="608.23" y="-15.4" font-family="Times-12" font-size="14.00"> &#160;Exports</text>
<g id="clust1" class="cluster">
<title>cluster_HelperModule</title>
<polygon fill="none" stroke="black" stroke-dasharray="1,5" points="8,-70 8,-268 845,-268 845,-70 8,-70"/>
</g>
<g id="clust6" class="cluster">
<title>cluster_HelperModule_providers</title>
<polygon fill="none" stroke="black" points="16,-78 16,-130 837,-130 837,-78 16,-78"/>
</g>
<g id="clust4" class="cluster">
<title>cluster_HelperModule_exports</title>
<polygon fill="none" stroke="black" points="83,-208 83,-260 727,-260 727,-208 83,-208"/>
</g>
<!-- AkismetService  -->
<g id="node1" class="node">
<title>AkismetService </title>
<polygon fill="#fb8072" stroke="black" points="719.42,-252 610.58,-252 610.58,-216 719.42,-216 719.42,-252"/>
<text text-anchor="middle" x="665" y="-229.8" font-family="Times,serif" font-size="14.00">AkismetService </text>
</g>
<!-- EmailService  -->
<g id="node2" class="node">
<title>EmailService </title>
<polygon fill="#fb8072" stroke="black" points="592.42,-252 497.58,-252 497.58,-216 592.42,-216 592.42,-252"/>
<text text-anchor="middle" x="545" y="-229.8" font-family="Times,serif" font-size="14.00">EmailService </text>
</g>
<!-- GoogleService  -->
<g id="node3" class="node">
<title>GoogleService </title>
<polygon fill="#fb8072" stroke="black" points="479.19,-252 376.81,-252 376.81,-216 479.19,-216 479.19,-252"/>
<text text-anchor="middle" x="428" y="-229.8" font-family="Times,serif" font-size="14.00">GoogleService </text>
</g>
<!-- IPService  -->
<g id="node4" class="node">
<title>IPService </title>
<polygon fill="#fb8072" stroke="black" points="358.92,-252 285.08,-252 285.08,-216 358.92,-216 358.92,-252"/>
<text text-anchor="middle" x="322" y="-229.8" font-family="Times,serif" font-size="14.00">IPService </text>
</g>
<!-- S3Service  -->
<g id="node5" class="node">
<title>S3Service </title>
<polygon fill="#fb8072" stroke="black" points="267.26,-252 190.74,-252 190.74,-216 267.26,-216 267.26,-252"/>
<text text-anchor="middle" x="229" y="-229.8" font-family="Times,serif" font-size="14.00">S3Service </text>
</g>
<!-- SeoService  -->
<g id="node6" class="node">
<title>SeoService </title>
<polygon fill="#fb8072" stroke="black" points="173.48,-252 90.52,-252 90.52,-216 173.48,-216 173.48,-252"/>
<text text-anchor="middle" x="132" y="-229.8" font-family="Times,serif" font-size="14.00">SeoService </text>
</g>
<!-- HelperModule -->
<g id="node7" class="node">
<title>HelperModule</title>
<polygon fill="#8dd3c7" stroke="black" points="423.64,-187 420.64,-191 399.64,-191 396.64,-187 326.36,-187 326.36,-151 423.64,-151 423.64,-187"/>
<text text-anchor="middle" x="375" y="-164.8" font-family="Times,serif" font-size="14.00">HelperModule</text>
</g>
<!-- HelperModule&#45;&gt;AkismetService  -->
<g id="edge1" class="edge">
<title>HelperModule&#45;&gt;AkismetService </title>
<path fill="none" stroke="black" stroke-dasharray="5,2" d="M423.81,-173C499.81,-173 637.8,-173 637.8,-173 637.8,-173 637.8,-205.7 637.8,-205.7"/>
<polygon fill="black" stroke="black" points="634.3,-205.7 637.8,-215.7 641.3,-205.7 634.3,-205.7"/>
</g>
<!-- HelperModule&#45;&gt;EmailService  -->
<g id="edge2" class="edge">
<title>HelperModule&#45;&gt;EmailService </title>
<path fill="none" stroke="black" stroke-dasharray="5,2" d="M423.93,-180C462.38,-180 509.48,-180 509.48,-180 509.48,-180 509.48,-205.72 509.48,-205.72"/>
<polygon fill="black" stroke="black" points="505.98,-205.72 509.48,-215.72 512.98,-205.72 505.98,-205.72"/>
</g>
<!-- HelperModule&#45;&gt;GoogleService  -->
<g id="edge3" class="edge">
<title>HelperModule&#45;&gt;GoogleService </title>
<path fill="none" stroke="black" stroke-dasharray="5,2" d="M400.24,-187.11C400.24,-187.11 400.24,-205.99 400.24,-205.99"/>
<polygon fill="black" stroke="black" points="396.74,-205.99 400.24,-215.99 403.74,-205.99 396.74,-205.99"/>
</g>
<!-- HelperModule&#45;&gt;IPService  -->
<g id="edge4" class="edge">
<title>HelperModule&#45;&gt;IPService </title>
<path fill="none" stroke="black" stroke-dasharray="5,2" d="M342.57,-187.11C342.57,-187.11 342.57,-205.99 342.57,-205.99"/>
<polygon fill="black" stroke="black" points="339.07,-205.99 342.57,-215.99 346.07,-205.99 339.07,-205.99"/>
</g>
<!-- HelperModule&#45;&gt;S3Service  -->
<g id="edge5" class="edge">
<title>HelperModule&#45;&gt;S3Service </title>
<path fill="none" stroke="black" stroke-dasharray="5,2" d="M326.21,-180C294.55,-180 259.16,-180 259.16,-180 259.16,-180 259.16,-205.72 259.16,-205.72"/>
<polygon fill="black" stroke="black" points="255.66,-205.72 259.16,-215.72 262.66,-205.72 255.66,-205.72"/>
</g>
<!-- HelperModule&#45;&gt;SeoService  -->
<g id="edge6" class="edge">
<title>HelperModule&#45;&gt;SeoService </title>
<path fill="none" stroke="black" stroke-dasharray="5,2" d="M326.14,-173C263.26,-173 162.02,-173 162.02,-173 162.02,-173 162.02,-205.7 162.02,-205.7"/>
<polygon fill="black" stroke="black" points="158.52,-205.7 162.02,-215.7 165.52,-205.7 158.52,-205.7"/>
</g>
<!-- AkismetService -->
<g id="node8" class="node">
<title>AkismetService</title>
<ellipse fill="#fdb462" stroke="black" cx="756" cy="-104" rx="72.93" ry="18"/>
<text text-anchor="middle" x="756" y="-99.8" font-family="Times,serif" font-size="14.00">AkismetService</text>
</g>
<!-- AkismetService&#45;&gt;HelperModule -->
<g id="edge7" class="edge">
<title>AkismetService&#45;&gt;HelperModule</title>
<path fill="none" stroke="black" d="M701.37,-115.95C701.37,-133.97 701.37,-166 701.37,-166 701.37,-166 433.86,-166 433.86,-166"/>
<polygon fill="black" stroke="black" points="433.86,-162.5 423.86,-166 433.86,-169.5 433.86,-162.5"/>
</g>
<!-- EmailService -->
<g id="node9" class="node">
<title>EmailService</title>
<ellipse fill="#fdb462" stroke="black" cx="602" cy="-104" rx="63.12" ry="18"/>
<text text-anchor="middle" x="602" y="-99.8" font-family="Times,serif" font-size="14.00">EmailService</text>
</g>
<!-- EmailService&#45;&gt;HelperModule -->
<g id="edge8" class="edge">
<title>EmailService&#45;&gt;HelperModule</title>
<path fill="none" stroke="black" d="M565.7,-118.74C565.7,-135.03 565.7,-159 565.7,-159 565.7,-159 434.11,-159 434.11,-159"/>
<polygon fill="black" stroke="black" points="434.11,-155.5 424.11,-159 434.11,-162.5 434.11,-155.5"/>
</g>
<!-- GoogleService -->
<g id="node10" class="node">
<title>GoogleService</title>
<ellipse fill="#fdb462" stroke="black" cx="453" cy="-104" rx="68.34" ry="18"/>
<text text-anchor="middle" x="453" y="-99.8" font-family="Times,serif" font-size="14.00">GoogleService</text>
</g>
<!-- GoogleService&#45;&gt;HelperModule -->
<g id="edge9" class="edge">
<title>GoogleService&#45;&gt;HelperModule</title>
<path fill="none" stroke="black" d="M404.2,-116.84C404.2,-116.84 404.2,-140.52 404.2,-140.52"/>
<polygon fill="black" stroke="black" points="400.7,-140.52 404.2,-150.52 407.7,-140.52 400.7,-140.52"/>
</g>
<!-- IPService -->
<g id="node11" class="node">
<title>IPService</title>
<ellipse fill="#fdb462" stroke="black" cx="318" cy="-104" rx="48.65" ry="18"/>
<text text-anchor="middle" x="318" y="-99.8" font-family="Times,serif" font-size="14.00">IPService</text>
</g>
<!-- IPService&#45;&gt;HelperModule -->
<g id="edge10" class="edge">
<title>IPService&#45;&gt;HelperModule</title>
<path fill="none" stroke="black" d="M346.38,-118.75C346.38,-118.75 346.38,-140.59 346.38,-140.59"/>
<polygon fill="black" stroke="black" points="342.88,-140.59 346.38,-150.59 349.88,-140.59 342.88,-140.59"/>
</g>
<!-- S3Service -->
<g id="node12" class="node">
<title>S3Service</title>
<ellipse fill="#fdb462" stroke="black" cx="201" cy="-104" rx="50.38" ry="18"/>
<text text-anchor="middle" x="201" y="-99.8" font-family="Times,serif" font-size="14.00">S3Service</text>
</g>
<!-- S3Service&#45;&gt;HelperModule -->
<g id="edge11" class="edge">
<title>S3Service&#45;&gt;HelperModule</title>
<path fill="none" stroke="black" d="M221.03,-120.8C221.03,-136.98 221.03,-159 221.03,-159 221.03,-159 316.28,-159 316.28,-159"/>
<polygon fill="black" stroke="black" points="316.28,-162.5 326.28,-159 316.28,-155.5 316.28,-162.5"/>
</g>
<!-- SeoService -->
<g id="node13" class="node">
<title>SeoService</title>
<ellipse fill="#fdb462" stroke="black" cx="78" cy="-104" rx="54.45" ry="18"/>
<text text-anchor="middle" x="78" y="-99.8" font-family="Times,serif" font-size="14.00">SeoService</text>
</g>
<!-- SeoService&#45;&gt;HelperModule -->
<g id="edge12" class="edge">
<title>SeoService&#45;&gt;HelperModule</title>
<path fill="none" stroke="black" d="M111.62,-118.38C111.62,-136.7 111.62,-166 111.62,-166 111.62,-166 316.08,-166 316.08,-166"/>
<polygon fill="black" stroke="black" points="316.08,-169.5 326.08,-166 316.08,-162.5 316.08,-169.5"/>
</g>
</g>
</svg>
