<?xml version="1.0" encoding="UTF-8" standalone="no"?>
<!DOCTYPE svg PUBLIC "-//W3C//DTD SVG 1.1//EN"
 "http://www.w3.org/Graphics/SVG/1.1/DTD/svg11.dtd">
<!-- Generated by graphviz version 2.47.3 (20210619.1520)
 -->
<!-- Title: dependencies Pages: 1 -->
<svg width="946pt" height="247pt"
 viewBox="0.00 0.00 946.00 246.80" xmlns="http://www.w3.org/2000/svg" xmlns:xlink="http://www.w3.org/1999/xlink">
<g id="graph0" class="graph" transform="scale(1 1) rotate(0) translate(4 242.8)">
<title>dependencies</title>
<polygon fill="white" stroke="transparent" points="-4,4 -4,-242.8 942,-242.8 942,4 -4,4"/>
<text text-anchor="middle" x="469" y="-8.2" font-family="sans-serif" font-size="14.00">dependencies</text>
<g id="clust1" class="cluster">
<title>cluster_HelperModule</title>
<polygon fill="none" stroke="black" stroke-dasharray="1,5" points="8,-32.8 8,-230.8 930,-230.8 930,-32.8 8,-32.8"/>
</g>
<g id="clust6" class="cluster">
<title>cluster_HelperModule_providers</title>
<polygon fill="none" stroke="black" points="16,-40.8 16,-92.8 922,-92.8 922,-40.8 16,-40.8"/>
</g>
<g id="clust4" class="cluster">
<title>cluster_HelperModule_exports</title>
<polygon fill="none" stroke="black" points="91,-170.8 91,-222.8 798,-222.8 798,-170.8 91,-170.8"/>
</g>
<!-- AkismetService  -->
<g id="node1" class="node">
<title>AkismetService </title>
<polygon fill="#fb8072" stroke="black" points="790.42,-214.8 681.58,-214.8 681.58,-178.8 790.42,-178.8 790.42,-214.8"/>
<text text-anchor="middle" x="736" y="-192.6" font-family="Times,serif" font-size="14.00">AkismetService </text>
</g>
<!-- CloudStorageService  -->
<g id="node2" class="node">
<title>CloudStorageService </title>
<polygon fill="#fb8072" stroke="black" points="663.47,-214.8 524.53,-214.8 524.53,-178.8 663.47,-178.8 663.47,-214.8"/>
<text text-anchor="middle" x="594" y="-192.6" font-family="Times,serif" font-size="14.00">CloudStorageService </text>
</g>
<!-- EmailService  -->
<g id="node3" class="node">
<title>EmailService </title>
<polygon fill="#fb8072" stroke="black" points="506.42,-214.8 411.58,-214.8 411.58,-178.8 506.42,-178.8 506.42,-214.8"/>
<text text-anchor="middle" x="459" y="-192.6" font-family="Times,serif" font-size="14.00">EmailService </text>
</g>
<!-- GoogleService  -->
<g id="node4" class="node">
<title>GoogleService </title>
<polygon fill="#fb8072" stroke="black" points="393.19,-214.8 290.81,-214.8 290.81,-178.8 393.19,-178.8 393.19,-214.8"/>
<text text-anchor="middle" x="342" y="-192.6" font-family="Times,serif" font-size="14.00">GoogleService </text>
</g>
<!-- IPService  -->
<g id="node5" class="node">
<title>IPService </title>
<polygon fill="#fb8072" stroke="black" points="272.92,-214.8 199.08,-214.8 199.08,-178.8 272.92,-178.8 272.92,-214.8"/>
<text text-anchor="middle" x="236" y="-192.6" font-family="Times,serif" font-size="14.00">IPService </text>
</g>
<!-- SeoService  -->
<g id="node6" class="node">
<title>SeoService </title>
<polygon fill="#fb8072" stroke="black" points="181.48,-214.8 98.52,-214.8 98.52,-178.8 181.48,-178.8 181.48,-214.8"/>
<text text-anchor="middle" x="140" y="-192.6" font-family="Times,serif" font-size="14.00">SeoService </text>
</g>
<!-- HelperModule -->
<g id="node7" class="node">
<title>HelperModule</title>
<polygon fill="#8dd3c7" stroke="black" points="448.64,-149.8 445.64,-153.8 424.64,-153.8 421.64,-149.8 351.36,-149.8 351.36,-113.8 448.64,-113.8 448.64,-149.8"/>
<text text-anchor="middle" x="400" y="-127.6" font-family="Times,serif" font-size="14.00">HelperModule</text>
</g>
<!-- HelperModule&#45;&gt;AkismetService  -->
<g id="edge1" class="edge">
<title>HelperModule&#45;&gt;AkismetService </title>
<path fill="none" stroke="black" stroke-dasharray="5,2" d="M448.65,-135.8C537.24,-135.8 715.82,-135.8 715.82,-135.8 715.82,-135.8 715.82,-168.5 715.82,-168.5"/>
<polygon fill="black" stroke="black" points="712.32,-168.5 715.82,-178.5 719.32,-168.5 712.32,-168.5"/>
</g>
<!-- HelperModule&#45;&gt;CloudStorageService  -->
<g id="edge2" class="edge">
<title>HelperModule&#45;&gt;CloudStorageService </title>
<path fill="none" stroke="black" stroke-dasharray="5,2" d="M448.89,-142.8C487.67,-142.8 535.41,-142.8 535.41,-142.8 535.41,-142.8 535.41,-168.52 535.41,-168.52"/>
<polygon fill="black" stroke="black" points="531.91,-168.52 535.41,-178.52 538.91,-168.52 531.91,-168.52"/>
</g>
<!-- HelperModule&#45;&gt;EmailService  -->
<g id="edge3" class="edge">
<title>HelperModule&#45;&gt;EmailService </title>
<path fill="none" stroke="black" stroke-dasharray="5,2" d="M430.18,-149.91C430.18,-149.91 430.18,-168.79 430.18,-168.79"/>
<polygon fill="black" stroke="black" points="426.68,-168.79 430.18,-178.79 433.68,-168.79 426.68,-168.79"/>
</g>
<!-- HelperModule&#45;&gt;GoogleService  -->
<g id="edge4" class="edge">
<title>HelperModule&#45;&gt;GoogleService </title>
<path fill="none" stroke="black" stroke-dasharray="5,2" d="M372.26,-149.91C372.26,-149.91 372.26,-168.79 372.26,-168.79"/>
<polygon fill="black" stroke="black" points="368.76,-168.79 372.26,-178.79 375.76,-168.79 368.76,-168.79"/>
</g>
<!-- HelperModule&#45;&gt;IPService  -->
<g id="edge5" class="edge">
<title>HelperModule&#45;&gt;IPService </title>
<path fill="none" stroke="black" stroke-dasharray="5,2" d="M351.32,-142.8C314.15,-142.8 269.27,-142.8 269.27,-142.8 269.27,-142.8 269.27,-168.52 269.27,-168.52"/>
<polygon fill="black" stroke="black" points="265.77,-168.52 269.27,-178.52 272.77,-168.52 265.77,-168.52"/>
</g>
<!-- HelperModule&#45;&gt;SeoService  -->
<g id="edge6" class="edge">
<title>HelperModule&#45;&gt;SeoService </title>
<path fill="none" stroke="black" stroke-dasharray="5,2" d="M351.2,-135.8C282.57,-135.8 165.83,-135.8 165.83,-135.8 165.83,-135.8 165.83,-168.5 165.83,-168.5"/>
<polygon fill="black" stroke="black" points="162.33,-168.5 165.83,-178.5 169.33,-168.5 162.33,-168.5"/>
</g>
<!-- AkismetService -->
<g id="node8" class="node">
<title>AkismetService</title>
<ellipse fill="#fdb462" stroke="black" cx="841" cy="-66.8" rx="72.93" ry="18"/>
<text text-anchor="middle" x="841" y="-62.6" font-family="Times,serif" font-size="14.00">AkismetService</text>
</g>
<!-- AkismetService&#45;&gt;HelperModule -->
<g id="edge7" class="edge">
<title>AkismetService&#45;&gt;HelperModule</title>
<path fill="none" stroke="black" d="M779.37,-76.49C779.37,-93.93 779.37,-128.8 779.37,-128.8 779.37,-128.8 458.82,-128.8 458.82,-128.8"/>
<polygon fill="black" stroke="black" points="458.82,-125.3 448.82,-128.8 458.82,-132.3 458.82,-125.3"/>
</g>
<!-- CloudStorageService -->
<g id="node9" class="node">
<title>CloudStorageService</title>
<ellipse fill="#fdb462" stroke="black" cx="657" cy="-66.8" rx="93.2" ry="18"/>
<text text-anchor="middle" x="657" y="-62.6" font-family="Times,serif" font-size="14.00">CloudStorageService</text>
</g>
<!-- CloudStorageService&#45;&gt;HelperModule -->
<g id="edge8" class="edge">
<title>CloudStorageService&#45;&gt;HelperModule</title>
<path fill="none" stroke="black" d="M613.57,-83C613.57,-99.23 613.57,-121.8 613.57,-121.8 613.57,-121.8 458.73,-121.8 458.73,-121.8"/>
<polygon fill="black" stroke="black" points="458.73,-118.3 448.73,-121.8 458.73,-125.3 458.73,-118.3"/>
</g>
<!-- EmailService -->
<g id="node10" class="node">
<title>EmailService</title>
<ellipse fill="#fdb462" stroke="black" cx="483" cy="-66.8" rx="63.12" ry="18"/>
<text text-anchor="middle" x="483" y="-62.6" font-family="Times,serif" font-size="14.00">EmailService</text>
</g>
<!-- EmailService&#45;&gt;HelperModule -->
<g id="edge9" class="edge">
<title>EmailService&#45;&gt;HelperModule</title>
<path fill="none" stroke="black" d="M434.38,-78.42C434.38,-78.42 434.38,-103.65 434.38,-103.65"/>
<polygon fill="black" stroke="black" points="430.88,-103.65 434.38,-113.65 437.88,-103.65 430.88,-103.65"/>
</g>
<!-- GoogleService -->
<g id="node11" class="node">
<title>GoogleService</title>
<ellipse fill="#fdb462" stroke="black" cx="334" cy="-66.8" rx="68.34" ry="18"/>
<text text-anchor="middle" x="334" y="-62.6" font-family="Times,serif" font-size="14.00">GoogleService</text>
</g>
<!-- GoogleService&#45;&gt;HelperModule -->
<g id="edge10" class="edge">
<title>GoogleService&#45;&gt;HelperModule</title>
<path fill="none" stroke="black" d="M376.8,-80.9C376.8,-80.9 376.8,-103.52 376.8,-103.52"/>
<polygon fill="black" stroke="black" points="373.3,-103.52 376.8,-113.52 380.3,-103.52 373.3,-103.52"/>
</g>
<!-- IPService -->
<g id="node12" class="node">
<title>IPService</title>
<ellipse fill="#fdb462" stroke="black" cx="199" cy="-66.8" rx="48.65" ry="18"/>
<text text-anchor="middle" x="199" y="-62.6" font-family="Times,serif" font-size="14.00">IPService</text>
</g>
<!-- IPService&#45;&gt;HelperModule -->
<g id="edge11" class="edge">
<title>IPService&#45;&gt;HelperModule</title>
<path fill="none" stroke="black" d="M223.31,-82.41C223.31,-98.67 223.31,-121.8 223.31,-121.8 223.31,-121.8 341.25,-121.8 341.25,-121.8"/>
<polygon fill="black" stroke="black" points="341.25,-125.3 351.25,-121.8 341.25,-118.3 341.25,-125.3"/>
</g>
<!-- SeoService -->
<g id="node13" class="node">
<title>SeoService</title>
<ellipse fill="#fdb462" stroke="black" cx="78" cy="-66.8" rx="54.45" ry="18"/>
<text text-anchor="middle" x="78" y="-62.6" font-family="Times,serif" font-size="14.00">SeoService</text>
</g>
<!-- SeoService&#45;&gt;HelperModule -->
<g id="edge12" class="edge">
<title>SeoService&#45;&gt;HelperModule</title>
<path fill="none" stroke="black" d="M115.62,-79.95C115.62,-98.15 115.62,-128.8 115.62,-128.8 115.62,-128.8 341.11,-128.8 341.11,-128.8"/>
<polygon fill="black" stroke="black" points="341.11,-132.3 351.11,-128.8 341.11,-125.3 341.11,-132.3"/>
</g>
</g>
</svg>
