<?xml version="1.0" encoding="UTF-8" standalone="no"?>
<!DOCTYPE svg PUBLIC "-//W3C//DTD SVG 1.1//EN"
 "http://www.w3.org/Graphics/SVG/1.1/DTD/svg11.dtd">
<!-- Generated by graphviz version 2.47.0 (20210316.0004)
 -->
<!-- Title: dependencies Pages: 1 -->
<svg width="857pt" height="284pt"
 viewBox="0.00 0.00 857.00 284.00" xmlns="http://www.w3.org/2000/svg" xmlns:xlink="http://www.w3.org/1999/xlink">
<g id="graph0" class="graph" transform="scale(1 1) rotate(0) translate(4 280)">
<title>dependencies</title>
<polygon fill="white" stroke="transparent" points="-4,4 -4,-280 853,-280 853,4 -4,4"/>
<text text-anchor="start" x="403.51" y="-42.4" font-family="Times-12" font-weight="bold" font-size="14.00">Legend</text>
<polygon fill="#ffffb3" stroke="transparent" points="190.5,-10 190.5,-30 210.5,-30 210.5,-10 190.5,-10"/>
<text text-anchor="start" x="214.13" y="-15.4" font-family="Times-12" font-size="14.00"> &#160;Declarations</text>
<polygon fill="#8dd3c7" stroke="transparent" points="303.5,-10 303.5,-30 323.5,-30 323.5,-10 303.5,-10"/>
<text text-anchor="start" x="327.23" y="-15.4" font-family="Times-12" font-size="14.00"> &#160;Module</text>
<polygon fill="#80b1d3" stroke="transparent" points="389.5,-10 389.5,-30 409.5,-30 409.5,-10 389.5,-10"/>
<text text-anchor="start" x="413.28" y="-15.4" font-family="Times-12" font-size="14.00"> &#160;Bootstrap</text>
<polygon fill="#fdb462" stroke="transparent" points="486.5,-10 486.5,-30 506.5,-30 506.5,-10 486.5,-10"/>
<text text-anchor="start" x="510.17" y="-15.4" font-family="Times-12" font-size="14.00"> &#160;Providers</text>
<polygon fill="#fb8072" stroke="transparent" points="582.5,-10 582.5,-30 602.5,-30 602.5,-10 582.5,-10"/>
<text text-anchor="start" x="606.23" y="-15.4" font-family="Times-12" font-size="14.00"> &#160;Exports</text>
<g id="clust1" class="cluster">
<title>cluster_HelperModule</title>
<polygon fill="none" stroke="black" stroke-dasharray="1,5" points="8,-70 8,-268 841,-268 841,-70 8,-70"/>
</g>
<g id="clust4" class="cluster">
<title>cluster_HelperModule_exports</title>
<polygon fill="none" stroke="black" points="82,-208 82,-260 724,-260 724,-208 82,-208"/>
</g>
<g id="clust6" class="cluster">
<title>cluster_HelperModule_providers</title>
<polygon fill="none" stroke="black" points="16,-78 16,-130 833,-130 833,-78 16,-78"/>
</g>
<!-- CounterService  -->
<g id="node1" class="node">
<title>CounterService </title>
<polygon fill="#fb8072" stroke="black" points="716.08,-252 609.92,-252 609.92,-216 716.08,-216 716.08,-252"/>
<text text-anchor="middle" x="663" y="-229.8" font-family="Times,serif" font-size="14.00">CounterService </text>
</g>
<!-- EmailService  -->
<g id="node2" class="node">
<title>EmailService </title>
<polygon fill="#fb8072" stroke="black" points="591.42,-252 496.58,-252 496.58,-216 591.42,-216 591.42,-252"/>
<text text-anchor="middle" x="544" y="-229.8" font-family="Times,serif" font-size="14.00">EmailService </text>
</g>
<!-- GoogleService  -->
<g id="node3" class="node">
<title>GoogleService </title>
<polygon fill="#fb8072" stroke="black" points="478.19,-252 375.81,-252 375.81,-216 478.19,-216 478.19,-252"/>
<text text-anchor="middle" x="427" y="-229.8" font-family="Times,serif" font-size="14.00">GoogleService </text>
</g>
<!-- IPService  -->
<g id="node4" class="node">
<title>IPService </title>
<polygon fill="#fb8072" stroke="black" points="357.92,-252 284.08,-252 284.08,-216 357.92,-216 357.92,-252"/>
<text text-anchor="middle" x="321" y="-229.8" font-family="Times,serif" font-size="14.00">IPService </text>
</g>
<!-- S3Service  -->
<g id="node5" class="node">
<title>S3Service </title>
<polygon fill="#fb8072" stroke="black" points="266.26,-252 189.74,-252 189.74,-216 266.26,-216 266.26,-252"/>
<text text-anchor="middle" x="228" y="-229.8" font-family="Times,serif" font-size="14.00">S3Service </text>
</g>
<!-- SeoService  -->
<g id="node6" class="node">
<title>SeoService </title>
<polygon fill="#fb8072" stroke="black" points="172.48,-252 89.52,-252 89.52,-216 172.48,-216 172.48,-252"/>
<text text-anchor="middle" x="131" y="-229.8" font-family="Times,serif" font-size="14.00">SeoService </text>
</g>
<!-- HelperModule -->
<g id="node7" class="node">
<title>HelperModule</title>
<polygon fill="#8dd3c7" stroke="black" points="422.64,-187 419.64,-191 398.64,-191 395.64,-187 325.36,-187 325.36,-151 422.64,-151 422.64,-187"/>
<text text-anchor="middle" x="374" y="-164.8" font-family="Times,serif" font-size="14.00">HelperModule</text>
</g>
<!-- HelperModule&#45;&gt;CounterService  -->
<g id="edge1" class="edge">
<title>HelperModule&#45;&gt;CounterService </title>
<path fill="none" stroke="black" stroke-dasharray="5,2" d="M422.92,-173C499.09,-173 637.38,-173 637.38,-173 637.38,-173 637.38,-205.7 637.38,-205.7"/>
<polygon fill="black" stroke="black" points="633.88,-205.7 637.38,-215.7 640.88,-205.7 633.88,-205.7"/>
</g>
<!-- HelperModule&#45;&gt;EmailService  -->
<g id="edge2" class="edge">
<title>HelperModule&#45;&gt;EmailService </title>
<path fill="none" stroke="black" stroke-dasharray="5,2" d="M422.73,-180C461.39,-180 508.98,-180 508.98,-180 508.98,-180 508.98,-205.72 508.98,-205.72"/>
<polygon fill="black" stroke="black" points="505.48,-205.72 508.98,-215.72 512.48,-205.72 505.48,-205.72"/>
</g>
<!-- HelperModule&#45;&gt;GoogleService  -->
<g id="edge3" class="edge">
<title>HelperModule&#45;&gt;GoogleService </title>
<path fill="none" stroke="black" stroke-dasharray="5,2" d="M399.24,-187.11C399.24,-187.11 399.24,-205.99 399.24,-205.99"/>
<polygon fill="black" stroke="black" points="395.74,-205.99 399.24,-215.99 402.74,-205.99 395.74,-205.99"/>
</g>
<!-- HelperModule&#45;&gt;IPService  -->
<g id="edge4" class="edge">
<title>HelperModule&#45;&gt;IPService </title>
<path fill="none" stroke="black" stroke-dasharray="5,2" d="M341.57,-187.11C341.57,-187.11 341.57,-205.99 341.57,-205.99"/>
<polygon fill="black" stroke="black" points="338.07,-205.99 341.57,-215.99 345.07,-205.99 338.07,-205.99"/>
</g>
<!-- HelperModule&#45;&gt;S3Service  -->
<g id="edge5" class="edge">
<title>HelperModule&#45;&gt;S3Service </title>
<path fill="none" stroke="black" stroke-dasharray="5,2" d="M325.09,-180C293.65,-180 258.66,-180 258.66,-180 258.66,-180 258.66,-205.72 258.66,-205.72"/>
<polygon fill="black" stroke="black" points="255.16,-205.72 258.66,-215.72 262.16,-205.72 255.16,-205.72"/>
</g>
<!-- HelperModule&#45;&gt;SeoService  -->
<g id="edge6" class="edge">
<title>HelperModule&#45;&gt;SeoService </title>
<path fill="none" stroke="black" stroke-dasharray="5,2" d="M325.25,-173C262.52,-173 161.52,-173 161.52,-173 161.52,-173 161.52,-205.7 161.52,-205.7"/>
<polygon fill="black" stroke="black" points="158.02,-205.7 161.52,-215.7 165.02,-205.7 158.02,-205.7"/>
</g>
<!-- CounterService -->
<g id="node8" class="node">
<title>CounterService</title>
<ellipse fill="#fdb462" stroke="black" cx="754" cy="-104" rx="71.21" ry="18"/>
<text text-anchor="middle" x="754" y="-99.8" font-family="Times,serif" font-size="14.00">CounterService</text>
</g>
<!-- CounterService&#45;&gt;HelperModule -->
<g id="edge7" class="edge">
<title>CounterService&#45;&gt;HelperModule</title>
<path fill="none" stroke="black" d="M699.59,-115.66C699.59,-133.62 699.59,-166 699.59,-166 699.59,-166 432.74,-166 432.74,-166"/>
<polygon fill="black" stroke="black" points="432.74,-162.5 422.74,-166 432.74,-169.5 432.74,-162.5"/>
</g>
<!-- EmailService -->
<g id="node9" class="node">
<title>EmailService</title>
<ellipse fill="#fdb462" stroke="black" cx="602" cy="-104" rx="63.12" ry="18"/>
<text text-anchor="middle" x="602" y="-99.8" font-family="Times,serif" font-size="14.00">EmailService</text>
</g>
<!-- EmailService&#45;&gt;HelperModule -->
<g id="edge8" class="edge">
<title>EmailService&#45;&gt;HelperModule</title>
<path fill="none" stroke="black" d="M565.2,-118.74C565.2,-135.03 565.2,-159 565.2,-159 565.2,-159 432.74,-159 432.74,-159"/>
<polygon fill="black" stroke="black" points="432.74,-155.5 422.74,-159 432.74,-162.5 432.74,-155.5"/>
</g>
<!-- GoogleService -->
<g id="node10" class="node">
<title>GoogleService</title>
<ellipse fill="#fdb462" stroke="black" cx="453" cy="-104" rx="68.34" ry="18"/>
<text text-anchor="middle" x="453" y="-99.8" font-family="Times,serif" font-size="14.00">GoogleService</text>
</g>
<!-- GoogleService&#45;&gt;HelperModule -->
<g id="edge9" class="edge">
<title>GoogleService&#45;&gt;HelperModule</title>
<path fill="none" stroke="black" d="M403.7,-116.53C403.7,-116.53 403.7,-140.85 403.7,-140.85"/>
<polygon fill="black" stroke="black" points="400.2,-140.85 403.7,-150.85 407.2,-140.85 400.2,-140.85"/>
</g>
<!-- IPService -->
<g id="node11" class="node">
<title>IPService</title>
<ellipse fill="#fdb462" stroke="black" cx="318" cy="-104" rx="48.65" ry="18"/>
<text text-anchor="middle" x="318" y="-99.8" font-family="Times,serif" font-size="14.00">IPService</text>
</g>
<!-- IPService&#45;&gt;HelperModule -->
<g id="edge10" class="edge">
<title>IPService&#45;&gt;HelperModule</title>
<path fill="none" stroke="black" d="M345.88,-118.75C345.88,-118.75 345.88,-140.59 345.88,-140.59"/>
<polygon fill="black" stroke="black" points="342.38,-140.59 345.88,-150.59 349.38,-140.59 342.38,-140.59"/>
</g>
<!-- S3Service -->
<g id="node12" class="node">
<title>S3Service</title>
<ellipse fill="#fdb462" stroke="black" cx="201" cy="-104" rx="50.38" ry="18"/>
<text text-anchor="middle" x="201" y="-99.8" font-family="Times,serif" font-size="14.00">S3Service</text>
</g>
<!-- S3Service&#45;&gt;HelperModule -->
<g id="edge11" class="edge">
<title>S3Service&#45;&gt;HelperModule</title>
<path fill="none" stroke="black" d="M220.53,-120.8C220.53,-136.98 220.53,-159 220.53,-159 220.53,-159 315.02,-159 315.02,-159"/>
<polygon fill="black" stroke="black" points="315.02,-162.5 325.02,-159 315.02,-155.5 315.02,-162.5"/>
</g>
<!-- SeoService -->
<g id="node13" class="node">
<title>SeoService</title>
<ellipse fill="#fdb462" stroke="black" cx="78" cy="-104" rx="54.45" ry="18"/>
<text text-anchor="middle" x="78" y="-99.8" font-family="Times,serif" font-size="14.00">SeoService</text>
</g>
<!-- SeoService&#45;&gt;HelperModule -->
<g id="edge12" class="edge">
<title>SeoService&#45;&gt;HelperModule</title>
<path fill="none" stroke="black" d="M111.12,-118.38C111.12,-136.7 111.12,-166 111.12,-166 111.12,-166 315.17,-166 315.17,-166"/>
<polygon fill="black" stroke="black" points="315.17,-169.5 325.17,-166 315.17,-162.5 315.17,-169.5"/>
</g>
</g>
</svg>
