<?xml version="1.0" encoding="UTF-8" standalone="no"?>
<!DOCTYPE svg PUBLIC "-//W3C//DTD SVG 1.1//EN"
 "http://www.w3.org/Graphics/SVG/1.1/DTD/svg11.dtd">
<!-- Generated by graphviz version 2.47.0 (20210316.0004)
 -->
<!-- Title: dependencies Pages: 1 -->
<svg width="882pt" height="284pt"
 viewBox="0.00 0.00 882.00 284.00" xmlns="http://www.w3.org/2000/svg" xmlns:xlink="http://www.w3.org/1999/xlink">
<g id="graph0" class="graph" transform="scale(1 1) rotate(0) translate(4 280)">
<title>dependencies</title>
<polygon fill="white" stroke="transparent" points="-4,4 -4,-280 878,-280 878,4 -4,4"/>
<text text-anchor="start" x="416.01" y="-42.4" font-family="Times-12" font-weight="bold" font-size="14.00">Legend</text>
<polygon fill="#ffffb3" stroke="transparent" points="203,-10 203,-30 223,-30 223,-10 203,-10"/>
<text text-anchor="start" x="226.63" y="-15.4" font-family="Times-12" font-size="14.00"> &#160;Declarations</text>
<polygon fill="#8dd3c7" stroke="transparent" points="316,-10 316,-30 336,-30 336,-10 316,-10"/>
<text text-anchor="start" x="339.73" y="-15.4" font-family="Times-12" font-size="14.00"> &#160;Module</text>
<polygon fill="#80b1d3" stroke="transparent" points="402,-10 402,-30 422,-30 422,-10 402,-10"/>
<text text-anchor="start" x="425.78" y="-15.4" font-family="Times-12" font-size="14.00"> &#160;Bootstrap</text>
<polygon fill="#fdb462" stroke="transparent" points="499,-10 499,-30 519,-30 519,-10 499,-10"/>
<text text-anchor="start" x="522.67" y="-15.4" font-family="Times-12" font-size="14.00"> &#160;Providers</text>
<polygon fill="#fb8072" stroke="transparent" points="595,-10 595,-30 615,-30 615,-10 595,-10"/>
<text text-anchor="start" x="618.73" y="-15.4" font-family="Times-12" font-size="14.00"> &#160;Exports</text>
<g id="clust1" class="cluster">
<title>cluster_HelperModule</title>
<polygon fill="none" stroke="black" stroke-dasharray="1,5" points="8,-70 8,-268 866,-268 866,-70 8,-70"/>
</g>
<g id="clust6" class="cluster">
<title>cluster_HelperModule_providers</title>
<polygon fill="none" stroke="black" points="16,-78 16,-130 858,-130 858,-78 16,-78"/>
</g>
<g id="clust4" class="cluster">
<title>cluster_HelperModule_exports</title>
<polygon fill="none" stroke="black" points="82,-208 82,-260 743,-260 743,-208 82,-208"/>
</g>
<!-- AWSService  -->
<g id="node1" class="node">
<title>AWSService </title>
<polygon fill="#fb8072" stroke="black" points="735.08,-252 642.92,-252 642.92,-216 735.08,-216 735.08,-252"/>
<text text-anchor="middle" x="689" y="-229.8" font-family="Times,serif" font-size="14.00">AWSService </text>
</g>
<!-- AkismetService  -->
<g id="node2" class="node">
<title>AkismetService </title>
<polygon fill="#fb8072" stroke="black" points="624.42,-252 515.58,-252 515.58,-216 624.42,-216 624.42,-252"/>
<text text-anchor="middle" x="570" y="-229.8" font-family="Times,serif" font-size="14.00">AkismetService </text>
</g>
<!-- EmailService  -->
<g id="node3" class="node">
<title>EmailService </title>
<polygon fill="#fb8072" stroke="black" points="497.42,-252 402.58,-252 402.58,-216 497.42,-216 497.42,-252"/>
<text text-anchor="middle" x="450" y="-229.8" font-family="Times,serif" font-size="14.00">EmailService </text>
</g>
<!-- GoogleService  -->
<g id="node4" class="node">
<title>GoogleService </title>
<polygon fill="#fb8072" stroke="black" points="384.19,-252 281.81,-252 281.81,-216 384.19,-216 384.19,-252"/>
<text text-anchor="middle" x="333" y="-229.8" font-family="Times,serif" font-size="14.00">GoogleService </text>
</g>
<!-- IPService  -->
<g id="node5" class="node">
<title>IPService </title>
<polygon fill="#fb8072" stroke="black" points="263.92,-252 190.08,-252 190.08,-216 263.92,-216 263.92,-252"/>
<text text-anchor="middle" x="227" y="-229.8" font-family="Times,serif" font-size="14.00">IPService </text>
</g>
<!-- SeoService  -->
<g id="node6" class="node">
<title>SeoService </title>
<polygon fill="#fb8072" stroke="black" points="172.48,-252 89.52,-252 89.52,-216 172.48,-216 172.48,-252"/>
<text text-anchor="middle" x="131" y="-229.8" font-family="Times,serif" font-size="14.00">SeoService </text>
</g>
<!-- HelperModule -->
<g id="node7" class="node">
<title>HelperModule</title>
<polygon fill="#8dd3c7" stroke="black" points="439.64,-187 436.64,-191 415.64,-191 412.64,-187 342.36,-187 342.36,-151 439.64,-151 439.64,-187"/>
<text text-anchor="middle" x="391" y="-164.8" font-family="Times,serif" font-size="14.00">HelperModule</text>
</g>
<!-- HelperModule&#45;&gt;AWSService  -->
<g id="edge1" class="edge">
<title>HelperModule&#45;&gt;AWSService </title>
<path fill="none" stroke="black" stroke-dasharray="5,2" d="M439.71,-173C521.17,-173 676.21,-173 676.21,-173 676.21,-173 676.21,-205.7 676.21,-205.7"/>
<polygon fill="black" stroke="black" points="672.71,-205.7 676.21,-215.7 679.71,-205.7 672.71,-205.7"/>
</g>
<!-- HelperModule&#45;&gt;AkismetService  -->
<g id="edge2" class="edge">
<title>HelperModule&#45;&gt;AkismetService </title>
<path fill="none" stroke="black" stroke-dasharray="5,2" d="M439.9,-180C480.21,-180 530.8,-180 530.8,-180 530.8,-180 530.8,-205.72 530.8,-205.72"/>
<polygon fill="black" stroke="black" points="527.3,-205.72 530.8,-215.72 534.3,-205.72 527.3,-205.72"/>
</g>
<!-- HelperModule&#45;&gt;EmailService  -->
<g id="edge3" class="edge">
<title>HelperModule&#45;&gt;EmailService </title>
<path fill="none" stroke="black" stroke-dasharray="5,2" d="M421.18,-187.11C421.18,-187.11 421.18,-205.99 421.18,-205.99"/>
<polygon fill="black" stroke="black" points="417.68,-205.99 421.18,-215.99 424.68,-205.99 417.68,-205.99"/>
</g>
<!-- HelperModule&#45;&gt;GoogleService  -->
<g id="edge4" class="edge">
<title>HelperModule&#45;&gt;GoogleService </title>
<path fill="none" stroke="black" stroke-dasharray="5,2" d="M363.26,-187.11C363.26,-187.11 363.26,-205.99 363.26,-205.99"/>
<polygon fill="black" stroke="black" points="359.76,-205.99 363.26,-215.99 366.76,-205.99 359.76,-205.99"/>
</g>
<!-- HelperModule&#45;&gt;IPService  -->
<g id="edge5" class="edge">
<title>HelperModule&#45;&gt;IPService </title>
<path fill="none" stroke="black" stroke-dasharray="5,2" d="M342.18,-180C303.44,-180 255.77,-180 255.77,-180 255.77,-180 255.77,-205.72 255.77,-205.72"/>
<polygon fill="black" stroke="black" points="252.27,-205.72 255.77,-215.72 259.27,-205.72 252.27,-205.72"/>
</g>
<!-- HelperModule&#45;&gt;SeoService  -->
<g id="edge6" class="edge">
<title>HelperModule&#45;&gt;SeoService </title>
<path fill="none" stroke="black" stroke-dasharray="5,2" d="M342.29,-173C274.88,-173 161.33,-173 161.33,-173 161.33,-173 161.33,-205.7 161.33,-205.7"/>
<polygon fill="black" stroke="black" points="157.83,-205.7 161.33,-215.7 164.83,-205.7 157.83,-205.7"/>
</g>
<!-- AWSService -->
<g id="node8" class="node">
<title>AWSService</title>
<ellipse fill="#fdb462" stroke="black" cx="789" cy="-104" rx="61.39" ry="18"/>
<text text-anchor="middle" x="789" y="-99.8" font-family="Times,serif" font-size="14.00">AWSService</text>
</g>
<!-- AWSService&#45;&gt;HelperModule -->
<g id="edge7" class="edge">
<title>AWSService&#45;&gt;HelperModule</title>
<path fill="none" stroke="black" d="M731.42,-110.64C731.42,-126.63 731.42,-166 731.42,-166 731.42,-166 449.77,-166 449.77,-166"/>
<polygon fill="black" stroke="black" points="449.77,-162.5 439.77,-166 449.77,-169.5 449.77,-162.5"/>
</g>
<!-- AkismetService -->
<g id="node9" class="node">
<title>AkismetService</title>
<ellipse fill="#fdb462" stroke="black" cx="637" cy="-104" rx="72.93" ry="18"/>
<text text-anchor="middle" x="637" y="-99.8" font-family="Times,serif" font-size="14.00">AkismetService</text>
</g>
<!-- AkismetService&#45;&gt;HelperModule -->
<g id="edge8" class="edge">
<title>AkismetService&#45;&gt;HelperModule</title>
<path fill="none" stroke="black" d="M594.37,-118.74C594.37,-135.03 594.37,-159 594.37,-159 594.37,-159 449.71,-159 449.71,-159"/>
<polygon fill="black" stroke="black" points="449.71,-155.5 439.71,-159 449.71,-162.5 449.71,-155.5"/>
</g>
<!-- EmailService -->
<g id="node10" class="node">
<title>EmailService</title>
<ellipse fill="#fdb462" stroke="black" cx="483" cy="-104" rx="63.12" ry="18"/>
<text text-anchor="middle" x="483" y="-99.8" font-family="Times,serif" font-size="14.00">EmailService</text>
</g>
<!-- EmailService&#45;&gt;HelperModule -->
<g id="edge9" class="edge">
<title>EmailService&#45;&gt;HelperModule</title>
<path fill="none" stroke="black" d="M429.88,-113.87C429.88,-113.87 429.88,-140.91 429.88,-140.91"/>
<polygon fill="black" stroke="black" points="426.38,-140.91 429.88,-150.91 433.38,-140.91 426.38,-140.91"/>
</g>
<!-- GoogleService -->
<g id="node11" class="node">
<title>GoogleService</title>
<ellipse fill="#fdb462" stroke="black" cx="334" cy="-104" rx="68.34" ry="18"/>
<text text-anchor="middle" x="334" y="-99.8" font-family="Times,serif" font-size="14.00">GoogleService</text>
</g>
<!-- GoogleService&#45;&gt;HelperModule -->
<g id="edge10" class="edge">
<title>GoogleService&#45;&gt;HelperModule</title>
<path fill="none" stroke="black" d="M372.3,-119.08C372.3,-119.08 372.3,-140.76 372.3,-140.76"/>
<polygon fill="black" stroke="black" points="368.8,-140.76 372.3,-150.76 375.8,-140.76 368.8,-140.76"/>
</g>
<!-- IPService -->
<g id="node12" class="node">
<title>IPService</title>
<ellipse fill="#fdb462" stroke="black" cx="199" cy="-104" rx="48.65" ry="18"/>
<text text-anchor="middle" x="199" y="-99.8" font-family="Times,serif" font-size="14.00">IPService</text>
</g>
<!-- IPService&#45;&gt;HelperModule -->
<g id="edge11" class="edge">
<title>IPService&#45;&gt;HelperModule</title>
<path fill="none" stroke="black" d="M218.81,-120.5C218.81,-136.7 218.81,-159 218.81,-159 218.81,-159 332.12,-159 332.12,-159"/>
<polygon fill="black" stroke="black" points="332.12,-162.5 342.12,-159 332.12,-155.5 332.12,-162.5"/>
</g>
<!-- SeoService -->
<g id="node13" class="node">
<title>SeoService</title>
<ellipse fill="#fdb462" stroke="black" cx="78" cy="-104" rx="54.45" ry="18"/>
<text text-anchor="middle" x="78" y="-99.8" font-family="Times,serif" font-size="14.00">SeoService</text>
</g>
<!-- SeoService&#45;&gt;HelperModule -->
<g id="edge12" class="edge">
<title>SeoService&#45;&gt;HelperModule</title>
<path fill="none" stroke="black" d="M111.12,-118.38C111.12,-136.7 111.12,-166 111.12,-166 111.12,-166 332.25,-166 332.25,-166"/>
<polygon fill="black" stroke="black" points="332.25,-169.5 342.25,-166 332.25,-162.5 332.25,-169.5"/>
</g>
</g>
</svg>
