<?xml version="1.0" encoding="UTF-8" standalone="no"?>
<!DOCTYPE svg PUBLIC "-//W3C//DTD SVG 1.1//EN"
 "http://www.w3.org/Graphics/SVG/1.1/DTD/svg11.dtd">
<!-- Generated by graphviz version 2.47.3 (20210619.1520)
 -->
<!-- Title: dependencies Pages: 1 -->
<svg width="882pt" height="247pt"
 viewBox="0.00 0.00 882.00 246.80" xmlns="http://www.w3.org/2000/svg" xmlns:xlink="http://www.w3.org/1999/xlink">
<g id="graph0" class="graph" transform="scale(1 1) rotate(0) translate(4 242.8)">
<title>dependencies</title>
<polygon fill="white" stroke="transparent" points="-4,4 -4,-242.8 878,-242.8 878,4 -4,4"/>
<text text-anchor="middle" x="437" y="-8.2" font-family="sans-serif" font-size="14.00">dependencies</text>
<g id="clust1" class="cluster">
<title>cluster_HelperModule</title>
<polygon fill="none" stroke="black" stroke-dasharray="1,5" points="8,-32.8 8,-230.8 866,-230.8 866,-32.8 8,-32.8"/>
</g>
<g id="clust6" class="cluster">
<title>cluster_HelperModule_providers</title>
<polygon fill="none" stroke="black" points="16,-40.8 16,-92.8 858,-92.8 858,-40.8 16,-40.8"/>
</g>
<g id="clust4" class="cluster">
<title>cluster_HelperModule_exports</title>
<polygon fill="none" stroke="black" points="82,-170.8 82,-222.8 743,-222.8 743,-170.8 82,-170.8"/>
</g>
<!-- AWSService  -->
<g id="node1" class="node">
<title>AWSService </title>
<polygon fill="#fb8072" stroke="black" points="735.08,-214.8 642.92,-214.8 642.92,-178.8 735.08,-178.8 735.08,-214.8"/>
<text text-anchor="middle" x="689" y="-192.6" font-family="Times,serif" font-size="14.00">AWSService </text>
</g>
<!-- AkismetService  -->
<g id="node2" class="node">
<title>AkismetService </title>
<polygon fill="#fb8072" stroke="black" points="624.42,-214.8 515.58,-214.8 515.58,-178.8 624.42,-178.8 624.42,-214.8"/>
<text text-anchor="middle" x="570" y="-192.6" font-family="Times,serif" font-size="14.00">AkismetService </text>
</g>
<!-- EmailService  -->
<g id="node3" class="node">
<title>EmailService </title>
<polygon fill="#fb8072" stroke="black" points="497.42,-214.8 402.58,-214.8 402.58,-178.8 497.42,-178.8 497.42,-214.8"/>
<text text-anchor="middle" x="450" y="-192.6" font-family="Times,serif" font-size="14.00">EmailService </text>
</g>
<!-- GoogleService  -->
<g id="node4" class="node">
<title>GoogleService </title>
<polygon fill="#fb8072" stroke="black" points="384.19,-214.8 281.81,-214.8 281.81,-178.8 384.19,-178.8 384.19,-214.8"/>
<text text-anchor="middle" x="333" y="-192.6" font-family="Times,serif" font-size="14.00">GoogleService </text>
</g>
<!-- IPService  -->
<g id="node5" class="node">
<title>IPService </title>
<polygon fill="#fb8072" stroke="black" points="263.92,-214.8 190.08,-214.8 190.08,-178.8 263.92,-178.8 263.92,-214.8"/>
<text text-anchor="middle" x="227" y="-192.6" font-family="Times,serif" font-size="14.00">IPService </text>
</g>
<!-- SeoService  -->
<g id="node6" class="node">
<title>SeoService </title>
<polygon fill="#fb8072" stroke="black" points="172.48,-214.8 89.52,-214.8 89.52,-178.8 172.48,-178.8 172.48,-214.8"/>
<text text-anchor="middle" x="131" y="-192.6" font-family="Times,serif" font-size="14.00">SeoService </text>
</g>
<!-- HelperModule -->
<g id="node7" class="node">
<title>HelperModule</title>
<polygon fill="#8dd3c7" stroke="black" points="439.64,-149.8 436.64,-153.8 415.64,-153.8 412.64,-149.8 342.36,-149.8 342.36,-113.8 439.64,-113.8 439.64,-149.8"/>
<text text-anchor="middle" x="391" y="-127.6" font-family="Times,serif" font-size="14.00">HelperModule</text>
</g>
<!-- HelperModule&#45;&gt;AWSService  -->
<g id="edge1" class="edge">
<title>HelperModule&#45;&gt;AWSService </title>
<path fill="none" stroke="black" stroke-dasharray="5,2" d="M439.71,-135.8C521.17,-135.8 676.21,-135.8 676.21,-135.8 676.21,-135.8 676.21,-168.5 676.21,-168.5"/>
<polygon fill="black" stroke="black" points="672.71,-168.5 676.21,-178.5 679.71,-168.5 672.71,-168.5"/>
</g>
<!-- HelperModule&#45;&gt;AkismetService  -->
<g id="edge2" class="edge">
<title>HelperModule&#45;&gt;AkismetService </title>
<path fill="none" stroke="black" stroke-dasharray="5,2" d="M439.9,-142.8C480.21,-142.8 530.8,-142.8 530.8,-142.8 530.8,-142.8 530.8,-168.52 530.8,-168.52"/>
<polygon fill="black" stroke="black" points="527.3,-168.52 530.8,-178.52 534.3,-168.52 527.3,-168.52"/>
</g>
<!-- HelperModule&#45;&gt;EmailService  -->
<g id="edge3" class="edge">
<title>HelperModule&#45;&gt;EmailService </title>
<path fill="none" stroke="black" stroke-dasharray="5,2" d="M421.18,-149.91C421.18,-149.91 421.18,-168.79 421.18,-168.79"/>
<polygon fill="black" stroke="black" points="417.68,-168.79 421.18,-178.79 424.68,-168.79 417.68,-168.79"/>
</g>
<!-- HelperModule&#45;&gt;GoogleService  -->
<g id="edge4" class="edge">
<title>HelperModule&#45;&gt;GoogleService </title>
<path fill="none" stroke="black" stroke-dasharray="5,2" d="M363.26,-149.91C363.26,-149.91 363.26,-168.79 363.26,-168.79"/>
<polygon fill="black" stroke="black" points="359.76,-168.79 363.26,-178.79 366.76,-168.79 359.76,-168.79"/>
</g>
<!-- HelperModule&#45;&gt;IPService  -->
<g id="edge5" class="edge">
<title>HelperModule&#45;&gt;IPService </title>
<path fill="none" stroke="black" stroke-dasharray="5,2" d="M342.18,-142.8C303.44,-142.8 255.77,-142.8 255.77,-142.8 255.77,-142.8 255.77,-168.52 255.77,-168.52"/>
<polygon fill="black" stroke="black" points="252.27,-168.52 255.77,-178.52 259.27,-168.52 252.27,-168.52"/>
</g>
<!-- HelperModule&#45;&gt;SeoService  -->
<g id="edge6" class="edge">
<title>HelperModule&#45;&gt;SeoService </title>
<path fill="none" stroke="black" stroke-dasharray="5,2" d="M342.29,-135.8C274.88,-135.8 161.33,-135.8 161.33,-135.8 161.33,-135.8 161.33,-168.5 161.33,-168.5"/>
<polygon fill="black" stroke="black" points="157.83,-168.5 161.33,-178.5 164.83,-168.5 157.83,-168.5"/>
</g>
<!-- AWSService -->
<g id="node8" class="node">
<title>AWSService</title>
<ellipse fill="#fdb462" stroke="black" cx="789" cy="-66.8" rx="61.39" ry="18"/>
<text text-anchor="middle" x="789" y="-62.6" font-family="Times,serif" font-size="14.00">AWSService</text>
</g>
<!-- AWSService&#45;&gt;HelperModule -->
<g id="edge7" class="edge">
<title>AWSService&#45;&gt;HelperModule</title>
<path fill="none" stroke="black" d="M731.42,-73.44C731.42,-89.43 731.42,-128.8 731.42,-128.8 731.42,-128.8 449.77,-128.8 449.77,-128.8"/>
<polygon fill="black" stroke="black" points="449.77,-125.3 439.77,-128.8 449.77,-132.3 449.77,-125.3"/>
</g>
<!-- AkismetService -->
<g id="node9" class="node">
<title>AkismetService</title>
<ellipse fill="#fdb462" stroke="black" cx="637" cy="-66.8" rx="72.93" ry="18"/>
<text text-anchor="middle" x="637" y="-62.6" font-family="Times,serif" font-size="14.00">AkismetService</text>
</g>
<!-- AkismetService&#45;&gt;HelperModule -->
<g id="edge8" class="edge">
<title>AkismetService&#45;&gt;HelperModule</title>
<path fill="none" stroke="black" d="M594.37,-81.54C594.37,-97.83 594.37,-121.8 594.37,-121.8 594.37,-121.8 449.71,-121.8 449.71,-121.8"/>
<polygon fill="black" stroke="black" points="449.71,-118.3 439.71,-121.8 449.71,-125.3 449.71,-118.3"/>
</g>
<!-- EmailService -->
<g id="node10" class="node">
<title>EmailService</title>
<ellipse fill="#fdb462" stroke="black" cx="483" cy="-66.8" rx="63.12" ry="18"/>
<text text-anchor="middle" x="483" y="-62.6" font-family="Times,serif" font-size="14.00">EmailService</text>
</g>
<!-- EmailService&#45;&gt;HelperModule -->
<g id="edge9" class="edge">
<title>EmailService&#45;&gt;HelperModule</title>
<path fill="none" stroke="black" d="M429.88,-76.67C429.88,-76.67 429.88,-103.71 429.88,-103.71"/>
<polygon fill="black" stroke="black" points="426.38,-103.71 429.88,-113.71 433.38,-103.71 426.38,-103.71"/>
</g>
<!-- GoogleService -->
<g id="node11" class="node">
<title>GoogleService</title>
<ellipse fill="#fdb462" stroke="black" cx="334" cy="-66.8" rx="68.34" ry="18"/>
<text text-anchor="middle" x="334" y="-62.6" font-family="Times,serif" font-size="14.00">GoogleService</text>
</g>
<!-- GoogleService&#45;&gt;HelperModule -->
<g id="edge10" class="edge">
<title>GoogleService&#45;&gt;HelperModule</title>
<path fill="none" stroke="black" d="M372.3,-81.88C372.3,-81.88 372.3,-103.56 372.3,-103.56"/>
<polygon fill="black" stroke="black" points="368.8,-103.56 372.3,-113.56 375.8,-103.56 368.8,-103.56"/>
</g>
<!-- IPService -->
<g id="node12" class="node">
<title>IPService</title>
<ellipse fill="#fdb462" stroke="black" cx="199" cy="-66.8" rx="48.65" ry="18"/>
<text text-anchor="middle" x="199" y="-62.6" font-family="Times,serif" font-size="14.00">IPService</text>
</g>
<!-- IPService&#45;&gt;HelperModule -->
<g id="edge11" class="edge">
<title>IPService&#45;&gt;HelperModule</title>
<path fill="none" stroke="black" d="M218.81,-83.3C218.81,-99.5 218.81,-121.8 218.81,-121.8 218.81,-121.8 332.12,-121.8 332.12,-121.8"/>
<polygon fill="black" stroke="black" points="332.12,-125.3 342.12,-121.8 332.12,-118.3 332.12,-125.3"/>
</g>
<!-- SeoService -->
<g id="node13" class="node">
<title>SeoService</title>
<ellipse fill="#fdb462" stroke="black" cx="78" cy="-66.8" rx="54.45" ry="18"/>
<text text-anchor="middle" x="78" y="-62.6" font-family="Times,serif" font-size="14.00">SeoService</text>
</g>
<!-- SeoService&#45;&gt;HelperModule -->
<g id="edge12" class="edge">
<title>SeoService&#45;&gt;HelperModule</title>
<path fill="none" stroke="black" d="M111.12,-81.18C111.12,-99.5 111.12,-128.8 111.12,-128.8 111.12,-128.8 332.25,-128.8 332.25,-128.8"/>
<polygon fill="black" stroke="black" points="332.25,-132.3 342.25,-128.8 332.25,-125.3 332.25,-132.3"/>
</g>
</g>
</svg>
