<?xml version="1.0" encoding="UTF-8" standalone="no"?>
<!DOCTYPE svg PUBLIC "-//W3C//DTD SVG 1.1//EN"
 "http://www.w3.org/Graphics/SVG/1.1/DTD/svg11.dtd">
<!-- Generated by graphviz version 2.47.0 (20210316.0004)
 -->
<!-- Title: dependencies Pages: 1 -->
<svg width="1021pt" height="284pt"
 viewBox="0.00 0.00 1021.00 284.00" xmlns="http://www.w3.org/2000/svg" xmlns:xlink="http://www.w3.org/1999/xlink">
<g id="graph0" class="graph" transform="scale(1 1) rotate(0) translate(4 280)">
<title>dependencies</title>
<polygon fill="white" stroke="transparent" points="-4,4 -4,-280 1017,-280 1017,4 -4,4"/>
<text text-anchor="start" x="485.51" y="-42.4" font-family="Times-12" font-weight="bold" font-size="14.00">Legend</text>
<polygon fill="#ffffb3" stroke="transparent" points="272.5,-10 272.5,-30 292.5,-30 292.5,-10 272.5,-10"/>
<text text-anchor="start" x="296.13" y="-15.4" font-family="Times-12" font-size="14.00"> &#160;Declarations</text>
<polygon fill="#8dd3c7" stroke="transparent" points="385.5,-10 385.5,-30 405.5,-30 405.5,-10 385.5,-10"/>
<text text-anchor="start" x="409.23" y="-15.4" font-family="Times-12" font-size="14.00"> &#160;Module</text>
<polygon fill="#80b1d3" stroke="transparent" points="471.5,-10 471.5,-30 491.5,-30 491.5,-10 471.5,-10"/>
<text text-anchor="start" x="495.28" y="-15.4" font-family="Times-12" font-size="14.00"> &#160;Bootstrap</text>
<polygon fill="#fdb462" stroke="transparent" points="568.5,-10 568.5,-30 588.5,-30 588.5,-10 568.5,-10"/>
<text text-anchor="start" x="592.17" y="-15.4" font-family="Times-12" font-size="14.00"> &#160;Providers</text>
<polygon fill="#fb8072" stroke="transparent" points="664.5,-10 664.5,-30 684.5,-30 684.5,-10 664.5,-10"/>
<text text-anchor="start" x="688.23" y="-15.4" font-family="Times-12" font-size="14.00"> &#160;Exports</text>
<g id="clust1" class="cluster">
<title>cluster_HelperModule</title>
<polygon fill="none" stroke="black" stroke-dasharray="1,5" points="8,-70 8,-268 1005,-268 1005,-70 8,-70"/>
</g>
<g id="clust4" class="cluster">
<title>cluster_HelperModule_exports</title>
<polygon fill="none" stroke="black" points="108,-208 108,-260 877,-260 877,-208 108,-208"/>
</g>
<g id="clust6" class="cluster">
<title>cluster_HelperModule_providers</title>
<polygon fill="none" stroke="black" points="16,-78 16,-130 997,-130 997,-78 16,-78"/>
</g>
<!-- AkismetService  -->
<g id="node1" class="node">
<title>AkismetService </title>
<polygon fill="#fb8072" stroke="black" points="869.42,-252 760.58,-252 760.58,-216 869.42,-216 869.42,-252"/>
<text text-anchor="middle" x="815" y="-229.8" font-family="Times,serif" font-size="14.00">AkismetService </text>
</g>
<!-- CounterService  -->
<g id="node2" class="node">
<title>CounterService </title>
<polygon fill="#fb8072" stroke="black" points="742.08,-252 635.92,-252 635.92,-216 742.08,-216 742.08,-252"/>
<text text-anchor="middle" x="689" y="-229.8" font-family="Times,serif" font-size="14.00">CounterService </text>
</g>
<!-- EmailService  -->
<g id="node3" class="node">
<title>EmailService </title>
<polygon fill="#fb8072" stroke="black" points="617.42,-252 522.58,-252 522.58,-216 617.42,-216 617.42,-252"/>
<text text-anchor="middle" x="570" y="-229.8" font-family="Times,serif" font-size="14.00">EmailService </text>
</g>
<!-- GoogleService  -->
<g id="node4" class="node">
<title>GoogleService </title>
<polygon fill="#fb8072" stroke="black" points="504.19,-252 401.81,-252 401.81,-216 504.19,-216 504.19,-252"/>
<text text-anchor="middle" x="453" y="-229.8" font-family="Times,serif" font-size="14.00">GoogleService </text>
</g>
<!-- IPService  -->
<g id="node5" class="node">
<title>IPService </title>
<polygon fill="#fb8072" stroke="black" points="383.92,-252 310.08,-252 310.08,-216 383.92,-216 383.92,-252"/>
<text text-anchor="middle" x="347" y="-229.8" font-family="Times,serif" font-size="14.00">IPService </text>
</g>
<!-- S3Service  -->
<g id="node6" class="node">
<title>S3Service </title>
<polygon fill="#fb8072" stroke="black" points="292.26,-252 215.74,-252 215.74,-216 292.26,-216 292.26,-252"/>
<text text-anchor="middle" x="254" y="-229.8" font-family="Times,serif" font-size="14.00">S3Service </text>
</g>
<!-- SeoService  -->
<g id="node7" class="node">
<title>SeoService </title>
<polygon fill="#fb8072" stroke="black" points="198.48,-252 115.52,-252 115.52,-216 198.48,-216 198.48,-252"/>
<text text-anchor="middle" x="157" y="-229.8" font-family="Times,serif" font-size="14.00">SeoService </text>
</g>
<!-- HelperModule -->
<g id="node8" class="node">
<title>HelperModule</title>
<polygon fill="#8dd3c7" stroke="black" points="501.64,-187 498.64,-191 477.64,-191 474.64,-187 404.36,-187 404.36,-151 501.64,-151 501.64,-187"/>
<text text-anchor="middle" x="453" y="-164.8" font-family="Times,serif" font-size="14.00">HelperModule</text>
</g>
<!-- HelperModule&#45;&gt;AkismetService  -->
<g id="edge1" class="edge">
<title>HelperModule&#45;&gt;AkismetService </title>
<path fill="none" stroke="black" stroke-dasharray="5,2" d="M501.69,-172C595.65,-172 792.82,-172 792.82,-172 792.82,-172 792.82,-205.73 792.82,-205.73"/>
<polygon fill="black" stroke="black" points="789.32,-205.73 792.82,-215.73 796.32,-205.73 789.32,-205.73"/>
</g>
<!-- HelperModule&#45;&gt;CounterService  -->
<g id="edge2" class="edge">
<title>HelperModule&#45;&gt;CounterService </title>
<path fill="none" stroke="black" stroke-dasharray="5,2" d="M501.79,-177C560.24,-177 650.38,-177 650.38,-177 650.38,-177 650.38,-205.96 650.38,-205.96"/>
<polygon fill="black" stroke="black" points="646.88,-205.96 650.38,-215.96 653.88,-205.96 646.88,-205.96"/>
</g>
<!-- HelperModule&#45;&gt;EmailService  -->
<g id="edge3" class="edge">
<title>HelperModule&#45;&gt;EmailService </title>
<path fill="none" stroke="black" stroke-dasharray="5,2" d="M501.79,-182C517.41,-182 530.74,-182 530.74,-182 530.74,-182 530.74,-205.81 530.74,-205.81"/>
<polygon fill="black" stroke="black" points="527.24,-205.81 530.74,-215.81 534.24,-205.81 527.24,-205.81"/>
</g>
<!-- HelperModule&#45;&gt;GoogleService  -->
<g id="edge4" class="edge">
<title>HelperModule&#45;&gt;GoogleService </title>
<path fill="none" stroke="black" stroke-dasharray="5,2" d="M453,-187.11C453,-187.11 453,-205.99 453,-205.99"/>
<polygon fill="black" stroke="black" points="449.5,-205.99 453,-215.99 456.5,-205.99 449.5,-205.99"/>
</g>
<!-- HelperModule&#45;&gt;IPService  -->
<g id="edge5" class="edge">
<title>HelperModule&#45;&gt;IPService </title>
<path fill="none" stroke="black" stroke-dasharray="5,2" d="M404.21,-182C388.59,-182 375.27,-182 375.27,-182 375.27,-182 375.27,-205.81 375.27,-205.81"/>
<polygon fill="black" stroke="black" points="371.77,-205.81 375.27,-215.81 378.77,-205.81 371.77,-205.81"/>
</g>
<!-- HelperModule&#45;&gt;S3Service  -->
<g id="edge6" class="edge">
<title>HelperModule&#45;&gt;S3Service </title>
<path fill="none" stroke="black" stroke-dasharray="5,2" d="M404.11,-177C353.19,-177 280.78,-177 280.78,-177 280.78,-177 280.78,-205.96 280.78,-205.96"/>
<polygon fill="black" stroke="black" points="277.28,-205.96 280.78,-215.96 284.28,-205.96 277.28,-205.96"/>
</g>
<!-- HelperModule&#45;&gt;SeoService  -->
<g id="edge7" class="edge">
<title>HelperModule&#45;&gt;SeoService </title>
<path fill="none" stroke="black" stroke-dasharray="5,2" d="M404.17,-172C324.31,-172 174.52,-172 174.52,-172 174.52,-172 174.52,-205.73 174.52,-205.73"/>
<polygon fill="black" stroke="black" points="171.02,-205.73 174.52,-215.73 178.02,-205.73 171.02,-205.73"/>
</g>
<!-- AkismetService -->
<g id="node9" class="node">
<title>AkismetService</title>
<ellipse fill="#fdb462" stroke="black" cx="916" cy="-104" rx="72.93" ry="18"/>
<text text-anchor="middle" x="916" y="-99.8" font-family="Times,serif" font-size="14.00">AkismetService</text>
</g>
<!-- AkismetService&#45;&gt;HelperModule -->
<g id="edge8" class="edge">
<title>AkismetService&#45;&gt;HelperModule</title>
<path fill="none" stroke="black" d="M856.37,-114.4C856.37,-132.3 856.37,-167 856.37,-167 856.37,-167 511.66,-167 511.66,-167"/>
<polygon fill="black" stroke="black" points="511.66,-163.5 501.66,-167 511.66,-170.5 511.66,-163.5"/>
</g>
<!-- CounterService -->
<g id="node10" class="node">
<title>CounterService</title>
<ellipse fill="#fdb462" stroke="black" cx="754" cy="-104" rx="71.21" ry="18"/>
<text text-anchor="middle" x="754" y="-99.8" font-family="Times,serif" font-size="14.00">CounterService</text>
</g>
<!-- CounterService&#45;&gt;HelperModule -->
<g id="edge9" class="edge">
<title>CounterService&#45;&gt;HelperModule</title>
<path fill="none" stroke="black" d="M712.59,-118.64C712.59,-135.82 712.59,-162 712.59,-162 712.59,-162 511.83,-162 511.83,-162"/>
<polygon fill="black" stroke="black" points="511.83,-158.5 501.83,-162 511.83,-165.5 511.83,-158.5"/>
</g>
<!-- EmailService -->
<g id="node11" class="node">
<title>EmailService</title>
<ellipse fill="#fdb462" stroke="black" cx="602" cy="-104" rx="63.12" ry="18"/>
<text text-anchor="middle" x="602" y="-99.8" font-family="Times,serif" font-size="14.00">EmailService</text>
</g>
<!-- EmailService&#45;&gt;HelperModule -->
<g id="edge10" class="edge">
<title>EmailService&#45;&gt;HelperModule</title>
<path fill="none" stroke="black" d="M578.2,-120.77C578.2,-136.3 578.2,-157 578.2,-157 578.2,-157 511.76,-157 511.76,-157"/>
<polygon fill="black" stroke="black" points="511.76,-153.5 501.76,-157 511.76,-160.5 511.76,-153.5"/>
</g>
<!-- GoogleService -->
<g id="node12" class="node">
<title>GoogleService</title>
<ellipse fill="#fdb462" stroke="black" cx="453" cy="-104" rx="68.34" ry="18"/>
<text text-anchor="middle" x="453" y="-99.8" font-family="Times,serif" font-size="14.00">GoogleService</text>
</g>
<!-- GoogleService&#45;&gt;HelperModule -->
<g id="edge11" class="edge">
<title>GoogleService&#45;&gt;HelperModule</title>
<path fill="none" stroke="black" d="M453,-122.11C453,-122.11 453,-140.99 453,-140.99"/>
<polygon fill="black" stroke="black" points="449.5,-140.99 453,-150.99 456.5,-140.99 449.5,-140.99"/>
</g>
<!-- IPService -->
<g id="node13" class="node">
<title>IPService</title>
<ellipse fill="#fdb462" stroke="black" cx="318" cy="-104" rx="48.65" ry="18"/>
<text text-anchor="middle" x="318" y="-99.8" font-family="Times,serif" font-size="14.00">IPService</text>
</g>
<!-- IPService&#45;&gt;HelperModule -->
<g id="edge12" class="edge">
<title>IPService&#45;&gt;HelperModule</title>
<path fill="none" stroke="black" d="M338.31,-120.48C338.31,-136.04 338.31,-157 338.31,-157 338.31,-157 394.36,-157 394.36,-157"/>
<polygon fill="black" stroke="black" points="394.36,-160.5 404.36,-157 394.36,-153.5 394.36,-160.5"/>
</g>
<!-- S3Service -->
<g id="node14" class="node">
<title>S3Service</title>
<ellipse fill="#fdb462" stroke="black" cx="201" cy="-104" rx="50.38" ry="18"/>
<text text-anchor="middle" x="201" y="-99.8" font-family="Times,serif" font-size="14.00">S3Service</text>
</g>
<!-- S3Service&#45;&gt;HelperModule -->
<g id="edge13" class="edge">
<title>S3Service&#45;&gt;HelperModule</title>
<path fill="none" stroke="black" d="M233.53,-117.75C233.53,-134.9 233.53,-162 233.53,-162 233.53,-162 394.29,-162 394.29,-162"/>
<polygon fill="black" stroke="black" points="394.29,-165.5 404.29,-162 394.29,-158.5 394.29,-165.5"/>
</g>
<!-- SeoService -->
<g id="node15" class="node">
<title>SeoService</title>
<ellipse fill="#fdb462" stroke="black" cx="78" cy="-104" rx="54.45" ry="18"/>
<text text-anchor="middle" x="78" y="-99.8" font-family="Times,serif" font-size="14.00">SeoService</text>
</g>
<!-- SeoService&#45;&gt;HelperModule -->
<g id="edge14" class="edge">
<title>SeoService&#45;&gt;HelperModule</title>
<path fill="none" stroke="black" d="M124.12,-113.84C124.12,-131.56 124.12,-167 124.12,-167 124.12,-167 394.12,-167 394.12,-167"/>
<polygon fill="black" stroke="black" points="394.12,-170.5 404.12,-167 394.12,-163.5 394.12,-170.5"/>
</g>
</g>
</svg>
