<?xml version="1.0" encoding="UTF-8" standalone="no"?>
<!DOCTYPE svg PUBLIC "-//W3C//DTD SVG 1.1//EN"
 "http://www.w3.org/Graphics/SVG/1.1/DTD/svg11.dtd">
<!-- Generated by graphviz version 2.47.3 (20210619.1520)
 -->
<!-- Title: dependencies Pages: 1 -->
<svg width="1740pt" height="174pt"
 viewBox="0.00 0.00 1740.00 173.80" xmlns="http://www.w3.org/2000/svg" xmlns:xlink="http://www.w3.org/1999/xlink">
<g id="graph0" class="graph" transform="scale(1 1) rotate(0) translate(4 169.8)">
<title>dependencies</title>
<polygon fill="white" stroke="transparent" points="-4,4 -4,-169.8 1736,-169.8 1736,4 -4,4"/>
<text text-anchor="middle" x="866" y="-8.2" font-family="sans-serif" font-size="14.00">dependencies</text>
<g id="clust1" class="cluster">
<title>cluster_AppModule</title>
<polygon fill="none" stroke="black" stroke-dasharray="1,5" points="8,-32.8 8,-157.8 1724,-157.8 1724,-32.8 8,-32.8"/>
</g>
<g id="clust3" class="cluster">
<title>cluster_AppModule_imports</title>
<polygon fill="none" stroke="black" points="16,-40.8 16,-92.8 1716,-92.8 1716,-40.8 16,-40.8"/>
</g>
<!-- AnnouncementModule -->
<g id="node1" class="node">
<title>AnnouncementModule</title>
<polygon fill="#8dd3c7" stroke="black" points="1707.58,-84.8 1704.58,-88.8 1683.58,-88.8 1680.58,-84.8 1562.42,-84.8 1562.42,-48.8 1707.58,-48.8 1707.58,-84.8"/>
<text text-anchor="middle" x="1635" y="-62.6" font-family="Times,serif" font-size="14.00">AnnouncementModule</text>
</g>
<!-- AppModule -->
<g id="node15" class="node">
<title>AppModule</title>
<polygon fill="#8dd3c7" stroke="black" points="875.66,-149.8 872.66,-153.8 851.66,-153.8 848.66,-149.8 792.34,-149.8 792.34,-113.8 875.66,-113.8 875.66,-149.8"/>
<text text-anchor="middle" x="834" y="-127.6" font-family="Times,serif" font-size="14.00">AppModule</text>
</g>
<!-- AnnouncementModule&#45;&gt;AppModule -->
<g id="edge1" class="edge">
<title>AnnouncementModule&#45;&gt;AppModule</title>
<path fill="none" stroke="black" d="M1635,-84.89C1635,-107.93 1635,-144.8 1635,-144.8 1635,-144.8 885.66,-144.8 885.66,-144.8"/>
<polygon fill="black" stroke="black" points="885.66,-141.3 875.66,-144.8 885.66,-148.3 885.66,-141.3"/>
</g>
<!-- ArchiveModule -->
<g id="node2" class="node">
<title>ArchiveModule</title>
<polygon fill="#8dd3c7" stroke="black" points="1544.14,-84.8 1541.14,-88.8 1520.14,-88.8 1517.14,-84.8 1439.86,-84.8 1439.86,-48.8 1544.14,-48.8 1544.14,-84.8"/>
<text text-anchor="middle" x="1492" y="-62.6" font-family="Times,serif" font-size="14.00">ArchiveModule</text>
</g>
<!-- ArchiveModule&#45;&gt;AppModule -->
<g id="edge2" class="edge">
<title>ArchiveModule&#45;&gt;AppModule</title>
<path fill="none" stroke="black" d="M1492,-84.84C1492,-106.46 1492,-139.8 1492,-139.8 1492,-139.8 885.66,-139.8 885.66,-139.8"/>
<polygon fill="black" stroke="black" points="885.66,-136.3 875.66,-139.8 885.66,-143.3 885.66,-136.3"/>
</g>
<!-- ArticleModule -->
<g id="node3" class="node">
<title>ArticleModule</title>
<polygon fill="#8dd3c7" stroke="black" points="1421.42,-84.8 1418.42,-88.8 1397.42,-88.8 1394.42,-84.8 1322.58,-84.8 1322.58,-48.8 1421.42,-48.8 1421.42,-84.8"/>
<text text-anchor="middle" x="1372" y="-62.6" font-family="Times,serif" font-size="14.00">ArticleModule</text>
</g>
<!-- ArticleModule&#45;&gt;AppModule -->
<g id="edge3" class="edge">
<title>ArticleModule&#45;&gt;AppModule</title>
<path fill="none" stroke="black" d="M1372,-85.02C1372,-105.17 1372,-134.8 1372,-134.8 1372,-134.8 885.77,-134.8 885.77,-134.8"/>
<polygon fill="black" stroke="black" points="885.77,-131.3 875.77,-134.8 885.77,-138.3 885.77,-131.3"/>
</g>
<!-- AuthModule -->
<g id="node4" class="node">
<title>AuthModule</title>
<polygon fill="#8dd3c7" stroke="black" points="1304.55,-84.8 1301.55,-88.8 1280.55,-88.8 1277.55,-84.8 1217.45,-84.8 1217.45,-48.8 1304.55,-48.8 1304.55,-84.8"/>
<text text-anchor="middle" x="1261" y="-62.6" font-family="Times,serif" font-size="14.00">AuthModule</text>
</g>
<!-- AuthModule&#45;&gt;AppModule -->
<g id="edge4" class="edge">
<title>AuthModule&#45;&gt;AppModule</title>
<path fill="none" stroke="black" d="M1261,-85.02C1261,-103.63 1261,-129.8 1261,-129.8 1261,-129.8 885.72,-129.8 885.72,-129.8"/>
<polygon fill="black" stroke="black" points="885.72,-126.3 875.72,-129.8 885.72,-133.3 885.72,-126.3"/>
</g>
<!-- CacheModule -->
<g id="node5" class="node">
<title>CacheModule</title>
<polygon fill="#8dd3c7" stroke="black" points="1199.03,-84.8 1196.03,-88.8 1175.03,-88.8 1172.03,-84.8 1104.97,-84.8 1104.97,-48.8 1199.03,-48.8 1199.03,-84.8"/>
<text text-anchor="middle" x="1152" y="-62.6" font-family="Times,serif" font-size="14.00">CacheModule</text>
</g>
<!-- CacheModule&#45;&gt;AppModule -->
<g id="edge5" class="edge">
<title>CacheModule&#45;&gt;AppModule</title>
<path fill="none" stroke="black" d="M1152,-84.83C1152,-101.86 1152,-124.8 1152,-124.8 1152,-124.8 885.9,-124.8 885.9,-124.8"/>
<polygon fill="black" stroke="black" points="885.9,-121.3 875.9,-124.8 885.9,-128.3 885.9,-121.3"/>
</g>
<!-- CategoryModule -->
<g id="node6" class="node">
<title>CategoryModule</title>
<polygon fill="#8dd3c7" stroke="black" points="1086.37,-84.8 1083.37,-88.8 1062.37,-88.8 1059.37,-84.8 975.63,-84.8 975.63,-48.8 1086.37,-48.8 1086.37,-84.8"/>
<text text-anchor="middle" x="1031" y="-62.6" font-family="Times,serif" font-size="14.00">CategoryModule</text>
</g>
<!-- CategoryModule&#45;&gt;AppModule -->
<g id="edge6" class="edge">
<title>CategoryModule&#45;&gt;AppModule</title>
<path fill="none" stroke="black" d="M1031,-85.04C1031,-100.37 1031,-119.8 1031,-119.8 1031,-119.8 885.78,-119.8 885.78,-119.8"/>
<polygon fill="black" stroke="black" points="885.78,-116.3 875.78,-119.8 885.78,-123.3 885.78,-116.3"/>
</g>
<!-- CommentModule -->
<g id="node7" class="node">
<title>CommentModule</title>
<polygon fill="#8dd3c7" stroke="black" points="957.27,-84.8 954.27,-88.8 933.27,-88.8 930.27,-84.8 842.73,-84.8 842.73,-48.8 957.27,-48.8 957.27,-84.8"/>
<text text-anchor="middle" x="900" y="-62.6" font-family="Times,serif" font-size="14.00">CommentModule</text>
</g>
<!-- CommentModule&#45;&gt;AppModule -->
<g id="edge7" class="edge">
<title>CommentModule&#45;&gt;AppModule</title>
<path fill="none" stroke="black" d="M859.22,-84.91C859.22,-84.91 859.22,-103.79 859.22,-103.79"/>
<polygon fill="black" stroke="black" points="855.72,-103.79 859.22,-113.79 862.72,-103.79 855.72,-103.79"/>
</g>
<!-- DatabaseModule -->
<g id="node8" class="node">
<title>DatabaseModule</title>
<polygon fill="#8dd3c7" stroke="black" points="824.35,-84.8 821.35,-88.8 800.35,-88.8 797.35,-84.8 713.65,-84.8 713.65,-48.8 824.35,-48.8 824.35,-84.8"/>
<text text-anchor="middle" x="769" y="-62.6" font-family="Times,serif" font-size="14.00">DatabaseModule</text>
</g>
<!-- DatabaseModule&#45;&gt;AppModule -->
<g id="edge8" class="edge">
<title>DatabaseModule&#45;&gt;AppModule</title>
<path fill="none" stroke="black" d="M808.3,-84.91C808.3,-84.91 808.3,-103.79 808.3,-103.79"/>
<polygon fill="black" stroke="black" points="804.8,-103.79 808.3,-113.79 811.8,-103.79 804.8,-103.79"/>
</g>
<!-- DisqusModule -->
<g id="node9" class="node">
<title>DisqusModule</title>
<polygon fill="#8dd3c7" stroke="black" points="695.44,-84.8 692.44,-88.8 671.44,-88.8 668.44,-84.8 596.56,-84.8 596.56,-48.8 695.44,-48.8 695.44,-84.8"/>
<text text-anchor="middle" x="646" y="-62.6" font-family="Times,serif" font-size="14.00">DisqusModule</text>
</g>
<!-- DisqusModule&#45;&gt;AppModule -->
<g id="edge9" class="edge">
<title>DisqusModule&#45;&gt;AppModule</title>
<path fill="none" stroke="black" d="M646,-85.04C646,-100.37 646,-119.8 646,-119.8 646,-119.8 782.28,-119.8 782.28,-119.8"/>
<polygon fill="black" stroke="black" points="782.28,-123.3 792.28,-119.8 782.28,-116.3 782.28,-123.3"/>
</g>
<!-- ExpansionModule -->
<g id="node10" class="node">
<title>ExpansionModule</title>
<polygon fill="#8dd3c7" stroke="black" points="578.15,-84.8 575.15,-88.8 554.15,-88.8 551.15,-84.8 459.85,-84.8 459.85,-48.8 578.15,-48.8 578.15,-84.8"/>
<text text-anchor="middle" x="519" y="-62.6" font-family="Times,serif" font-size="14.00">ExpansionModule</text>
</g>
<!-- ExpansionModule&#45;&gt;AppModule -->
<g id="edge10" class="edge">
<title>ExpansionModule&#45;&gt;AppModule</title>
<path fill="none" stroke="black" d="M519,-84.83C519,-101.86 519,-124.8 519,-124.8 519,-124.8 782.17,-124.8 782.17,-124.8"/>
<polygon fill="black" stroke="black" points="782.17,-128.3 792.17,-124.8 782.17,-121.3 782.17,-128.3"/>
</g>
<!-- HelperModule -->
<g id="node11" class="node">
<title>HelperModule</title>
<polygon fill="#8dd3c7" stroke="black" points="441.64,-84.8 438.64,-88.8 417.64,-88.8 414.64,-84.8 344.36,-84.8 344.36,-48.8 441.64,-48.8 441.64,-84.8"/>
<text text-anchor="middle" x="393" y="-62.6" font-family="Times,serif" font-size="14.00">HelperModule</text>
</g>
<!-- HelperModule&#45;&gt;AppModule -->
<g id="edge11" class="edge">
<title>HelperModule&#45;&gt;AppModule</title>
<path fill="none" stroke="black" d="M393,-85.02C393,-103.63 393,-129.8 393,-129.8 393,-129.8 782.11,-129.8 782.11,-129.8"/>
<polygon fill="black" stroke="black" points="782.11,-133.3 792.11,-129.8 782.11,-126.3 782.11,-133.3"/>
</g>
<!-- OptionModule -->
<g id="node12" class="node">
<title>OptionModule</title>
<polygon fill="#8dd3c7" stroke="black" points="326.44,-84.8 323.44,-88.8 302.44,-88.8 299.44,-84.8 227.56,-84.8 227.56,-48.8 326.44,-48.8 326.44,-84.8"/>
<text text-anchor="middle" x="277" y="-62.6" font-family="Times,serif" font-size="14.00">OptionModule</text>
</g>
<!-- OptionModule&#45;&gt;AppModule -->
<g id="edge12" class="edge">
<title>OptionModule&#45;&gt;AppModule</title>
<path fill="none" stroke="black" d="M277,-85.02C277,-105.17 277,-134.8 277,-134.8 277,-134.8 782.13,-134.8 782.13,-134.8"/>
<polygon fill="black" stroke="black" points="782.13,-138.3 792.13,-134.8 782.13,-131.3 782.13,-138.3"/>
</g>
<!-- TagModule -->
<g id="node13" class="node">
<title>TagModule</title>
<polygon fill="#8dd3c7" stroke="black" points="209.82,-84.8 206.82,-88.8 185.82,-88.8 182.82,-84.8 128.18,-84.8 128.18,-48.8 209.82,-48.8 209.82,-84.8"/>
<text text-anchor="middle" x="169" y="-62.6" font-family="Times,serif" font-size="14.00">TagModule</text>
</g>
<!-- TagModule&#45;&gt;AppModule -->
<g id="edge13" class="edge">
<title>TagModule&#45;&gt;AppModule</title>
<path fill="none" stroke="black" d="M169,-84.84C169,-106.46 169,-139.8 169,-139.8 169,-139.8 782.15,-139.8 782.15,-139.8"/>
<polygon fill="black" stroke="black" points="782.15,-143.3 792.15,-139.8 782.15,-136.3 782.15,-143.3"/>
</g>
<!-- VoteModule -->
<g id="node14" class="node">
<title>VoteModule</title>
<polygon fill="#8dd3c7" stroke="black" points="110.26,-84.8 107.26,-88.8 86.26,-88.8 83.26,-84.8 23.74,-84.8 23.74,-48.8 110.26,-48.8 110.26,-84.8"/>
<text text-anchor="middle" x="67" y="-62.6" font-family="Times,serif" font-size="14.00">VoteModule</text>
</g>
<!-- VoteModule&#45;&gt;AppModule -->
<g id="edge14" class="edge">
<title>VoteModule&#45;&gt;AppModule</title>
<path fill="none" stroke="black" d="M67,-84.89C67,-107.93 67,-144.8 67,-144.8 67,-144.8 782.22,-144.8 782.22,-144.8"/>
<polygon fill="black" stroke="black" points="782.22,-148.3 792.22,-144.8 782.22,-141.3 782.22,-148.3"/>
</g>
</g>
</svg>
