<?xml version="1.0" encoding="UTF-8" standalone="no"?>
<!DOCTYPE svg PUBLIC "-//W3C//DTD SVG 1.1//EN"
 "http://www.w3.org/Graphics/SVG/1.1/DTD/svg11.dtd">
<!-- Generated by graphviz version 2.47.0 (20210316.0004)
 -->
<!-- Title: dependencies Pages: 1 -->
<svg width="1983pt" height="211pt"
 viewBox="0.00 0.00 1983.00 211.00" xmlns="http://www.w3.org/2000/svg" xmlns:xlink="http://www.w3.org/1999/xlink">
<g id="graph0" class="graph" transform="scale(1 1) rotate(0) translate(4 207)">
<title>dependencies</title>
<polygon fill="white" stroke="transparent" points="-4,4 -4,-207 1979,-207 1979,4 -4,4"/>
<text text-anchor="start" x="966.51" y="-42.4" font-family="Times-12" font-weight="bold" font-size="14.00">Legend</text>
<polygon fill="#ffffb3" stroke="transparent" points="753.5,-10 753.5,-30 773.5,-30 773.5,-10 753.5,-10"/>
<text text-anchor="start" x="777.13" y="-15.4" font-family="Times-12" font-size="14.00"> &#160;Declarations</text>
<polygon fill="#8dd3c7" stroke="transparent" points="866.5,-10 866.5,-30 886.5,-30 886.5,-10 866.5,-10"/>
<text text-anchor="start" x="890.23" y="-15.4" font-family="Times-12" font-size="14.00"> &#160;Module</text>
<polygon fill="#80b1d3" stroke="transparent" points="952.5,-10 952.5,-30 972.5,-30 972.5,-10 952.5,-10"/>
<text text-anchor="start" x="976.28" y="-15.4" font-family="Times-12" font-size="14.00"> &#160;Bootstrap</text>
<polygon fill="#fdb462" stroke="transparent" points="1049.5,-10 1049.5,-30 1069.5,-30 1069.5,-10 1049.5,-10"/>
<text text-anchor="start" x="1073.17" y="-15.4" font-family="Times-12" font-size="14.00"> &#160;Providers</text>
<polygon fill="#fb8072" stroke="transparent" points="1145.5,-10 1145.5,-30 1165.5,-30 1165.5,-10 1145.5,-10"/>
<text text-anchor="start" x="1169.23" y="-15.4" font-family="Times-12" font-size="14.00"> &#160;Exports</text>
<g id="clust1" class="cluster">
<title>cluster_AppModule</title>
<polygon fill="none" stroke="black" stroke-dasharray="1,5" points="8,-70 8,-195 1967,-195 1967,-70 8,-70"/>
</g>
<g id="clust3" class="cluster">
<title>cluster_AppModule_imports</title>
<polygon fill="none" stroke="black" points="16,-78 16,-130 1959,-130 1959,-78 16,-78"/>
</g>
<!-- AdminModule -->
<g id="node1" class="node">
<title>AdminModule</title>
<polygon fill="#8dd3c7" stroke="black" points="1951.44,-122 1948.44,-126 1927.44,-126 1924.44,-122 1852.56,-122 1852.56,-86 1951.44,-86 1951.44,-122"/>
<text text-anchor="middle" x="1902" y="-99.8" font-family="Times,serif" font-size="14.00">AdminModule</text>
</g>
<!-- AppModule -->
<g id="node17" class="node">
<title>AppModule</title>
<polygon fill="#8dd3c7" stroke="black" points="1002.66,-187 999.66,-191 978.66,-191 975.66,-187 919.34,-187 919.34,-151 1002.66,-151 1002.66,-187"/>
<text text-anchor="middle" x="961" y="-164.8" font-family="Times,serif" font-size="14.00">AppModule</text>
</g>
<!-- AdminModule&#45;&gt;AppModule -->
<g id="edge1" class="edge">
<title>AdminModule&#45;&gt;AppModule</title>
<path fill="none" stroke="black" d="M1902,-122.32C1902,-145.66 1902,-183 1902,-183 1902,-183 1012.95,-183 1012.95,-183"/>
<polygon fill="black" stroke="black" points="1012.95,-179.5 1002.95,-183 1012.95,-186.5 1012.95,-179.5"/>
</g>
<!-- AnnouncementModule -->
<g id="node2" class="node">
<title>AnnouncementModule</title>
<polygon fill="#8dd3c7" stroke="black" points="1834.58,-122 1831.58,-126 1810.58,-126 1807.58,-122 1689.42,-122 1689.42,-86 1834.58,-86 1834.58,-122"/>
<text text-anchor="middle" x="1762" y="-99.8" font-family="Times,serif" font-size="14.00">AnnouncementModule</text>
</g>
<!-- AnnouncementModule&#45;&gt;AppModule -->
<g id="edge2" class="edge">
<title>AnnouncementModule&#45;&gt;AppModule</title>
<path fill="none" stroke="black" d="M1762,-122.29C1762,-144.21 1762,-178 1762,-178 1762,-178 1012.66,-178 1012.66,-178"/>
<polygon fill="black" stroke="black" points="1012.66,-174.5 1002.66,-178 1012.66,-181.5 1012.66,-174.5"/>
</g>
<!-- ArchiveModule -->
<g id="node3" class="node">
<title>ArchiveModule</title>
<polygon fill="#8dd3c7" stroke="black" points="1671.14,-122 1668.14,-126 1647.14,-126 1644.14,-122 1566.86,-122 1566.86,-86 1671.14,-86 1671.14,-122"/>
<text text-anchor="middle" x="1619" y="-99.8" font-family="Times,serif" font-size="14.00">ArchiveModule</text>
</g>
<!-- ArchiveModule&#45;&gt;AppModule -->
<g id="edge3" class="edge">
<title>ArchiveModule&#45;&gt;AppModule</title>
<path fill="none" stroke="black" d="M1619,-122.03C1619,-142.77 1619,-174 1619,-174 1619,-174 1012.66,-174 1012.66,-174"/>
<polygon fill="black" stroke="black" points="1012.66,-170.5 1002.66,-174 1012.66,-177.5 1012.66,-170.5"/>
</g>
<!-- ArticleModule -->
<g id="node4" class="node">
<title>ArticleModule</title>
<polygon fill="#8dd3c7" stroke="black" points="1548.42,-122 1545.42,-126 1524.42,-126 1521.42,-122 1449.58,-122 1449.58,-86 1548.42,-86 1548.42,-122"/>
<text text-anchor="middle" x="1499" y="-99.8" font-family="Times,serif" font-size="14.00">ArticleModule</text>
</g>
<!-- ArticleModule&#45;&gt;AppModule -->
<g id="edge4" class="edge">
<title>ArticleModule&#45;&gt;AppModule</title>
<path fill="none" stroke="black" d="M1499,-122.11C1499,-141.34 1499,-169 1499,-169 1499,-169 1012.77,-169 1012.77,-169"/>
<polygon fill="black" stroke="black" points="1012.77,-165.5 1002.77,-169 1012.77,-172.5 1012.77,-165.5"/>
</g>
<!-- AuthModule -->
<g id="node5" class="node">
<title>AuthModule</title>
<polygon fill="#8dd3c7" stroke="black" points="1431.55,-122 1428.55,-126 1407.55,-126 1404.55,-122 1344.45,-122 1344.45,-86 1431.55,-86 1431.55,-122"/>
<text text-anchor="middle" x="1388" y="-99.8" font-family="Times,serif" font-size="14.00">AuthModule</text>
</g>
<!-- AuthModule&#45;&gt;AppModule -->
<g id="edge5" class="edge">
<title>AuthModule&#45;&gt;AppModule</title>
<path fill="none" stroke="black" d="M1388,-122.3C1388,-140.27 1388,-165 1388,-165 1388,-165 1012.72,-165 1012.72,-165"/>
<polygon fill="black" stroke="black" points="1012.72,-161.5 1002.72,-165 1012.72,-168.5 1012.72,-161.5"/>
</g>
<!-- CacheModule -->
<g id="node6" class="node">
<title>CacheModule</title>
<polygon fill="#8dd3c7" stroke="black" points="1326.03,-122 1323.03,-126 1302.03,-126 1299.03,-122 1231.97,-122 1231.97,-86 1326.03,-86 1326.03,-122"/>
<text text-anchor="middle" x="1279" y="-99.8" font-family="Times,serif" font-size="14.00">CacheModule</text>
</g>
<!-- CacheModule&#45;&gt;AppModule -->
<g id="edge6" class="edge">
<title>CacheModule&#45;&gt;AppModule</title>
<path fill="none" stroke="black" d="M1279,-122.03C1279,-138.4 1279,-160 1279,-160 1279,-160 1012.9,-160 1012.9,-160"/>
<polygon fill="black" stroke="black" points="1012.9,-156.5 1002.9,-160 1012.9,-163.5 1012.9,-156.5"/>
</g>
<!-- CategoryModule -->
<g id="node7" class="node">
<title>CategoryModule</title>
<polygon fill="#8dd3c7" stroke="black" points="1213.37,-122 1210.37,-126 1189.37,-126 1186.37,-122 1102.63,-122 1102.63,-86 1213.37,-86 1213.37,-122"/>
<text text-anchor="middle" x="1158" y="-99.8" font-family="Times,serif" font-size="14.00">CategoryModule</text>
</g>
<!-- CategoryModule&#45;&gt;AppModule -->
<g id="edge7" class="edge">
<title>CategoryModule&#45;&gt;AppModule</title>
<path fill="none" stroke="black" d="M1158,-122.19C1158,-137.18 1158,-156 1158,-156 1158,-156 1012.78,-156 1012.78,-156"/>
<polygon fill="black" stroke="black" points="1012.78,-152.5 1002.78,-156 1012.78,-159.5 1012.78,-152.5"/>
</g>
<!-- CommentModule -->
<g id="node8" class="node">
<title>CommentModule</title>
<polygon fill="#8dd3c7" stroke="black" points="1084.27,-122 1081.27,-126 1060.27,-126 1057.27,-122 969.73,-122 969.73,-86 1084.27,-86 1084.27,-122"/>
<text text-anchor="middle" x="1027" y="-99.8" font-family="Times,serif" font-size="14.00">CommentModule</text>
</g>
<!-- CommentModule&#45;&gt;AppModule -->
<g id="edge8" class="edge">
<title>CommentModule&#45;&gt;AppModule</title>
<path fill="none" stroke="black" d="M986.22,-122.11C986.22,-122.11 986.22,-140.99 986.22,-140.99"/>
<polygon fill="black" stroke="black" points="982.72,-140.99 986.22,-150.99 989.72,-140.99 982.72,-140.99"/>
</g>
<!-- DatabaseModule -->
<g id="node9" class="node">
<title>DatabaseModule</title>
<polygon fill="#8dd3c7" stroke="black" points="951.35,-122 948.35,-126 927.35,-126 924.35,-122 840.65,-122 840.65,-86 951.35,-86 951.35,-122"/>
<text text-anchor="middle" x="896" y="-99.8" font-family="Times,serif" font-size="14.00">DatabaseModule</text>
</g>
<!-- DatabaseModule&#45;&gt;AppModule -->
<g id="edge9" class="edge">
<title>DatabaseModule&#45;&gt;AppModule</title>
<path fill="none" stroke="black" d="M935.3,-122.11C935.3,-122.11 935.3,-140.99 935.3,-140.99"/>
<polygon fill="black" stroke="black" points="931.8,-140.99 935.3,-150.99 938.8,-140.99 931.8,-140.99"/>
</g>
<!-- DisqusModule -->
<g id="node10" class="node">
<title>DisqusModule</title>
<polygon fill="#8dd3c7" stroke="black" points="822.44,-122 819.44,-126 798.44,-126 795.44,-122 723.56,-122 723.56,-86 822.44,-86 822.44,-122"/>
<text text-anchor="middle" x="773" y="-99.8" font-family="Times,serif" font-size="14.00">DisqusModule</text>
</g>
<!-- DisqusModule&#45;&gt;AppModule -->
<g id="edge10" class="edge">
<title>DisqusModule&#45;&gt;AppModule</title>
<path fill="none" stroke="black" d="M773,-122.19C773,-137.18 773,-156 773,-156 773,-156 909.28,-156 909.28,-156"/>
<polygon fill="black" stroke="black" points="909.28,-159.5 919.28,-156 909.28,-152.5 909.28,-159.5"/>
</g>
<!-- ExtensionModule -->
<g id="node11" class="node">
<title>ExtensionModule</title>
<polygon fill="#8dd3c7" stroke="black" points="705.54,-122 702.54,-126 681.54,-126 678.54,-122 590.46,-122 590.46,-86 705.54,-86 705.54,-122"/>
<text text-anchor="middle" x="648" y="-99.8" font-family="Times,serif" font-size="14.00">ExtensionModule</text>
</g>
<!-- ExtensionModule&#45;&gt;AppModule -->
<g id="edge11" class="edge">
<title>ExtensionModule&#45;&gt;AppModule</title>
<path fill="none" stroke="black" d="M648,-122.03C648,-138.4 648,-160 648,-160 648,-160 909.11,-160 909.11,-160"/>
<polygon fill="black" stroke="black" points="909.11,-163.5 919.11,-160 909.11,-156.5 909.11,-163.5"/>
</g>
<!-- FeedbackModule -->
<g id="node12" class="node">
<title>FeedbackModule</title>
<polygon fill="#8dd3c7" stroke="black" points="572.69,-122 569.69,-126 548.69,-126 545.69,-122 459.31,-122 459.31,-86 572.69,-86 572.69,-122"/>
<text text-anchor="middle" x="516" y="-99.8" font-family="Times,serif" font-size="14.00">FeedbackModule</text>
</g>
<!-- FeedbackModule&#45;&gt;AppModule -->
<g id="edge12" class="edge">
<title>FeedbackModule&#45;&gt;AppModule</title>
<path fill="none" stroke="black" d="M516,-122.3C516,-140.27 516,-165 516,-165 516,-165 909.14,-165 909.14,-165"/>
<polygon fill="black" stroke="black" points="909.14,-168.5 919.14,-165 909.14,-161.5 909.14,-168.5"/>
</g>
<!-- HelperModule -->
<g id="node13" class="node">
<title>HelperModule</title>
<polygon fill="#8dd3c7" stroke="black" points="441.64,-122 438.64,-126 417.64,-126 414.64,-122 344.36,-122 344.36,-86 441.64,-86 441.64,-122"/>
<text text-anchor="middle" x="393" y="-99.8" font-family="Times,serif" font-size="14.00">HelperModule</text>
</g>
<!-- HelperModule&#45;&gt;AppModule -->
<g id="edge13" class="edge">
<title>HelperModule&#45;&gt;AppModule</title>
<path fill="none" stroke="black" d="M393,-122.11C393,-141.34 393,-169 393,-169 393,-169 909.23,-169 909.23,-169"/>
<polygon fill="black" stroke="black" points="909.23,-172.5 919.23,-169 909.23,-165.5 909.23,-172.5"/>
</g>
<!-- OptionModule -->
<g id="node14" class="node">
<title>OptionModule</title>
<polygon fill="#8dd3c7" stroke="black" points="326.44,-122 323.44,-126 302.44,-126 299.44,-122 227.56,-122 227.56,-86 326.44,-86 326.44,-122"/>
<text text-anchor="middle" x="277" y="-99.8" font-family="Times,serif" font-size="14.00">OptionModule</text>
</g>
<!-- OptionModule&#45;&gt;AppModule -->
<g id="edge14" class="edge">
<title>OptionModule&#45;&gt;AppModule</title>
<path fill="none" stroke="black" d="M277,-122.03C277,-142.77 277,-174 277,-174 277,-174 909.24,-174 909.24,-174"/>
<polygon fill="black" stroke="black" points="909.24,-177.5 919.24,-174 909.24,-170.5 909.24,-177.5"/>
</g>
<!-- TagModule -->
<g id="node15" class="node">
<title>TagModule</title>
<polygon fill="#8dd3c7" stroke="black" points="209.82,-122 206.82,-126 185.82,-126 182.82,-122 128.18,-122 128.18,-86 209.82,-86 209.82,-122"/>
<text text-anchor="middle" x="169" y="-99.8" font-family="Times,serif" font-size="14.00">TagModule</text>
</g>
<!-- TagModule&#45;&gt;AppModule -->
<g id="edge15" class="edge">
<title>TagModule&#45;&gt;AppModule</title>
<path fill="none" stroke="black" d="M169,-122.29C169,-144.21 169,-178 169,-178 169,-178 909.26,-178 909.26,-178"/>
<polygon fill="black" stroke="black" points="909.26,-181.5 919.26,-178 909.26,-174.5 909.26,-181.5"/>
</g>
<!-- VoteModule -->
<g id="node16" class="node">
<title>VoteModule</title>
<polygon fill="#8dd3c7" stroke="black" points="110.26,-122 107.26,-126 86.26,-126 83.26,-122 23.74,-122 23.74,-86 110.26,-86 110.26,-122"/>
<text text-anchor="middle" x="67" y="-99.8" font-family="Times,serif" font-size="14.00">VoteModule</text>
</g>
<!-- VoteModule&#45;&gt;AppModule -->
<g id="edge16" class="edge">
<title>VoteModule&#45;&gt;AppModule</title>
<path fill="none" stroke="black" d="M67,-122.32C67,-145.66 67,-183 67,-183 67,-183 909.08,-183 909.08,-183"/>
<polygon fill="black" stroke="black" points="909.08,-186.5 919.08,-183 909.08,-179.5 909.08,-186.5"/>
</g>
</g>
</svg>
