<?xml version="1.0" encoding="UTF-8" standalone="no"?>
<!DOCTYPE svg PUBLIC "-//W3C//DTD SVG 1.1//EN"
 "http://www.w3.org/Graphics/SVG/1.1/DTD/svg11.dtd">
<!-- Generated by graphviz version 2.47.3 (20210619.1520)
 -->
<!-- Title: dependencies Pages: 1 -->
<svg width="1871pt" height="174pt"
 viewBox="0.00 0.00 1871.00 173.80" xmlns="http://www.w3.org/2000/svg" xmlns:xlink="http://www.w3.org/1999/xlink">
<g id="graph0" class="graph" transform="scale(1 1) rotate(0) translate(4 169.8)">
<title>dependencies</title>
<polygon fill="white" stroke="transparent" points="-4,4 -4,-169.8 1867,-169.8 1867,4 -4,4"/>
<text text-anchor="middle" x="931.5" y="-8.2" font-family="sans-serif" font-size="14.00">dependencies</text>
<g id="clust1" class="cluster">
<title>cluster_AppModule</title>
<polygon fill="none" stroke="black" stroke-dasharray="1,5" points="8,-32.8 8,-157.8 1855,-157.8 1855,-32.8 8,-32.8"/>
</g>
<g id="clust3" class="cluster">
<title>cluster_AppModule_imports</title>
<polygon fill="none" stroke="black" points="16,-40.8 16,-92.8 1847,-92.8 1847,-40.8 16,-40.8"/>
</g>
<!-- AnnouncementModule -->
<g id="node1" class="node">
<title>AnnouncementModule</title>
<polygon fill="#8dd3c7" stroke="black" points="1838.58,-84.8 1835.58,-88.8 1814.58,-88.8 1811.58,-84.8 1693.42,-84.8 1693.42,-48.8 1838.58,-48.8 1838.58,-84.8"/>
<text text-anchor="middle" x="1766" y="-62.6" font-family="Times,serif" font-size="14.00">AnnouncementModule</text>
</g>
<!-- AppModule -->
<g id="node16" class="node">
<title>AppModule</title>
<polygon fill="#8dd3c7" stroke="black" points="941.66,-149.8 938.66,-153.8 917.66,-153.8 914.66,-149.8 858.34,-149.8 858.34,-113.8 941.66,-113.8 941.66,-149.8"/>
<text text-anchor="middle" x="900" y="-127.6" font-family="Times,serif" font-size="14.00">AppModule</text>
</g>
<!-- AnnouncementModule&#45;&gt;AppModule -->
<g id="edge1" class="edge">
<title>AnnouncementModule&#45;&gt;AppModule</title>
<path fill="none" stroke="black" d="M1766,-85.12C1766,-108.46 1766,-145.8 1766,-145.8 1766,-145.8 951.77,-145.8 951.77,-145.8"/>
<polygon fill="black" stroke="black" points="951.77,-142.3 941.77,-145.8 951.77,-149.3 951.77,-142.3"/>
</g>
<!-- ArchiveModule -->
<g id="node2" class="node">
<title>ArchiveModule</title>
<polygon fill="#8dd3c7" stroke="black" points="1675.14,-84.8 1672.14,-88.8 1651.14,-88.8 1648.14,-84.8 1570.86,-84.8 1570.86,-48.8 1675.14,-48.8 1675.14,-84.8"/>
<text text-anchor="middle" x="1623" y="-62.6" font-family="Times,serif" font-size="14.00">ArchiveModule</text>
</g>
<!-- ArchiveModule&#45;&gt;AppModule -->
<g id="edge2" class="edge">
<title>ArchiveModule&#45;&gt;AppModule</title>
<path fill="none" stroke="black" d="M1623,-85.09C1623,-107.01 1623,-140.8 1623,-140.8 1623,-140.8 951.73,-140.8 951.73,-140.8"/>
<polygon fill="black" stroke="black" points="951.73,-137.3 941.73,-140.8 951.73,-144.3 951.73,-137.3"/>
</g>
<!-- ArticleModule -->
<g id="node3" class="node">
<title>ArticleModule</title>
<polygon fill="#8dd3c7" stroke="black" points="1552.42,-84.8 1549.42,-88.8 1528.42,-88.8 1525.42,-84.8 1453.58,-84.8 1453.58,-48.8 1552.42,-48.8 1552.42,-84.8"/>
<text text-anchor="middle" x="1503" y="-62.6" font-family="Times,serif" font-size="14.00">ArticleModule</text>
</g>
<!-- ArticleModule&#45;&gt;AppModule -->
<g id="edge3" class="edge">
<title>ArticleModule&#45;&gt;AppModule</title>
<path fill="none" stroke="black" d="M1503,-84.83C1503,-105.57 1503,-136.8 1503,-136.8 1503,-136.8 951.92,-136.8 951.92,-136.8"/>
<polygon fill="black" stroke="black" points="951.92,-133.3 941.92,-136.8 951.92,-140.3 951.92,-133.3"/>
</g>
<!-- AuthModule -->
<g id="node4" class="node">
<title>AuthModule</title>
<polygon fill="#8dd3c7" stroke="black" points="1435.55,-84.8 1432.55,-88.8 1411.55,-88.8 1408.55,-84.8 1348.45,-84.8 1348.45,-48.8 1435.55,-48.8 1435.55,-84.8"/>
<text text-anchor="middle" x="1392" y="-62.6" font-family="Times,serif" font-size="14.00">AuthModule</text>
</g>
<!-- AuthModule&#45;&gt;AppModule -->
<g id="edge4" class="edge">
<title>AuthModule&#45;&gt;AppModule</title>
<path fill="none" stroke="black" d="M1392,-84.91C1392,-104.14 1392,-131.8 1392,-131.8 1392,-131.8 951.95,-131.8 951.95,-131.8"/>
<polygon fill="black" stroke="black" points="951.95,-128.3 941.95,-131.8 951.95,-135.3 951.95,-128.3"/>
</g>
<!-- CacheModule -->
<g id="node5" class="node">
<title>CacheModule</title>
<polygon fill="#8dd3c7" stroke="black" points="1330.03,-84.8 1327.03,-88.8 1306.03,-88.8 1303.03,-84.8 1235.97,-84.8 1235.97,-48.8 1330.03,-48.8 1330.03,-84.8"/>
<text text-anchor="middle" x="1283" y="-62.6" font-family="Times,serif" font-size="14.00">CacheModule</text>
</g>
<!-- CacheModule&#45;&gt;AppModule -->
<g id="edge5" class="edge">
<title>CacheModule&#45;&gt;AppModule</title>
<path fill="none" stroke="black" d="M1283,-85.1C1283,-103.07 1283,-127.8 1283,-127.8 1283,-127.8 951.72,-127.8 951.72,-127.8"/>
<polygon fill="black" stroke="black" points="951.72,-124.3 941.72,-127.8 951.72,-131.3 951.72,-124.3"/>
</g>
<!-- CategoryModule -->
<g id="node6" class="node">
<title>CategoryModule</title>
<polygon fill="#8dd3c7" stroke="black" points="1217.37,-84.8 1214.37,-88.8 1193.37,-88.8 1190.37,-84.8 1106.63,-84.8 1106.63,-48.8 1217.37,-48.8 1217.37,-84.8"/>
<text text-anchor="middle" x="1162" y="-62.6" font-family="Times,serif" font-size="14.00">CategoryModule</text>
</g>
<!-- CategoryModule&#45;&gt;AppModule -->
<g id="edge6" class="edge">
<title>CategoryModule&#45;&gt;AppModule</title>
<path fill="none" stroke="black" d="M1162,-84.83C1162,-101.2 1162,-122.8 1162,-122.8 1162,-122.8 951.8,-122.8 951.8,-122.8"/>
<polygon fill="black" stroke="black" points="951.8,-119.3 941.8,-122.8 951.8,-126.3 951.8,-119.3"/>
</g>
<!-- CommentModule -->
<g id="node7" class="node">
<title>CommentModule</title>
<polygon fill="#8dd3c7" stroke="black" points="1088.27,-84.8 1085.27,-88.8 1064.27,-88.8 1061.27,-84.8 973.73,-84.8 973.73,-48.8 1088.27,-48.8 1088.27,-84.8"/>
<text text-anchor="middle" x="1031" y="-62.6" font-family="Times,serif" font-size="14.00">CommentModule</text>
</g>
<!-- CommentModule&#45;&gt;AppModule -->
<g id="edge7" class="edge">
<title>CommentModule&#45;&gt;AppModule</title>
<path fill="none" stroke="black" d="M1031,-84.99C1031,-99.98 1031,-118.8 1031,-118.8 1031,-118.8 951.81,-118.8 951.81,-118.8"/>
<polygon fill="black" stroke="black" points="951.81,-115.3 941.81,-118.8 951.81,-122.3 951.81,-115.3"/>
</g>
<!-- DatabaseModule -->
<g id="node8" class="node">
<title>DatabaseModule</title>
<polygon fill="#8dd3c7" stroke="black" points="955.35,-84.8 952.35,-88.8 931.35,-88.8 928.35,-84.8 844.65,-84.8 844.65,-48.8 955.35,-48.8 955.35,-84.8"/>
<text text-anchor="middle" x="900" y="-62.6" font-family="Times,serif" font-size="14.00">DatabaseModule</text>
</g>
<!-- DatabaseModule&#45;&gt;AppModule -->
<g id="edge8" class="edge">
<title>DatabaseModule&#45;&gt;AppModule</title>
<path fill="none" stroke="black" d="M900,-84.91C900,-84.91 900,-103.79 900,-103.79"/>
<polygon fill="black" stroke="black" points="896.5,-103.79 900,-113.79 903.5,-103.79 896.5,-103.79"/>
</g>
<!-- DisqusModule -->
<g id="node9" class="node">
<title>DisqusModule</title>
<polygon fill="#8dd3c7" stroke="black" points="826.44,-84.8 823.44,-88.8 802.44,-88.8 799.44,-84.8 727.56,-84.8 727.56,-48.8 826.44,-48.8 826.44,-84.8"/>
<text text-anchor="middle" x="777" y="-62.6" font-family="Times,serif" font-size="14.00">DisqusModule</text>
</g>
<!-- DisqusModule&#45;&gt;AppModule -->
<g id="edge9" class="edge">
<title>DisqusModule&#45;&gt;AppModule</title>
<path fill="none" stroke="black" d="M777,-84.99C777,-99.98 777,-118.8 777,-118.8 777,-118.8 848.01,-118.8 848.01,-118.8"/>
<polygon fill="black" stroke="black" points="848.01,-122.3 858.01,-118.8 848.01,-115.3 848.01,-122.3"/>
</g>
<!-- ExpansionModule -->
<g id="node10" class="node">
<title>ExpansionModule</title>
<polygon fill="#8dd3c7" stroke="black" points="709.15,-84.8 706.15,-88.8 685.15,-88.8 682.15,-84.8 590.85,-84.8 590.85,-48.8 709.15,-48.8 709.15,-84.8"/>
<text text-anchor="middle" x="650" y="-62.6" font-family="Times,serif" font-size="14.00">ExpansionModule</text>
</g>
<!-- ExpansionModule&#45;&gt;AppModule -->
<g id="edge10" class="edge">
<title>ExpansionModule&#45;&gt;AppModule</title>
<path fill="none" stroke="black" d="M650,-84.83C650,-101.2 650,-122.8 650,-122.8 650,-122.8 848.16,-122.8 848.16,-122.8"/>
<polygon fill="black" stroke="black" points="848.16,-126.3 858.16,-122.8 848.16,-119.3 848.16,-126.3"/>
</g>
<!-- FeedbackModule -->
<g id="node11" class="node">
<title>FeedbackModule</title>
<polygon fill="#8dd3c7" stroke="black" points="572.69,-84.8 569.69,-88.8 548.69,-88.8 545.69,-84.8 459.31,-84.8 459.31,-48.8 572.69,-48.8 572.69,-84.8"/>
<text text-anchor="middle" x="516" y="-62.6" font-family="Times,serif" font-size="14.00">FeedbackModule</text>
</g>
<!-- FeedbackModule&#45;&gt;AppModule -->
<g id="edge11" class="edge">
<title>FeedbackModule&#45;&gt;AppModule</title>
<path fill="none" stroke="black" d="M516,-85.1C516,-103.07 516,-127.8 516,-127.8 516,-127.8 848.17,-127.8 848.17,-127.8"/>
<polygon fill="black" stroke="black" points="848.17,-131.3 858.17,-127.8 848.17,-124.3 848.17,-131.3"/>
</g>
<!-- HelperModule -->
<g id="node12" class="node">
<title>HelperModule</title>
<polygon fill="#8dd3c7" stroke="black" points="441.64,-84.8 438.64,-88.8 417.64,-88.8 414.64,-84.8 344.36,-84.8 344.36,-48.8 441.64,-48.8 441.64,-84.8"/>
<text text-anchor="middle" x="393" y="-62.6" font-family="Times,serif" font-size="14.00">HelperModule</text>
</g>
<!-- HelperModule&#45;&gt;AppModule -->
<g id="edge12" class="edge">
<title>HelperModule&#45;&gt;AppModule</title>
<path fill="none" stroke="black" d="M393,-84.91C393,-104.14 393,-131.8 393,-131.8 393,-131.8 848.08,-131.8 848.08,-131.8"/>
<polygon fill="black" stroke="black" points="848.08,-135.3 858.08,-131.8 848.08,-128.3 848.08,-135.3"/>
</g>
<!-- OptionModule -->
<g id="node13" class="node">
<title>OptionModule</title>
<polygon fill="#8dd3c7" stroke="black" points="326.44,-84.8 323.44,-88.8 302.44,-88.8 299.44,-84.8 227.56,-84.8 227.56,-48.8 326.44,-48.8 326.44,-84.8"/>
<text text-anchor="middle" x="277" y="-62.6" font-family="Times,serif" font-size="14.00">OptionModule</text>
</g>
<!-- OptionModule&#45;&gt;AppModule -->
<g id="edge13" class="edge">
<title>OptionModule&#45;&gt;AppModule</title>
<path fill="none" stroke="black" d="M277,-84.83C277,-105.57 277,-136.8 277,-136.8 277,-136.8 848.16,-136.8 848.16,-136.8"/>
<polygon fill="black" stroke="black" points="848.16,-140.3 858.16,-136.8 848.16,-133.3 848.16,-140.3"/>
</g>
<!-- TagModule -->
<g id="node14" class="node">
<title>TagModule</title>
<polygon fill="#8dd3c7" stroke="black" points="209.82,-84.8 206.82,-88.8 185.82,-88.8 182.82,-84.8 128.18,-84.8 128.18,-48.8 209.82,-48.8 209.82,-84.8"/>
<text text-anchor="middle" x="169" y="-62.6" font-family="Times,serif" font-size="14.00">TagModule</text>
</g>
<!-- TagModule&#45;&gt;AppModule -->
<g id="edge14" class="edge">
<title>TagModule&#45;&gt;AppModule</title>
<path fill="none" stroke="black" d="M169,-85.09C169,-107.01 169,-140.8 169,-140.8 169,-140.8 848.34,-140.8 848.34,-140.8"/>
<polygon fill="black" stroke="black" points="848.34,-144.3 858.34,-140.8 848.34,-137.3 848.34,-144.3"/>
</g>
<!-- VoteModule -->
<g id="node15" class="node">
<title>VoteModule</title>
<polygon fill="#8dd3c7" stroke="black" points="110.26,-84.8 107.26,-88.8 86.26,-88.8 83.26,-84.8 23.74,-84.8 23.74,-48.8 110.26,-48.8 110.26,-84.8"/>
<text text-anchor="middle" x="67" y="-62.6" font-family="Times,serif" font-size="14.00">VoteModule</text>
</g>
<!-- VoteModule&#45;&gt;AppModule -->
<g id="edge15" class="edge">
<title>VoteModule&#45;&gt;AppModule</title>
<path fill="none" stroke="black" d="M67,-85.12C67,-108.46 67,-145.8 67,-145.8 67,-145.8 848.12,-145.8 848.12,-145.8"/>
<polygon fill="black" stroke="black" points="848.12,-149.3 858.12,-145.8 848.12,-142.3 848.12,-149.3"/>
</g>
</g>
</svg>
