<?xml version="1.0" encoding="UTF-8" standalone="no"?>
<!DOCTYPE svg PUBLIC "-//W3C//DTD SVG 1.1//EN"
 "http://www.w3.org/Graphics/SVG/1.1/DTD/svg11.dtd">
<!-- Generated by graphviz version 2.47.0 (20210316.0004)
 -->
<!-- Title: dependencies Pages: 1 -->
<svg width="2309pt" height="211pt"
 viewBox="0.00 0.00 2309.00 211.00" xmlns="http://www.w3.org/2000/svg" xmlns:xlink="http://www.w3.org/1999/xlink">
<g id="graph0" class="graph" transform="scale(1 1) rotate(0) translate(4 207)">
<title>dependencies</title>
<polygon fill="white" stroke="transparent" points="-4,4 -4,-207 2305,-207 2305,4 -4,4"/>
<text text-anchor="start" x="1129.51" y="-42.4" font-family="Times-12" font-weight="bold" font-size="14.00">Legend</text>
<polygon fill="#ffffb3" stroke="transparent" points="916.5,-10 916.5,-30 936.5,-30 936.5,-10 916.5,-10"/>
<text text-anchor="start" x="940.13" y="-15.4" font-family="Times-12" font-size="14.00"> &#160;Declarations</text>
<polygon fill="#8dd3c7" stroke="transparent" points="1029.5,-10 1029.5,-30 1049.5,-30 1049.5,-10 1029.5,-10"/>
<text text-anchor="start" x="1053.23" y="-15.4" font-family="Times-12" font-size="14.00"> &#160;Module</text>
<polygon fill="#80b1d3" stroke="transparent" points="1115.5,-10 1115.5,-30 1135.5,-30 1135.5,-10 1115.5,-10"/>
<text text-anchor="start" x="1139.28" y="-15.4" font-family="Times-12" font-size="14.00"> &#160;Bootstrap</text>
<polygon fill="#fdb462" stroke="transparent" points="1212.5,-10 1212.5,-30 1232.5,-30 1232.5,-10 1212.5,-10"/>
<text text-anchor="start" x="1236.17" y="-15.4" font-family="Times-12" font-size="14.00"> &#160;Providers</text>
<polygon fill="#fb8072" stroke="transparent" points="1308.5,-10 1308.5,-30 1328.5,-30 1328.5,-10 1308.5,-10"/>
<text text-anchor="start" x="1332.23" y="-15.4" font-family="Times-12" font-size="14.00"> &#160;Exports</text>
<g id="clust1" class="cluster">
<title>cluster_AppModule</title>
<polygon fill="none" stroke="black" stroke-dasharray="1,5" points="8,-70 8,-195 2293,-195 2293,-70 8,-70"/>
</g>
<g id="clust3" class="cluster">
<title>cluster_AppModule_imports</title>
<polygon fill="none" stroke="black" points="16,-78 16,-130 2285,-130 2285,-78 16,-78"/>
</g>
<!-- AccountModule -->
<g id="node1" class="node">
<title>AccountModule</title>
<polygon fill="#8dd3c7" stroke="black" points="2277.48,-122 2274.48,-126 2253.48,-126 2250.48,-122 2170.52,-122 2170.52,-86 2277.48,-86 2277.48,-122"/>
<text text-anchor="middle" x="2224" y="-99.8" font-family="Times,serif" font-size="14.00">AccountModule</text>
</g>
<!-- AppModule -->
<g id="node20" class="node">
<title>AppModule</title>
<polygon fill="#8dd3c7" stroke="black" points="1178.66,-187 1175.66,-191 1154.66,-191 1151.66,-187 1095.34,-187 1095.34,-151 1178.66,-151 1178.66,-187"/>
<text text-anchor="middle" x="1137" y="-164.8" font-family="Times,serif" font-size="14.00">AppModule</text>
</g>
<!-- AccountModule&#45;&gt;AppModule -->
<g id="edge1" class="edge">
<title>AccountModule&#45;&gt;AppModule</title>
<path fill="none" stroke="black" d="M2224,-122.15C2224,-145.76 2224,-184 2224,-184 2224,-184 1188.95,-184 1188.95,-184"/>
<polygon fill="black" stroke="black" points="1188.95,-180.5 1178.95,-184 1188.95,-187.5 1188.95,-180.5"/>
</g>
<!-- AdminModule -->
<g id="node2" class="node">
<title>AdminModule</title>
<polygon fill="#8dd3c7" stroke="black" points="2152.44,-122 2149.44,-126 2128.44,-126 2125.44,-122 2053.56,-122 2053.56,-86 2152.44,-86 2152.44,-122"/>
<text text-anchor="middle" x="2103" y="-99.8" font-family="Times,serif" font-size="14.00">AdminModule</text>
</g>
<!-- AdminModule&#45;&gt;AppModule -->
<g id="edge2" class="edge">
<title>AdminModule&#45;&gt;AppModule</title>
<path fill="none" stroke="black" d="M2103,-122.01C2103,-144.49 2103,-180 2103,-180 2103,-180 1188.82,-180 1188.82,-180"/>
<polygon fill="black" stroke="black" points="1188.82,-176.5 1178.82,-180 1188.82,-183.5 1188.82,-176.5"/>
</g>
<!-- AiModule -->
<g id="node3" class="node">
<title>AiModule</title>
<polygon fill="#8dd3c7" stroke="black" points="2035.55,-122 2032.55,-126 2011.55,-126 2008.55,-122 1962.45,-122 1962.45,-86 2035.55,-86 2035.55,-122"/>
<text text-anchor="middle" x="1999" y="-99.8" font-family="Times,serif" font-size="14.00">AiModule</text>
</g>
<!-- AiModule&#45;&gt;AppModule -->
<g id="edge3" class="edge">
<title>AiModule&#45;&gt;AppModule</title>
<path fill="none" stroke="black" d="M1999,-122.04C1999,-143.66 1999,-177 1999,-177 1999,-177 1188.87,-177 1188.87,-177"/>
<polygon fill="black" stroke="black" points="1188.87,-173.5 1178.87,-177 1188.87,-180.5 1188.87,-173.5"/>
</g>
<!-- AnnouncementModule -->
<g id="node4" class="node">
<title>AnnouncementModule</title>
<polygon fill="#8dd3c7" stroke="black" points="1944.58,-122 1941.58,-126 1920.58,-126 1917.58,-122 1799.42,-122 1799.42,-86 1944.58,-86 1944.58,-122"/>
<text text-anchor="middle" x="1872" y="-99.8" font-family="Times,serif" font-size="14.00">AnnouncementModule</text>
</g>
<!-- AnnouncementModule&#45;&gt;AppModule -->
<g id="edge4" class="edge">
<title>AnnouncementModule&#45;&gt;AppModule</title>
<path fill="none" stroke="black" d="M1872,-122.13C1872,-142.57 1872,-173 1872,-173 1872,-173 1188.89,-173 1188.89,-173"/>
<polygon fill="black" stroke="black" points="1188.89,-169.5 1178.89,-173 1188.89,-176.5 1188.89,-169.5"/>
</g>
<!-- ArchiveModule -->
<g id="node5" class="node">
<title>ArchiveModule</title>
<polygon fill="#8dd3c7" stroke="black" points="1781.14,-122 1778.14,-126 1757.14,-126 1754.14,-122 1676.86,-122 1676.86,-86 1781.14,-86 1781.14,-122"/>
<text text-anchor="middle" x="1729" y="-99.8" font-family="Times,serif" font-size="14.00">ArchiveModule</text>
</g>
<!-- ArchiveModule&#45;&gt;AppModule -->
<g id="edge5" class="edge">
<title>ArchiveModule&#45;&gt;AppModule</title>
<path fill="none" stroke="black" d="M1729,-122.11C1729,-141.34 1729,-169 1729,-169 1729,-169 1189.1,-169 1189.1,-169"/>
<polygon fill="black" stroke="black" points="1189.1,-165.5 1179.1,-169 1189.1,-172.5 1189.1,-165.5"/>
</g>
<!-- ArticleModule -->
<g id="node6" class="node">
<title>ArticleModule</title>
<polygon fill="#8dd3c7" stroke="black" points="1658.42,-122 1655.42,-126 1634.42,-126 1631.42,-122 1559.58,-122 1559.58,-86 1658.42,-86 1658.42,-122"/>
<text text-anchor="middle" x="1609" y="-99.8" font-family="Times,serif" font-size="14.00">ArticleModule</text>
</g>
<!-- ArticleModule&#45;&gt;AppModule -->
<g id="edge6" class="edge">
<title>ArticleModule&#45;&gt;AppModule</title>
<path fill="none" stroke="black" d="M1609,-122.27C1609,-140.56 1609,-166 1609,-166 1609,-166 1188.89,-166 1188.89,-166"/>
<polygon fill="black" stroke="black" points="1188.89,-162.5 1178.89,-166 1188.89,-169.5 1188.89,-162.5"/>
</g>
<!-- AuthModule -->
<g id="node7" class="node">
<title>AuthModule</title>
<polygon fill="#8dd3c7" stroke="black" points="1541.55,-122 1538.55,-126 1517.55,-126 1514.55,-122 1454.45,-122 1454.45,-86 1541.55,-86 1541.55,-122"/>
<text text-anchor="middle" x="1498" y="-99.8" font-family="Times,serif" font-size="14.00">AuthModule</text>
</g>
<!-- AuthModule&#45;&gt;AppModule -->
<g id="edge7" class="edge">
<title>AuthModule&#45;&gt;AppModule</title>
<path fill="none" stroke="black" d="M1498,-122.03C1498,-139.06 1498,-162 1498,-162 1498,-162 1188.76,-162 1188.76,-162"/>
<polygon fill="black" stroke="black" points="1188.76,-158.5 1178.76,-162 1188.76,-165.5 1188.76,-158.5"/>
</g>
<!-- CacheModule -->
<g id="node8" class="node">
<title>CacheModule</title>
<polygon fill="#8dd3c7" stroke="black" points="1436.03,-122 1433.03,-126 1412.03,-126 1409.03,-122 1341.97,-122 1341.97,-86 1436.03,-86 1436.03,-122"/>
<text text-anchor="middle" x="1389" y="-99.8" font-family="Times,serif" font-size="14.00">CacheModule</text>
</g>
<!-- CacheModule&#45;&gt;AppModule -->
<g id="edge8" class="edge">
<title>CacheModule&#45;&gt;AppModule</title>
<path fill="none" stroke="black" d="M1389,-122.01C1389,-138.05 1389,-159 1389,-159 1389,-159 1188.9,-159 1188.9,-159"/>
<polygon fill="black" stroke="black" points="1188.9,-155.5 1178.9,-159 1188.9,-162.5 1188.9,-155.5"/>
</g>
<!-- CategoryModule -->
<g id="node9" class="node">
<title>CategoryModule</title>
<polygon fill="#8dd3c7" stroke="black" points="1323.37,-122 1320.37,-126 1299.37,-126 1296.37,-122 1212.63,-122 1212.63,-86 1323.37,-86 1323.37,-122"/>
<text text-anchor="middle" x="1268" y="-99.8" font-family="Times,serif" font-size="14.00">CategoryModule</text>
</g>
<!-- CategoryModule&#45;&gt;AppModule -->
<g id="edge9" class="edge">
<title>CategoryModule&#45;&gt;AppModule</title>
<path fill="none" stroke="black" d="M1268,-122.12C1268,-136.78 1268,-155 1268,-155 1268,-155 1188.81,-155 1188.81,-155"/>
<polygon fill="black" stroke="black" points="1188.81,-151.5 1178.81,-155 1188.81,-158.5 1188.81,-151.5"/>
</g>
<!-- CommentModule -->
<g id="node10" class="node">
<title>CommentModule</title>
<polygon fill="#8dd3c7" stroke="black" points="1194.27,-122 1191.27,-126 1170.27,-126 1167.27,-122 1079.73,-122 1079.73,-86 1194.27,-86 1194.27,-122"/>
<text text-anchor="middle" x="1137" y="-99.8" font-family="Times,serif" font-size="14.00">CommentModule</text>
</g>
<!-- CommentModule&#45;&gt;AppModule -->
<g id="edge10" class="edge">
<title>CommentModule&#45;&gt;AppModule</title>
<path fill="none" stroke="black" d="M1137,-122.11C1137,-122.11 1137,-140.99 1137,-140.99"/>
<polygon fill="black" stroke="black" points="1133.5,-140.99 1137,-150.99 1140.5,-140.99 1133.5,-140.99"/>
</g>
<!-- DatabaseModule -->
<g id="node11" class="node">
<title>DatabaseModule</title>
<polygon fill="#8dd3c7" stroke="black" points="1061.35,-122 1058.35,-126 1037.35,-126 1034.35,-122 950.65,-122 950.65,-86 1061.35,-86 1061.35,-122"/>
<text text-anchor="middle" x="1006" y="-99.8" font-family="Times,serif" font-size="14.00">DatabaseModule</text>
</g>
<!-- DatabaseModule&#45;&gt;AppModule -->
<g id="edge11" class="edge">
<title>DatabaseModule&#45;&gt;AppModule</title>
<path fill="none" stroke="black" d="M1006,-122.12C1006,-136.78 1006,-155 1006,-155 1006,-155 1085.19,-155 1085.19,-155"/>
<polygon fill="black" stroke="black" points="1085.19,-158.5 1095.19,-155 1085.19,-151.5 1085.19,-158.5"/>
</g>
<!-- FeedbackModule -->
<g id="node12" class="node">
<title>FeedbackModule</title>
<polygon fill="#8dd3c7" stroke="black" points="932.69,-122 929.69,-126 908.69,-126 905.69,-122 819.31,-122 819.31,-86 932.69,-86 932.69,-122"/>
<text text-anchor="middle" x="876" y="-99.8" font-family="Times,serif" font-size="14.00">FeedbackModule</text>
</g>
<!-- FeedbackModule&#45;&gt;AppModule -->
<g id="edge12" class="edge">
<title>FeedbackModule&#45;&gt;AppModule</title>
<path fill="none" stroke="black" d="M876,-122.01C876,-138.05 876,-159 876,-159 876,-159 1085.07,-159 1085.07,-159"/>
<polygon fill="black" stroke="black" points="1085.07,-162.5 1095.07,-159 1085.07,-155.5 1085.07,-162.5"/>
</g>
<!-- HelperModule -->
<g id="node13" class="node">
<title>HelperModule</title>
<polygon fill="#8dd3c7" stroke="black" points="801.64,-122 798.64,-126 777.64,-126 774.64,-122 704.36,-122 704.36,-86 801.64,-86 801.64,-122"/>
<text text-anchor="middle" x="753" y="-99.8" font-family="Times,serif" font-size="14.00">HelperModule</text>
</g>
<!-- HelperModule&#45;&gt;AppModule -->
<g id="edge13" class="edge">
<title>HelperModule&#45;&gt;AppModule</title>
<path fill="none" stroke="black" d="M753,-122.03C753,-139.06 753,-162 753,-162 753,-162 1085.17,-162 1085.17,-162"/>
<polygon fill="black" stroke="black" points="1085.17,-165.5 1095.17,-162 1085.17,-158.5 1085.17,-165.5"/>
</g>
<!-- OptionsModule -->
<g id="node14" class="node">
<title>OptionsModule</title>
<polygon fill="#8dd3c7" stroke="black" points="685.88,-122 682.88,-126 661.88,-126 658.88,-122 582.12,-122 582.12,-86 685.88,-86 685.88,-122"/>
<text text-anchor="middle" x="634" y="-99.8" font-family="Times,serif" font-size="14.00">OptionsModule</text>
</g>
<!-- OptionsModule&#45;&gt;AppModule -->
<g id="edge14" class="edge">
<title>OptionsModule&#45;&gt;AppModule</title>
<path fill="none" stroke="black" d="M634,-122.27C634,-140.56 634,-166 634,-166 634,-166 1084.98,-166 1084.98,-166"/>
<polygon fill="black" stroke="black" points="1084.98,-169.5 1094.98,-166 1084.98,-162.5 1084.98,-169.5"/>
</g>
<!-- SystemModule -->
<g id="node15" class="node">
<title>SystemModule</title>
<polygon fill="#8dd3c7" stroke="black" points="564.27,-122 561.27,-126 540.27,-126 537.27,-122 463.73,-122 463.73,-86 564.27,-86 564.27,-122"/>
<text text-anchor="middle" x="514" y="-99.8" font-family="Times,serif" font-size="14.00">SystemModule</text>
</g>
<!-- SystemModule&#45;&gt;AppModule -->
<g id="edge15" class="edge">
<title>SystemModule&#45;&gt;AppModule</title>
<path fill="none" stroke="black" d="M514,-122.11C514,-141.34 514,-169 514,-169 514,-169 1085.16,-169 1085.16,-169"/>
<polygon fill="black" stroke="black" points="1085.16,-172.5 1095.16,-169 1085.16,-165.5 1085.16,-172.5"/>
</g>
<!-- TagModule -->
<g id="node16" class="node">
<title>TagModule</title>
<polygon fill="#8dd3c7" stroke="black" points="445.82,-122 442.82,-126 421.82,-126 418.82,-122 364.18,-122 364.18,-86 445.82,-86 445.82,-122"/>
<text text-anchor="middle" x="405" y="-99.8" font-family="Times,serif" font-size="14.00">TagModule</text>
</g>
<!-- TagModule&#45;&gt;AppModule -->
<g id="edge16" class="edge">
<title>TagModule&#45;&gt;AppModule</title>
<path fill="none" stroke="black" d="M405,-122.13C405,-142.57 405,-173 405,-173 405,-173 1085.28,-173 1085.28,-173"/>
<polygon fill="black" stroke="black" points="1085.28,-176.5 1095.28,-173 1085.28,-169.5 1085.28,-176.5"/>
</g>
<!-- UserModule -->
<g id="node17" class="node">
<title>UserModule</title>
<polygon fill="#8dd3c7" stroke="black" points="345.98,-122 342.98,-126 321.98,-126 318.98,-122 260.02,-122 260.02,-86 345.98,-86 345.98,-122"/>
<text text-anchor="middle" x="303" y="-99.8" font-family="Times,serif" font-size="14.00">UserModule</text>
</g>
<!-- UserModule&#45;&gt;AppModule -->
<g id="edge17" class="edge">
<title>UserModule&#45;&gt;AppModule</title>
<path fill="none" stroke="black" d="M303,-122.04C303,-143.66 303,-177 303,-177 303,-177 1085.07,-177 1085.07,-177"/>
<polygon fill="black" stroke="black" points="1085.07,-180.5 1095.07,-177 1085.07,-173.5 1085.07,-180.5"/>
</g>
<!-- VoteModule -->
<g id="node18" class="node">
<title>VoteModule</title>
<polygon fill="#8dd3c7" stroke="black" points="242.26,-122 239.26,-126 218.26,-126 215.26,-122 155.74,-122 155.74,-86 242.26,-86 242.26,-122"/>
<text text-anchor="middle" x="199" y="-99.8" font-family="Times,serif" font-size="14.00">VoteModule</text>
</g>
<!-- VoteModule&#45;&gt;AppModule -->
<g id="edge18" class="edge">
<title>VoteModule&#45;&gt;AppModule</title>
<path fill="none" stroke="black" d="M199,-122.01C199,-144.49 199,-180 199,-180 199,-180 1085.18,-180 1085.18,-180"/>
<polygon fill="black" stroke="black" points="1085.18,-183.5 1095.18,-180 1085.18,-176.5 1085.18,-183.5"/>
</g>
<!-- WebhookModule -->
<g id="node19" class="node">
<title>WebhookModule</title>
<polygon fill="#8dd3c7" stroke="black" points="137.98,-122 134.98,-126 113.98,-126 110.98,-122 24.02,-122 24.02,-86 137.98,-86 137.98,-122"/>
<text text-anchor="middle" x="81" y="-99.8" font-family="Times,serif" font-size="14.00">WebhookModule</text>
</g>
<!-- WebhookModule&#45;&gt;AppModule -->
<g id="edge19" class="edge">
<title>WebhookModule&#45;&gt;AppModule</title>
<path fill="none" stroke="black" d="M81,-122.15C81,-145.76 81,-184 81,-184 81,-184 1085.28,-184 1085.28,-184"/>
<polygon fill="black" stroke="black" points="1085.28,-187.5 1095.28,-184 1085.28,-180.5 1085.28,-187.5"/>
</g>
</g>
</svg>
