<?xml version="1.0" encoding="UTF-8" standalone="no"?>
<!DOCTYPE svg PUBLIC "-//W3C//DTD SVG 1.1//EN"
 "http://www.w3.org/Graphics/SVG/1.1/DTD/svg11.dtd">
<!-- Generated by graphviz version 2.47.0 (20210316.0004)
 -->
<!-- Title: dependencies Pages: 1 -->
<svg width="1867pt" height="211pt"
 viewBox="0.00 0.00 1867.00 211.00" xmlns="http://www.w3.org/2000/svg" xmlns:xlink="http://www.w3.org/1999/xlink">
<g id="graph0" class="graph" transform="scale(1 1) rotate(0) translate(4 207)">
<title>dependencies</title>
<polygon fill="white" stroke="transparent" points="-4,4 -4,-207 1863,-207 1863,4 -4,4"/>
<text text-anchor="start" x="908.51" y="-42.4" font-family="Times-12" font-weight="bold" font-size="14.00">Legend</text>
<polygon fill="#ffffb3" stroke="transparent" points="695.5,-10 695.5,-30 715.5,-30 715.5,-10 695.5,-10"/>
<text text-anchor="start" x="719.13" y="-15.4" font-family="Times-12" font-size="14.00"> &#160;Declarations</text>
<polygon fill="#8dd3c7" stroke="transparent" points="808.5,-10 808.5,-30 828.5,-30 828.5,-10 808.5,-10"/>
<text text-anchor="start" x="832.23" y="-15.4" font-family="Times-12" font-size="14.00"> &#160;Module</text>
<polygon fill="#80b1d3" stroke="transparent" points="894.5,-10 894.5,-30 914.5,-30 914.5,-10 894.5,-10"/>
<text text-anchor="start" x="918.28" y="-15.4" font-family="Times-12" font-size="14.00"> &#160;Bootstrap</text>
<polygon fill="#fdb462" stroke="transparent" points="991.5,-10 991.5,-30 1011.5,-30 1011.5,-10 991.5,-10"/>
<text text-anchor="start" x="1015.17" y="-15.4" font-family="Times-12" font-size="14.00"> &#160;Providers</text>
<polygon fill="#fb8072" stroke="transparent" points="1087.5,-10 1087.5,-30 1107.5,-30 1107.5,-10 1087.5,-10"/>
<text text-anchor="start" x="1111.23" y="-15.4" font-family="Times-12" font-size="14.00"> &#160;Exports</text>
<g id="clust1" class="cluster">
<title>cluster_AppModule</title>
<polygon fill="none" stroke="black" stroke-dasharray="1,5" points="8,-70 8,-195 1851,-195 1851,-70 8,-70"/>
</g>
<g id="clust3" class="cluster">
<title>cluster_AppModule_imports</title>
<polygon fill="none" stroke="black" points="16,-78 16,-130 1843,-130 1843,-78 16,-78"/>
</g>
<!-- AnnouncementModule -->
<g id="node1" class="node">
<title>AnnouncementModule</title>
<polygon fill="#8dd3c7" stroke="black" points="1834.58,-122 1831.58,-126 1810.58,-126 1807.58,-122 1689.42,-122 1689.42,-86 1834.58,-86 1834.58,-122"/>
<text text-anchor="middle" x="1762" y="-99.8" font-family="Times,serif" font-size="14.00">AnnouncementModule</text>
</g>
<!-- AppModule -->
<g id="node16" class="node">
<title>AppModule</title>
<polygon fill="#8dd3c7" stroke="black" points="937.66,-187 934.66,-191 913.66,-191 910.66,-187 854.34,-187 854.34,-151 937.66,-151 937.66,-187"/>
<text text-anchor="middle" x="896" y="-164.8" font-family="Times,serif" font-size="14.00">AppModule</text>
</g>
<!-- AnnouncementModule&#45;&gt;AppModule -->
<g id="edge1" class="edge">
<title>AnnouncementModule&#45;&gt;AppModule</title>
<path fill="none" stroke="black" d="M1762,-122.32C1762,-145.66 1762,-183 1762,-183 1762,-183 947.77,-183 947.77,-183"/>
<polygon fill="black" stroke="black" points="947.77,-179.5 937.77,-183 947.77,-186.5 947.77,-179.5"/>
</g>
<!-- ArchiveModule -->
<g id="node2" class="node">
<title>ArchiveModule</title>
<polygon fill="#8dd3c7" stroke="black" points="1671.14,-122 1668.14,-126 1647.14,-126 1644.14,-122 1566.86,-122 1566.86,-86 1671.14,-86 1671.14,-122"/>
<text text-anchor="middle" x="1619" y="-99.8" font-family="Times,serif" font-size="14.00">ArchiveModule</text>
</g>
<!-- ArchiveModule&#45;&gt;AppModule -->
<g id="edge2" class="edge">
<title>ArchiveModule&#45;&gt;AppModule</title>
<path fill="none" stroke="black" d="M1619,-122.29C1619,-144.21 1619,-178 1619,-178 1619,-178 947.73,-178 947.73,-178"/>
<polygon fill="black" stroke="black" points="947.73,-174.5 937.73,-178 947.73,-181.5 947.73,-174.5"/>
</g>
<!-- ArticleModule -->
<g id="node3" class="node">
<title>ArticleModule</title>
<polygon fill="#8dd3c7" stroke="black" points="1548.42,-122 1545.42,-126 1524.42,-126 1521.42,-122 1449.58,-122 1449.58,-86 1548.42,-86 1548.42,-122"/>
<text text-anchor="middle" x="1499" y="-99.8" font-family="Times,serif" font-size="14.00">ArticleModule</text>
</g>
<!-- ArticleModule&#45;&gt;AppModule -->
<g id="edge3" class="edge">
<title>ArticleModule&#45;&gt;AppModule</title>
<path fill="none" stroke="black" d="M1499,-122.03C1499,-142.77 1499,-174 1499,-174 1499,-174 947.92,-174 947.92,-174"/>
<polygon fill="black" stroke="black" points="947.92,-170.5 937.92,-174 947.92,-177.5 947.92,-170.5"/>
</g>
<!-- AuthModule -->
<g id="node4" class="node">
<title>AuthModule</title>
<polygon fill="#8dd3c7" stroke="black" points="1431.55,-122 1428.55,-126 1407.55,-126 1404.55,-122 1344.45,-122 1344.45,-86 1431.55,-86 1431.55,-122"/>
<text text-anchor="middle" x="1388" y="-99.8" font-family="Times,serif" font-size="14.00">AuthModule</text>
</g>
<!-- AuthModule&#45;&gt;AppModule -->
<g id="edge4" class="edge">
<title>AuthModule&#45;&gt;AppModule</title>
<path fill="none" stroke="black" d="M1388,-122.11C1388,-141.34 1388,-169 1388,-169 1388,-169 947.95,-169 947.95,-169"/>
<polygon fill="black" stroke="black" points="947.95,-165.5 937.95,-169 947.95,-172.5 947.95,-165.5"/>
</g>
<!-- CacheModule -->
<g id="node5" class="node">
<title>CacheModule</title>
<polygon fill="#8dd3c7" stroke="black" points="1326.03,-122 1323.03,-126 1302.03,-126 1299.03,-122 1231.97,-122 1231.97,-86 1326.03,-86 1326.03,-122"/>
<text text-anchor="middle" x="1279" y="-99.8" font-family="Times,serif" font-size="14.00">CacheModule</text>
</g>
<!-- CacheModule&#45;&gt;AppModule -->
<g id="edge5" class="edge">
<title>CacheModule&#45;&gt;AppModule</title>
<path fill="none" stroke="black" d="M1279,-122.3C1279,-140.27 1279,-165 1279,-165 1279,-165 947.72,-165 947.72,-165"/>
<polygon fill="black" stroke="black" points="947.72,-161.5 937.72,-165 947.72,-168.5 947.72,-161.5"/>
</g>
<!-- CategoryModule -->
<g id="node6" class="node">
<title>CategoryModule</title>
<polygon fill="#8dd3c7" stroke="black" points="1213.37,-122 1210.37,-126 1189.37,-126 1186.37,-122 1102.63,-122 1102.63,-86 1213.37,-86 1213.37,-122"/>
<text text-anchor="middle" x="1158" y="-99.8" font-family="Times,serif" font-size="14.00">CategoryModule</text>
</g>
<!-- CategoryModule&#45;&gt;AppModule -->
<g id="edge6" class="edge">
<title>CategoryModule&#45;&gt;AppModule</title>
<path fill="none" stroke="black" d="M1158,-122.03C1158,-138.4 1158,-160 1158,-160 1158,-160 947.8,-160 947.8,-160"/>
<polygon fill="black" stroke="black" points="947.8,-156.5 937.8,-160 947.8,-163.5 947.8,-156.5"/>
</g>
<!-- CommentModule -->
<g id="node7" class="node">
<title>CommentModule</title>
<polygon fill="#8dd3c7" stroke="black" points="1084.27,-122 1081.27,-126 1060.27,-126 1057.27,-122 969.73,-122 969.73,-86 1084.27,-86 1084.27,-122"/>
<text text-anchor="middle" x="1027" y="-99.8" font-family="Times,serif" font-size="14.00">CommentModule</text>
</g>
<!-- CommentModule&#45;&gt;AppModule -->
<g id="edge7" class="edge">
<title>CommentModule&#45;&gt;AppModule</title>
<path fill="none" stroke="black" d="M1027,-122.19C1027,-137.18 1027,-156 1027,-156 1027,-156 947.81,-156 947.81,-156"/>
<polygon fill="black" stroke="black" points="947.81,-152.5 937.81,-156 947.81,-159.5 947.81,-152.5"/>
</g>
<!-- DatabaseModule -->
<g id="node8" class="node">
<title>DatabaseModule</title>
<polygon fill="#8dd3c7" stroke="black" points="951.35,-122 948.35,-126 927.35,-126 924.35,-122 840.65,-122 840.65,-86 951.35,-86 951.35,-122"/>
<text text-anchor="middle" x="896" y="-99.8" font-family="Times,serif" font-size="14.00">DatabaseModule</text>
</g>
<!-- DatabaseModule&#45;&gt;AppModule -->
<g id="edge8" class="edge">
<title>DatabaseModule&#45;&gt;AppModule</title>
<path fill="none" stroke="black" d="M896,-122.11C896,-122.11 896,-140.99 896,-140.99"/>
<polygon fill="black" stroke="black" points="892.5,-140.99 896,-150.99 899.5,-140.99 892.5,-140.99"/>
</g>
<!-- DisqusModule -->
<g id="node9" class="node">
<title>DisqusModule</title>
<polygon fill="#8dd3c7" stroke="black" points="822.44,-122 819.44,-126 798.44,-126 795.44,-122 723.56,-122 723.56,-86 822.44,-86 822.44,-122"/>
<text text-anchor="middle" x="773" y="-99.8" font-family="Times,serif" font-size="14.00">DisqusModule</text>
</g>
<!-- DisqusModule&#45;&gt;AppModule -->
<g id="edge9" class="edge">
<title>DisqusModule&#45;&gt;AppModule</title>
<path fill="none" stroke="black" d="M773,-122.19C773,-137.18 773,-156 773,-156 773,-156 844.01,-156 844.01,-156"/>
<polygon fill="black" stroke="black" points="844.01,-159.5 854.01,-156 844.01,-152.5 844.01,-159.5"/>
</g>
<!-- ExtensionModule -->
<g id="node10" class="node">
<title>ExtensionModule</title>
<polygon fill="#8dd3c7" stroke="black" points="705.54,-122 702.54,-126 681.54,-126 678.54,-122 590.46,-122 590.46,-86 705.54,-86 705.54,-122"/>
<text text-anchor="middle" x="648" y="-99.8" font-family="Times,serif" font-size="14.00">ExtensionModule</text>
</g>
<!-- ExtensionModule&#45;&gt;AppModule -->
<g id="edge10" class="edge">
<title>ExtensionModule&#45;&gt;AppModule</title>
<path fill="none" stroke="black" d="M648,-122.03C648,-138.4 648,-160 648,-160 648,-160 844.21,-160 844.21,-160"/>
<polygon fill="black" stroke="black" points="844.21,-163.5 854.21,-160 844.21,-156.5 844.21,-163.5"/>
</g>
<!-- FeedbackModule -->
<g id="node11" class="node">
<title>FeedbackModule</title>
<polygon fill="#8dd3c7" stroke="black" points="572.69,-122 569.69,-126 548.69,-126 545.69,-122 459.31,-122 459.31,-86 572.69,-86 572.69,-122"/>
<text text-anchor="middle" x="516" y="-99.8" font-family="Times,serif" font-size="14.00">FeedbackModule</text>
</g>
<!-- FeedbackModule&#45;&gt;AppModule -->
<g id="edge11" class="edge">
<title>FeedbackModule&#45;&gt;AppModule</title>
<path fill="none" stroke="black" d="M516,-122.3C516,-140.27 516,-165 516,-165 516,-165 844.25,-165 844.25,-165"/>
<polygon fill="black" stroke="black" points="844.25,-168.5 854.25,-165 844.25,-161.5 844.25,-168.5"/>
</g>
<!-- HelperModule -->
<g id="node12" class="node">
<title>HelperModule</title>
<polygon fill="#8dd3c7" stroke="black" points="441.64,-122 438.64,-126 417.64,-126 414.64,-122 344.36,-122 344.36,-86 441.64,-86 441.64,-122"/>
<text text-anchor="middle" x="393" y="-99.8" font-family="Times,serif" font-size="14.00">HelperModule</text>
</g>
<!-- HelperModule&#45;&gt;AppModule -->
<g id="edge12" class="edge">
<title>HelperModule&#45;&gt;AppModule</title>
<path fill="none" stroke="black" d="M393,-122.11C393,-141.34 393,-169 393,-169 393,-169 843.98,-169 843.98,-169"/>
<polygon fill="black" stroke="black" points="843.98,-172.5 853.98,-169 843.98,-165.5 843.98,-172.5"/>
</g>
<!-- OptionModule -->
<g id="node13" class="node">
<title>OptionModule</title>
<polygon fill="#8dd3c7" stroke="black" points="326.44,-122 323.44,-126 302.44,-126 299.44,-122 227.56,-122 227.56,-86 326.44,-86 326.44,-122"/>
<text text-anchor="middle" x="277" y="-99.8" font-family="Times,serif" font-size="14.00">OptionModule</text>
</g>
<!-- OptionModule&#45;&gt;AppModule -->
<g id="edge13" class="edge">
<title>OptionModule&#45;&gt;AppModule</title>
<path fill="none" stroke="black" d="M277,-122.03C277,-142.77 277,-174 277,-174 277,-174 843.94,-174 843.94,-174"/>
<polygon fill="black" stroke="black" points="843.94,-177.5 853.94,-174 843.94,-170.5 843.94,-177.5"/>
</g>
<!-- TagModule -->
<g id="node14" class="node">
<title>TagModule</title>
<polygon fill="#8dd3c7" stroke="black" points="209.82,-122 206.82,-126 185.82,-126 182.82,-122 128.18,-122 128.18,-86 209.82,-86 209.82,-122"/>
<text text-anchor="middle" x="169" y="-99.8" font-family="Times,serif" font-size="14.00">TagModule</text>
</g>
<!-- TagModule&#45;&gt;AppModule -->
<g id="edge14" class="edge">
<title>TagModule&#45;&gt;AppModule</title>
<path fill="none" stroke="black" d="M169,-122.29C169,-144.21 169,-178 169,-178 169,-178 844.3,-178 844.3,-178"/>
<polygon fill="black" stroke="black" points="844.3,-181.5 854.3,-178 844.3,-174.5 844.3,-181.5"/>
</g>
<!-- VoteModule -->
<g id="node15" class="node">
<title>VoteModule</title>
<polygon fill="#8dd3c7" stroke="black" points="110.26,-122 107.26,-126 86.26,-126 83.26,-122 23.74,-122 23.74,-86 110.26,-86 110.26,-122"/>
<text text-anchor="middle" x="67" y="-99.8" font-family="Times,serif" font-size="14.00">VoteModule</text>
</g>
<!-- VoteModule&#45;&gt;AppModule -->
<g id="edge15" class="edge">
<title>VoteModule&#45;&gt;AppModule</title>
<path fill="none" stroke="black" d="M67,-122.32C67,-145.66 67,-183 67,-183 67,-183 844.32,-183 844.32,-183"/>
<polygon fill="black" stroke="black" points="844.32,-186.5 854.32,-183 844.32,-179.5 844.32,-186.5"/>
</g>
</g>
</svg>
