<?xml version="1.0" encoding="UTF-8" standalone="no"?>
<!DOCTYPE svg PUBLIC "-//W3C//DTD SVG 1.1//EN"
 "http://www.w3.org/Graphics/SVG/1.1/DTD/svg11.dtd">
<!-- Generated by graphviz version 2.47.0 (20210316.0004)
 -->
<!-- Title: dependencies Pages: 1 -->
<svg width="1974pt" height="211pt"
 viewBox="0.00 0.00 1974.00 211.00" xmlns="http://www.w3.org/2000/svg" xmlns:xlink="http://www.w3.org/1999/xlink">
<g id="graph0" class="graph" transform="scale(1 1) rotate(0) translate(4 207)">
<title>dependencies</title>
<polygon fill="white" stroke="transparent" points="-4,4 -4,-207 1970,-207 1970,4 -4,4"/>
<text text-anchor="start" x="962.01" y="-42.4" font-family="Times-12" font-weight="bold" font-size="14.00">Legend</text>
<polygon fill="#ffffb3" stroke="transparent" points="749,-10 749,-30 769,-30 769,-10 749,-10"/>
<text text-anchor="start" x="772.63" y="-15.4" font-family="Times-12" font-size="14.00"> &#160;Declarations</text>
<polygon fill="#8dd3c7" stroke="transparent" points="862,-10 862,-30 882,-30 882,-10 862,-10"/>
<text text-anchor="start" x="885.73" y="-15.4" font-family="Times-12" font-size="14.00"> &#160;Module</text>
<polygon fill="#80b1d3" stroke="transparent" points="948,-10 948,-30 968,-30 968,-10 948,-10"/>
<text text-anchor="start" x="971.78" y="-15.4" font-family="Times-12" font-size="14.00"> &#160;Bootstrap</text>
<polygon fill="#fdb462" stroke="transparent" points="1045,-10 1045,-30 1065,-30 1065,-10 1045,-10"/>
<text text-anchor="start" x="1068.67" y="-15.4" font-family="Times-12" font-size="14.00"> &#160;Providers</text>
<polygon fill="#fb8072" stroke="transparent" points="1141,-10 1141,-30 1161,-30 1161,-10 1141,-10"/>
<text text-anchor="start" x="1164.73" y="-15.4" font-family="Times-12" font-size="14.00"> &#160;Exports</text>
<g id="clust1" class="cluster">
<title>cluster_AppModule</title>
<polygon fill="none" stroke="black" stroke-dasharray="1,5" points="8,-70 8,-195 1958,-195 1958,-70 8,-70"/>
</g>
<g id="clust3" class="cluster">
<title>cluster_AppModule_imports</title>
<polygon fill="none" stroke="black" points="16,-78 16,-130 1950,-130 1950,-78 16,-78"/>
</g>
<!-- AdminModule -->
<g id="node1" class="node">
<title>AdminModule</title>
<polygon fill="#8dd3c7" stroke="black" points="1942.44,-122 1939.44,-126 1918.44,-126 1915.44,-122 1843.56,-122 1843.56,-86 1942.44,-86 1942.44,-122"/>
<text text-anchor="middle" x="1893" y="-99.8" font-family="Times,serif" font-size="14.00">AdminModule</text>
</g>
<!-- AppModule -->
<g id="node17" class="node">
<title>AppModule</title>
<polygon fill="#8dd3c7" stroke="black" points="993.66,-187 990.66,-191 969.66,-191 966.66,-187 910.34,-187 910.34,-151 993.66,-151 993.66,-187"/>
<text text-anchor="middle" x="952" y="-164.8" font-family="Times,serif" font-size="14.00">AppModule</text>
</g>
<!-- AdminModule&#45;&gt;AppModule -->
<g id="edge1" class="edge">
<title>AdminModule&#45;&gt;AppModule</title>
<path fill="none" stroke="black" d="M1893,-122.32C1893,-145.66 1893,-183 1893,-183 1893,-183 1003.95,-183 1003.95,-183"/>
<polygon fill="black" stroke="black" points="1003.95,-179.5 993.95,-183 1003.95,-186.5 1003.95,-179.5"/>
</g>
<!-- AnnouncementModule -->
<g id="node2" class="node">
<title>AnnouncementModule</title>
<polygon fill="#8dd3c7" stroke="black" points="1825.58,-122 1822.58,-126 1801.58,-126 1798.58,-122 1680.42,-122 1680.42,-86 1825.58,-86 1825.58,-122"/>
<text text-anchor="middle" x="1753" y="-99.8" font-family="Times,serif" font-size="14.00">AnnouncementModule</text>
</g>
<!-- AnnouncementModule&#45;&gt;AppModule -->
<g id="edge2" class="edge">
<title>AnnouncementModule&#45;&gt;AppModule</title>
<path fill="none" stroke="black" d="M1753,-122.29C1753,-144.21 1753,-178 1753,-178 1753,-178 1003.66,-178 1003.66,-178"/>
<polygon fill="black" stroke="black" points="1003.66,-174.5 993.66,-178 1003.66,-181.5 1003.66,-174.5"/>
</g>
<!-- ArchiveModule -->
<g id="node3" class="node">
<title>ArchiveModule</title>
<polygon fill="#8dd3c7" stroke="black" points="1662.14,-122 1659.14,-126 1638.14,-126 1635.14,-122 1557.86,-122 1557.86,-86 1662.14,-86 1662.14,-122"/>
<text text-anchor="middle" x="1610" y="-99.8" font-family="Times,serif" font-size="14.00">ArchiveModule</text>
</g>
<!-- ArchiveModule&#45;&gt;AppModule -->
<g id="edge3" class="edge">
<title>ArchiveModule&#45;&gt;AppModule</title>
<path fill="none" stroke="black" d="M1610,-122.03C1610,-142.77 1610,-174 1610,-174 1610,-174 1003.66,-174 1003.66,-174"/>
<polygon fill="black" stroke="black" points="1003.66,-170.5 993.66,-174 1003.66,-177.5 1003.66,-170.5"/>
</g>
<!-- ArticleModule -->
<g id="node4" class="node">
<title>ArticleModule</title>
<polygon fill="#8dd3c7" stroke="black" points="1539.42,-122 1536.42,-126 1515.42,-126 1512.42,-122 1440.58,-122 1440.58,-86 1539.42,-86 1539.42,-122"/>
<text text-anchor="middle" x="1490" y="-99.8" font-family="Times,serif" font-size="14.00">ArticleModule</text>
</g>
<!-- ArticleModule&#45;&gt;AppModule -->
<g id="edge4" class="edge">
<title>ArticleModule&#45;&gt;AppModule</title>
<path fill="none" stroke="black" d="M1490,-122.11C1490,-141.34 1490,-169 1490,-169 1490,-169 1003.77,-169 1003.77,-169"/>
<polygon fill="black" stroke="black" points="1003.77,-165.5 993.77,-169 1003.77,-172.5 1003.77,-165.5"/>
</g>
<!-- AuthModule -->
<g id="node5" class="node">
<title>AuthModule</title>
<polygon fill="#8dd3c7" stroke="black" points="1422.55,-122 1419.55,-126 1398.55,-126 1395.55,-122 1335.45,-122 1335.45,-86 1422.55,-86 1422.55,-122"/>
<text text-anchor="middle" x="1379" y="-99.8" font-family="Times,serif" font-size="14.00">AuthModule</text>
</g>
<!-- AuthModule&#45;&gt;AppModule -->
<g id="edge5" class="edge">
<title>AuthModule&#45;&gt;AppModule</title>
<path fill="none" stroke="black" d="M1379,-122.3C1379,-140.27 1379,-165 1379,-165 1379,-165 1003.72,-165 1003.72,-165"/>
<polygon fill="black" stroke="black" points="1003.72,-161.5 993.72,-165 1003.72,-168.5 1003.72,-161.5"/>
</g>
<!-- CacheModule -->
<g id="node6" class="node">
<title>CacheModule</title>
<polygon fill="#8dd3c7" stroke="black" points="1317.03,-122 1314.03,-126 1293.03,-126 1290.03,-122 1222.97,-122 1222.97,-86 1317.03,-86 1317.03,-122"/>
<text text-anchor="middle" x="1270" y="-99.8" font-family="Times,serif" font-size="14.00">CacheModule</text>
</g>
<!-- CacheModule&#45;&gt;AppModule -->
<g id="edge6" class="edge">
<title>CacheModule&#45;&gt;AppModule</title>
<path fill="none" stroke="black" d="M1270,-122.03C1270,-138.4 1270,-160 1270,-160 1270,-160 1003.9,-160 1003.9,-160"/>
<polygon fill="black" stroke="black" points="1003.9,-156.5 993.9,-160 1003.9,-163.5 1003.9,-156.5"/>
</g>
<!-- CategoryModule -->
<g id="node7" class="node">
<title>CategoryModule</title>
<polygon fill="#8dd3c7" stroke="black" points="1204.37,-122 1201.37,-126 1180.37,-126 1177.37,-122 1093.63,-122 1093.63,-86 1204.37,-86 1204.37,-122"/>
<text text-anchor="middle" x="1149" y="-99.8" font-family="Times,serif" font-size="14.00">CategoryModule</text>
</g>
<!-- CategoryModule&#45;&gt;AppModule -->
<g id="edge7" class="edge">
<title>CategoryModule&#45;&gt;AppModule</title>
<path fill="none" stroke="black" d="M1149,-122.19C1149,-137.18 1149,-156 1149,-156 1149,-156 1003.78,-156 1003.78,-156"/>
<polygon fill="black" stroke="black" points="1003.78,-152.5 993.78,-156 1003.78,-159.5 1003.78,-152.5"/>
</g>
<!-- CommentModule -->
<g id="node8" class="node">
<title>CommentModule</title>
<polygon fill="#8dd3c7" stroke="black" points="1075.27,-122 1072.27,-126 1051.27,-126 1048.27,-122 960.73,-122 960.73,-86 1075.27,-86 1075.27,-122"/>
<text text-anchor="middle" x="1018" y="-99.8" font-family="Times,serif" font-size="14.00">CommentModule</text>
</g>
<!-- CommentModule&#45;&gt;AppModule -->
<g id="edge8" class="edge">
<title>CommentModule&#45;&gt;AppModule</title>
<path fill="none" stroke="black" d="M977.22,-122.11C977.22,-122.11 977.22,-140.99 977.22,-140.99"/>
<polygon fill="black" stroke="black" points="973.72,-140.99 977.22,-150.99 980.72,-140.99 973.72,-140.99"/>
</g>
<!-- DatabaseModule -->
<g id="node9" class="node">
<title>DatabaseModule</title>
<polygon fill="#8dd3c7" stroke="black" points="942.35,-122 939.35,-126 918.35,-126 915.35,-122 831.65,-122 831.65,-86 942.35,-86 942.35,-122"/>
<text text-anchor="middle" x="887" y="-99.8" font-family="Times,serif" font-size="14.00">DatabaseModule</text>
</g>
<!-- DatabaseModule&#45;&gt;AppModule -->
<g id="edge9" class="edge">
<title>DatabaseModule&#45;&gt;AppModule</title>
<path fill="none" stroke="black" d="M926.3,-122.11C926.3,-122.11 926.3,-140.99 926.3,-140.99"/>
<polygon fill="black" stroke="black" points="922.8,-140.99 926.3,-150.99 929.8,-140.99 922.8,-140.99"/>
</g>
<!-- DisqusModule -->
<g id="node10" class="node">
<title>DisqusModule</title>
<polygon fill="#8dd3c7" stroke="black" points="813.44,-122 810.44,-126 789.44,-126 786.44,-122 714.56,-122 714.56,-86 813.44,-86 813.44,-122"/>
<text text-anchor="middle" x="764" y="-99.8" font-family="Times,serif" font-size="14.00">DisqusModule</text>
</g>
<!-- DisqusModule&#45;&gt;AppModule -->
<g id="edge10" class="edge">
<title>DisqusModule&#45;&gt;AppModule</title>
<path fill="none" stroke="black" d="M764,-122.19C764,-137.18 764,-156 764,-156 764,-156 900.28,-156 900.28,-156"/>
<polygon fill="black" stroke="black" points="900.28,-159.5 910.28,-156 900.28,-152.5 900.28,-159.5"/>
</g>
<!-- FeedbackModule -->
<g id="node11" class="node">
<title>FeedbackModule</title>
<polygon fill="#8dd3c7" stroke="black" points="696.69,-122 693.69,-126 672.69,-126 669.69,-122 583.31,-122 583.31,-86 696.69,-86 696.69,-122"/>
<text text-anchor="middle" x="640" y="-99.8" font-family="Times,serif" font-size="14.00">FeedbackModule</text>
</g>
<!-- FeedbackModule&#45;&gt;AppModule -->
<g id="edge11" class="edge">
<title>FeedbackModule&#45;&gt;AppModule</title>
<path fill="none" stroke="black" d="M640,-122.03C640,-138.4 640,-160 640,-160 640,-160 900.25,-160 900.25,-160"/>
<polygon fill="black" stroke="black" points="900.25,-163.5 910.25,-160 900.25,-156.5 900.25,-163.5"/>
</g>
<!-- HelperModule -->
<g id="node12" class="node">
<title>HelperModule</title>
<polygon fill="#8dd3c7" stroke="black" points="565.64,-122 562.64,-126 541.64,-126 538.64,-122 468.36,-122 468.36,-86 565.64,-86 565.64,-122"/>
<text text-anchor="middle" x="517" y="-99.8" font-family="Times,serif" font-size="14.00">HelperModule</text>
</g>
<!-- HelperModule&#45;&gt;AppModule -->
<g id="edge12" class="edge">
<title>HelperModule&#45;&gt;AppModule</title>
<path fill="none" stroke="black" d="M517,-122.3C517,-140.27 517,-165 517,-165 517,-165 900.29,-165 900.29,-165"/>
<polygon fill="black" stroke="black" points="900.29,-168.5 910.29,-165 900.29,-161.5 900.29,-168.5"/>
</g>
<!-- OptionsModule -->
<g id="node13" class="node">
<title>OptionsModule</title>
<polygon fill="#8dd3c7" stroke="black" points="449.88,-122 446.88,-126 425.88,-126 422.88,-122 346.12,-122 346.12,-86 449.88,-86 449.88,-122"/>
<text text-anchor="middle" x="398" y="-99.8" font-family="Times,serif" font-size="14.00">OptionsModule</text>
</g>
<!-- OptionsModule&#45;&gt;AppModule -->
<g id="edge13" class="edge">
<title>OptionsModule&#45;&gt;AppModule</title>
<path fill="none" stroke="black" d="M398,-122.11C398,-141.34 398,-169 398,-169 398,-169 899.91,-169 899.91,-169"/>
<polygon fill="black" stroke="black" points="899.91,-172.5 909.91,-169 899.91,-165.5 899.91,-172.5"/>
</g>
<!-- SystemModule -->
<g id="node14" class="node">
<title>SystemModule</title>
<polygon fill="#8dd3c7" stroke="black" points="328.27,-122 325.27,-126 304.27,-126 301.27,-122 227.73,-122 227.73,-86 328.27,-86 328.27,-122"/>
<text text-anchor="middle" x="278" y="-99.8" font-family="Times,serif" font-size="14.00">SystemModule</text>
</g>
<!-- SystemModule&#45;&gt;AppModule -->
<g id="edge14" class="edge">
<title>SystemModule&#45;&gt;AppModule</title>
<path fill="none" stroke="black" d="M278,-122.03C278,-142.77 278,-174 278,-174 278,-174 900.09,-174 900.09,-174"/>
<polygon fill="black" stroke="black" points="900.09,-177.5 910.09,-174 900.09,-170.5 900.09,-177.5"/>
</g>
<!-- TagModule -->
<g id="node15" class="node">
<title>TagModule</title>
<polygon fill="#8dd3c7" stroke="black" points="209.82,-122 206.82,-126 185.82,-126 182.82,-122 128.18,-122 128.18,-86 209.82,-86 209.82,-122"/>
<text text-anchor="middle" x="169" y="-99.8" font-family="Times,serif" font-size="14.00">TagModule</text>
</g>
<!-- TagModule&#45;&gt;AppModule -->
<g id="edge15" class="edge">
<title>TagModule&#45;&gt;AppModule</title>
<path fill="none" stroke="black" d="M169,-122.29C169,-144.21 169,-178 169,-178 169,-178 900.18,-178 900.18,-178"/>
<polygon fill="black" stroke="black" points="900.18,-181.5 910.18,-178 900.18,-174.5 900.18,-181.5"/>
</g>
<!-- VoteModule -->
<g id="node16" class="node">
<title>VoteModule</title>
<polygon fill="#8dd3c7" stroke="black" points="110.26,-122 107.26,-126 86.26,-126 83.26,-122 23.74,-122 23.74,-86 110.26,-86 110.26,-122"/>
<text text-anchor="middle" x="67" y="-99.8" font-family="Times,serif" font-size="14.00">VoteModule</text>
</g>
<!-- VoteModule&#45;&gt;AppModule -->
<g id="edge16" class="edge">
<title>VoteModule&#45;&gt;AppModule</title>
<path fill="none" stroke="black" d="M67,-122.32C67,-145.66 67,-183 67,-183 67,-183 900.21,-183 900.21,-183"/>
<polygon fill="black" stroke="black" points="900.21,-186.5 910.21,-183 900.21,-179.5 900.21,-186.5"/>
</g>
</g>
</svg>
