<?xml version="1.0" encoding="UTF-8" standalone="no"?>
<!DOCTYPE svg PUBLIC "-//W3C//DTD SVG 1.1//EN"
 "http://www.w3.org/Graphics/SVG/1.1/DTD/svg11.dtd">
<!-- Generated by graphviz version 2.47.0 (20210316.0004)
 -->
<!-- Title: dependencies Pages: 1 -->
<svg width="2197pt" height="211pt"
 viewBox="0.00 0.00 2197.00 211.00" xmlns="http://www.w3.org/2000/svg" xmlns:xlink="http://www.w3.org/1999/xlink">
<g id="graph0" class="graph" transform="scale(1 1) rotate(0) translate(4 207)">
<title>dependencies</title>
<polygon fill="white" stroke="transparent" points="-4,4 -4,-207 2193,-207 2193,4 -4,4"/>
<text text-anchor="start" x="1073.51" y="-42.4" font-family="Times-12" font-weight="bold" font-size="14.00">Legend</text>
<polygon fill="#ffffb3" stroke="transparent" points="860.5,-10 860.5,-30 880.5,-30 880.5,-10 860.5,-10"/>
<text text-anchor="start" x="884.13" y="-15.4" font-family="Times-12" font-size="14.00"> &#160;Declarations</text>
<polygon fill="#8dd3c7" stroke="transparent" points="973.5,-10 973.5,-30 993.5,-30 993.5,-10 973.5,-10"/>
<text text-anchor="start" x="997.23" y="-15.4" font-family="Times-12" font-size="14.00"> &#160;Module</text>
<polygon fill="#80b1d3" stroke="transparent" points="1059.5,-10 1059.5,-30 1079.5,-30 1079.5,-10 1059.5,-10"/>
<text text-anchor="start" x="1083.28" y="-15.4" font-family="Times-12" font-size="14.00"> &#160;Bootstrap</text>
<polygon fill="#fdb462" stroke="transparent" points="1156.5,-10 1156.5,-30 1176.5,-30 1176.5,-10 1156.5,-10"/>
<text text-anchor="start" x="1180.17" y="-15.4" font-family="Times-12" font-size="14.00"> &#160;Providers</text>
<polygon fill="#fb8072" stroke="transparent" points="1252.5,-10 1252.5,-30 1272.5,-30 1272.5,-10 1252.5,-10"/>
<text text-anchor="start" x="1276.23" y="-15.4" font-family="Times-12" font-size="14.00"> &#160;Exports</text>
<g id="clust1" class="cluster">
<title>cluster_AppModule</title>
<polygon fill="none" stroke="black" stroke-dasharray="1,5" points="8,-70 8,-195 2181,-195 2181,-70 8,-70"/>
</g>
<g id="clust3" class="cluster">
<title>cluster_AppModule_imports</title>
<polygon fill="none" stroke="black" points="16,-78 16,-130 2173,-130 2173,-78 16,-78"/>
</g>
<!-- AdminModule -->
<g id="node1" class="node">
<title>AdminModule</title>
<polygon fill="#8dd3c7" stroke="black" points="2165.44,-122 2162.44,-126 2141.44,-126 2138.44,-122 2066.56,-122 2066.56,-86 2165.44,-86 2165.44,-122"/>
<text text-anchor="middle" x="2116" y="-99.8" font-family="Times,serif" font-size="14.00">AdminModule</text>
</g>
<!-- AppModule -->
<g id="node19" class="node">
<title>AppModule</title>
<polygon fill="#8dd3c7" stroke="black" points="1125.66,-187 1122.66,-191 1101.66,-191 1098.66,-187 1042.34,-187 1042.34,-151 1125.66,-151 1125.66,-187"/>
<text text-anchor="middle" x="1084" y="-164.8" font-family="Times,serif" font-size="14.00">AppModule</text>
</g>
<!-- AdminModule&#45;&gt;AppModule -->
<g id="edge1" class="edge">
<title>AdminModule&#45;&gt;AppModule</title>
<path fill="none" stroke="black" d="M2116,-122.32C2116,-145.66 2116,-183 2116,-183 2116,-183 1135.73,-183 1135.73,-183"/>
<polygon fill="black" stroke="black" points="1135.73,-179.5 1125.73,-183 1135.73,-186.5 1135.73,-179.5"/>
</g>
<!-- AiModule -->
<g id="node2" class="node">
<title>AiModule</title>
<polygon fill="#8dd3c7" stroke="black" points="2048.55,-122 2045.55,-126 2024.55,-126 2021.55,-122 1975.45,-122 1975.45,-86 2048.55,-86 2048.55,-122"/>
<text text-anchor="middle" x="2012" y="-99.8" font-family="Times,serif" font-size="14.00">AiModule</text>
</g>
<!-- AiModule&#45;&gt;AppModule -->
<g id="edge2" class="edge">
<title>AiModule&#45;&gt;AppModule</title>
<path fill="none" stroke="black" d="M2012,-122.16C2012,-144.35 2012,-179 2012,-179 2012,-179 1135.68,-179 1135.68,-179"/>
<polygon fill="black" stroke="black" points="1135.68,-175.5 1125.68,-179 1135.68,-182.5 1135.68,-175.5"/>
</g>
<!-- AnnouncementModule -->
<g id="node3" class="node">
<title>AnnouncementModule</title>
<polygon fill="#8dd3c7" stroke="black" points="1957.58,-122 1954.58,-126 1933.58,-126 1930.58,-122 1812.42,-122 1812.42,-86 1957.58,-86 1957.58,-122"/>
<text text-anchor="middle" x="1885" y="-99.8" font-family="Times,serif" font-size="14.00">AnnouncementModule</text>
</g>
<!-- AnnouncementModule&#45;&gt;AppModule -->
<g id="edge3" class="edge">
<title>AnnouncementModule&#45;&gt;AppModule</title>
<path fill="none" stroke="black" d="M1885,-122.28C1885,-143.32 1885,-175 1885,-175 1885,-175 1135.66,-175 1135.66,-175"/>
<polygon fill="black" stroke="black" points="1135.66,-171.5 1125.66,-175 1135.66,-178.5 1135.66,-171.5"/>
</g>
<!-- ArchiveModule -->
<g id="node4" class="node">
<title>ArchiveModule</title>
<polygon fill="#8dd3c7" stroke="black" points="1794.14,-122 1791.14,-126 1770.14,-126 1767.14,-122 1689.86,-122 1689.86,-86 1794.14,-86 1794.14,-122"/>
<text text-anchor="middle" x="1742" y="-99.8" font-family="Times,serif" font-size="14.00">ArchiveModule</text>
</g>
<!-- ArchiveModule&#45;&gt;AppModule -->
<g id="edge4" class="edge">
<title>ArchiveModule&#45;&gt;AppModule</title>
<path fill="none" stroke="black" d="M1742,-122.31C1742,-142.15 1742,-171 1742,-171 1742,-171 1135.66,-171 1135.66,-171"/>
<polygon fill="black" stroke="black" points="1135.66,-167.5 1125.66,-171 1135.66,-174.5 1135.66,-167.5"/>
</g>
<!-- ArticleModule -->
<g id="node5" class="node">
<title>ArticleModule</title>
<polygon fill="#8dd3c7" stroke="black" points="1671.42,-122 1668.42,-126 1647.42,-126 1644.42,-122 1572.58,-122 1572.58,-86 1671.42,-86 1671.42,-122"/>
<text text-anchor="middle" x="1622" y="-99.8" font-family="Times,serif" font-size="14.00">ArticleModule</text>
</g>
<!-- ArticleModule&#45;&gt;AppModule -->
<g id="edge5" class="edge">
<title>ArticleModule&#45;&gt;AppModule</title>
<path fill="none" stroke="black" d="M1622,-122.22C1622,-140.83 1622,-167 1622,-167 1622,-167 1135.77,-167 1135.77,-167"/>
<polygon fill="black" stroke="black" points="1135.77,-163.5 1125.77,-167 1135.77,-170.5 1135.77,-163.5"/>
</g>
<!-- AuthModule -->
<g id="node6" class="node">
<title>AuthModule</title>
<polygon fill="#8dd3c7" stroke="black" points="1554.55,-122 1551.55,-126 1530.55,-126 1527.55,-122 1467.45,-122 1467.45,-86 1554.55,-86 1554.55,-122"/>
<text text-anchor="middle" x="1511" y="-99.8" font-family="Times,serif" font-size="14.00">AuthModule</text>
</g>
<!-- AuthModule&#45;&gt;AppModule -->
<g id="edge6" class="edge">
<title>AuthModule&#45;&gt;AppModule</title>
<path fill="none" stroke="black" d="M1511,-122.02C1511,-139.37 1511,-163 1511,-163 1511,-163 1135.72,-163 1135.72,-163"/>
<polygon fill="black" stroke="black" points="1135.72,-159.5 1125.72,-163 1135.72,-166.5 1135.72,-159.5"/>
</g>
<!-- CacheModule -->
<g id="node7" class="node">
<title>CacheModule</title>
<polygon fill="#8dd3c7" stroke="black" points="1449.03,-122 1446.03,-126 1425.03,-126 1422.03,-122 1354.97,-122 1354.97,-86 1449.03,-86 1449.03,-122"/>
<text text-anchor="middle" x="1402" y="-99.8" font-family="Times,serif" font-size="14.00">CacheModule</text>
</g>
<!-- CacheModule&#45;&gt;AppModule -->
<g id="edge7" class="edge">
<title>CacheModule&#45;&gt;AppModule</title>
<path fill="none" stroke="black" d="M1402,-122.01C1402,-138.05 1402,-159 1402,-159 1402,-159 1135.9,-159 1135.9,-159"/>
<polygon fill="black" stroke="black" points="1135.9,-155.5 1125.9,-159 1135.9,-162.5 1135.9,-155.5"/>
</g>
<!-- CategoryModule -->
<g id="node8" class="node">
<title>CategoryModule</title>
<polygon fill="#8dd3c7" stroke="black" points="1336.37,-122 1333.37,-126 1312.37,-126 1309.37,-122 1225.63,-122 1225.63,-86 1336.37,-86 1336.37,-122"/>
<text text-anchor="middle" x="1281" y="-99.8" font-family="Times,serif" font-size="14.00">CategoryModule</text>
</g>
<!-- CategoryModule&#45;&gt;AppModule -->
<g id="edge8" class="edge">
<title>CategoryModule&#45;&gt;AppModule</title>
<path fill="none" stroke="black" d="M1281,-122.12C1281,-136.78 1281,-155 1281,-155 1281,-155 1135.78,-155 1135.78,-155"/>
<polygon fill="black" stroke="black" points="1135.78,-151.5 1125.78,-155 1135.78,-158.5 1135.78,-151.5"/>
</g>
<!-- CommentModule -->
<g id="node9" class="node">
<title>CommentModule</title>
<polygon fill="#8dd3c7" stroke="black" points="1207.27,-122 1204.27,-126 1183.27,-126 1180.27,-122 1092.73,-122 1092.73,-86 1207.27,-86 1207.27,-122"/>
<text text-anchor="middle" x="1150" y="-99.8" font-family="Times,serif" font-size="14.00">CommentModule</text>
</g>
<!-- CommentModule&#45;&gt;AppModule -->
<g id="edge9" class="edge">
<title>CommentModule&#45;&gt;AppModule</title>
<path fill="none" stroke="black" d="M1109.22,-122.11C1109.22,-122.11 1109.22,-140.99 1109.22,-140.99"/>
<polygon fill="black" stroke="black" points="1105.72,-140.99 1109.22,-150.99 1112.72,-140.99 1105.72,-140.99"/>
</g>
<!-- DatabaseModule -->
<g id="node10" class="node">
<title>DatabaseModule</title>
<polygon fill="#8dd3c7" stroke="black" points="1074.35,-122 1071.35,-126 1050.35,-126 1047.35,-122 963.65,-122 963.65,-86 1074.35,-86 1074.35,-122"/>
<text text-anchor="middle" x="1019" y="-99.8" font-family="Times,serif" font-size="14.00">DatabaseModule</text>
</g>
<!-- DatabaseModule&#45;&gt;AppModule -->
<g id="edge10" class="edge">
<title>DatabaseModule&#45;&gt;AppModule</title>
<path fill="none" stroke="black" d="M1058.3,-122.11C1058.3,-122.11 1058.3,-140.99 1058.3,-140.99"/>
<polygon fill="black" stroke="black" points="1054.8,-140.99 1058.3,-150.99 1061.8,-140.99 1054.8,-140.99"/>
</g>
<!-- DisqusModule -->
<g id="node11" class="node">
<title>DisqusModule</title>
<polygon fill="#8dd3c7" stroke="black" points="945.44,-122 942.44,-126 921.44,-126 918.44,-122 846.56,-122 846.56,-86 945.44,-86 945.44,-122"/>
<text text-anchor="middle" x="896" y="-99.8" font-family="Times,serif" font-size="14.00">DisqusModule</text>
</g>
<!-- DisqusModule&#45;&gt;AppModule -->
<g id="edge11" class="edge">
<title>DisqusModule&#45;&gt;AppModule</title>
<path fill="none" stroke="black" d="M896,-122.12C896,-136.78 896,-155 896,-155 896,-155 1032.28,-155 1032.28,-155"/>
<polygon fill="black" stroke="black" points="1032.28,-158.5 1042.28,-155 1032.28,-151.5 1032.28,-158.5"/>
</g>
<!-- FeedbackModule -->
<g id="node12" class="node">
<title>FeedbackModule</title>
<polygon fill="#8dd3c7" stroke="black" points="828.69,-122 825.69,-126 804.69,-126 801.69,-122 715.31,-122 715.31,-86 828.69,-86 828.69,-122"/>
<text text-anchor="middle" x="772" y="-99.8" font-family="Times,serif" font-size="14.00">FeedbackModule</text>
</g>
<!-- FeedbackModule&#45;&gt;AppModule -->
<g id="edge12" class="edge">
<title>FeedbackModule&#45;&gt;AppModule</title>
<path fill="none" stroke="black" d="M772,-122.01C772,-138.05 772,-159 772,-159 772,-159 1032.25,-159 1032.25,-159"/>
<polygon fill="black" stroke="black" points="1032.25,-162.5 1042.25,-159 1032.25,-155.5 1032.25,-162.5"/>
</g>
<!-- HelperModule -->
<g id="node13" class="node">
<title>HelperModule</title>
<polygon fill="#8dd3c7" stroke="black" points="697.64,-122 694.64,-126 673.64,-126 670.64,-122 600.36,-122 600.36,-86 697.64,-86 697.64,-122"/>
<text text-anchor="middle" x="649" y="-99.8" font-family="Times,serif" font-size="14.00">HelperModule</text>
</g>
<!-- HelperModule&#45;&gt;AppModule -->
<g id="edge13" class="edge">
<title>HelperModule&#45;&gt;AppModule</title>
<path fill="none" stroke="black" d="M649,-122.02C649,-139.37 649,-163 649,-163 649,-163 1032.29,-163 1032.29,-163"/>
<polygon fill="black" stroke="black" points="1032.29,-166.5 1042.29,-163 1032.29,-159.5 1032.29,-166.5"/>
</g>
<!-- OptionsModule -->
<g id="node14" class="node">
<title>OptionsModule</title>
<polygon fill="#8dd3c7" stroke="black" points="581.88,-122 578.88,-126 557.88,-126 554.88,-122 478.12,-122 478.12,-86 581.88,-86 581.88,-122"/>
<text text-anchor="middle" x="530" y="-99.8" font-family="Times,serif" font-size="14.00">OptionsModule</text>
</g>
<!-- OptionsModule&#45;&gt;AppModule -->
<g id="edge14" class="edge">
<title>OptionsModule&#45;&gt;AppModule</title>
<path fill="none" stroke="black" d="M530,-122.22C530,-140.83 530,-167 530,-167 530,-167 1031.91,-167 1031.91,-167"/>
<polygon fill="black" stroke="black" points="1031.91,-170.5 1041.91,-167 1031.91,-163.5 1031.91,-170.5"/>
</g>
<!-- SystemModule -->
<g id="node15" class="node">
<title>SystemModule</title>
<polygon fill="#8dd3c7" stroke="black" points="460.27,-122 457.27,-126 436.27,-126 433.27,-122 359.73,-122 359.73,-86 460.27,-86 460.27,-122"/>
<text text-anchor="middle" x="410" y="-99.8" font-family="Times,serif" font-size="14.00">SystemModule</text>
</g>
<!-- SystemModule&#45;&gt;AppModule -->
<g id="edge15" class="edge">
<title>SystemModule&#45;&gt;AppModule</title>
<path fill="none" stroke="black" d="M410,-122.31C410,-142.15 410,-171 410,-171 410,-171 1032.09,-171 1032.09,-171"/>
<polygon fill="black" stroke="black" points="1032.09,-174.5 1042.09,-171 1032.09,-167.5 1032.09,-174.5"/>
</g>
<!-- TagModule -->
<g id="node16" class="node">
<title>TagModule</title>
<polygon fill="#8dd3c7" stroke="black" points="341.82,-122 338.82,-126 317.82,-126 314.82,-122 260.18,-122 260.18,-86 341.82,-86 341.82,-122"/>
<text text-anchor="middle" x="301" y="-99.8" font-family="Times,serif" font-size="14.00">TagModule</text>
</g>
<!-- TagModule&#45;&gt;AppModule -->
<g id="edge16" class="edge">
<title>TagModule&#45;&gt;AppModule</title>
<path fill="none" stroke="black" d="M301,-122.28C301,-143.32 301,-175 301,-175 301,-175 1032.18,-175 1032.18,-175"/>
<polygon fill="black" stroke="black" points="1032.18,-178.5 1042.18,-175 1032.18,-171.5 1032.18,-178.5"/>
</g>
<!-- VoteModule -->
<g id="node17" class="node">
<title>VoteModule</title>
<polygon fill="#8dd3c7" stroke="black" points="242.26,-122 239.26,-126 218.26,-126 215.26,-122 155.74,-122 155.74,-86 242.26,-86 242.26,-122"/>
<text text-anchor="middle" x="199" y="-99.8" font-family="Times,serif" font-size="14.00">VoteModule</text>
</g>
<!-- VoteModule&#45;&gt;AppModule -->
<g id="edge17" class="edge">
<title>VoteModule&#45;&gt;AppModule</title>
<path fill="none" stroke="black" d="M199,-122.16C199,-144.35 199,-179 199,-179 199,-179 1032.21,-179 1032.21,-179"/>
<polygon fill="black" stroke="black" points="1032.21,-182.5 1042.21,-179 1032.21,-175.5 1032.21,-182.5"/>
</g>
<!-- WebhookModule -->
<g id="node18" class="node">
<title>WebhookModule</title>
<polygon fill="#8dd3c7" stroke="black" points="137.98,-122 134.98,-126 113.98,-126 110.98,-122 24.02,-122 24.02,-86 137.98,-86 137.98,-122"/>
<text text-anchor="middle" x="81" y="-99.8" font-family="Times,serif" font-size="14.00">WebhookModule</text>
</g>
<!-- WebhookModule&#45;&gt;AppModule -->
<g id="edge18" class="edge">
<title>WebhookModule&#45;&gt;AppModule</title>
<path fill="none" stroke="black" d="M81,-122.32C81,-145.66 81,-183 81,-183 81,-183 1032.18,-183 1032.18,-183"/>
<polygon fill="black" stroke="black" points="1032.18,-186.5 1042.18,-183 1032.18,-179.5 1032.18,-186.5"/>
</g>
</g>
</svg>
