<?xml version="1.0" encoding="UTF-8" standalone="no"?>
<!DOCTYPE svg PUBLIC "-//W3C//DTD SVG 1.1//EN"
 "http://www.w3.org/Graphics/SVG/1.1/DTD/svg11.dtd">
<!-- Generated by graphviz version 2.47.0 (20210316.0004)
 -->
<!-- Title: dependencies Pages: 1 -->
<svg width="1871pt" height="211pt"
 viewBox="0.00 0.00 1871.00 211.00" xmlns="http://www.w3.org/2000/svg" xmlns:xlink="http://www.w3.org/1999/xlink">
<g id="graph0" class="graph" transform="scale(1 1) rotate(0) translate(4 207)">
<title>dependencies</title>
<polygon fill="white" stroke="transparent" points="-4,4 -4,-207 1867,-207 1867,4 -4,4"/>
<text text-anchor="start" x="910.51" y="-42.4" font-family="Times-12" font-weight="bold" font-size="14.00">Legend</text>
<polygon fill="#ffffb3" stroke="transparent" points="697.5,-10 697.5,-30 717.5,-30 717.5,-10 697.5,-10"/>
<text text-anchor="start" x="721.13" y="-15.4" font-family="Times-12" font-size="14.00"> &#160;Declarations</text>
<polygon fill="#8dd3c7" stroke="transparent" points="810.5,-10 810.5,-30 830.5,-30 830.5,-10 810.5,-10"/>
<text text-anchor="start" x="834.23" y="-15.4" font-family="Times-12" font-size="14.00"> &#160;Module</text>
<polygon fill="#80b1d3" stroke="transparent" points="896.5,-10 896.5,-30 916.5,-30 916.5,-10 896.5,-10"/>
<text text-anchor="start" x="920.28" y="-15.4" font-family="Times-12" font-size="14.00"> &#160;Bootstrap</text>
<polygon fill="#fdb462" stroke="transparent" points="993.5,-10 993.5,-30 1013.5,-30 1013.5,-10 993.5,-10"/>
<text text-anchor="start" x="1017.17" y="-15.4" font-family="Times-12" font-size="14.00"> &#160;Providers</text>
<polygon fill="#fb8072" stroke="transparent" points="1089.5,-10 1089.5,-30 1109.5,-30 1109.5,-10 1089.5,-10"/>
<text text-anchor="start" x="1113.23" y="-15.4" font-family="Times-12" font-size="14.00"> &#160;Exports</text>
<g id="clust1" class="cluster">
<title>cluster_AppModule</title>
<polygon fill="none" stroke="black" stroke-dasharray="1,5" points="8,-70 8,-195 1855,-195 1855,-70 8,-70"/>
</g>
<g id="clust3" class="cluster">
<title>cluster_AppModule_imports</title>
<polygon fill="none" stroke="black" points="16,-78 16,-130 1847,-130 1847,-78 16,-78"/>
</g>
<!-- AnnouncementModule -->
<g id="node1" class="node">
<title>AnnouncementModule</title>
<polygon fill="#8dd3c7" stroke="black" points="1838.58,-122 1835.58,-126 1814.58,-126 1811.58,-122 1693.42,-122 1693.42,-86 1838.58,-86 1838.58,-122"/>
<text text-anchor="middle" x="1766" y="-99.8" font-family="Times,serif" font-size="14.00">AnnouncementModule</text>
</g>
<!-- AppModule -->
<g id="node16" class="node">
<title>AppModule</title>
<polygon fill="#8dd3c7" stroke="black" points="941.66,-187 938.66,-191 917.66,-191 914.66,-187 858.34,-187 858.34,-151 941.66,-151 941.66,-187"/>
<text text-anchor="middle" x="900" y="-164.8" font-family="Times,serif" font-size="14.00">AppModule</text>
</g>
<!-- AnnouncementModule&#45;&gt;AppModule -->
<g id="edge1" class="edge">
<title>AnnouncementModule&#45;&gt;AppModule</title>
<path fill="none" stroke="black" d="M1766,-122.32C1766,-145.66 1766,-183 1766,-183 1766,-183 951.77,-183 951.77,-183"/>
<polygon fill="black" stroke="black" points="951.77,-179.5 941.77,-183 951.77,-186.5 951.77,-179.5"/>
</g>
<!-- ArchiveModule -->
<g id="node2" class="node">
<title>ArchiveModule</title>
<polygon fill="#8dd3c7" stroke="black" points="1675.14,-122 1672.14,-126 1651.14,-126 1648.14,-122 1570.86,-122 1570.86,-86 1675.14,-86 1675.14,-122"/>
<text text-anchor="middle" x="1623" y="-99.8" font-family="Times,serif" font-size="14.00">ArchiveModule</text>
</g>
<!-- ArchiveModule&#45;&gt;AppModule -->
<g id="edge2" class="edge">
<title>ArchiveModule&#45;&gt;AppModule</title>
<path fill="none" stroke="black" d="M1623,-122.29C1623,-144.21 1623,-178 1623,-178 1623,-178 951.73,-178 951.73,-178"/>
<polygon fill="black" stroke="black" points="951.73,-174.5 941.73,-178 951.73,-181.5 951.73,-174.5"/>
</g>
<!-- ArticleModule -->
<g id="node3" class="node">
<title>ArticleModule</title>
<polygon fill="#8dd3c7" stroke="black" points="1552.42,-122 1549.42,-126 1528.42,-126 1525.42,-122 1453.58,-122 1453.58,-86 1552.42,-86 1552.42,-122"/>
<text text-anchor="middle" x="1503" y="-99.8" font-family="Times,serif" font-size="14.00">ArticleModule</text>
</g>
<!-- ArticleModule&#45;&gt;AppModule -->
<g id="edge3" class="edge">
<title>ArticleModule&#45;&gt;AppModule</title>
<path fill="none" stroke="black" d="M1503,-122.03C1503,-142.77 1503,-174 1503,-174 1503,-174 951.92,-174 951.92,-174"/>
<polygon fill="black" stroke="black" points="951.92,-170.5 941.92,-174 951.92,-177.5 951.92,-170.5"/>
</g>
<!-- AuthModule -->
<g id="node4" class="node">
<title>AuthModule</title>
<polygon fill="#8dd3c7" stroke="black" points="1435.55,-122 1432.55,-126 1411.55,-126 1408.55,-122 1348.45,-122 1348.45,-86 1435.55,-86 1435.55,-122"/>
<text text-anchor="middle" x="1392" y="-99.8" font-family="Times,serif" font-size="14.00">AuthModule</text>
</g>
<!-- AuthModule&#45;&gt;AppModule -->
<g id="edge4" class="edge">
<title>AuthModule&#45;&gt;AppModule</title>
<path fill="none" stroke="black" d="M1392,-122.11C1392,-141.34 1392,-169 1392,-169 1392,-169 951.95,-169 951.95,-169"/>
<polygon fill="black" stroke="black" points="951.95,-165.5 941.95,-169 951.95,-172.5 951.95,-165.5"/>
</g>
<!-- CacheModule -->
<g id="node5" class="node">
<title>CacheModule</title>
<polygon fill="#8dd3c7" stroke="black" points="1330.03,-122 1327.03,-126 1306.03,-126 1303.03,-122 1235.97,-122 1235.97,-86 1330.03,-86 1330.03,-122"/>
<text text-anchor="middle" x="1283" y="-99.8" font-family="Times,serif" font-size="14.00">CacheModule</text>
</g>
<!-- CacheModule&#45;&gt;AppModule -->
<g id="edge5" class="edge">
<title>CacheModule&#45;&gt;AppModule</title>
<path fill="none" stroke="black" d="M1283,-122.3C1283,-140.27 1283,-165 1283,-165 1283,-165 951.72,-165 951.72,-165"/>
<polygon fill="black" stroke="black" points="951.72,-161.5 941.72,-165 951.72,-168.5 951.72,-161.5"/>
</g>
<!-- CategoryModule -->
<g id="node6" class="node">
<title>CategoryModule</title>
<polygon fill="#8dd3c7" stroke="black" points="1217.37,-122 1214.37,-126 1193.37,-126 1190.37,-122 1106.63,-122 1106.63,-86 1217.37,-86 1217.37,-122"/>
<text text-anchor="middle" x="1162" y="-99.8" font-family="Times,serif" font-size="14.00">CategoryModule</text>
</g>
<!-- CategoryModule&#45;&gt;AppModule -->
<g id="edge6" class="edge">
<title>CategoryModule&#45;&gt;AppModule</title>
<path fill="none" stroke="black" d="M1162,-122.03C1162,-138.4 1162,-160 1162,-160 1162,-160 951.8,-160 951.8,-160"/>
<polygon fill="black" stroke="black" points="951.8,-156.5 941.8,-160 951.8,-163.5 951.8,-156.5"/>
</g>
<!-- CommentModule -->
<g id="node7" class="node">
<title>CommentModule</title>
<polygon fill="#8dd3c7" stroke="black" points="1088.27,-122 1085.27,-126 1064.27,-126 1061.27,-122 973.73,-122 973.73,-86 1088.27,-86 1088.27,-122"/>
<text text-anchor="middle" x="1031" y="-99.8" font-family="Times,serif" font-size="14.00">CommentModule</text>
</g>
<!-- CommentModule&#45;&gt;AppModule -->
<g id="edge7" class="edge">
<title>CommentModule&#45;&gt;AppModule</title>
<path fill="none" stroke="black" d="M1031,-122.19C1031,-137.18 1031,-156 1031,-156 1031,-156 951.81,-156 951.81,-156"/>
<polygon fill="black" stroke="black" points="951.81,-152.5 941.81,-156 951.81,-159.5 951.81,-152.5"/>
</g>
<!-- DatabaseModule -->
<g id="node8" class="node">
<title>DatabaseModule</title>
<polygon fill="#8dd3c7" stroke="black" points="955.35,-122 952.35,-126 931.35,-126 928.35,-122 844.65,-122 844.65,-86 955.35,-86 955.35,-122"/>
<text text-anchor="middle" x="900" y="-99.8" font-family="Times,serif" font-size="14.00">DatabaseModule</text>
</g>
<!-- DatabaseModule&#45;&gt;AppModule -->
<g id="edge8" class="edge">
<title>DatabaseModule&#45;&gt;AppModule</title>
<path fill="none" stroke="black" d="M900,-122.11C900,-122.11 900,-140.99 900,-140.99"/>
<polygon fill="black" stroke="black" points="896.5,-140.99 900,-150.99 903.5,-140.99 896.5,-140.99"/>
</g>
<!-- DisqusModule -->
<g id="node9" class="node">
<title>DisqusModule</title>
<polygon fill="#8dd3c7" stroke="black" points="826.44,-122 823.44,-126 802.44,-126 799.44,-122 727.56,-122 727.56,-86 826.44,-86 826.44,-122"/>
<text text-anchor="middle" x="777" y="-99.8" font-family="Times,serif" font-size="14.00">DisqusModule</text>
</g>
<!-- DisqusModule&#45;&gt;AppModule -->
<g id="edge9" class="edge">
<title>DisqusModule&#45;&gt;AppModule</title>
<path fill="none" stroke="black" d="M777,-122.19C777,-137.18 777,-156 777,-156 777,-156 848.01,-156 848.01,-156"/>
<polygon fill="black" stroke="black" points="848.01,-159.5 858.01,-156 848.01,-152.5 848.01,-159.5"/>
</g>
<!-- ExpansionModule -->
<g id="node10" class="node">
<title>ExpansionModule</title>
<polygon fill="#8dd3c7" stroke="black" points="709.15,-122 706.15,-126 685.15,-126 682.15,-122 590.85,-122 590.85,-86 709.15,-86 709.15,-122"/>
<text text-anchor="middle" x="650" y="-99.8" font-family="Times,serif" font-size="14.00">ExpansionModule</text>
</g>
<!-- ExpansionModule&#45;&gt;AppModule -->
<g id="edge10" class="edge">
<title>ExpansionModule&#45;&gt;AppModule</title>
<path fill="none" stroke="black" d="M650,-122.03C650,-138.4 650,-160 650,-160 650,-160 848.16,-160 848.16,-160"/>
<polygon fill="black" stroke="black" points="848.16,-163.5 858.16,-160 848.16,-156.5 848.16,-163.5"/>
</g>
<!-- FeedbackModule -->
<g id="node11" class="node">
<title>FeedbackModule</title>
<polygon fill="#8dd3c7" stroke="black" points="572.69,-122 569.69,-126 548.69,-126 545.69,-122 459.31,-122 459.31,-86 572.69,-86 572.69,-122"/>
<text text-anchor="middle" x="516" y="-99.8" font-family="Times,serif" font-size="14.00">FeedbackModule</text>
</g>
<!-- FeedbackModule&#45;&gt;AppModule -->
<g id="edge11" class="edge">
<title>FeedbackModule&#45;&gt;AppModule</title>
<path fill="none" stroke="black" d="M516,-122.3C516,-140.27 516,-165 516,-165 516,-165 848.17,-165 848.17,-165"/>
<polygon fill="black" stroke="black" points="848.17,-168.5 858.17,-165 848.17,-161.5 848.17,-168.5"/>
</g>
<!-- HelperModule -->
<g id="node12" class="node">
<title>HelperModule</title>
<polygon fill="#8dd3c7" stroke="black" points="441.64,-122 438.64,-126 417.64,-126 414.64,-122 344.36,-122 344.36,-86 441.64,-86 441.64,-122"/>
<text text-anchor="middle" x="393" y="-99.8" font-family="Times,serif" font-size="14.00">HelperModule</text>
</g>
<!-- HelperModule&#45;&gt;AppModule -->
<g id="edge12" class="edge">
<title>HelperModule&#45;&gt;AppModule</title>
<path fill="none" stroke="black" d="M393,-122.11C393,-141.34 393,-169 393,-169 393,-169 848.08,-169 848.08,-169"/>
<polygon fill="black" stroke="black" points="848.08,-172.5 858.08,-169 848.08,-165.5 848.08,-172.5"/>
</g>
<!-- OptionModule -->
<g id="node13" class="node">
<title>OptionModule</title>
<polygon fill="#8dd3c7" stroke="black" points="326.44,-122 323.44,-126 302.44,-126 299.44,-122 227.56,-122 227.56,-86 326.44,-86 326.44,-122"/>
<text text-anchor="middle" x="277" y="-99.8" font-family="Times,serif" font-size="14.00">OptionModule</text>
</g>
<!-- OptionModule&#45;&gt;AppModule -->
<g id="edge13" class="edge">
<title>OptionModule&#45;&gt;AppModule</title>
<path fill="none" stroke="black" d="M277,-122.03C277,-142.77 277,-174 277,-174 277,-174 848.16,-174 848.16,-174"/>
<polygon fill="black" stroke="black" points="848.16,-177.5 858.16,-174 848.16,-170.5 848.16,-177.5"/>
</g>
<!-- TagModule -->
<g id="node14" class="node">
<title>TagModule</title>
<polygon fill="#8dd3c7" stroke="black" points="209.82,-122 206.82,-126 185.82,-126 182.82,-122 128.18,-122 128.18,-86 209.82,-86 209.82,-122"/>
<text text-anchor="middle" x="169" y="-99.8" font-family="Times,serif" font-size="14.00">TagModule</text>
</g>
<!-- TagModule&#45;&gt;AppModule -->
<g id="edge14" class="edge">
<title>TagModule&#45;&gt;AppModule</title>
<path fill="none" stroke="black" d="M169,-122.29C169,-144.21 169,-178 169,-178 169,-178 848.34,-178 848.34,-178"/>
<polygon fill="black" stroke="black" points="848.34,-181.5 858.34,-178 848.34,-174.5 848.34,-181.5"/>
</g>
<!-- VoteModule -->
<g id="node15" class="node">
<title>VoteModule</title>
<polygon fill="#8dd3c7" stroke="black" points="110.26,-122 107.26,-126 86.26,-126 83.26,-122 23.74,-122 23.74,-86 110.26,-86 110.26,-122"/>
<text text-anchor="middle" x="67" y="-99.8" font-family="Times,serif" font-size="14.00">VoteModule</text>
</g>
<!-- VoteModule&#45;&gt;AppModule -->
<g id="edge15" class="edge">
<title>VoteModule&#45;&gt;AppModule</title>
<path fill="none" stroke="black" d="M67,-122.32C67,-145.66 67,-183 67,-183 67,-183 848.12,-183 848.12,-183"/>
<polygon fill="black" stroke="black" points="848.12,-186.5 858.12,-183 848.12,-179.5 848.12,-186.5"/>
</g>
</g>
</svg>
