<?xml version="1.0" encoding="UTF-8" standalone="no"?>
<!DOCTYPE svg PUBLIC "-//W3C//DTD SVG 1.1//EN"
 "http://www.w3.org/Graphics/SVG/1.1/DTD/svg11.dtd">
<!-- Generated by graphviz version 2.47.0 (20210316.0004)
 -->
<!-- Title: dependencies Pages: 1 -->
<svg width="2106pt" height="211pt"
 viewBox="0.00 0.00 2106.00 211.00" xmlns="http://www.w3.org/2000/svg" xmlns:xlink="http://www.w3.org/1999/xlink">
<g id="graph0" class="graph" transform="scale(1 1) rotate(0) translate(4 207)">
<title>dependencies</title>
<polygon fill="white" stroke="transparent" points="-4,4 -4,-207 2102,-207 2102,4 -4,4"/>
<text text-anchor="start" x="1028.01" y="-42.4" font-family="Times-12" font-weight="bold" font-size="14.00">Legend</text>
<polygon fill="#ffffb3" stroke="transparent" points="815,-10 815,-30 835,-30 835,-10 815,-10"/>
<text text-anchor="start" x="838.63" y="-15.4" font-family="Times-12" font-size="14.00"> &#160;Declarations</text>
<polygon fill="#8dd3c7" stroke="transparent" points="928,-10 928,-30 948,-30 948,-10 928,-10"/>
<text text-anchor="start" x="951.73" y="-15.4" font-family="Times-12" font-size="14.00"> &#160;Module</text>
<polygon fill="#80b1d3" stroke="transparent" points="1014,-10 1014,-30 1034,-30 1034,-10 1014,-10"/>
<text text-anchor="start" x="1037.78" y="-15.4" font-family="Times-12" font-size="14.00"> &#160;Bootstrap</text>
<polygon fill="#fdb462" stroke="transparent" points="1111,-10 1111,-30 1131,-30 1131,-10 1111,-10"/>
<text text-anchor="start" x="1134.67" y="-15.4" font-family="Times-12" font-size="14.00"> &#160;Providers</text>
<polygon fill="#fb8072" stroke="transparent" points="1207,-10 1207,-30 1227,-30 1227,-10 1207,-10"/>
<text text-anchor="start" x="1230.73" y="-15.4" font-family="Times-12" font-size="14.00"> &#160;Exports</text>
<g id="clust1" class="cluster">
<title>cluster_AppModule</title>
<polygon fill="none" stroke="black" stroke-dasharray="1,5" points="8,-70 8,-195 2090,-195 2090,-70 8,-70"/>
</g>
<g id="clust3" class="cluster">
<title>cluster_AppModule_imports</title>
<polygon fill="none" stroke="black" points="16,-78 16,-130 2082,-130 2082,-78 16,-78"/>
</g>
<!-- AdminModule -->
<g id="node1" class="node">
<title>AdminModule</title>
<polygon fill="#8dd3c7" stroke="black" points="2074.44,-122 2071.44,-126 2050.44,-126 2047.44,-122 1975.56,-122 1975.56,-86 2074.44,-86 2074.44,-122"/>
<text text-anchor="middle" x="2025" y="-99.8" font-family="Times,serif" font-size="14.00">AdminModule</text>
</g>
<!-- AppModule -->
<g id="node18" class="node">
<title>AppModule</title>
<polygon fill="#8dd3c7" stroke="black" points="1060.66,-187 1057.66,-191 1036.66,-191 1033.66,-187 977.34,-187 977.34,-151 1060.66,-151 1060.66,-187"/>
<text text-anchor="middle" x="1019" y="-164.8" font-family="Times,serif" font-size="14.00">AppModule</text>
</g>
<!-- AdminModule&#45;&gt;AppModule -->
<g id="edge1" class="edge">
<title>AdminModule&#45;&gt;AppModule</title>
<path fill="none" stroke="black" d="M2025,-122.32C2025,-145.66 2025,-183 2025,-183 2025,-183 1070.95,-183 1070.95,-183"/>
<polygon fill="black" stroke="black" points="1070.95,-179.5 1060.95,-183 1070.95,-186.5 1070.95,-179.5"/>
</g>
<!-- AnnouncementModule -->
<g id="node2" class="node">
<title>AnnouncementModule</title>
<polygon fill="#8dd3c7" stroke="black" points="1957.58,-122 1954.58,-126 1933.58,-126 1930.58,-122 1812.42,-122 1812.42,-86 1957.58,-86 1957.58,-122"/>
<text text-anchor="middle" x="1885" y="-99.8" font-family="Times,serif" font-size="14.00">AnnouncementModule</text>
</g>
<!-- AnnouncementModule&#45;&gt;AppModule -->
<g id="edge2" class="edge">
<title>AnnouncementModule&#45;&gt;AppModule</title>
<path fill="none" stroke="black" d="M1885,-122.16C1885,-144.35 1885,-179 1885,-179 1885,-179 1070.77,-179 1070.77,-179"/>
<polygon fill="black" stroke="black" points="1070.77,-175.5 1060.77,-179 1070.77,-182.5 1070.77,-175.5"/>
</g>
<!-- ArchiveModule -->
<g id="node3" class="node">
<title>ArchiveModule</title>
<polygon fill="#8dd3c7" stroke="black" points="1794.14,-122 1791.14,-126 1770.14,-126 1767.14,-122 1689.86,-122 1689.86,-86 1794.14,-86 1794.14,-122"/>
<text text-anchor="middle" x="1742" y="-99.8" font-family="Times,serif" font-size="14.00">ArchiveModule</text>
</g>
<!-- ArchiveModule&#45;&gt;AppModule -->
<g id="edge3" class="edge">
<title>ArchiveModule&#45;&gt;AppModule</title>
<path fill="none" stroke="black" d="M1742,-122.28C1742,-143.32 1742,-175 1742,-175 1742,-175 1070.73,-175 1070.73,-175"/>
<polygon fill="black" stroke="black" points="1070.73,-171.5 1060.73,-175 1070.73,-178.5 1070.73,-171.5"/>
</g>
<!-- ArticleModule -->
<g id="node4" class="node">
<title>ArticleModule</title>
<polygon fill="#8dd3c7" stroke="black" points="1671.42,-122 1668.42,-126 1647.42,-126 1644.42,-122 1572.58,-122 1572.58,-86 1671.42,-86 1671.42,-122"/>
<text text-anchor="middle" x="1622" y="-99.8" font-family="Times,serif" font-size="14.00">ArticleModule</text>
</g>
<!-- ArticleModule&#45;&gt;AppModule -->
<g id="edge4" class="edge">
<title>ArticleModule&#45;&gt;AppModule</title>
<path fill="none" stroke="black" d="M1622,-122.31C1622,-142.15 1622,-171 1622,-171 1622,-171 1070.92,-171 1070.92,-171"/>
<polygon fill="black" stroke="black" points="1070.92,-167.5 1060.92,-171 1070.92,-174.5 1070.92,-167.5"/>
</g>
<!-- AuthModule -->
<g id="node5" class="node">
<title>AuthModule</title>
<polygon fill="#8dd3c7" stroke="black" points="1554.55,-122 1551.55,-126 1530.55,-126 1527.55,-122 1467.45,-122 1467.45,-86 1554.55,-86 1554.55,-122"/>
<text text-anchor="middle" x="1511" y="-99.8" font-family="Times,serif" font-size="14.00">AuthModule</text>
</g>
<!-- AuthModule&#45;&gt;AppModule -->
<g id="edge5" class="edge">
<title>AuthModule&#45;&gt;AppModule</title>
<path fill="none" stroke="black" d="M1511,-122.22C1511,-140.83 1511,-167 1511,-167 1511,-167 1070.95,-167 1070.95,-167"/>
<polygon fill="black" stroke="black" points="1070.95,-163.5 1060.95,-167 1070.95,-170.5 1070.95,-163.5"/>
</g>
<!-- CacheModule -->
<g id="node6" class="node">
<title>CacheModule</title>
<polygon fill="#8dd3c7" stroke="black" points="1449.03,-122 1446.03,-126 1425.03,-126 1422.03,-122 1354.97,-122 1354.97,-86 1449.03,-86 1449.03,-122"/>
<text text-anchor="middle" x="1402" y="-99.8" font-family="Times,serif" font-size="14.00">CacheModule</text>
</g>
<!-- CacheModule&#45;&gt;AppModule -->
<g id="edge6" class="edge">
<title>CacheModule&#45;&gt;AppModule</title>
<path fill="none" stroke="black" d="M1402,-122.02C1402,-139.37 1402,-163 1402,-163 1402,-163 1070.72,-163 1070.72,-163"/>
<polygon fill="black" stroke="black" points="1070.72,-159.5 1060.72,-163 1070.72,-166.5 1070.72,-159.5"/>
</g>
<!-- CategoryModule -->
<g id="node7" class="node">
<title>CategoryModule</title>
<polygon fill="#8dd3c7" stroke="black" points="1336.37,-122 1333.37,-126 1312.37,-126 1309.37,-122 1225.63,-122 1225.63,-86 1336.37,-86 1336.37,-122"/>
<text text-anchor="middle" x="1281" y="-99.8" font-family="Times,serif" font-size="14.00">CategoryModule</text>
</g>
<!-- CategoryModule&#45;&gt;AppModule -->
<g id="edge7" class="edge">
<title>CategoryModule&#45;&gt;AppModule</title>
<path fill="none" stroke="black" d="M1281,-122.01C1281,-138.05 1281,-159 1281,-159 1281,-159 1070.8,-159 1070.8,-159"/>
<polygon fill="black" stroke="black" points="1070.8,-155.5 1060.8,-159 1070.8,-162.5 1070.8,-155.5"/>
</g>
<!-- CommentModule -->
<g id="node8" class="node">
<title>CommentModule</title>
<polygon fill="#8dd3c7" stroke="black" points="1207.27,-122 1204.27,-126 1183.27,-126 1180.27,-122 1092.73,-122 1092.73,-86 1207.27,-86 1207.27,-122"/>
<text text-anchor="middle" x="1150" y="-99.8" font-family="Times,serif" font-size="14.00">CommentModule</text>
</g>
<!-- CommentModule&#45;&gt;AppModule -->
<g id="edge8" class="edge">
<title>CommentModule&#45;&gt;AppModule</title>
<path fill="none" stroke="black" d="M1150,-122.12C1150,-136.78 1150,-155 1150,-155 1150,-155 1070.81,-155 1070.81,-155"/>
<polygon fill="black" stroke="black" points="1070.81,-151.5 1060.81,-155 1070.81,-158.5 1070.81,-151.5"/>
</g>
<!-- DatabaseModule -->
<g id="node9" class="node">
<title>DatabaseModule</title>
<polygon fill="#8dd3c7" stroke="black" points="1074.35,-122 1071.35,-126 1050.35,-126 1047.35,-122 963.65,-122 963.65,-86 1074.35,-86 1074.35,-122"/>
<text text-anchor="middle" x="1019" y="-99.8" font-family="Times,serif" font-size="14.00">DatabaseModule</text>
</g>
<!-- DatabaseModule&#45;&gt;AppModule -->
<g id="edge9" class="edge">
<title>DatabaseModule&#45;&gt;AppModule</title>
<path fill="none" stroke="black" d="M1019,-122.11C1019,-122.11 1019,-140.99 1019,-140.99"/>
<polygon fill="black" stroke="black" points="1015.5,-140.99 1019,-150.99 1022.5,-140.99 1015.5,-140.99"/>
</g>
<!-- DisqusModule -->
<g id="node10" class="node">
<title>DisqusModule</title>
<polygon fill="#8dd3c7" stroke="black" points="945.44,-122 942.44,-126 921.44,-126 918.44,-122 846.56,-122 846.56,-86 945.44,-86 945.44,-122"/>
<text text-anchor="middle" x="896" y="-99.8" font-family="Times,serif" font-size="14.00">DisqusModule</text>
</g>
<!-- DisqusModule&#45;&gt;AppModule -->
<g id="edge10" class="edge">
<title>DisqusModule&#45;&gt;AppModule</title>
<path fill="none" stroke="black" d="M896,-122.12C896,-136.78 896,-155 896,-155 896,-155 967.01,-155 967.01,-155"/>
<polygon fill="black" stroke="black" points="967.01,-158.5 977.01,-155 967.01,-151.5 967.01,-158.5"/>
</g>
<!-- FeedbackModule -->
<g id="node11" class="node">
<title>FeedbackModule</title>
<polygon fill="#8dd3c7" stroke="black" points="828.69,-122 825.69,-126 804.69,-126 801.69,-122 715.31,-122 715.31,-86 828.69,-86 828.69,-122"/>
<text text-anchor="middle" x="772" y="-99.8" font-family="Times,serif" font-size="14.00">FeedbackModule</text>
</g>
<!-- FeedbackModule&#45;&gt;AppModule -->
<g id="edge11" class="edge">
<title>FeedbackModule&#45;&gt;AppModule</title>
<path fill="none" stroke="black" d="M772,-122.01C772,-138.05 772,-159 772,-159 772,-159 967.1,-159 967.1,-159"/>
<polygon fill="black" stroke="black" points="967.1,-162.5 977.1,-159 967.1,-155.5 967.1,-162.5"/>
</g>
<!-- HelperModule -->
<g id="node12" class="node">
<title>HelperModule</title>
<polygon fill="#8dd3c7" stroke="black" points="697.64,-122 694.64,-126 673.64,-126 670.64,-122 600.36,-122 600.36,-86 697.64,-86 697.64,-122"/>
<text text-anchor="middle" x="649" y="-99.8" font-family="Times,serif" font-size="14.00">HelperModule</text>
</g>
<!-- HelperModule&#45;&gt;AppModule -->
<g id="edge12" class="edge">
<title>HelperModule&#45;&gt;AppModule</title>
<path fill="none" stroke="black" d="M649,-122.02C649,-139.37 649,-163 649,-163 649,-163 967.28,-163 967.28,-163"/>
<polygon fill="black" stroke="black" points="967.28,-166.5 977.28,-163 967.28,-159.5 967.28,-166.5"/>
</g>
<!-- OptionsModule -->
<g id="node13" class="node">
<title>OptionsModule</title>
<polygon fill="#8dd3c7" stroke="black" points="581.88,-122 578.88,-126 557.88,-126 554.88,-122 478.12,-122 478.12,-86 581.88,-86 581.88,-122"/>
<text text-anchor="middle" x="530" y="-99.8" font-family="Times,serif" font-size="14.00">OptionsModule</text>
</g>
<!-- OptionsModule&#45;&gt;AppModule -->
<g id="edge13" class="edge">
<title>OptionsModule&#45;&gt;AppModule</title>
<path fill="none" stroke="black" d="M530,-122.22C530,-140.83 530,-167 530,-167 530,-167 967.31,-167 967.31,-167"/>
<polygon fill="black" stroke="black" points="967.31,-170.5 977.31,-167 967.31,-163.5 967.31,-170.5"/>
</g>
<!-- SystemModule -->
<g id="node14" class="node">
<title>SystemModule</title>
<polygon fill="#8dd3c7" stroke="black" points="460.27,-122 457.27,-126 436.27,-126 433.27,-122 359.73,-122 359.73,-86 460.27,-86 460.27,-122"/>
<text text-anchor="middle" x="410" y="-99.8" font-family="Times,serif" font-size="14.00">SystemModule</text>
</g>
<!-- SystemModule&#45;&gt;AppModule -->
<g id="edge14" class="edge">
<title>SystemModule&#45;&gt;AppModule</title>
<path fill="none" stroke="black" d="M410,-122.31C410,-142.15 410,-171 410,-171 410,-171 967.14,-171 967.14,-171"/>
<polygon fill="black" stroke="black" points="967.14,-174.5 977.14,-171 967.14,-167.5 967.14,-174.5"/>
</g>
<!-- TagModule -->
<g id="node15" class="node">
<title>TagModule</title>
<polygon fill="#8dd3c7" stroke="black" points="341.82,-122 338.82,-126 317.82,-126 314.82,-122 260.18,-122 260.18,-86 341.82,-86 341.82,-122"/>
<text text-anchor="middle" x="301" y="-99.8" font-family="Times,serif" font-size="14.00">TagModule</text>
</g>
<!-- TagModule&#45;&gt;AppModule -->
<g id="edge15" class="edge">
<title>TagModule&#45;&gt;AppModule</title>
<path fill="none" stroke="black" d="M301,-122.28C301,-143.32 301,-175 301,-175 301,-175 967.29,-175 967.29,-175"/>
<polygon fill="black" stroke="black" points="967.29,-178.5 977.29,-175 967.29,-171.5 967.29,-178.5"/>
</g>
<!-- VoteModule -->
<g id="node16" class="node">
<title>VoteModule</title>
<polygon fill="#8dd3c7" stroke="black" points="242.26,-122 239.26,-126 218.26,-126 215.26,-122 155.74,-122 155.74,-86 242.26,-86 242.26,-122"/>
<text text-anchor="middle" x="199" y="-99.8" font-family="Times,serif" font-size="14.00">VoteModule</text>
</g>
<!-- VoteModule&#45;&gt;AppModule -->
<g id="edge16" class="edge">
<title>VoteModule&#45;&gt;AppModule</title>
<path fill="none" stroke="black" d="M199,-122.16C199,-144.35 199,-179 199,-179 199,-179 967.21,-179 967.21,-179"/>
<polygon fill="black" stroke="black" points="967.21,-182.5 977.21,-179 967.21,-175.5 967.21,-182.5"/>
</g>
<!-- WebhookModule -->
<g id="node17" class="node">
<title>WebhookModule</title>
<polygon fill="#8dd3c7" stroke="black" points="137.98,-122 134.98,-126 113.98,-126 110.98,-122 24.02,-122 24.02,-86 137.98,-86 137.98,-122"/>
<text text-anchor="middle" x="81" y="-99.8" font-family="Times,serif" font-size="14.00">WebhookModule</text>
</g>
<!-- WebhookModule&#45;&gt;AppModule -->
<g id="edge17" class="edge">
<title>WebhookModule&#45;&gt;AppModule</title>
<path fill="none" stroke="black" d="M81,-122.32C81,-145.66 81,-183 81,-183 81,-183 967.18,-183 967.18,-183"/>
<polygon fill="black" stroke="black" points="967.18,-186.5 977.18,-183 967.18,-179.5 967.18,-186.5"/>
</g>
</g>
</svg>
