<?xml version="1.0" encoding="UTF-8" standalone="no"?>
<!DOCTYPE svg PUBLIC "-//W3C//DTD SVG 1.1//EN"
 "http://www.w3.org/Graphics/SVG/1.1/DTD/svg11.dtd">
<!-- Generated by graphviz version 2.47.0 (20210316.0004)
 -->
<!-- Title: dependencies Pages: 1 -->
<svg width="2186pt" height="211pt"
 viewBox="0.00 0.00 2186.00 211.00" xmlns="http://www.w3.org/2000/svg" xmlns:xlink="http://www.w3.org/1999/xlink">
<g id="graph0" class="graph" transform="scale(1 1) rotate(0) translate(4 207)">
<title>dependencies</title>
<polygon fill="white" stroke="transparent" points="-4,4 -4,-207 2182,-207 2182,4 -4,4"/>
<text text-anchor="start" x="1068.01" y="-42.4" font-family="Times-12" font-weight="bold" font-size="14.00">Legend</text>
<polygon fill="#ffffb3" stroke="transparent" points="855,-10 855,-30 875,-30 875,-10 855,-10"/>
<text text-anchor="start" x="878.63" y="-15.4" font-family="Times-12" font-size="14.00"> &#160;Declarations</text>
<polygon fill="#8dd3c7" stroke="transparent" points="968,-10 968,-30 988,-30 988,-10 968,-10"/>
<text text-anchor="start" x="991.73" y="-15.4" font-family="Times-12" font-size="14.00"> &#160;Module</text>
<polygon fill="#80b1d3" stroke="transparent" points="1054,-10 1054,-30 1074,-30 1074,-10 1054,-10"/>
<text text-anchor="start" x="1077.78" y="-15.4" font-family="Times-12" font-size="14.00"> &#160;Bootstrap</text>
<polygon fill="#fdb462" stroke="transparent" points="1151,-10 1151,-30 1171,-30 1171,-10 1151,-10"/>
<text text-anchor="start" x="1174.67" y="-15.4" font-family="Times-12" font-size="14.00"> &#160;Providers</text>
<polygon fill="#fb8072" stroke="transparent" points="1247,-10 1247,-30 1267,-30 1267,-10 1247,-10"/>
<text text-anchor="start" x="1270.73" y="-15.4" font-family="Times-12" font-size="14.00"> &#160;Exports</text>
<g id="clust1" class="cluster">
<title>cluster_AppModule</title>
<polygon fill="none" stroke="black" stroke-dasharray="1,5" points="8,-70 8,-195 2170,-195 2170,-70 8,-70"/>
</g>
<g id="clust3" class="cluster">
<title>cluster_AppModule_imports</title>
<polygon fill="none" stroke="black" points="16,-78 16,-130 2162,-130 2162,-78 16,-78"/>
</g>
<!-- AccountModule -->
<g id="node1" class="node">
<title>AccountModule</title>
<polygon fill="#8dd3c7" stroke="black" points="2154.48,-122 2151.48,-126 2130.48,-126 2127.48,-122 2047.52,-122 2047.52,-86 2154.48,-86 2154.48,-122"/>
<text text-anchor="middle" x="2101" y="-99.8" font-family="Times,serif" font-size="14.00">AccountModule</text>
</g>
<!-- AppModule -->
<g id="node19" class="node">
<title>AppModule</title>
<polygon fill="#8dd3c7" stroke="black" points="1112.66,-187 1109.66,-191 1088.66,-191 1085.66,-187 1029.34,-187 1029.34,-151 1112.66,-151 1112.66,-187"/>
<text text-anchor="middle" x="1071" y="-164.8" font-family="Times,serif" font-size="14.00">AppModule</text>
</g>
<!-- AccountModule&#45;&gt;AppModule -->
<g id="edge1" class="edge">
<title>AccountModule&#45;&gt;AppModule</title>
<path fill="none" stroke="black" d="M2101,-122.32C2101,-145.66 2101,-183 2101,-183 2101,-183 1122.97,-183 1122.97,-183"/>
<polygon fill="black" stroke="black" points="1122.97,-179.5 1112.97,-183 1122.97,-186.5 1122.97,-179.5"/>
</g>
<!-- AdminModule -->
<g id="node2" class="node">
<title>AdminModule</title>
<polygon fill="#8dd3c7" stroke="black" points="2029.44,-122 2026.44,-126 2005.44,-126 2002.44,-122 1930.56,-122 1930.56,-86 2029.44,-86 2029.44,-122"/>
<text text-anchor="middle" x="1980" y="-99.8" font-family="Times,serif" font-size="14.00">AdminModule</text>
</g>
<!-- AdminModule&#45;&gt;AppModule -->
<g id="edge2" class="edge">
<title>AdminModule&#45;&gt;AppModule</title>
<path fill="none" stroke="black" d="M1980,-122.16C1980,-144.35 1980,-179 1980,-179 1980,-179 1122.72,-179 1122.72,-179"/>
<polygon fill="black" stroke="black" points="1122.72,-175.5 1112.72,-179 1122.72,-182.5 1122.72,-175.5"/>
</g>
<!-- AiModule -->
<g id="node3" class="node">
<title>AiModule</title>
<polygon fill="#8dd3c7" stroke="black" points="1912.55,-122 1909.55,-126 1888.55,-126 1885.55,-122 1839.45,-122 1839.45,-86 1912.55,-86 1912.55,-122"/>
<text text-anchor="middle" x="1876" y="-99.8" font-family="Times,serif" font-size="14.00">AiModule</text>
</g>
<!-- AiModule&#45;&gt;AppModule -->
<g id="edge3" class="edge">
<title>AiModule&#45;&gt;AppModule</title>
<path fill="none" stroke="black" d="M1876,-122.28C1876,-143.32 1876,-175 1876,-175 1876,-175 1122.87,-175 1122.87,-175"/>
<polygon fill="black" stroke="black" points="1122.87,-171.5 1112.87,-175 1122.87,-178.5 1122.87,-171.5"/>
</g>
<!-- AnnouncementModule -->
<g id="node4" class="node">
<title>AnnouncementModule</title>
<polygon fill="#8dd3c7" stroke="black" points="1821.58,-122 1818.58,-126 1797.58,-126 1794.58,-122 1676.42,-122 1676.42,-86 1821.58,-86 1821.58,-122"/>
<text text-anchor="middle" x="1749" y="-99.8" font-family="Times,serif" font-size="14.00">AnnouncementModule</text>
</g>
<!-- AnnouncementModule&#45;&gt;AppModule -->
<g id="edge4" class="edge">
<title>AnnouncementModule&#45;&gt;AppModule</title>
<path fill="none" stroke="black" d="M1749,-122.31C1749,-142.15 1749,-171 1749,-171 1749,-171 1122.9,-171 1122.9,-171"/>
<polygon fill="black" stroke="black" points="1122.9,-167.5 1112.9,-171 1122.9,-174.5 1122.9,-167.5"/>
</g>
<!-- ArticleModule -->
<g id="node5" class="node">
<title>ArticleModule</title>
<polygon fill="#8dd3c7" stroke="black" points="1658.42,-122 1655.42,-126 1634.42,-126 1631.42,-122 1559.58,-122 1559.58,-86 1658.42,-86 1658.42,-122"/>
<text text-anchor="middle" x="1609" y="-99.8" font-family="Times,serif" font-size="14.00">ArticleModule</text>
</g>
<!-- ArticleModule&#45;&gt;AppModule -->
<g id="edge5" class="edge">
<title>ArticleModule&#45;&gt;AppModule</title>
<path fill="none" stroke="black" d="M1609,-122.22C1609,-140.83 1609,-167 1609,-167 1609,-167 1122.77,-167 1122.77,-167"/>
<polygon fill="black" stroke="black" points="1122.77,-163.5 1112.77,-167 1122.77,-170.5 1122.77,-163.5"/>
</g>
<!-- AuthModule -->
<g id="node6" class="node">
<title>AuthModule</title>
<polygon fill="#8dd3c7" stroke="black" points="1541.55,-122 1538.55,-126 1517.55,-126 1514.55,-122 1454.45,-122 1454.45,-86 1541.55,-86 1541.55,-122"/>
<text text-anchor="middle" x="1498" y="-99.8" font-family="Times,serif" font-size="14.00">AuthModule</text>
</g>
<!-- AuthModule&#45;&gt;AppModule -->
<g id="edge6" class="edge">
<title>AuthModule&#45;&gt;AppModule</title>
<path fill="none" stroke="black" d="M1498,-122.02C1498,-139.37 1498,-163 1498,-163 1498,-163 1122.72,-163 1122.72,-163"/>
<polygon fill="black" stroke="black" points="1122.72,-159.5 1112.72,-163 1122.72,-166.5 1122.72,-159.5"/>
</g>
<!-- CacheModule -->
<g id="node7" class="node">
<title>CacheModule</title>
<polygon fill="#8dd3c7" stroke="black" points="1436.03,-122 1433.03,-126 1412.03,-126 1409.03,-122 1341.97,-122 1341.97,-86 1436.03,-86 1436.03,-122"/>
<text text-anchor="middle" x="1389" y="-99.8" font-family="Times,serif" font-size="14.00">CacheModule</text>
</g>
<!-- CacheModule&#45;&gt;AppModule -->
<g id="edge7" class="edge">
<title>CacheModule&#45;&gt;AppModule</title>
<path fill="none" stroke="black" d="M1389,-122.01C1389,-138.05 1389,-159 1389,-159 1389,-159 1122.9,-159 1122.9,-159"/>
<polygon fill="black" stroke="black" points="1122.9,-155.5 1112.9,-159 1122.9,-162.5 1122.9,-155.5"/>
</g>
<!-- CategoryModule -->
<g id="node8" class="node">
<title>CategoryModule</title>
<polygon fill="#8dd3c7" stroke="black" points="1323.37,-122 1320.37,-126 1299.37,-126 1296.37,-122 1212.63,-122 1212.63,-86 1323.37,-86 1323.37,-122"/>
<text text-anchor="middle" x="1268" y="-99.8" font-family="Times,serif" font-size="14.00">CategoryModule</text>
</g>
<!-- CategoryModule&#45;&gt;AppModule -->
<g id="edge8" class="edge">
<title>CategoryModule&#45;&gt;AppModule</title>
<path fill="none" stroke="black" d="M1268,-122.12C1268,-136.78 1268,-155 1268,-155 1268,-155 1122.78,-155 1122.78,-155"/>
<polygon fill="black" stroke="black" points="1122.78,-151.5 1112.78,-155 1122.78,-158.5 1122.78,-151.5"/>
</g>
<!-- CommentModule -->
<g id="node9" class="node">
<title>CommentModule</title>
<polygon fill="#8dd3c7" stroke="black" points="1194.27,-122 1191.27,-126 1170.27,-126 1167.27,-122 1079.73,-122 1079.73,-86 1194.27,-86 1194.27,-122"/>
<text text-anchor="middle" x="1137" y="-99.8" font-family="Times,serif" font-size="14.00">CommentModule</text>
</g>
<!-- CommentModule&#45;&gt;AppModule -->
<g id="edge9" class="edge">
<title>CommentModule&#45;&gt;AppModule</title>
<path fill="none" stroke="black" d="M1096.22,-122.11C1096.22,-122.11 1096.22,-140.99 1096.22,-140.99"/>
<polygon fill="black" stroke="black" points="1092.72,-140.99 1096.22,-150.99 1099.72,-140.99 1092.72,-140.99"/>
</g>
<!-- DatabaseModule -->
<g id="node10" class="node">
<title>DatabaseModule</title>
<polygon fill="#8dd3c7" stroke="black" points="1061.35,-122 1058.35,-126 1037.35,-126 1034.35,-122 950.65,-122 950.65,-86 1061.35,-86 1061.35,-122"/>
<text text-anchor="middle" x="1006" y="-99.8" font-family="Times,serif" font-size="14.00">DatabaseModule</text>
</g>
<!-- DatabaseModule&#45;&gt;AppModule -->
<g id="edge10" class="edge">
<title>DatabaseModule&#45;&gt;AppModule</title>
<path fill="none" stroke="black" d="M1045.3,-122.11C1045.3,-122.11 1045.3,-140.99 1045.3,-140.99"/>
<polygon fill="black" stroke="black" points="1041.8,-140.99 1045.3,-150.99 1048.8,-140.99 1041.8,-140.99"/>
</g>
<!-- FeedbackModule -->
<g id="node11" class="node">
<title>FeedbackModule</title>
<polygon fill="#8dd3c7" stroke="black" points="932.69,-122 929.69,-126 908.69,-126 905.69,-122 819.31,-122 819.31,-86 932.69,-86 932.69,-122"/>
<text text-anchor="middle" x="876" y="-99.8" font-family="Times,serif" font-size="14.00">FeedbackModule</text>
</g>
<!-- FeedbackModule&#45;&gt;AppModule -->
<g id="edge11" class="edge">
<title>FeedbackModule&#45;&gt;AppModule</title>
<path fill="none" stroke="black" d="M876,-122.12C876,-136.78 876,-155 876,-155 876,-155 1019.17,-155 1019.17,-155"/>
<polygon fill="black" stroke="black" points="1019.17,-158.5 1029.17,-155 1019.17,-151.5 1019.17,-158.5"/>
</g>
<!-- HelperModule -->
<g id="node12" class="node">
<title>HelperModule</title>
<polygon fill="#8dd3c7" stroke="black" points="801.64,-122 798.64,-126 777.64,-126 774.64,-122 704.36,-122 704.36,-86 801.64,-86 801.64,-122"/>
<text text-anchor="middle" x="753" y="-99.8" font-family="Times,serif" font-size="14.00">HelperModule</text>
</g>
<!-- HelperModule&#45;&gt;AppModule -->
<g id="edge12" class="edge">
<title>HelperModule&#45;&gt;AppModule</title>
<path fill="none" stroke="black" d="M753,-122.01C753,-138.05 753,-159 753,-159 753,-159 1019.1,-159 1019.1,-159"/>
<polygon fill="black" stroke="black" points="1019.1,-162.5 1029.1,-159 1019.1,-155.5 1019.1,-162.5"/>
</g>
<!-- OptionsModule -->
<g id="node13" class="node">
<title>OptionsModule</title>
<polygon fill="#8dd3c7" stroke="black" points="685.88,-122 682.88,-126 661.88,-126 658.88,-122 582.12,-122 582.12,-86 685.88,-86 685.88,-122"/>
<text text-anchor="middle" x="634" y="-99.8" font-family="Times,serif" font-size="14.00">OptionsModule</text>
</g>
<!-- OptionsModule&#45;&gt;AppModule -->
<g id="edge13" class="edge">
<title>OptionsModule&#45;&gt;AppModule</title>
<path fill="none" stroke="black" d="M634,-122.02C634,-139.37 634,-163 634,-163 634,-163 1019.1,-163 1019.1,-163"/>
<polygon fill="black" stroke="black" points="1019.1,-166.5 1029.1,-163 1019.1,-159.5 1019.1,-166.5"/>
</g>
<!-- SystemModule -->
<g id="node14" class="node">
<title>SystemModule</title>
<polygon fill="#8dd3c7" stroke="black" points="564.27,-122 561.27,-126 540.27,-126 537.27,-122 463.73,-122 463.73,-86 564.27,-86 564.27,-122"/>
<text text-anchor="middle" x="514" y="-99.8" font-family="Times,serif" font-size="14.00">SystemModule</text>
</g>
<!-- SystemModule&#45;&gt;AppModule -->
<g id="edge14" class="edge">
<title>SystemModule&#45;&gt;AppModule</title>
<path fill="none" stroke="black" d="M514,-122.22C514,-140.83 514,-167 514,-167 514,-167 1019.13,-167 1019.13,-167"/>
<polygon fill="black" stroke="black" points="1019.13,-170.5 1029.13,-167 1019.13,-163.5 1019.13,-170.5"/>
</g>
<!-- TagModule -->
<g id="node15" class="node">
<title>TagModule</title>
<polygon fill="#8dd3c7" stroke="black" points="445.82,-122 442.82,-126 421.82,-126 418.82,-122 364.18,-122 364.18,-86 445.82,-86 445.82,-122"/>
<text text-anchor="middle" x="405" y="-99.8" font-family="Times,serif" font-size="14.00">TagModule</text>
</g>
<!-- TagModule&#45;&gt;AppModule -->
<g id="edge15" class="edge">
<title>TagModule&#45;&gt;AppModule</title>
<path fill="none" stroke="black" d="M405,-122.31C405,-142.15 405,-171 405,-171 405,-171 1019.34,-171 1019.34,-171"/>
<polygon fill="black" stroke="black" points="1019.34,-174.5 1029.34,-171 1019.34,-167.5 1019.34,-174.5"/>
</g>
<!-- UserModule -->
<g id="node16" class="node">
<title>UserModule</title>
<polygon fill="#8dd3c7" stroke="black" points="345.98,-122 342.98,-126 321.98,-126 318.98,-122 260.02,-122 260.02,-86 345.98,-86 345.98,-122"/>
<text text-anchor="middle" x="303" y="-99.8" font-family="Times,serif" font-size="14.00">UserModule</text>
</g>
<!-- UserModule&#45;&gt;AppModule -->
<g id="edge16" class="edge">
<title>UserModule&#45;&gt;AppModule</title>
<path fill="none" stroke="black" d="M303,-122.28C303,-143.32 303,-175 303,-175 303,-175 1019.16,-175 1019.16,-175"/>
<polygon fill="black" stroke="black" points="1019.16,-178.5 1029.16,-175 1019.16,-171.5 1019.16,-178.5"/>
</g>
<!-- VoteModule -->
<g id="node17" class="node">
<title>VoteModule</title>
<polygon fill="#8dd3c7" stroke="black" points="242.26,-122 239.26,-126 218.26,-126 215.26,-122 155.74,-122 155.74,-86 242.26,-86 242.26,-122"/>
<text text-anchor="middle" x="199" y="-99.8" font-family="Times,serif" font-size="14.00">VoteModule</text>
</g>
<!-- VoteModule&#45;&gt;AppModule -->
<g id="edge17" class="edge">
<title>VoteModule&#45;&gt;AppModule</title>
<path fill="none" stroke="black" d="M199,-122.16C199,-144.35 199,-179 199,-179 199,-179 1019.24,-179 1019.24,-179"/>
<polygon fill="black" stroke="black" points="1019.24,-182.5 1029.24,-179 1019.24,-175.5 1019.24,-182.5"/>
</g>
<!-- WebhookModule -->
<g id="node18" class="node">
<title>WebhookModule</title>
<polygon fill="#8dd3c7" stroke="black" points="137.98,-122 134.98,-126 113.98,-126 110.98,-122 24.02,-122 24.02,-86 137.98,-86 137.98,-122"/>
<text text-anchor="middle" x="81" y="-99.8" font-family="Times,serif" font-size="14.00">WebhookModule</text>
</g>
<!-- WebhookModule&#45;&gt;AppModule -->
<g id="edge18" class="edge">
<title>WebhookModule&#45;&gt;AppModule</title>
<path fill="none" stroke="black" d="M81,-122.32C81,-145.66 81,-183 81,-183 81,-183 1019.09,-183 1019.09,-183"/>
<polygon fill="black" stroke="black" points="1019.09,-186.5 1029.09,-183 1019.09,-179.5 1019.09,-186.5"/>
</g>
</g>
</svg>
