<?xml version="1.0" encoding="UTF-8" standalone="no"?>
<!DOCTYPE svg PUBLIC "-//W3C//DTD SVG 1.1//EN"
 "http://www.w3.org/Graphics/SVG/1.1/DTD/svg11.dtd">
<!-- Generated by graphviz version 2.47.3 (20210619.1520)
 -->
<!-- Title: dependencies Pages: 1 -->
<svg width="547pt" height="247pt"
 viewBox="0.00 0.00 547.00 246.80" xmlns="http://www.w3.org/2000/svg" xmlns:xlink="http://www.w3.org/1999/xlink">
<g id="graph0" class="graph" transform="scale(1 1) rotate(0) translate(4 242.8)">
<title>dependencies</title>
<polygon fill="white" stroke="transparent" points="-4,4 -4,-242.8 543,-242.8 543,4 -4,4"/>
<text text-anchor="middle" x="269.5" y="-8.2" font-family="sans-serif" font-size="14.00">dependencies</text>
<g id="clust1" class="cluster">
<title>cluster_ArticleModule</title>
<polygon fill="none" stroke="black" stroke-dasharray="1,5" points="8,-32.8 8,-230.8 531,-230.8 531,-32.8 8,-32.8"/>
</g>
<g id="clust6" class="cluster">
<title>cluster_ArticleModule_providers</title>
<polygon fill="none" stroke="black" points="373,-40.8 373,-92.8 523,-92.8 523,-40.8 373,-40.8"/>
</g>
<g id="clust3" class="cluster">
<title>cluster_ArticleModule_imports</title>
<polygon fill="none" stroke="black" points="16,-40.8 16,-92.8 365,-92.8 365,-40.8 16,-40.8"/>
</g>
<g id="clust4" class="cluster">
<title>cluster_ArticleModule_exports</title>
<polygon fill="none" stroke="black" points="184,-170.8 184,-222.8 300,-222.8 300,-170.8 184,-170.8"/>
</g>
<!-- ArchiveModule -->
<g id="node1" class="node">
<title>ArchiveModule</title>
<polygon fill="#8dd3c7" stroke="black" points="357.14,-84.8 354.14,-88.8 333.14,-88.8 330.14,-84.8 252.86,-84.8 252.86,-48.8 357.14,-48.8 357.14,-84.8"/>
<text text-anchor="middle" x="305" y="-62.6" font-family="Times,serif" font-size="14.00">ArchiveModule</text>
</g>
<!-- ArticleModule -->
<g id="node4" class="node">
<title>ArticleModule</title>
<polygon fill="#8dd3c7" stroke="black" points="291.42,-149.8 288.42,-153.8 267.42,-153.8 264.42,-149.8 192.58,-149.8 192.58,-113.8 291.42,-113.8 291.42,-149.8"/>
<text text-anchor="middle" x="242" y="-127.6" font-family="Times,serif" font-size="14.00">ArticleModule</text>
</g>
<!-- ArchiveModule&#45;&gt;ArticleModule -->
<g id="edge1" class="edge">
<title>ArchiveModule&#45;&gt;ArticleModule</title>
<path fill="none" stroke="black" d="M271.95,-84.91C271.95,-84.91 271.95,-103.79 271.95,-103.79"/>
<polygon fill="black" stroke="black" points="268.45,-103.79 271.95,-113.79 275.45,-103.79 268.45,-103.79"/>
</g>
<!-- CategoryModule -->
<g id="node2" class="node">
<title>CategoryModule</title>
<polygon fill="#8dd3c7" stroke="black" points="234.37,-84.8 231.37,-88.8 210.37,-88.8 207.37,-84.8 123.63,-84.8 123.63,-48.8 234.37,-48.8 234.37,-84.8"/>
<text text-anchor="middle" x="179" y="-62.6" font-family="Times,serif" font-size="14.00">CategoryModule</text>
</g>
<!-- CategoryModule&#45;&gt;ArticleModule -->
<g id="edge2" class="edge">
<title>CategoryModule&#45;&gt;ArticleModule</title>
<path fill="none" stroke="black" d="M213.61,-84.91C213.61,-84.91 213.61,-103.79 213.61,-103.79"/>
<polygon fill="black" stroke="black" points="210.11,-103.79 213.61,-113.79 217.11,-103.79 210.11,-103.79"/>
</g>
<!-- TagModule -->
<g id="node3" class="node">
<title>TagModule</title>
<polygon fill="#8dd3c7" stroke="black" points="105.82,-84.8 102.82,-88.8 81.82,-88.8 78.82,-84.8 24.18,-84.8 24.18,-48.8 105.82,-48.8 105.82,-84.8"/>
<text text-anchor="middle" x="65" y="-62.6" font-family="Times,serif" font-size="14.00">TagModule</text>
</g>
<!-- TagModule&#45;&gt;ArticleModule -->
<g id="edge3" class="edge">
<title>TagModule&#45;&gt;ArticleModule</title>
<path fill="none" stroke="black" d="M65,-84.91C65,-104.14 65,-131.8 65,-131.8 65,-131.8 182.7,-131.8 182.7,-131.8"/>
<polygon fill="black" stroke="black" points="182.7,-135.3 192.7,-131.8 182.7,-128.3 182.7,-135.3"/>
</g>
<!-- ArticleService  -->
<g id="node5" class="node">
<title>ArticleService </title>
<polygon fill="#fb8072" stroke="black" points="292.35,-214.8 191.65,-214.8 191.65,-178.8 292.35,-178.8 292.35,-214.8"/>
<text text-anchor="middle" x="242" y="-192.6" font-family="Times,serif" font-size="14.00">ArticleService </text>
</g>
<!-- ArticleModule&#45;&gt;ArticleService  -->
<g id="edge4" class="edge">
<title>ArticleModule&#45;&gt;ArticleService </title>
<path fill="none" stroke="black" stroke-dasharray="5,2" d="M242,-149.91C242,-149.91 242,-168.79 242,-168.79"/>
<polygon fill="black" stroke="black" points="238.5,-168.79 242,-178.79 245.5,-168.79 238.5,-168.79"/>
</g>
<!-- ArticleService -->
<g id="node6" class="node">
<title>ArticleService</title>
<ellipse fill="#fdb462" stroke="black" cx="448" cy="-66.8" rx="66.61" ry="18"/>
<text text-anchor="middle" x="448" y="-62.6" font-family="Times,serif" font-size="14.00">ArticleService</text>
</g>
<!-- ArticleService&#45;&gt;ArticleModule -->
<g id="edge5" class="edge">
<title>ArticleService&#45;&gt;ArticleModule</title>
<path fill="none" stroke="black" d="M448,-84.91C448,-104.14 448,-131.8 448,-131.8 448,-131.8 301.34,-131.8 301.34,-131.8"/>
<polygon fill="black" stroke="black" points="301.34,-128.3 291.34,-131.8 301.34,-135.3 301.34,-128.3"/>
</g>
</g>
</svg>
