<?xml version="1.0" encoding="UTF-8" standalone="no"?>
<!DOCTYPE svg PUBLIC "-//W3C//DTD SVG 1.1//EN"
 "http://www.w3.org/Graphics/SVG/1.1/DTD/svg11.dtd">
<!-- Generated by graphviz version 2.47.3 (20210619.1520)
 -->
<!-- Title: dependencies Pages: 1 -->
<svg width="547pt" height="247pt"
 viewBox="0.00 0.00 547.00 246.80" xmlns="http://www.w3.org/2000/svg" xmlns:xlink="http://www.w3.org/1999/xlink">
<g id="graph0" class="graph" transform="scale(1 1) rotate(0) translate(4 242.8)">
<title>dependencies</title>
<polygon fill="white" stroke="transparent" points="-4,4 -4,-242.8 543,-242.8 543,4 -4,4"/>
<text text-anchor="middle" x="269.5" y="-8.2" font-family="sans-serif" font-size="14.00">dependencies</text>
<g id="clust1" class="cluster">
<title>cluster_ArticleModule</title>
<polygon fill="none" stroke="black" stroke-dasharray="1,5" points="8,-32.8 8,-230.8 531,-230.8 531,-32.8 8,-32.8"/>
</g>
<g id="clust3" class="cluster">
<title>cluster_ArticleModule_imports</title>
<polygon fill="none" stroke="black" points="174,-40.8 174,-92.8 523,-92.8 523,-40.8 174,-40.8"/>
</g>
<g id="clust6" class="cluster">
<title>cluster_ArticleModule_providers</title>
<polygon fill="none" stroke="black" points="16,-40.8 16,-92.8 166,-92.8 166,-40.8 16,-40.8"/>
</g>
<g id="clust4" class="cluster">
<title>cluster_ArticleModule_exports</title>
<polygon fill="none" stroke="black" points="222,-170.8 222,-222.8 338,-222.8 338,-170.8 222,-170.8"/>
</g>
<!-- ArchiveModule -->
<g id="node1" class="node">
<title>ArchiveModule</title>
<polygon fill="#8dd3c7" stroke="black" points="515.14,-84.8 512.14,-88.8 491.14,-88.8 488.14,-84.8 410.86,-84.8 410.86,-48.8 515.14,-48.8 515.14,-84.8"/>
<text text-anchor="middle" x="463" y="-62.6" font-family="Times,serif" font-size="14.00">ArchiveModule</text>
</g>
<!-- ArticleModule -->
<g id="node4" class="node">
<title>ArticleModule</title>
<polygon fill="#8dd3c7" stroke="black" points="329.42,-149.8 326.42,-153.8 305.42,-153.8 302.42,-149.8 230.58,-149.8 230.58,-113.8 329.42,-113.8 329.42,-149.8"/>
<text text-anchor="middle" x="280" y="-127.6" font-family="Times,serif" font-size="14.00">ArticleModule</text>
</g>
<!-- ArchiveModule&#45;&gt;ArticleModule -->
<g id="edge1" class="edge">
<title>ArchiveModule&#45;&gt;ArticleModule</title>
<path fill="none" stroke="black" d="M463,-84.91C463,-104.14 463,-131.8 463,-131.8 463,-131.8 339.52,-131.8 339.52,-131.8"/>
<polygon fill="black" stroke="black" points="339.52,-128.3 329.52,-131.8 339.52,-135.3 339.52,-128.3"/>
</g>
<!-- CategoryModule -->
<g id="node2" class="node">
<title>CategoryModule</title>
<polygon fill="#8dd3c7" stroke="black" points="392.37,-84.8 389.37,-88.8 368.37,-88.8 365.37,-84.8 281.63,-84.8 281.63,-48.8 392.37,-48.8 392.37,-84.8"/>
<text text-anchor="middle" x="337" y="-62.6" font-family="Times,serif" font-size="14.00">CategoryModule</text>
</g>
<!-- CategoryModule&#45;&gt;ArticleModule -->
<g id="edge2" class="edge">
<title>CategoryModule&#45;&gt;ArticleModule</title>
<path fill="none" stroke="black" d="M305.39,-84.91C305.39,-84.91 305.39,-103.79 305.39,-103.79"/>
<polygon fill="black" stroke="black" points="301.89,-103.79 305.39,-113.79 308.89,-103.79 301.89,-103.79"/>
</g>
<!-- TagModule -->
<g id="node3" class="node">
<title>TagModule</title>
<polygon fill="#8dd3c7" stroke="black" points="263.82,-84.8 260.82,-88.8 239.82,-88.8 236.82,-84.8 182.18,-84.8 182.18,-48.8 263.82,-48.8 263.82,-84.8"/>
<text text-anchor="middle" x="223" y="-62.6" font-family="Times,serif" font-size="14.00">TagModule</text>
</g>
<!-- TagModule&#45;&gt;ArticleModule -->
<g id="edge3" class="edge">
<title>TagModule&#45;&gt;ArticleModule</title>
<path fill="none" stroke="black" d="M247.22,-84.91C247.22,-84.91 247.22,-103.79 247.22,-103.79"/>
<polygon fill="black" stroke="black" points="243.72,-103.79 247.22,-113.79 250.72,-103.79 243.72,-103.79"/>
</g>
<!-- ArticleService  -->
<g id="node5" class="node">
<title>ArticleService </title>
<polygon fill="#fb8072" stroke="black" points="330.35,-214.8 229.65,-214.8 229.65,-178.8 330.35,-178.8 330.35,-214.8"/>
<text text-anchor="middle" x="280" y="-192.6" font-family="Times,serif" font-size="14.00">ArticleService </text>
</g>
<!-- ArticleModule&#45;&gt;ArticleService  -->
<g id="edge4" class="edge">
<title>ArticleModule&#45;&gt;ArticleService </title>
<path fill="none" stroke="black" stroke-dasharray="5,2" d="M280,-149.91C280,-149.91 280,-168.79 280,-168.79"/>
<polygon fill="black" stroke="black" points="276.5,-168.79 280,-178.79 283.5,-168.79 276.5,-168.79"/>
</g>
<!-- ArticleService -->
<g id="node6" class="node">
<title>ArticleService</title>
<ellipse fill="#fdb462" stroke="black" cx="91" cy="-66.8" rx="66.61" ry="18"/>
<text text-anchor="middle" x="91" y="-62.6" font-family="Times,serif" font-size="14.00">ArticleService</text>
</g>
<!-- ArticleService&#45;&gt;ArticleModule -->
<g id="edge5" class="edge">
<title>ArticleService&#45;&gt;ArticleModule</title>
<path fill="none" stroke="black" d="M91,-84.91C91,-104.14 91,-131.8 91,-131.8 91,-131.8 220.34,-131.8 220.34,-131.8"/>
<polygon fill="black" stroke="black" points="220.34,-135.3 230.34,-131.8 220.34,-128.3 220.34,-135.3"/>
</g>
</g>
</svg>
