<?xml version="1.0" encoding="UTF-8" standalone="no"?>
<!DOCTYPE svg PUBLIC "-//W3C//DTD SVG 1.1//EN"
 "http://www.w3.org/Graphics/SVG/1.1/DTD/svg11.dtd">
<!-- Generated by graphviz version 2.47.0 (20210316.0004)
 -->
<!-- Title: dependencies Pages: 1 -->
<svg width="547pt" height="284pt"
 viewBox="0.00 0.00 547.00 284.00" xmlns="http://www.w3.org/2000/svg" xmlns:xlink="http://www.w3.org/1999/xlink">
<g id="graph0" class="graph" transform="scale(1 1) rotate(0) translate(4 280)">
<title>dependencies</title>
<polygon fill="white" stroke="transparent" points="-4,4 -4,-280 543,-280 543,4 -4,4"/>
<text text-anchor="start" x="248.51" y="-42.4" font-family="Times-12" font-weight="bold" font-size="14.00">Legend</text>
<polygon fill="#ffffb3" stroke="transparent" points="35.5,-10 35.5,-30 55.5,-30 55.5,-10 35.5,-10"/>
<text text-anchor="start" x="59.13" y="-15.4" font-family="Times-12" font-size="14.00"> &#160;Declarations</text>
<polygon fill="#8dd3c7" stroke="transparent" points="148.5,-10 148.5,-30 168.5,-30 168.5,-10 148.5,-10"/>
<text text-anchor="start" x="172.23" y="-15.4" font-family="Times-12" font-size="14.00"> &#160;Module</text>
<polygon fill="#80b1d3" stroke="transparent" points="234.5,-10 234.5,-30 254.5,-30 254.5,-10 234.5,-10"/>
<text text-anchor="start" x="258.28" y="-15.4" font-family="Times-12" font-size="14.00"> &#160;Bootstrap</text>
<polygon fill="#fdb462" stroke="transparent" points="331.5,-10 331.5,-30 351.5,-30 351.5,-10 331.5,-10"/>
<text text-anchor="start" x="355.17" y="-15.4" font-family="Times-12" font-size="14.00"> &#160;Providers</text>
<polygon fill="#fb8072" stroke="transparent" points="427.5,-10 427.5,-30 447.5,-30 447.5,-10 427.5,-10"/>
<text text-anchor="start" x="451.23" y="-15.4" font-family="Times-12" font-size="14.00"> &#160;Exports</text>
<g id="clust1" class="cluster">
<title>cluster_ArticleModule</title>
<polygon fill="none" stroke="black" stroke-dasharray="1,5" points="8,-70 8,-268 531,-268 531,-70 8,-70"/>
</g>
<g id="clust4" class="cluster">
<title>cluster_ArticleModule_exports</title>
<polygon fill="none" stroke="black" points="184,-208 184,-260 300,-260 300,-208 184,-208"/>
</g>
<g id="clust6" class="cluster">
<title>cluster_ArticleModule_providers</title>
<polygon fill="none" stroke="black" points="373,-78 373,-130 523,-130 523,-78 373,-78"/>
</g>
<g id="clust3" class="cluster">
<title>cluster_ArticleModule_imports</title>
<polygon fill="none" stroke="black" points="16,-78 16,-130 365,-130 365,-78 16,-78"/>
</g>
<!-- ArchiveModule -->
<g id="node1" class="node">
<title>ArchiveModule</title>
<polygon fill="#8dd3c7" stroke="black" points="357.14,-122 354.14,-126 333.14,-126 330.14,-122 252.86,-122 252.86,-86 357.14,-86 357.14,-122"/>
<text text-anchor="middle" x="305" y="-99.8" font-family="Times,serif" font-size="14.00">ArchiveModule</text>
</g>
<!-- ArticleModule -->
<g id="node4" class="node">
<title>ArticleModule</title>
<polygon fill="#8dd3c7" stroke="black" points="291.42,-187 288.42,-191 267.42,-191 264.42,-187 192.58,-187 192.58,-151 291.42,-151 291.42,-187"/>
<text text-anchor="middle" x="242" y="-164.8" font-family="Times,serif" font-size="14.00">ArticleModule</text>
</g>
<!-- ArchiveModule&#45;&gt;ArticleModule -->
<g id="edge1" class="edge">
<title>ArchiveModule&#45;&gt;ArticleModule</title>
<path fill="none" stroke="black" d="M271.95,-122.11C271.95,-122.11 271.95,-140.99 271.95,-140.99"/>
<polygon fill="black" stroke="black" points="268.45,-140.99 271.95,-150.99 275.45,-140.99 268.45,-140.99"/>
</g>
<!-- CategoryModule -->
<g id="node2" class="node">
<title>CategoryModule</title>
<polygon fill="#8dd3c7" stroke="black" points="234.37,-122 231.37,-126 210.37,-126 207.37,-122 123.63,-122 123.63,-86 234.37,-86 234.37,-122"/>
<text text-anchor="middle" x="179" y="-99.8" font-family="Times,serif" font-size="14.00">CategoryModule</text>
</g>
<!-- CategoryModule&#45;&gt;ArticleModule -->
<g id="edge2" class="edge">
<title>CategoryModule&#45;&gt;ArticleModule</title>
<path fill="none" stroke="black" d="M213.61,-122.11C213.61,-122.11 213.61,-140.99 213.61,-140.99"/>
<polygon fill="black" stroke="black" points="210.11,-140.99 213.61,-150.99 217.11,-140.99 210.11,-140.99"/>
</g>
<!-- TagModule -->
<g id="node3" class="node">
<title>TagModule</title>
<polygon fill="#8dd3c7" stroke="black" points="105.82,-122 102.82,-126 81.82,-126 78.82,-122 24.18,-122 24.18,-86 105.82,-86 105.82,-122"/>
<text text-anchor="middle" x="65" y="-99.8" font-family="Times,serif" font-size="14.00">TagModule</text>
</g>
<!-- TagModule&#45;&gt;ArticleModule -->
<g id="edge3" class="edge">
<title>TagModule&#45;&gt;ArticleModule</title>
<path fill="none" stroke="black" d="M65,-122.11C65,-141.34 65,-169 65,-169 65,-169 182.7,-169 182.7,-169"/>
<polygon fill="black" stroke="black" points="182.7,-172.5 192.7,-169 182.7,-165.5 182.7,-172.5"/>
</g>
<!-- ArticleService  -->
<g id="node5" class="node">
<title>ArticleService </title>
<polygon fill="#fb8072" stroke="black" points="292.35,-252 191.65,-252 191.65,-216 292.35,-216 292.35,-252"/>
<text text-anchor="middle" x="242" y="-229.8" font-family="Times,serif" font-size="14.00">ArticleService </text>
</g>
<!-- ArticleModule&#45;&gt;ArticleService  -->
<g id="edge4" class="edge">
<title>ArticleModule&#45;&gt;ArticleService </title>
<path fill="none" stroke="black" stroke-dasharray="5,2" d="M242,-187.11C242,-187.11 242,-205.99 242,-205.99"/>
<polygon fill="black" stroke="black" points="238.5,-205.99 242,-215.99 245.5,-205.99 238.5,-205.99"/>
</g>
<!-- ArticleService -->
<g id="node6" class="node">
<title>ArticleService</title>
<ellipse fill="#fdb462" stroke="black" cx="448" cy="-104" rx="66.61" ry="18"/>
<text text-anchor="middle" x="448" y="-99.8" font-family="Times,serif" font-size="14.00">ArticleService</text>
</g>
<!-- ArticleService&#45;&gt;ArticleModule -->
<g id="edge5" class="edge">
<title>ArticleService&#45;&gt;ArticleModule</title>
<path fill="none" stroke="black" d="M448,-122.11C448,-141.34 448,-169 448,-169 448,-169 301.34,-169 301.34,-169"/>
<polygon fill="black" stroke="black" points="301.34,-165.5 291.34,-169 301.34,-172.5 301.34,-165.5"/>
</g>
</g>
</svg>
