<?xml version="1.0" encoding="UTF-8" standalone="no"?>
<!DOCTYPE svg PUBLIC "-//W3C//DTD SVG 1.1//EN"
 "http://www.w3.org/Graphics/SVG/1.1/DTD/svg11.dtd">
<!-- Generated by graphviz version 2.47.0 (20210316.0004)
 -->
<!-- Title: dependencies Pages: 1 -->
<svg width="703pt" height="284pt"
 viewBox="0.00 0.00 703.00 284.00" xmlns="http://www.w3.org/2000/svg" xmlns:xlink="http://www.w3.org/1999/xlink">
<g id="graph0" class="graph" transform="scale(1 1) rotate(0) translate(4 280)">
<title>dependencies</title>
<polygon fill="white" stroke="transparent" points="-4,4 -4,-280 699,-280 699,4 -4,4"/>
<text text-anchor="start" x="326.51" y="-42.4" font-family="Times-12" font-weight="bold" font-size="14.00">Legend</text>
<polygon fill="#ffffb3" stroke="transparent" points="113.5,-10 113.5,-30 133.5,-30 133.5,-10 113.5,-10"/>
<text text-anchor="start" x="137.13" y="-15.4" font-family="Times-12" font-size="14.00"> &#160;Declarations</text>
<polygon fill="#8dd3c7" stroke="transparent" points="226.5,-10 226.5,-30 246.5,-30 246.5,-10 226.5,-10"/>
<text text-anchor="start" x="250.23" y="-15.4" font-family="Times-12" font-size="14.00"> &#160;Module</text>
<polygon fill="#80b1d3" stroke="transparent" points="312.5,-10 312.5,-30 332.5,-30 332.5,-10 312.5,-10"/>
<text text-anchor="start" x="336.28" y="-15.4" font-family="Times-12" font-size="14.00"> &#160;Bootstrap</text>
<polygon fill="#fdb462" stroke="transparent" points="409.5,-10 409.5,-30 429.5,-30 429.5,-10 409.5,-10"/>
<text text-anchor="start" x="433.17" y="-15.4" font-family="Times-12" font-size="14.00"> &#160;Providers</text>
<polygon fill="#fb8072" stroke="transparent" points="505.5,-10 505.5,-30 525.5,-30 525.5,-10 505.5,-10"/>
<text text-anchor="start" x="529.23" y="-15.4" font-family="Times-12" font-size="14.00"> &#160;Exports</text>
<g id="clust1" class="cluster">
<title>cluster_ArticleModule</title>
<polygon fill="none" stroke="black" stroke-dasharray="1,5" points="8,-70 8,-268 687,-268 687,-70 8,-70"/>
</g>
<g id="clust4" class="cluster">
<title>cluster_ArticleModule_exports</title>
<polygon fill="none" stroke="black" points="247,-208 247,-260 363,-260 363,-208 247,-208"/>
</g>
<g id="clust6" class="cluster">
<title>cluster_ArticleModule_providers</title>
<polygon fill="none" stroke="black" points="373,-78 373,-130 679,-130 679,-78 373,-78"/>
</g>
<g id="clust3" class="cluster">
<title>cluster_ArticleModule_imports</title>
<polygon fill="none" stroke="black" points="16,-78 16,-130 365,-130 365,-78 16,-78"/>
</g>
<!-- ArchiveModule -->
<g id="node1" class="node">
<title>ArchiveModule</title>
<polygon fill="#8dd3c7" stroke="black" points="357.14,-122 354.14,-126 333.14,-126 330.14,-122 252.86,-122 252.86,-86 357.14,-86 357.14,-122"/>
<text text-anchor="middle" x="305" y="-99.8" font-family="Times,serif" font-size="14.00">ArchiveModule</text>
</g>
<!-- ArticleModule -->
<g id="node4" class="node">
<title>ArticleModule</title>
<polygon fill="#8dd3c7" stroke="black" points="354.42,-187 351.42,-191 330.42,-191 327.42,-187 255.58,-187 255.58,-151 354.42,-151 354.42,-187"/>
<text text-anchor="middle" x="305" y="-164.8" font-family="Times,serif" font-size="14.00">ArticleModule</text>
</g>
<!-- ArchiveModule&#45;&gt;ArticleModule -->
<g id="edge1" class="edge">
<title>ArchiveModule&#45;&gt;ArticleModule</title>
<path fill="none" stroke="black" d="M305,-122.11C305,-122.11 305,-140.99 305,-140.99"/>
<polygon fill="black" stroke="black" points="301.5,-140.99 305,-150.99 308.5,-140.99 301.5,-140.99"/>
</g>
<!-- CategoryModule -->
<g id="node2" class="node">
<title>CategoryModule</title>
<polygon fill="#8dd3c7" stroke="black" points="234.37,-122 231.37,-126 210.37,-126 207.37,-122 123.63,-122 123.63,-86 234.37,-86 234.37,-122"/>
<text text-anchor="middle" x="179" y="-99.8" font-family="Times,serif" font-size="14.00">CategoryModule</text>
</g>
<!-- CategoryModule&#45;&gt;ArticleModule -->
<g id="edge2" class="edge">
<title>CategoryModule&#45;&gt;ArticleModule</title>
<path fill="none" stroke="black" d="M179,-122.02C179,-139.37 179,-163 179,-163 179,-163 245.56,-163 245.56,-163"/>
<polygon fill="black" stroke="black" points="245.56,-166.5 255.56,-163 245.56,-159.5 245.56,-166.5"/>
</g>
<!-- TagModule -->
<g id="node3" class="node">
<title>TagModule</title>
<polygon fill="#8dd3c7" stroke="black" points="105.82,-122 102.82,-126 81.82,-126 78.82,-122 24.18,-122 24.18,-86 105.82,-86 105.82,-122"/>
<text text-anchor="middle" x="65" y="-99.8" font-family="Times,serif" font-size="14.00">TagModule</text>
</g>
<!-- TagModule&#45;&gt;ArticleModule -->
<g id="edge3" class="edge">
<title>TagModule&#45;&gt;ArticleModule</title>
<path fill="none" stroke="black" d="M65,-122.28C65,-143.32 65,-175 65,-175 65,-175 245.56,-175 245.56,-175"/>
<polygon fill="black" stroke="black" points="245.56,-178.5 255.56,-175 245.56,-171.5 245.56,-178.5"/>
</g>
<!-- ArticleService  -->
<g id="node5" class="node">
<title>ArticleService </title>
<polygon fill="#fb8072" stroke="black" points="355.35,-252 254.65,-252 254.65,-216 355.35,-216 355.35,-252"/>
<text text-anchor="middle" x="305" y="-229.8" font-family="Times,serif" font-size="14.00">ArticleService </text>
</g>
<!-- ArticleModule&#45;&gt;ArticleService  -->
<g id="edge4" class="edge">
<title>ArticleModule&#45;&gt;ArticleService </title>
<path fill="none" stroke="black" stroke-dasharray="5,2" d="M305,-187.11C305,-187.11 305,-205.99 305,-205.99"/>
<polygon fill="black" stroke="black" points="301.5,-205.99 305,-215.99 308.5,-205.99 301.5,-205.99"/>
</g>
<!-- ArticleListener -->
<g id="node6" class="node">
<title>ArticleListener</title>
<ellipse fill="#fdb462" stroke="black" cx="602" cy="-104" rx="69.47" ry="18"/>
<text text-anchor="middle" x="602" y="-99.8" font-family="Times,serif" font-size="14.00">ArticleListener</text>
</g>
<!-- ArticleListener&#45;&gt;ArticleModule -->
<g id="edge5" class="edge">
<title>ArticleListener&#45;&gt;ArticleModule</title>
<path fill="none" stroke="black" d="M602,-122.28C602,-143.32 602,-175 602,-175 602,-175 364.38,-175 364.38,-175"/>
<polygon fill="black" stroke="black" points="364.38,-171.5 354.38,-175 364.38,-178.5 364.38,-171.5"/>
</g>
<!-- ArticleService -->
<g id="node7" class="node">
<title>ArticleService</title>
<ellipse fill="#fdb462" stroke="black" cx="448" cy="-104" rx="66.61" ry="18"/>
<text text-anchor="middle" x="448" y="-99.8" font-family="Times,serif" font-size="14.00">ArticleService</text>
</g>
<!-- ArticleService&#45;&gt;ArticleModule -->
<g id="edge6" class="edge">
<title>ArticleService&#45;&gt;ArticleModule</title>
<path fill="none" stroke="black" d="M448,-122.02C448,-139.37 448,-163 448,-163 448,-163 364.21,-163 364.21,-163"/>
<polygon fill="black" stroke="black" points="364.21,-159.5 354.21,-163 364.21,-166.5 364.21,-159.5"/>
</g>
</g>
</svg>
