<?xml version="1.0" encoding="UTF-8" standalone="no"?>
<!DOCTYPE svg PUBLIC "-//W3C//DTD SVG 1.1//EN"
 "http://www.w3.org/Graphics/SVG/1.1/DTD/svg11.dtd">
<!-- Generated by graphviz version 2.47.0 (20210316.0004)
 -->
<!-- Title: dependencies Pages: 1 -->
<svg width="948pt" height="284pt"
 viewBox="0.00 0.00 948.00 284.00" xmlns="http://www.w3.org/2000/svg" xmlns:xlink="http://www.w3.org/1999/xlink">
<g id="graph0" class="graph" transform="scale(1 1) rotate(0) translate(4 280)">
<title>dependencies</title>
<polygon fill="white" stroke="transparent" points="-4,4 -4,-280 944,-280 944,4 -4,4"/>
<text text-anchor="start" x="449.01" y="-42.4" font-family="Times-12" font-weight="bold" font-size="14.00">Legend</text>
<polygon fill="#ffffb3" stroke="transparent" points="236,-10 236,-30 256,-30 256,-10 236,-10"/>
<text text-anchor="start" x="259.63" y="-15.4" font-family="Times-12" font-size="14.00"> &#160;Declarations</text>
<polygon fill="#8dd3c7" stroke="transparent" points="349,-10 349,-30 369,-30 369,-10 349,-10"/>
<text text-anchor="start" x="372.73" y="-15.4" font-family="Times-12" font-size="14.00"> &#160;Module</text>
<polygon fill="#80b1d3" stroke="transparent" points="435,-10 435,-30 455,-30 455,-10 435,-10"/>
<text text-anchor="start" x="458.78" y="-15.4" font-family="Times-12" font-size="14.00"> &#160;Bootstrap</text>
<polygon fill="#fdb462" stroke="transparent" points="532,-10 532,-30 552,-30 552,-10 532,-10"/>
<text text-anchor="start" x="555.67" y="-15.4" font-family="Times-12" font-size="14.00"> &#160;Providers</text>
<polygon fill="#fb8072" stroke="transparent" points="628,-10 628,-30 648,-30 648,-10 628,-10"/>
<text text-anchor="start" x="651.73" y="-15.4" font-family="Times-12" font-size="14.00"> &#160;Exports</text>
<g id="clust1" class="cluster">
<title>cluster_ArticleModule</title>
<polygon fill="none" stroke="black" stroke-dasharray="1,5" points="8,-70 8,-268 932,-268 932,-70 8,-70"/>
</g>
<g id="clust3" class="cluster">
<title>cluster_ArticleModule_imports</title>
<polygon fill="none" stroke="black" points="575,-78 575,-130 924,-130 924,-78 575,-78"/>
</g>
<g id="clust6" class="cluster">
<title>cluster_ArticleModule_providers</title>
<polygon fill="none" stroke="black" points="16,-78 16,-130 567,-130 567,-78 16,-78"/>
</g>
<g id="clust4" class="cluster">
<title>cluster_ArticleModule_exports</title>
<polygon fill="none" stroke="black" points="339,-208 339,-260 764,-260 764,-208 339,-208"/>
</g>
<!-- ArchiveModule -->
<g id="node1" class="node">
<title>ArchiveModule</title>
<polygon fill="#8dd3c7" stroke="black" points="916.14,-122 913.14,-126 892.14,-126 889.14,-122 811.86,-122 811.86,-86 916.14,-86 916.14,-122"/>
<text text-anchor="middle" x="864" y="-99.8" font-family="Times,serif" font-size="14.00">ArchiveModule</text>
</g>
<!-- ArticleModule -->
<g id="node4" class="node">
<title>ArticleModule</title>
<polygon fill="#8dd3c7" stroke="black" points="592.42,-187 589.42,-191 568.42,-191 565.42,-187 493.58,-187 493.58,-151 592.42,-151 592.42,-187"/>
<text text-anchor="middle" x="543" y="-164.8" font-family="Times,serif" font-size="14.00">ArticleModule</text>
</g>
<!-- ArchiveModule&#45;&gt;ArticleModule -->
<g id="edge1" class="edge">
<title>ArchiveModule&#45;&gt;ArticleModule</title>
<path fill="none" stroke="black" d="M864,-122.11C864,-141.34 864,-169 864,-169 864,-169 602.45,-169 602.45,-169"/>
<polygon fill="black" stroke="black" points="602.45,-165.5 592.45,-169 602.45,-172.5 602.45,-165.5"/>
</g>
<!-- CategoryModule -->
<g id="node2" class="node">
<title>CategoryModule</title>
<polygon fill="#8dd3c7" stroke="black" points="793.37,-122 790.37,-126 769.37,-126 766.37,-122 682.63,-122 682.63,-86 793.37,-86 793.37,-122"/>
<text text-anchor="middle" x="738" y="-99.8" font-family="Times,serif" font-size="14.00">CategoryModule</text>
</g>
<!-- CategoryModule&#45;&gt;ArticleModule -->
<g id="edge2" class="edge">
<title>CategoryModule&#45;&gt;ArticleModule</title>
<path fill="none" stroke="black" d="M719.45,-122.03C719.45,-138.4 719.45,-160 719.45,-160 719.45,-160 602.62,-160 602.62,-160"/>
<polygon fill="black" stroke="black" points="602.62,-156.5 592.62,-160 602.62,-163.5 602.62,-156.5"/>
</g>
<!-- TagModule -->
<g id="node3" class="node">
<title>TagModule</title>
<polygon fill="#8dd3c7" stroke="black" points="664.82,-122 661.82,-126 640.82,-126 637.82,-122 583.18,-122 583.18,-86 664.82,-86 664.82,-122"/>
<text text-anchor="middle" x="624" y="-99.8" font-family="Times,serif" font-size="14.00">TagModule</text>
</g>
<!-- TagModule&#45;&gt;ArticleModule -->
<g id="edge3" class="edge">
<title>TagModule&#45;&gt;ArticleModule</title>
<path fill="none" stroke="black" d="M587.78,-122.11C587.78,-122.11 587.78,-140.99 587.78,-140.99"/>
<polygon fill="black" stroke="black" points="584.28,-140.99 587.78,-150.99 591.28,-140.99 584.28,-140.99"/>
</g>
<!-- ArticleContextService  -->
<g id="node5" class="node">
<title>ArticleContextService </title>
<polygon fill="#fb8072" stroke="black" points="756.18,-252 611.82,-252 611.82,-216 756.18,-216 756.18,-252"/>
<text text-anchor="middle" x="684" y="-229.8" font-family="Times,serif" font-size="14.00">ArticleContextService </text>
</g>
<!-- ArticleModule&#45;&gt;ArticleContextService  -->
<g id="edge4" class="edge">
<title>ArticleModule&#45;&gt;ArticleContextService </title>
<path fill="none" stroke="black" stroke-dasharray="5,2" d="M592.25,-178C615.47,-178 638.16,-178 638.16,-178 638.16,-178 638.16,-205.97 638.16,-205.97"/>
<polygon fill="black" stroke="black" points="634.66,-205.97 638.16,-215.97 641.66,-205.97 634.66,-205.97"/>
</g>
<!-- ArticleService  -->
<g id="node6" class="node">
<title>ArticleService </title>
<polygon fill="#fb8072" stroke="black" points="593.35,-252 492.65,-252 492.65,-216 593.35,-216 593.35,-252"/>
<text text-anchor="middle" x="543" y="-229.8" font-family="Times,serif" font-size="14.00">ArticleService </text>
</g>
<!-- ArticleModule&#45;&gt;ArticleService  -->
<g id="edge5" class="edge">
<title>ArticleModule&#45;&gt;ArticleService </title>
<path fill="none" stroke="black" stroke-dasharray="5,2" d="M543,-187.11C543,-187.11 543,-205.99 543,-205.99"/>
<polygon fill="black" stroke="black" points="539.5,-205.99 543,-215.99 546.5,-205.99 539.5,-205.99"/>
</g>
<!-- ArticleStatsService  -->
<g id="node7" class="node">
<title>ArticleStatsService </title>
<polygon fill="#fb8072" stroke="black" points="474.57,-252 347.43,-252 347.43,-216 474.57,-216 474.57,-252"/>
<text text-anchor="middle" x="411" y="-229.8" font-family="Times,serif" font-size="14.00">ArticleStatsService </text>
</g>
<!-- ArticleModule&#45;&gt;ArticleStatsService  -->
<g id="edge6" class="edge">
<title>ArticleModule&#45;&gt;ArticleStatsService </title>
<path fill="none" stroke="black" stroke-dasharray="5,2" d="M493.56,-178C459.26,-178 419.7,-178 419.7,-178 419.7,-178 419.7,-205.97 419.7,-205.97"/>
<polygon fill="black" stroke="black" points="416.2,-205.97 419.7,-215.97 423.2,-205.97 416.2,-205.97"/>
</g>
<!-- ArticleContextService -->
<g id="node8" class="node">
<title>ArticleContextService</title>
<ellipse fill="#fdb462" stroke="black" cx="462" cy="-104" rx="97.26" ry="18"/>
<text text-anchor="middle" x="462" y="-99.8" font-family="Times,serif" font-size="14.00">ArticleContextService</text>
</g>
<!-- ArticleContextService&#45;&gt;ArticleModule -->
<g id="edge7" class="edge">
<title>ArticleContextService&#45;&gt;ArticleModule</title>
<path fill="none" stroke="black" d="M526.59,-117.78C526.59,-117.78 526.59,-140.55 526.59,-140.55"/>
<polygon fill="black" stroke="black" points="523.09,-140.55 526.59,-150.55 530.09,-140.55 523.09,-140.55"/>
</g>
<!-- ArticleService -->
<g id="node9" class="node">
<title>ArticleService</title>
<ellipse fill="#fdb462" stroke="black" cx="280" cy="-104" rx="66.61" ry="18"/>
<text text-anchor="middle" x="280" y="-99.8" font-family="Times,serif" font-size="14.00">ArticleService</text>
</g>
<!-- ArticleService&#45;&gt;ArticleModule -->
<g id="edge8" class="edge">
<title>ArticleService&#45;&gt;ArticleModule</title>
<path fill="none" stroke="black" d="M280,-122.03C280,-138.4 280,-160 280,-160 280,-160 483.53,-160 483.53,-160"/>
<polygon fill="black" stroke="black" points="483.53,-163.5 493.53,-160 483.53,-156.5 483.53,-163.5"/>
</g>
<!-- ArticleStatsService -->
<g id="node10" class="node">
<title>ArticleStatsService</title>
<ellipse fill="#fdb462" stroke="black" cx="110" cy="-104" rx="85.66" ry="18"/>
<text text-anchor="middle" x="110" y="-99.8" font-family="Times,serif" font-size="14.00">ArticleStatsService</text>
</g>
<!-- ArticleStatsService&#45;&gt;ArticleModule -->
<g id="edge9" class="edge">
<title>ArticleStatsService&#45;&gt;ArticleModule</title>
<path fill="none" stroke="black" d="M110,-122.11C110,-141.34 110,-169 110,-169 110,-169 483.75,-169 483.75,-169"/>
<polygon fill="black" stroke="black" points="483.75,-172.5 493.75,-169 483.75,-165.5 483.75,-172.5"/>
</g>
</g>
</svg>
