<?xml version="1.0" encoding="UTF-8" standalone="no"?>
<!DOCTYPE svg PUBLIC "-//W3C//DTD SVG 1.1//EN"
 "http://www.w3.org/Graphics/SVG/1.1/DTD/svg11.dtd">
<!-- Generated by graphviz version 2.47.0 (20210316.0004)
 -->
<!-- Title: dependencies Pages: 1 -->
<svg width="703pt" height="284pt"
 viewBox="0.00 0.00 703.00 284.00" xmlns="http://www.w3.org/2000/svg" xmlns:xlink="http://www.w3.org/1999/xlink">
<g id="graph0" class="graph" transform="scale(1 1) rotate(0) translate(4 280)">
<title>dependencies</title>
<polygon fill="white" stroke="transparent" points="-4,4 -4,-280 699,-280 699,4 -4,4"/>
<text text-anchor="start" x="326.51" y="-42.4" font-family="Times-12" font-weight="bold" font-size="14.00">Legend</text>
<polygon fill="#ffffb3" stroke="transparent" points="113.5,-10 113.5,-30 133.5,-30 133.5,-10 113.5,-10"/>
<text text-anchor="start" x="137.13" y="-15.4" font-family="Times-12" font-size="14.00"> &#160;Declarations</text>
<polygon fill="#8dd3c7" stroke="transparent" points="226.5,-10 226.5,-30 246.5,-30 246.5,-10 226.5,-10"/>
<text text-anchor="start" x="250.23" y="-15.4" font-family="Times-12" font-size="14.00"> &#160;Module</text>
<polygon fill="#80b1d3" stroke="transparent" points="312.5,-10 312.5,-30 332.5,-30 332.5,-10 312.5,-10"/>
<text text-anchor="start" x="336.28" y="-15.4" font-family="Times-12" font-size="14.00"> &#160;Bootstrap</text>
<polygon fill="#fdb462" stroke="transparent" points="409.5,-10 409.5,-30 429.5,-30 429.5,-10 409.5,-10"/>
<text text-anchor="start" x="433.17" y="-15.4" font-family="Times-12" font-size="14.00"> &#160;Providers</text>
<polygon fill="#fb8072" stroke="transparent" points="505.5,-10 505.5,-30 525.5,-30 525.5,-10 505.5,-10"/>
<text text-anchor="start" x="529.23" y="-15.4" font-family="Times-12" font-size="14.00"> &#160;Exports</text>
<g id="clust1" class="cluster">
<title>cluster_ArticleModule</title>
<polygon fill="none" stroke="black" stroke-dasharray="1,5" points="8,-70 8,-268 687,-268 687,-70 8,-70"/>
</g>
<g id="clust3" class="cluster">
<title>cluster_ArticleModule_imports</title>
<polygon fill="none" stroke="black" points="330,-78 330,-130 679,-130 679,-78 330,-78"/>
</g>
<g id="clust4" class="cluster">
<title>cluster_ArticleModule_exports</title>
<polygon fill="none" stroke="black" points="321,-208 321,-260 437,-260 437,-208 321,-208"/>
</g>
<g id="clust6" class="cluster">
<title>cluster_ArticleModule_providers</title>
<polygon fill="none" stroke="black" points="16,-78 16,-130 322,-130 322,-78 16,-78"/>
</g>
<!-- ArchiveModule -->
<g id="node1" class="node">
<title>ArchiveModule</title>
<polygon fill="#8dd3c7" stroke="black" points="671.14,-122 668.14,-126 647.14,-126 644.14,-122 566.86,-122 566.86,-86 671.14,-86 671.14,-122"/>
<text text-anchor="middle" x="619" y="-99.8" font-family="Times,serif" font-size="14.00">ArchiveModule</text>
</g>
<!-- ArticleModule -->
<g id="node4" class="node">
<title>ArticleModule</title>
<polygon fill="#8dd3c7" stroke="black" points="428.42,-187 425.42,-191 404.42,-191 401.42,-187 329.58,-187 329.58,-151 428.42,-151 428.42,-187"/>
<text text-anchor="middle" x="379" y="-164.8" font-family="Times,serif" font-size="14.00">ArticleModule</text>
</g>
<!-- ArchiveModule&#45;&gt;ArticleModule -->
<g id="edge1" class="edge">
<title>ArchiveModule&#45;&gt;ArticleModule</title>
<path fill="none" stroke="black" d="M619,-122.11C619,-141.34 619,-169 619,-169 619,-169 438.44,-169 438.44,-169"/>
<polygon fill="black" stroke="black" points="438.44,-165.5 428.44,-169 438.44,-172.5 438.44,-165.5"/>
</g>
<!-- CategoryModule -->
<g id="node2" class="node">
<title>CategoryModule</title>
<polygon fill="#8dd3c7" stroke="black" points="548.37,-122 545.37,-126 524.37,-126 521.37,-122 437.63,-122 437.63,-86 548.37,-86 548.37,-122"/>
<text text-anchor="middle" x="493" y="-99.8" font-family="Times,serif" font-size="14.00">CategoryModule</text>
</g>
<!-- CategoryModule&#45;&gt;ArticleModule -->
<g id="edge2" class="edge">
<title>CategoryModule&#45;&gt;ArticleModule</title>
<path fill="none" stroke="black" d="M437.58,-104C429.55,-104 423.93,-104 423.93,-104 423.93,-104 423.93,-140.89 423.93,-140.89"/>
<polygon fill="black" stroke="black" points="420.43,-140.89 423.93,-150.89 427.43,-140.89 420.43,-140.89"/>
</g>
<!-- TagModule -->
<g id="node3" class="node">
<title>TagModule</title>
<polygon fill="#8dd3c7" stroke="black" points="419.82,-122 416.82,-126 395.82,-126 392.82,-122 338.18,-122 338.18,-86 419.82,-86 419.82,-122"/>
<text text-anchor="middle" x="379" y="-99.8" font-family="Times,serif" font-size="14.00">TagModule</text>
</g>
<!-- TagModule&#45;&gt;ArticleModule -->
<g id="edge3" class="edge">
<title>TagModule&#45;&gt;ArticleModule</title>
<path fill="none" stroke="black" d="M379,-122.11C379,-122.11 379,-140.99 379,-140.99"/>
<polygon fill="black" stroke="black" points="375.5,-140.99 379,-150.99 382.5,-140.99 375.5,-140.99"/>
</g>
<!-- ArticleService  -->
<g id="node5" class="node">
<title>ArticleService </title>
<polygon fill="#fb8072" stroke="black" points="429.35,-252 328.65,-252 328.65,-216 429.35,-216 429.35,-252"/>
<text text-anchor="middle" x="379" y="-229.8" font-family="Times,serif" font-size="14.00">ArticleService </text>
</g>
<!-- ArticleModule&#45;&gt;ArticleService  -->
<g id="edge4" class="edge">
<title>ArticleModule&#45;&gt;ArticleService </title>
<path fill="none" stroke="black" stroke-dasharray="5,2" d="M379,-187.11C379,-187.11 379,-205.99 379,-205.99"/>
<polygon fill="black" stroke="black" points="375.5,-205.99 379,-215.99 382.5,-205.99 375.5,-205.99"/>
</g>
<!-- ArticleListener -->
<g id="node6" class="node">
<title>ArticleListener</title>
<ellipse fill="#fdb462" stroke="black" cx="245" cy="-104" rx="69.47" ry="18"/>
<text text-anchor="middle" x="245" y="-99.8" font-family="Times,serif" font-size="14.00">ArticleListener</text>
</g>
<!-- ArticleListener&#45;&gt;ArticleModule -->
<g id="edge5" class="edge">
<title>ArticleListener&#45;&gt;ArticleModule</title>
<path fill="none" stroke="black" d="M314.74,-104C326.01,-104 334.07,-104 334.07,-104 334.07,-104 334.07,-140.89 334.07,-140.89"/>
<polygon fill="black" stroke="black" points="330.57,-140.89 334.07,-150.89 337.57,-140.89 330.57,-140.89"/>
</g>
<!-- ArticleService -->
<g id="node7" class="node">
<title>ArticleService</title>
<ellipse fill="#fdb462" stroke="black" cx="91" cy="-104" rx="66.61" ry="18"/>
<text text-anchor="middle" x="91" y="-99.8" font-family="Times,serif" font-size="14.00">ArticleService</text>
</g>
<!-- ArticleService&#45;&gt;ArticleModule -->
<g id="edge6" class="edge">
<title>ArticleService&#45;&gt;ArticleModule</title>
<path fill="none" stroke="black" d="M91,-122.11C91,-141.34 91,-169 91,-169 91,-169 319.49,-169 319.49,-169"/>
<polygon fill="black" stroke="black" points="319.49,-172.5 329.49,-169 319.49,-165.5 319.49,-172.5"/>
</g>
</g>
</svg>
