<?xml version="1.0" encoding="UTF-8" standalone="no"?>
<!DOCTYPE svg PUBLIC "-//W3C//DTD SVG 1.1//EN"
 "http://www.w3.org/Graphics/SVG/1.1/DTD/svg11.dtd">
<!-- Generated by graphviz version 2.47.0 (20210316.0004)
 -->
<!-- Title: dependencies Pages: 1 -->
<svg width="938pt" height="284pt"
 viewBox="0.00 0.00 938.00 284.00" xmlns="http://www.w3.org/2000/svg" xmlns:xlink="http://www.w3.org/1999/xlink">
<g id="graph0" class="graph" transform="scale(1 1) rotate(0) translate(4 280)">
<title>dependencies</title>
<polygon fill="white" stroke="transparent" points="-4,4 -4,-280 934,-280 934,4 -4,4"/>
<text text-anchor="start" x="444.01" y="-42.4" font-family="Times-12" font-weight="bold" font-size="14.00">Legend</text>
<polygon fill="#ffffb3" stroke="transparent" points="231,-10 231,-30 251,-30 251,-10 231,-10"/>
<text text-anchor="start" x="254.63" y="-15.4" font-family="Times-12" font-size="14.00"> &#160;Declarations</text>
<polygon fill="#8dd3c7" stroke="transparent" points="344,-10 344,-30 364,-30 364,-10 344,-10"/>
<text text-anchor="start" x="367.73" y="-15.4" font-family="Times-12" font-size="14.00"> &#160;Module</text>
<polygon fill="#80b1d3" stroke="transparent" points="430,-10 430,-30 450,-30 450,-10 430,-10"/>
<text text-anchor="start" x="453.78" y="-15.4" font-family="Times-12" font-size="14.00"> &#160;Bootstrap</text>
<polygon fill="#fdb462" stroke="transparent" points="527,-10 527,-30 547,-30 547,-10 527,-10"/>
<text text-anchor="start" x="550.67" y="-15.4" font-family="Times-12" font-size="14.00"> &#160;Providers</text>
<polygon fill="#fb8072" stroke="transparent" points="623,-10 623,-30 643,-30 643,-10 623,-10"/>
<text text-anchor="start" x="646.73" y="-15.4" font-family="Times-12" font-size="14.00"> &#160;Exports</text>
<g id="clust1" class="cluster">
<title>cluster_ArticleModule</title>
<polygon fill="none" stroke="black" stroke-dasharray="1,5" points="8,-70 8,-268 922,-268 922,-70 8,-70"/>
</g>
<g id="clust4" class="cluster">
<title>cluster_ArticleModule_exports</title>
<polygon fill="none" stroke="black" points="186,-208 186,-260 757,-260 757,-208 186,-208"/>
</g>
<g id="clust6" class="cluster">
<title>cluster_ArticleModule_providers</title>
<polygon fill="none" stroke="black" points="16,-78 16,-130 914,-130 914,-78 16,-78"/>
</g>
<!-- ArticleContextService  -->
<g id="node1" class="node">
<title>ArticleContextService </title>
<polygon fill="#fb8072" stroke="black" points="749.18,-252 604.82,-252 604.82,-216 749.18,-216 749.18,-252"/>
<text text-anchor="middle" x="677" y="-229.8" font-family="Times,serif" font-size="14.00">ArticleContextService </text>
</g>
<!-- ArticleService  -->
<g id="node2" class="node">
<title>ArticleService </title>
<polygon fill="#fb8072" stroke="black" points="586.35,-252 485.65,-252 485.65,-216 586.35,-216 586.35,-252"/>
<text text-anchor="middle" x="536" y="-229.8" font-family="Times,serif" font-size="14.00">ArticleService </text>
</g>
<!-- ArticleStatsService  -->
<g id="node3" class="node">
<title>ArticleStatsService </title>
<polygon fill="#fb8072" stroke="black" points="467.57,-252 340.43,-252 340.43,-216 467.57,-216 467.57,-252"/>
<text text-anchor="middle" x="404" y="-229.8" font-family="Times,serif" font-size="14.00">ArticleStatsService </text>
</g>
<!-- ArticleSyncService  -->
<g id="node4" class="node">
<title>ArticleSyncService </title>
<polygon fill="#fb8072" stroke="black" points="322.34,-252 193.66,-252 193.66,-216 322.34,-216 322.34,-252"/>
<text text-anchor="middle" x="258" y="-229.8" font-family="Times,serif" font-size="14.00">ArticleSyncService </text>
</g>
<!-- ArticleModule -->
<g id="node5" class="node">
<title>ArticleModule</title>
<polygon fill="#8dd3c7" stroke="black" points="519.42,-187 516.42,-191 495.42,-191 492.42,-187 420.58,-187 420.58,-151 519.42,-151 519.42,-187"/>
<text text-anchor="middle" x="470" y="-164.8" font-family="Times,serif" font-size="14.00">ArticleModule</text>
</g>
<!-- ArticleModule&#45;&gt;ArticleContextService  -->
<g id="edge1" class="edge">
<title>ArticleModule&#45;&gt;ArticleContextService </title>
<path fill="none" stroke="black" stroke-dasharray="5,2" d="M519.41,-178C572.41,-178 649.07,-178 649.07,-178 649.07,-178 649.07,-205.97 649.07,-205.97"/>
<polygon fill="black" stroke="black" points="645.57,-205.97 649.07,-215.97 652.57,-205.97 645.57,-205.97"/>
</g>
<!-- ArticleModule&#45;&gt;ArticleService  -->
<g id="edge2" class="edge">
<title>ArticleModule&#45;&gt;ArticleService </title>
<path fill="none" stroke="black" stroke-dasharray="5,2" d="M502.52,-187.11C502.52,-187.11 502.52,-205.99 502.52,-205.99"/>
<polygon fill="black" stroke="black" points="499.02,-205.99 502.52,-215.99 506.02,-205.99 499.02,-205.99"/>
</g>
<!-- ArticleModule&#45;&gt;ArticleStatsService  -->
<g id="edge3" class="edge">
<title>ArticleModule&#45;&gt;ArticleStatsService </title>
<path fill="none" stroke="black" stroke-dasharray="5,2" d="M444.29,-187.11C444.29,-187.11 444.29,-205.99 444.29,-205.99"/>
<polygon fill="black" stroke="black" points="440.79,-205.99 444.29,-215.99 447.79,-205.99 440.79,-205.99"/>
</g>
<!-- ArticleModule&#45;&gt;ArticleSyncService  -->
<g id="edge4" class="edge">
<title>ArticleModule&#45;&gt;ArticleSyncService </title>
<path fill="none" stroke="black" stroke-dasharray="5,2" d="M420.66,-178C360.94,-178 268.3,-178 268.3,-178 268.3,-178 268.3,-205.97 268.3,-205.97"/>
<polygon fill="black" stroke="black" points="264.8,-205.97 268.3,-215.97 271.8,-205.97 264.8,-205.97"/>
</g>
<!-- ArticleContextService -->
<g id="node6" class="node">
<title>ArticleContextService</title>
<ellipse fill="#fdb462" stroke="black" cx="809" cy="-104" rx="97.26" ry="18"/>
<text text-anchor="middle" x="809" y="-99.8" font-family="Times,serif" font-size="14.00">ArticleContextService</text>
</g>
<!-- ArticleContextService&#45;&gt;ArticleModule -->
<g id="edge5" class="edge">
<title>ArticleContextService&#45;&gt;ArticleModule</title>
<path fill="none" stroke="black" d="M730.48,-114.73C730.48,-133.2 730.48,-169 730.48,-169 730.48,-169 529.3,-169 529.3,-169"/>
<polygon fill="black" stroke="black" points="529.3,-165.5 519.3,-169 529.3,-172.5 529.3,-165.5"/>
</g>
<!-- ArticleListener -->
<g id="node7" class="node">
<title>ArticleListener</title>
<ellipse fill="#fdb462" stroke="black" cx="624" cy="-104" rx="69.47" ry="18"/>
<text text-anchor="middle" x="624" y="-99.8" font-family="Times,serif" font-size="14.00">ArticleListener</text>
</g>
<!-- ArticleListener&#45;&gt;ArticleModule -->
<g id="edge6" class="edge">
<title>ArticleListener&#45;&gt;ArticleModule</title>
<path fill="none" stroke="black" d="M570.34,-115.6C570.34,-132.01 570.34,-160 570.34,-160 570.34,-160 529.29,-160 529.29,-160"/>
<polygon fill="black" stroke="black" points="529.29,-156.5 519.29,-160 529.29,-163.5 529.29,-156.5"/>
</g>
<!-- ArticleService -->
<g id="node8" class="node">
<title>ArticleService</title>
<ellipse fill="#fdb462" stroke="black" cx="470" cy="-104" rx="66.61" ry="18"/>
<text text-anchor="middle" x="470" y="-99.8" font-family="Times,serif" font-size="14.00">ArticleService</text>
</g>
<!-- ArticleService&#45;&gt;ArticleModule -->
<g id="edge7" class="edge">
<title>ArticleService&#45;&gt;ArticleModule</title>
<path fill="none" stroke="black" d="M470,-122.11C470,-122.11 470,-140.99 470,-140.99"/>
<polygon fill="black" stroke="black" points="466.5,-140.99 470,-150.99 473.5,-140.99 466.5,-140.99"/>
</g>
<!-- ArticleStatsService -->
<g id="node9" class="node">
<title>ArticleStatsService</title>
<ellipse fill="#fdb462" stroke="black" cx="300" cy="-104" rx="85.66" ry="18"/>
<text text-anchor="middle" x="300" y="-99.8" font-family="Times,serif" font-size="14.00">ArticleStatsService</text>
</g>
<!-- ArticleStatsService&#45;&gt;ArticleModule -->
<g id="edge8" class="edge">
<title>ArticleStatsService&#45;&gt;ArticleModule</title>
<path fill="none" stroke="black" d="M362.9,-116.43C362.9,-132.93 362.9,-160 362.9,-160 362.9,-160 410.52,-160 410.52,-160"/>
<polygon fill="black" stroke="black" points="410.52,-163.5 420.52,-160 410.52,-156.5 410.52,-163.5"/>
</g>
<!-- ArticleSyncService -->
<g id="node10" class="node">
<title>ArticleSyncService</title>
<ellipse fill="#fdb462" stroke="black" cx="110" cy="-104" rx="86.23" ry="18"/>
<text text-anchor="middle" x="110" y="-99.8" font-family="Times,serif" font-size="14.00">ArticleSyncService</text>
</g>
<!-- ArticleSyncService&#45;&gt;ArticleModule -->
<g id="edge9" class="edge">
<title>ArticleSyncService&#45;&gt;ArticleModule</title>
<path fill="none" stroke="black" d="M108.86,-122.11C108.86,-141.34 108.86,-169 108.86,-169 108.86,-169 410.54,-169 410.54,-169"/>
<polygon fill="black" stroke="black" points="410.54,-172.5 420.54,-169 410.54,-165.5 410.54,-172.5"/>
</g>
</g>
</svg>
