<?xml version="1.0" encoding="UTF-8" standalone="no"?>
<!DOCTYPE svg PUBLIC "-//W3C//DTD SVG 1.1//EN"
 "http://www.w3.org/Graphics/SVG/1.1/DTD/svg11.dtd">
<!-- Generated by graphviz version 2.47.0 (20210316.0004)
 -->
<!-- Title: dependencies Pages: 1 -->
<svg width="1657pt" height="284pt"
 viewBox="0.00 0.00 1657.00 284.00" xmlns="http://www.w3.org/2000/svg" xmlns:xlink="http://www.w3.org/1999/xlink">
<g id="graph0" class="graph" transform="scale(1 1) rotate(0) translate(4 280)">
<title>dependencies</title>
<polygon fill="white" stroke="transparent" points="-4,4 -4,-280 1653,-280 1653,4 -4,4"/>
<text text-anchor="start" x="803.51" y="-42.4" font-family="Times-12" font-weight="bold" font-size="14.00">Legend</text>
<polygon fill="#ffffb3" stroke="transparent" points="590.5,-10 590.5,-30 610.5,-30 610.5,-10 590.5,-10"/>
<text text-anchor="start" x="614.13" y="-15.4" font-family="Times-12" font-size="14.00"> &#160;Declarations</text>
<polygon fill="#8dd3c7" stroke="transparent" points="703.5,-10 703.5,-30 723.5,-30 723.5,-10 703.5,-10"/>
<text text-anchor="start" x="727.23" y="-15.4" font-family="Times-12" font-size="14.00"> &#160;Module</text>
<polygon fill="#80b1d3" stroke="transparent" points="789.5,-10 789.5,-30 809.5,-30 809.5,-10 789.5,-10"/>
<text text-anchor="start" x="813.28" y="-15.4" font-family="Times-12" font-size="14.00"> &#160;Bootstrap</text>
<polygon fill="#fdb462" stroke="transparent" points="886.5,-10 886.5,-30 906.5,-30 906.5,-10 886.5,-10"/>
<text text-anchor="start" x="910.17" y="-15.4" font-family="Times-12" font-size="14.00"> &#160;Providers</text>
<polygon fill="#fb8072" stroke="transparent" points="982.5,-10 982.5,-30 1002.5,-30 1002.5,-10 982.5,-10"/>
<text text-anchor="start" x="1006.23" y="-15.4" font-family="Times-12" font-size="14.00"> &#160;Exports</text>
<g id="clust1" class="cluster">
<title>cluster_CommentModule</title>
<polygon fill="none" stroke="black" stroke-dasharray="1,5" points="8,-70 8,-268 1641,-268 1641,-70 8,-70"/>
</g>
<g id="clust4" class="cluster">
<title>cluster_CommentModule_exports</title>
<polygon fill="none" stroke="black" points="770,-208 770,-260 1064,-260 1064,-208 770,-208"/>
</g>
<g id="clust3" class="cluster">
<title>cluster_CommentModule_imports</title>
<polygon fill="none" stroke="black" points="1293,-78 1293,-130 1633,-130 1633,-78 1293,-78"/>
</g>
<g id="clust6" class="cluster">
<title>cluster_CommentModule_providers</title>
<polygon fill="none" stroke="black" points="16,-78 16,-130 1285,-130 1285,-78 16,-78"/>
</g>
<!-- ArticleModule -->
<g id="node1" class="node">
<title>ArticleModule</title>
<polygon fill="#8dd3c7" stroke="black" points="1625.42,-122 1622.42,-126 1601.42,-126 1598.42,-122 1526.58,-122 1526.58,-86 1625.42,-86 1625.42,-122"/>
<text text-anchor="middle" x="1576" y="-99.8" font-family="Times,serif" font-size="14.00">ArticleModule</text>
</g>
<!-- CommentModule -->
<g id="node4" class="node">
<title>CommentModule</title>
<polygon fill="#8dd3c7" stroke="black" points="981.27,-187 978.27,-191 957.27,-191 954.27,-187 866.73,-187 866.73,-151 981.27,-151 981.27,-187"/>
<text text-anchor="middle" x="924" y="-164.8" font-family="Times,serif" font-size="14.00">CommentModule</text>
</g>
<!-- ArticleModule&#45;&gt;CommentModule -->
<g id="edge1" class="edge">
<title>ArticleModule&#45;&gt;CommentModule</title>
<path fill="none" stroke="black" d="M1576,-122.01C1576,-144.49 1576,-180 1576,-180 1576,-180 991.29,-180 991.29,-180"/>
<polygon fill="black" stroke="black" points="991.29,-176.5 981.29,-180 991.29,-183.5 991.29,-176.5"/>
</g>
<!-- OptionsModule -->
<g id="node2" class="node">
<title>OptionsModule</title>
<polygon fill="#8dd3c7" stroke="black" points="1508.88,-122 1505.88,-126 1484.88,-126 1481.88,-122 1405.12,-122 1405.12,-86 1508.88,-86 1508.88,-122"/>
<text text-anchor="middle" x="1457" y="-99.8" font-family="Times,serif" font-size="14.00">OptionsModule</text>
</g>
<!-- OptionsModule&#45;&gt;CommentModule -->
<g id="edge2" class="edge">
<title>OptionsModule&#45;&gt;CommentModule</title>
<path fill="none" stroke="black" d="M1457,-122.13C1457,-142.57 1457,-173 1457,-173 1457,-173 991.29,-173 991.29,-173"/>
<polygon fill="black" stroke="black" points="991.29,-169.5 981.29,-173 991.29,-176.5 991.29,-169.5"/>
</g>
<!-- UserModule -->
<g id="node3" class="node">
<title>UserModule</title>
<polygon fill="#8dd3c7" stroke="black" points="1386.98,-122 1383.98,-126 1362.98,-126 1359.98,-122 1301.02,-122 1301.02,-86 1386.98,-86 1386.98,-122"/>
<text text-anchor="middle" x="1344" y="-99.8" font-family="Times,serif" font-size="14.00">UserModule</text>
</g>
<!-- UserModule&#45;&gt;CommentModule -->
<g id="edge3" class="edge">
<title>UserModule&#45;&gt;CommentModule</title>
<path fill="none" stroke="black" d="M1344,-122.27C1344,-140.56 1344,-166 1344,-166 1344,-166 991.52,-166 991.52,-166"/>
<polygon fill="black" stroke="black" points="991.52,-162.5 981.52,-166 991.52,-169.5 991.52,-162.5"/>
</g>
<!-- CommentService  -->
<g id="node5" class="node">
<title>CommentService </title>
<polygon fill="#fb8072" stroke="black" points="1056.2,-252 939.8,-252 939.8,-216 1056.2,-216 1056.2,-252"/>
<text text-anchor="middle" x="998" y="-229.8" font-family="Times,serif" font-size="14.00">CommentService </text>
</g>
<!-- CommentModule&#45;&gt;CommentService  -->
<g id="edge4" class="edge">
<title>CommentModule&#45;&gt;CommentService </title>
<path fill="none" stroke="black" stroke-dasharray="5,2" d="M960.52,-187.11C960.52,-187.11 960.52,-205.99 960.52,-205.99"/>
<polygon fill="black" stroke="black" points="957.02,-205.99 960.52,-215.99 964.02,-205.99 957.02,-205.99"/>
</g>
<!-- CommentStatsService  -->
<g id="node6" class="node">
<title>CommentStatsService </title>
<polygon fill="#fb8072" stroke="black" points="921.92,-252 778.08,-252 778.08,-216 921.92,-216 921.92,-252"/>
<text text-anchor="middle" x="850" y="-229.8" font-family="Times,serif" font-size="14.00">CommentStatsService </text>
</g>
<!-- CommentModule&#45;&gt;CommentStatsService  -->
<g id="edge5" class="edge">
<title>CommentModule&#45;&gt;CommentStatsService </title>
<path fill="none" stroke="black" stroke-dasharray="5,2" d="M894.29,-187.11C894.29,-187.11 894.29,-205.99 894.29,-205.99"/>
<polygon fill="black" stroke="black" points="890.79,-205.99 894.29,-215.99 897.79,-205.99 890.79,-205.99"/>
</g>
<!-- CommentAkismetService -->
<g id="node7" class="node">
<title>CommentAkismetService</title>
<ellipse fill="#fdb462" stroke="black" cx="1166" cy="-104" rx="110.61" ry="18"/>
<text text-anchor="middle" x="1166" y="-99.8" font-family="Times,serif" font-size="14.00">CommentAkismetService</text>
</g>
<!-- CommentAkismetService&#45;&gt;CommentModule -->
<g id="edge6" class="edge">
<title>CommentAkismetService&#45;&gt;CommentModule</title>
<path fill="none" stroke="black" d="M1166.58,-122.01C1166.58,-138.05 1166.58,-159 1166.58,-159 1166.58,-159 991.49,-159 991.49,-159"/>
<polygon fill="black" stroke="black" points="991.49,-155.5 981.49,-159 991.49,-162.5 991.49,-155.5"/>
</g>
<!-- CommentBlocklistService -->
<g id="node8" class="node">
<title>CommentBlocklistService</title>
<ellipse fill="#fdb462" stroke="black" cx="924" cy="-104" rx="112.92" ry="18"/>
<text text-anchor="middle" x="924" y="-99.8" font-family="Times,serif" font-size="14.00">CommentBlocklistService</text>
</g>
<!-- CommentBlocklistService&#45;&gt;CommentModule -->
<g id="edge7" class="edge">
<title>CommentBlocklistService&#45;&gt;CommentModule</title>
<path fill="none" stroke="black" d="M924,-122.11C924,-122.11 924,-140.99 924,-140.99"/>
<polygon fill="black" stroke="black" points="920.5,-140.99 924,-150.99 927.5,-140.99 920.5,-140.99"/>
</g>
<!-- CommentEffectService -->
<g id="node9" class="node">
<title>CommentEffectService</title>
<ellipse fill="#fdb462" stroke="black" cx="691" cy="-104" rx="101.84" ry="18"/>
<text text-anchor="middle" x="691" y="-99.8" font-family="Times,serif" font-size="14.00">CommentEffectService</text>
</g>
<!-- CommentEffectService&#45;&gt;CommentModule -->
<g id="edge8" class="edge">
<title>CommentEffectService&#45;&gt;CommentModule</title>
<path fill="none" stroke="black" d="M785.35,-110.74C785.35,-125.43 785.35,-159 785.35,-159 785.35,-159 856.41,-159 856.41,-159"/>
<polygon fill="black" stroke="black" points="856.41,-162.5 866.41,-159 856.41,-155.5 856.41,-162.5"/>
</g>
<!-- CommentListener -->
<g id="node10" class="node">
<title>CommentListener</title>
<ellipse fill="#fdb462" stroke="black" cx="491" cy="-104" rx="80.54" ry="18"/>
<text text-anchor="middle" x="491" y="-99.8" font-family="Times,serif" font-size="14.00">CommentListener</text>
</g>
<!-- CommentListener&#45;&gt;CommentModule -->
<g id="edge9" class="edge">
<title>CommentListener&#45;&gt;CommentModule</title>
<path fill="none" stroke="black" d="M491,-122.27C491,-140.56 491,-166 491,-166 491,-166 856.5,-166 856.5,-166"/>
<polygon fill="black" stroke="black" points="856.5,-169.5 866.5,-166 856.5,-162.5 856.5,-169.5"/>
</g>
<!-- CommentService -->
<g id="node11" class="node">
<title>CommentService</title>
<ellipse fill="#fdb462" stroke="black" cx="314" cy="-104" rx="78.17" ry="18"/>
<text text-anchor="middle" x="314" y="-99.8" font-family="Times,serif" font-size="14.00">CommentService</text>
</g>
<!-- CommentService&#45;&gt;CommentModule -->
<g id="edge10" class="edge">
<title>CommentService&#45;&gt;CommentModule</title>
<path fill="none" stroke="black" d="M314,-122.13C314,-142.57 314,-173 314,-173 314,-173 856.61,-173 856.61,-173"/>
<polygon fill="black" stroke="black" points="856.61,-176.5 866.61,-173 856.61,-169.5 856.61,-176.5"/>
</g>
<!-- CommentStatsService -->
<g id="node12" class="node">
<title>CommentStatsService</title>
<ellipse fill="#fdb462" stroke="black" cx="121" cy="-104" rx="96.72" ry="18"/>
<text text-anchor="middle" x="121" y="-99.8" font-family="Times,serif" font-size="14.00">CommentStatsService</text>
</g>
<!-- CommentStatsService&#45;&gt;CommentModule -->
<g id="edge11" class="edge">
<title>CommentStatsService&#45;&gt;CommentModule</title>
<path fill="none" stroke="black" d="M121,-122.01C121,-144.49 121,-180 121,-180 121,-180 856.57,-180 856.57,-180"/>
<polygon fill="black" stroke="black" points="856.57,-183.5 866.57,-180 856.57,-176.5 856.57,-183.5"/>
</g>
</g>
</svg>
