<?xml version="1.0" encoding="UTF-8" standalone="no"?>
<!DOCTYPE svg PUBLIC "-//W3C//DTD SVG 1.1//EN"
 "http://www.w3.org/Graphics/SVG/1.1/DTD/svg11.dtd">
<!-- Generated by graphviz version 2.47.0 (20210316.0004)
 -->
<!-- Title: dependencies Pages: 1 -->
<svg width="1657pt" height="284pt"
 viewBox="0.00 0.00 1657.00 284.00" xmlns="http://www.w3.org/2000/svg" xmlns:xlink="http://www.w3.org/1999/xlink">
<g id="graph0" class="graph" transform="scale(1 1) rotate(0) translate(4 280)">
<title>dependencies</title>
<polygon fill="white" stroke="transparent" points="-4,4 -4,-280 1653,-280 1653,4 -4,4"/>
<text text-anchor="start" x="803.51" y="-42.4" font-family="Times-12" font-weight="bold" font-size="14.00">Legend</text>
<polygon fill="#ffffb3" stroke="transparent" points="590.5,-10 590.5,-30 610.5,-30 610.5,-10 590.5,-10"/>
<text text-anchor="start" x="614.13" y="-15.4" font-family="Times-12" font-size="14.00"> &#160;Declarations</text>
<polygon fill="#8dd3c7" stroke="transparent" points="703.5,-10 703.5,-30 723.5,-30 723.5,-10 703.5,-10"/>
<text text-anchor="start" x="727.23" y="-15.4" font-family="Times-12" font-size="14.00"> &#160;Module</text>
<polygon fill="#80b1d3" stroke="transparent" points="789.5,-10 789.5,-30 809.5,-30 809.5,-10 789.5,-10"/>
<text text-anchor="start" x="813.28" y="-15.4" font-family="Times-12" font-size="14.00"> &#160;Bootstrap</text>
<polygon fill="#fdb462" stroke="transparent" points="886.5,-10 886.5,-30 906.5,-30 906.5,-10 886.5,-10"/>
<text text-anchor="start" x="910.17" y="-15.4" font-family="Times-12" font-size="14.00"> &#160;Providers</text>
<polygon fill="#fb8072" stroke="transparent" points="982.5,-10 982.5,-30 1002.5,-30 1002.5,-10 982.5,-10"/>
<text text-anchor="start" x="1006.23" y="-15.4" font-family="Times-12" font-size="14.00"> &#160;Exports</text>
<g id="clust1" class="cluster">
<title>cluster_CommentModule</title>
<polygon fill="none" stroke="black" stroke-dasharray="1,5" points="8,-70 8,-268 1641,-268 1641,-70 8,-70"/>
</g>
<g id="clust6" class="cluster">
<title>cluster_CommentModule_providers</title>
<polygon fill="none" stroke="black" points="364,-78 364,-130 1633,-130 1633,-78 364,-78"/>
</g>
<g id="clust4" class="cluster">
<title>cluster_CommentModule_exports</title>
<polygon fill="none" stroke="black" points="508,-208 508,-260 802,-260 802,-208 508,-208"/>
</g>
<g id="clust3" class="cluster">
<title>cluster_CommentModule_imports</title>
<polygon fill="none" stroke="black" points="16,-78 16,-130 356,-130 356,-78 16,-78"/>
</g>
<!-- ArticleModule -->
<g id="node1" class="node">
<title>ArticleModule</title>
<polygon fill="#8dd3c7" stroke="black" points="348.42,-122 345.42,-126 324.42,-126 321.42,-122 249.58,-122 249.58,-86 348.42,-86 348.42,-122"/>
<text text-anchor="middle" x="299" y="-99.8" font-family="Times,serif" font-size="14.00">ArticleModule</text>
</g>
<!-- CommentModule -->
<g id="node4" class="node">
<title>CommentModule</title>
<polygon fill="#8dd3c7" stroke="black" points="719.27,-187 716.27,-191 695.27,-191 692.27,-187 604.73,-187 604.73,-151 719.27,-151 719.27,-187"/>
<text text-anchor="middle" x="662" y="-164.8" font-family="Times,serif" font-size="14.00">CommentModule</text>
</g>
<!-- ArticleModule&#45;&gt;CommentModule -->
<g id="edge1" class="edge">
<title>ArticleModule&#45;&gt;CommentModule</title>
<path fill="none" stroke="black" d="M299,-122.27C299,-140.56 299,-166 299,-166 299,-166 594.48,-166 594.48,-166"/>
<polygon fill="black" stroke="black" points="594.48,-169.5 604.48,-166 594.48,-162.5 594.48,-169.5"/>
</g>
<!-- OptionsModule -->
<g id="node2" class="node">
<title>OptionsModule</title>
<polygon fill="#8dd3c7" stroke="black" points="231.88,-122 228.88,-126 207.88,-126 204.88,-122 128.12,-122 128.12,-86 231.88,-86 231.88,-122"/>
<text text-anchor="middle" x="180" y="-99.8" font-family="Times,serif" font-size="14.00">OptionsModule</text>
</g>
<!-- OptionsModule&#45;&gt;CommentModule -->
<g id="edge2" class="edge">
<title>OptionsModule&#45;&gt;CommentModule</title>
<path fill="none" stroke="black" d="M180,-122.13C180,-142.57 180,-173 180,-173 180,-173 594.34,-173 594.34,-173"/>
<polygon fill="black" stroke="black" points="594.34,-176.5 604.34,-173 594.34,-169.5 594.34,-176.5"/>
</g>
<!-- UserModule -->
<g id="node3" class="node">
<title>UserModule</title>
<polygon fill="#8dd3c7" stroke="black" points="109.98,-122 106.98,-126 85.98,-126 82.98,-122 24.02,-122 24.02,-86 109.98,-86 109.98,-122"/>
<text text-anchor="middle" x="67" y="-99.8" font-family="Times,serif" font-size="14.00">UserModule</text>
</g>
<!-- UserModule&#45;&gt;CommentModule -->
<g id="edge3" class="edge">
<title>UserModule&#45;&gt;CommentModule</title>
<path fill="none" stroke="black" d="M67,-122.01C67,-144.49 67,-180 67,-180 67,-180 594.68,-180 594.68,-180"/>
<polygon fill="black" stroke="black" points="594.68,-183.5 604.68,-180 594.68,-176.5 594.68,-183.5"/>
</g>
<!-- CommentService  -->
<g id="node5" class="node">
<title>CommentService </title>
<polygon fill="#fb8072" stroke="black" points="794.2,-252 677.8,-252 677.8,-216 794.2,-216 794.2,-252"/>
<text text-anchor="middle" x="736" y="-229.8" font-family="Times,serif" font-size="14.00">CommentService </text>
</g>
<!-- CommentModule&#45;&gt;CommentService  -->
<g id="edge4" class="edge">
<title>CommentModule&#45;&gt;CommentService </title>
<path fill="none" stroke="black" stroke-dasharray="5,2" d="M698.52,-187.11C698.52,-187.11 698.52,-205.99 698.52,-205.99"/>
<polygon fill="black" stroke="black" points="695.02,-205.99 698.52,-215.99 702.02,-205.99 695.02,-205.99"/>
</g>
<!-- CommentStatsService  -->
<g id="node6" class="node">
<title>CommentStatsService </title>
<polygon fill="#fb8072" stroke="black" points="659.92,-252 516.08,-252 516.08,-216 659.92,-216 659.92,-252"/>
<text text-anchor="middle" x="588" y="-229.8" font-family="Times,serif" font-size="14.00">CommentStatsService </text>
</g>
<!-- CommentModule&#45;&gt;CommentStatsService  -->
<g id="edge5" class="edge">
<title>CommentModule&#45;&gt;CommentStatsService </title>
<path fill="none" stroke="black" stroke-dasharray="5,2" d="M632.29,-187.11C632.29,-187.11 632.29,-205.99 632.29,-205.99"/>
<polygon fill="black" stroke="black" points="628.79,-205.99 632.29,-215.99 635.79,-205.99 628.79,-205.99"/>
</g>
<!-- CommentAkismetService -->
<g id="node7" class="node">
<title>CommentAkismetService</title>
<ellipse fill="#fdb462" stroke="black" cx="1514" cy="-104" rx="110.61" ry="18"/>
<text text-anchor="middle" x="1514" y="-99.8" font-family="Times,serif" font-size="14.00">CommentAkismetService</text>
</g>
<!-- CommentAkismetService&#45;&gt;CommentModule -->
<g id="edge6" class="edge">
<title>CommentAkismetService&#45;&gt;CommentModule</title>
<path fill="none" stroke="black" d="M1514,-122.01C1514,-144.49 1514,-180 1514,-180 1514,-180 729.56,-180 729.56,-180"/>
<polygon fill="black" stroke="black" points="729.56,-176.5 719.56,-180 729.56,-183.5 729.56,-176.5"/>
</g>
<!-- CommentBlocklistService -->
<g id="node8" class="node">
<title>CommentBlocklistService</title>
<ellipse fill="#fdb462" stroke="black" cx="1272" cy="-104" rx="112.92" ry="18"/>
<text text-anchor="middle" x="1272" y="-99.8" font-family="Times,serif" font-size="14.00">CommentBlocklistService</text>
</g>
<!-- CommentBlocklistService&#45;&gt;CommentModule -->
<g id="edge7" class="edge">
<title>CommentBlocklistService&#45;&gt;CommentModule</title>
<path fill="none" stroke="black" d="M1272,-122.13C1272,-142.57 1272,-173 1272,-173 1272,-173 729.39,-173 729.39,-173"/>
<polygon fill="black" stroke="black" points="729.39,-169.5 719.39,-173 729.39,-176.5 729.39,-169.5"/>
</g>
<!-- CommentEffectService -->
<g id="node9" class="node">
<title>CommentEffectService</title>
<ellipse fill="#fdb462" stroke="black" cx="1039" cy="-104" rx="101.84" ry="18"/>
<text text-anchor="middle" x="1039" y="-99.8" font-family="Times,serif" font-size="14.00">CommentEffectService</text>
</g>
<!-- CommentEffectService&#45;&gt;CommentModule -->
<g id="edge8" class="edge">
<title>CommentEffectService&#45;&gt;CommentModule</title>
<path fill="none" stroke="black" d="M1039,-122.27C1039,-140.56 1039,-166 1039,-166 1039,-166 729.67,-166 729.67,-166"/>
<polygon fill="black" stroke="black" points="729.67,-162.5 719.67,-166 729.67,-169.5 729.67,-162.5"/>
</g>
<!-- CommentListener -->
<g id="node10" class="node">
<title>CommentListener</title>
<ellipse fill="#fdb462" stroke="black" cx="839" cy="-104" rx="80.54" ry="18"/>
<text text-anchor="middle" x="839" y="-99.8" font-family="Times,serif" font-size="14.00">CommentListener</text>
</g>
<!-- CommentListener&#45;&gt;CommentModule -->
<g id="edge9" class="edge">
<title>CommentListener&#45;&gt;CommentModule</title>
<path fill="none" stroke="black" d="M776.29,-115.4C776.29,-131.51 776.29,-159 776.29,-159 776.29,-159 729.48,-159 729.48,-159"/>
<polygon fill="black" stroke="black" points="729.48,-155.5 719.48,-159 729.48,-162.5 729.48,-155.5"/>
</g>
<!-- CommentService -->
<g id="node11" class="node">
<title>CommentService</title>
<ellipse fill="#fdb462" stroke="black" cx="662" cy="-104" rx="78.17" ry="18"/>
<text text-anchor="middle" x="662" y="-99.8" font-family="Times,serif" font-size="14.00">CommentService</text>
</g>
<!-- CommentService&#45;&gt;CommentModule -->
<g id="edge10" class="edge">
<title>CommentService&#45;&gt;CommentModule</title>
<path fill="none" stroke="black" d="M662,-122.11C662,-122.11 662,-140.99 662,-140.99"/>
<polygon fill="black" stroke="black" points="658.5,-140.99 662,-150.99 665.5,-140.99 658.5,-140.99"/>
</g>
<!-- CommentStatsService -->
<g id="node12" class="node">
<title>CommentStatsService</title>
<ellipse fill="#fdb462" stroke="black" cx="469" cy="-104" rx="96.72" ry="18"/>
<text text-anchor="middle" x="469" y="-99.8" font-family="Times,serif" font-size="14.00">CommentStatsService</text>
</g>
<!-- CommentStatsService&#45;&gt;CommentModule -->
<g id="edge11" class="edge">
<title>CommentStatsService&#45;&gt;CommentModule</title>
<path fill="none" stroke="black" d="M540.95,-116.21C540.95,-132.41 540.95,-159 540.95,-159 540.95,-159 594.67,-159 594.67,-159"/>
<polygon fill="black" stroke="black" points="594.67,-162.5 604.67,-159 594.67,-155.5 594.67,-162.5"/>
</g>
</g>
</svg>
