<?xml version="1.0" encoding="UTF-8" standalone="no"?>
<!DOCTYPE svg PUBLIC "-//W3C//DTD SVG 1.1//EN"
 "http://www.w3.org/Graphics/SVG/1.1/DTD/svg11.dtd">
<!-- Generated by graphviz version 2.47.0 (20210316.0004)
 -->
<!-- Title: dependencies Pages: 1 -->
<svg width="504pt" height="284pt"
 viewBox="0.00 0.00 504.00 284.00" xmlns="http://www.w3.org/2000/svg" xmlns:xlink="http://www.w3.org/1999/xlink">
<g id="graph0" class="graph" transform="scale(1 1) rotate(0) translate(4 280)">
<title>dependencies</title>
<polygon fill="white" stroke="transparent" points="-4,4 -4,-280 500,-280 500,4 -4,4"/>
<text text-anchor="start" x="227.01" y="-42.4" font-family="Times-12" font-weight="bold" font-size="14.00">Legend</text>
<polygon fill="#ffffb3" stroke="transparent" points="14,-10 14,-30 34,-30 34,-10 14,-10"/>
<text text-anchor="start" x="37.63" y="-15.4" font-family="Times-12" font-size="14.00"> &#160;Declarations</text>
<polygon fill="#8dd3c7" stroke="transparent" points="127,-10 127,-30 147,-30 147,-10 127,-10"/>
<text text-anchor="start" x="150.73" y="-15.4" font-family="Times-12" font-size="14.00"> &#160;Module</text>
<polygon fill="#80b1d3" stroke="transparent" points="213,-10 213,-30 233,-30 233,-10 213,-10"/>
<text text-anchor="start" x="236.78" y="-15.4" font-family="Times-12" font-size="14.00"> &#160;Bootstrap</text>
<polygon fill="#fdb462" stroke="transparent" points="310,-10 310,-30 330,-30 330,-10 310,-10"/>
<text text-anchor="start" x="333.67" y="-15.4" font-family="Times-12" font-size="14.00"> &#160;Providers</text>
<polygon fill="#fb8072" stroke="transparent" points="406,-10 406,-30 426,-30 426,-10 406,-10"/>
<text text-anchor="start" x="429.73" y="-15.4" font-family="Times-12" font-size="14.00"> &#160;Exports</text>
<g id="clust1" class="cluster">
<title>cluster_CommentModule</title>
<polygon fill="none" stroke="black" stroke-dasharray="1,5" points="35,-70 35,-268 461,-268 461,-70 35,-70"/>
</g>
<g id="clust4" class="cluster">
<title>cluster_CommentModule_exports</title>
<polygon fill="none" stroke="black" points="214,-208 214,-260 346,-260 346,-208 214,-208"/>
</g>
<g id="clust3" class="cluster">
<title>cluster_CommentModule_imports</title>
<polygon fill="none" stroke="black" points="223,-78 223,-130 453,-130 453,-78 223,-78"/>
</g>
<g id="clust6" class="cluster">
<title>cluster_CommentModule_providers</title>
<polygon fill="none" stroke="black" points="43,-78 43,-130 215,-130 215,-78 43,-78"/>
</g>
<!-- ArticleModule -->
<g id="node1" class="node">
<title>ArticleModule</title>
<polygon fill="#8dd3c7" stroke="black" points="445.42,-122 442.42,-126 421.42,-126 418.42,-122 346.58,-122 346.58,-86 445.42,-86 445.42,-122"/>
<text text-anchor="middle" x="396" y="-99.8" font-family="Times,serif" font-size="14.00">ArticleModule</text>
</g>
<!-- CommentModule -->
<g id="node3" class="node">
<title>CommentModule</title>
<polygon fill="#8dd3c7" stroke="black" points="337.27,-187 334.27,-191 313.27,-191 310.27,-187 222.73,-187 222.73,-151 337.27,-151 337.27,-187"/>
<text text-anchor="middle" x="280" y="-164.8" font-family="Times,serif" font-size="14.00">CommentModule</text>
</g>
<!-- ArticleModule&#45;&gt;CommentModule -->
<g id="edge1" class="edge">
<title>ArticleModule&#45;&gt;CommentModule</title>
<path fill="none" stroke="black" d="M346.6,-104C338.83,-104 333.3,-104 333.3,-104 333.3,-104 333.3,-140.89 333.3,-140.89"/>
<polygon fill="black" stroke="black" points="329.8,-140.89 333.3,-150.89 336.8,-140.89 329.8,-140.89"/>
</g>
<!-- OptionModule -->
<g id="node2" class="node">
<title>OptionModule</title>
<polygon fill="#8dd3c7" stroke="black" points="329.44,-122 326.44,-126 305.44,-126 302.44,-122 230.56,-122 230.56,-86 329.44,-86 329.44,-122"/>
<text text-anchor="middle" x="280" y="-99.8" font-family="Times,serif" font-size="14.00">OptionModule</text>
</g>
<!-- OptionModule&#45;&gt;CommentModule -->
<g id="edge2" class="edge">
<title>OptionModule&#45;&gt;CommentModule</title>
<path fill="none" stroke="black" d="M280,-122.11C280,-122.11 280,-140.99 280,-140.99"/>
<polygon fill="black" stroke="black" points="276.5,-140.99 280,-150.99 283.5,-140.99 276.5,-140.99"/>
</g>
<!-- CommentService  -->
<g id="node4" class="node">
<title>CommentService </title>
<polygon fill="#fb8072" stroke="black" points="338.2,-252 221.8,-252 221.8,-216 338.2,-216 338.2,-252"/>
<text text-anchor="middle" x="280" y="-229.8" font-family="Times,serif" font-size="14.00">CommentService </text>
</g>
<!-- CommentModule&#45;&gt;CommentService  -->
<g id="edge3" class="edge">
<title>CommentModule&#45;&gt;CommentService </title>
<path fill="none" stroke="black" stroke-dasharray="5,2" d="M280,-187.11C280,-187.11 280,-205.99 280,-205.99"/>
<polygon fill="black" stroke="black" points="276.5,-205.99 280,-215.99 283.5,-205.99 276.5,-205.99"/>
</g>
<!-- CommentService -->
<g id="node5" class="node">
<title>CommentService</title>
<ellipse fill="#fdb462" stroke="black" cx="129" cy="-104" rx="78.17" ry="18"/>
<text text-anchor="middle" x="129" y="-99.8" font-family="Times,serif" font-size="14.00">CommentService</text>
</g>
<!-- CommentService&#45;&gt;CommentModule -->
<g id="edge4" class="edge">
<title>CommentService&#45;&gt;CommentModule</title>
<path fill="none" stroke="black" d="M207.4,-104C218.75,-104 226.7,-104 226.7,-104 226.7,-104 226.7,-140.89 226.7,-140.89"/>
<polygon fill="black" stroke="black" points="223.2,-140.89 226.7,-150.89 230.2,-140.89 223.2,-140.89"/>
</g>
</g>
</svg>
