<?xml version="1.0" encoding="UTF-8" standalone="no"?>
<!DOCTYPE svg PUBLIC "-//W3C//DTD SVG 1.1//EN"
 "http://www.w3.org/Graphics/SVG/1.1/DTD/svg11.dtd">
<!-- Generated by graphviz version 2.47.0 (20210316.0004)
 -->
<!-- Title: dependencies Pages: 1 -->
<svg width="504pt" height="284pt"
 viewBox="0.00 0.00 504.00 284.00" xmlns="http://www.w3.org/2000/svg" xmlns:xlink="http://www.w3.org/1999/xlink">
<g id="graph0" class="graph" transform="scale(1 1) rotate(0) translate(4 280)">
<title>dependencies</title>
<polygon fill="white" stroke="transparent" points="-4,4 -4,-280 500,-280 500,4 -4,4"/>
<text text-anchor="start" x="227.01" y="-42.4" font-family="Times-12" font-weight="bold" font-size="14.00">Legend</text>
<polygon fill="#ffffb3" stroke="transparent" points="14,-10 14,-30 34,-30 34,-10 14,-10"/>
<text text-anchor="start" x="37.63" y="-15.4" font-family="Times-12" font-size="14.00"> &#160;Declarations</text>
<polygon fill="#8dd3c7" stroke="transparent" points="127,-10 127,-30 147,-30 147,-10 127,-10"/>
<text text-anchor="start" x="150.73" y="-15.4" font-family="Times-12" font-size="14.00"> &#160;Module</text>
<polygon fill="#80b1d3" stroke="transparent" points="213,-10 213,-30 233,-30 233,-10 213,-10"/>
<text text-anchor="start" x="236.78" y="-15.4" font-family="Times-12" font-size="14.00"> &#160;Bootstrap</text>
<polygon fill="#fdb462" stroke="transparent" points="310,-10 310,-30 330,-30 330,-10 310,-10"/>
<text text-anchor="start" x="333.67" y="-15.4" font-family="Times-12" font-size="14.00"> &#160;Providers</text>
<polygon fill="#fb8072" stroke="transparent" points="406,-10 406,-30 426,-30 426,-10 406,-10"/>
<text text-anchor="start" x="429.73" y="-15.4" font-family="Times-12" font-size="14.00"> &#160;Exports</text>
<g id="clust1" class="cluster">
<title>cluster_CommentModule</title>
<polygon fill="none" stroke="black" stroke-dasharray="1,5" points="35,-70 35,-268 461,-268 461,-70 35,-70"/>
</g>
<g id="clust4" class="cluster">
<title>cluster_CommentModule_exports</title>
<polygon fill="none" stroke="black" points="150,-208 150,-260 282,-260 282,-208 150,-208"/>
</g>
<g id="clust6" class="cluster">
<title>cluster_CommentModule_providers</title>
<polygon fill="none" stroke="black" points="281,-78 281,-130 453,-130 453,-78 281,-78"/>
</g>
<g id="clust3" class="cluster">
<title>cluster_CommentModule_imports</title>
<polygon fill="none" stroke="black" points="43,-78 43,-130 273,-130 273,-78 43,-78"/>
</g>
<!-- ArticleModule -->
<g id="node1" class="node">
<title>ArticleModule</title>
<polygon fill="#8dd3c7" stroke="black" points="265.42,-122 262.42,-126 241.42,-126 238.42,-122 166.58,-122 166.58,-86 265.42,-86 265.42,-122"/>
<text text-anchor="middle" x="216" y="-99.8" font-family="Times,serif" font-size="14.00">ArticleModule</text>
</g>
<!-- CommentModule -->
<g id="node3" class="node">
<title>CommentModule</title>
<polygon fill="#8dd3c7" stroke="black" points="273.27,-187 270.27,-191 249.27,-191 246.27,-187 158.73,-187 158.73,-151 273.27,-151 273.27,-187"/>
<text text-anchor="middle" x="216" y="-164.8" font-family="Times,serif" font-size="14.00">CommentModule</text>
</g>
<!-- ArticleModule&#45;&gt;CommentModule -->
<g id="edge1" class="edge">
<title>ArticleModule&#45;&gt;CommentModule</title>
<path fill="none" stroke="black" d="M216,-122.11C216,-122.11 216,-140.99 216,-140.99"/>
<polygon fill="black" stroke="black" points="212.5,-140.99 216,-150.99 219.5,-140.99 212.5,-140.99"/>
</g>
<!-- OptionModule -->
<g id="node2" class="node">
<title>OptionModule</title>
<polygon fill="#8dd3c7" stroke="black" points="149.44,-122 146.44,-126 125.44,-126 122.44,-122 50.56,-122 50.56,-86 149.44,-86 149.44,-122"/>
<text text-anchor="middle" x="100" y="-99.8" font-family="Times,serif" font-size="14.00">OptionModule</text>
</g>
<!-- OptionModule&#45;&gt;CommentModule -->
<g id="edge2" class="edge">
<title>OptionModule&#45;&gt;CommentModule</title>
<path fill="none" stroke="black" d="M149.4,-104C157.18,-104 162.7,-104 162.7,-104 162.7,-104 162.7,-140.89 162.7,-140.89"/>
<polygon fill="black" stroke="black" points="159.2,-140.89 162.7,-150.89 166.2,-140.89 159.2,-140.89"/>
</g>
<!-- CommentService  -->
<g id="node4" class="node">
<title>CommentService </title>
<polygon fill="#fb8072" stroke="black" points="274.2,-252 157.8,-252 157.8,-216 274.2,-216 274.2,-252"/>
<text text-anchor="middle" x="216" y="-229.8" font-family="Times,serif" font-size="14.00">CommentService </text>
</g>
<!-- CommentModule&#45;&gt;CommentService  -->
<g id="edge3" class="edge">
<title>CommentModule&#45;&gt;CommentService </title>
<path fill="none" stroke="black" stroke-dasharray="5,2" d="M216,-187.11C216,-187.11 216,-205.99 216,-205.99"/>
<polygon fill="black" stroke="black" points="212.5,-205.99 216,-215.99 219.5,-205.99 212.5,-205.99"/>
</g>
<!-- CommentService -->
<g id="node5" class="node">
<title>CommentService</title>
<ellipse fill="#fdb462" stroke="black" cx="367" cy="-104" rx="78.17" ry="18"/>
<text text-anchor="middle" x="367" y="-99.8" font-family="Times,serif" font-size="14.00">CommentService</text>
</g>
<!-- CommentService&#45;&gt;CommentModule -->
<g id="edge4" class="edge">
<title>CommentService&#45;&gt;CommentModule</title>
<path fill="none" stroke="black" d="M288.6,-104C277.24,-104 269.3,-104 269.3,-104 269.3,-104 269.3,-140.89 269.3,-140.89"/>
<polygon fill="black" stroke="black" points="265.8,-140.89 269.3,-150.89 272.8,-140.89 265.8,-140.89"/>
</g>
</g>
</svg>
