<?xml version="1.0" encoding="UTF-8" standalone="no"?>
<!DOCTYPE svg PUBLIC "-//W3C//DTD SVG 1.1//EN"
 "http://www.w3.org/Graphics/SVG/1.1/DTD/svg11.dtd">
<!-- Generated by graphviz version 2.47.0 (20210316.0004)
 -->
<!-- Title: dependencies Pages: 1 -->
<svg width="636pt" height="284pt"
 viewBox="0.00 0.00 636.00 284.00" xmlns="http://www.w3.org/2000/svg" xmlns:xlink="http://www.w3.org/1999/xlink">
<g id="graph0" class="graph" transform="scale(1 1) rotate(0) translate(4 280)">
<title>dependencies</title>
<polygon fill="white" stroke="transparent" points="-4,4 -4,-280 632,-280 632,4 -4,4"/>
<text text-anchor="start" x="293.01" y="-42.4" font-family="Times-12" font-weight="bold" font-size="14.00">Legend</text>
<polygon fill="#ffffb3" stroke="transparent" points="80,-10 80,-30 100,-30 100,-10 80,-10"/>
<text text-anchor="start" x="103.63" y="-15.4" font-family="Times-12" font-size="14.00"> &#160;Declarations</text>
<polygon fill="#8dd3c7" stroke="transparent" points="193,-10 193,-30 213,-30 213,-10 193,-10"/>
<text text-anchor="start" x="216.73" y="-15.4" font-family="Times-12" font-size="14.00"> &#160;Module</text>
<polygon fill="#80b1d3" stroke="transparent" points="279,-10 279,-30 299,-30 299,-10 279,-10"/>
<text text-anchor="start" x="302.78" y="-15.4" font-family="Times-12" font-size="14.00"> &#160;Bootstrap</text>
<polygon fill="#fdb462" stroke="transparent" points="376,-10 376,-30 396,-30 396,-10 376,-10"/>
<text text-anchor="start" x="399.67" y="-15.4" font-family="Times-12" font-size="14.00"> &#160;Providers</text>
<polygon fill="#fb8072" stroke="transparent" points="472,-10 472,-30 492,-30 492,-10 472,-10"/>
<text text-anchor="start" x="495.73" y="-15.4" font-family="Times-12" font-size="14.00"> &#160;Exports</text>
<g id="clust1" class="cluster">
<title>cluster_CommentModule</title>
<polygon fill="none" stroke="black" stroke-dasharray="1,5" points="8,-70 8,-268 620,-268 620,-70 8,-70"/>
</g>
<g id="clust4" class="cluster">
<title>cluster_CommentModule_exports</title>
<polygon fill="none" stroke="black" points="204,-208 204,-260 336,-260 336,-208 204,-208"/>
</g>
<g id="clust6" class="cluster">
<title>cluster_CommentModule_providers</title>
<polygon fill="none" stroke="black" points="260,-78 260,-130 612,-130 612,-78 260,-78"/>
</g>
<g id="clust3" class="cluster">
<title>cluster_CommentModule_imports</title>
<polygon fill="none" stroke="black" points="16,-78 16,-130 252,-130 252,-78 16,-78"/>
</g>
<!-- ArticleModule -->
<g id="node1" class="node">
<title>ArticleModule</title>
<polygon fill="#8dd3c7" stroke="black" points="244.42,-122 241.42,-126 220.42,-126 217.42,-122 145.58,-122 145.58,-86 244.42,-86 244.42,-122"/>
<text text-anchor="middle" x="195" y="-99.8" font-family="Times,serif" font-size="14.00">ArticleModule</text>
</g>
<!-- CommentModule -->
<g id="node3" class="node">
<title>CommentModule</title>
<polygon fill="#8dd3c7" stroke="black" points="327.27,-187 324.27,-191 303.27,-191 300.27,-187 212.73,-187 212.73,-151 327.27,-151 327.27,-187"/>
<text text-anchor="middle" x="270" y="-164.8" font-family="Times,serif" font-size="14.00">CommentModule</text>
</g>
<!-- ArticleModule&#45;&gt;CommentModule -->
<g id="edge1" class="edge">
<title>ArticleModule&#45;&gt;CommentModule</title>
<path fill="none" stroke="black" d="M228.41,-122.11C228.41,-122.11 228.41,-140.99 228.41,-140.99"/>
<polygon fill="black" stroke="black" points="224.91,-140.99 228.41,-150.99 231.91,-140.99 224.91,-140.99"/>
</g>
<!-- OptionsModule -->
<g id="node2" class="node">
<title>OptionsModule</title>
<polygon fill="#8dd3c7" stroke="black" points="127.88,-122 124.88,-126 103.88,-126 100.88,-122 24.12,-122 24.12,-86 127.88,-86 127.88,-122"/>
<text text-anchor="middle" x="76" y="-99.8" font-family="Times,serif" font-size="14.00">OptionsModule</text>
</g>
<!-- OptionsModule&#45;&gt;CommentModule -->
<g id="edge2" class="edge">
<title>OptionsModule&#45;&gt;CommentModule</title>
<path fill="none" stroke="black" d="M76,-122.11C76,-141.34 76,-169 76,-169 76,-169 202.58,-169 202.58,-169"/>
<polygon fill="black" stroke="black" points="202.58,-172.5 212.58,-169 202.58,-165.5 202.58,-172.5"/>
</g>
<!-- CommentService  -->
<g id="node4" class="node">
<title>CommentService </title>
<polygon fill="#fb8072" stroke="black" points="328.2,-252 211.8,-252 211.8,-216 328.2,-216 328.2,-252"/>
<text text-anchor="middle" x="270" y="-229.8" font-family="Times,serif" font-size="14.00">CommentService </text>
</g>
<!-- CommentModule&#45;&gt;CommentService  -->
<g id="edge3" class="edge">
<title>CommentModule&#45;&gt;CommentService </title>
<path fill="none" stroke="black" stroke-dasharray="5,2" d="M270,-187.11C270,-187.11 270,-205.99 270,-205.99"/>
<polygon fill="black" stroke="black" points="266.5,-205.99 270,-215.99 273.5,-205.99 266.5,-205.99"/>
</g>
<!-- CommentListener -->
<g id="node5" class="node">
<title>CommentListener</title>
<ellipse fill="#fdb462" stroke="black" cx="523" cy="-104" rx="80.54" ry="18"/>
<text text-anchor="middle" x="523" y="-99.8" font-family="Times,serif" font-size="14.00">CommentListener</text>
</g>
<!-- CommentListener&#45;&gt;CommentModule -->
<g id="edge4" class="edge">
<title>CommentListener&#45;&gt;CommentModule</title>
<path fill="none" stroke="black" d="M523,-122.11C523,-141.34 523,-169 523,-169 523,-169 337.41,-169 337.41,-169"/>
<polygon fill="black" stroke="black" points="337.41,-165.5 327.41,-169 337.41,-172.5 337.41,-165.5"/>
</g>
<!-- CommentService -->
<g id="node6" class="node">
<title>CommentService</title>
<ellipse fill="#fdb462" stroke="black" cx="346" cy="-104" rx="78.17" ry="18"/>
<text text-anchor="middle" x="346" y="-99.8" font-family="Times,serif" font-size="14.00">CommentService</text>
</g>
<!-- CommentService&#45;&gt;CommentModule -->
<g id="edge5" class="edge">
<title>CommentService&#45;&gt;CommentModule</title>
<path fill="none" stroke="black" d="M297.65,-118.43C297.65,-118.43 297.65,-140.89 297.65,-140.89"/>
<polygon fill="black" stroke="black" points="294.15,-140.89 297.65,-150.89 301.15,-140.89 294.15,-140.89"/>
</g>
</g>
</svg>
