<?xml version="1.0" encoding="UTF-8" standalone="no"?>
<!DOCTYPE svg PUBLIC "-//W3C//DTD SVG 1.1//EN"
 "http://www.w3.org/Graphics/SVG/1.1/DTD/svg11.dtd">
<!-- Generated by graphviz version 2.47.3 (20210619.1520)
 -->
<!-- Title: dependencies Pages: 1 -->
<svg width="450pt" height="247pt"
 viewBox="0.00 0.00 450.00 246.80" xmlns="http://www.w3.org/2000/svg" xmlns:xlink="http://www.w3.org/1999/xlink">
<g id="graph0" class="graph" transform="scale(1 1) rotate(0) translate(4 242.8)">
<title>dependencies</title>
<polygon fill="white" stroke="transparent" points="-4,4 -4,-242.8 446,-242.8 446,4 -4,4"/>
<text text-anchor="middle" x="221" y="-8.2" font-family="sans-serif" font-size="14.00">dependencies</text>
<g id="clust1" class="cluster">
<title>cluster_CommentModule</title>
<polygon fill="none" stroke="black" stroke-dasharray="1,5" points="8,-32.8 8,-230.8 434,-230.8 434,-32.8 8,-32.8"/>
</g>
<g id="clust6" class="cluster">
<title>cluster_CommentModule_providers</title>
<polygon fill="none" stroke="black" points="254,-40.8 254,-92.8 426,-92.8 426,-40.8 254,-40.8"/>
</g>
<g id="clust3" class="cluster">
<title>cluster_CommentModule_imports</title>
<polygon fill="none" stroke="black" points="16,-40.8 16,-92.8 246,-92.8 246,-40.8 16,-40.8"/>
</g>
<g id="clust4" class="cluster">
<title>cluster_CommentModule_exports</title>
<polygon fill="none" stroke="black" points="123,-170.8 123,-222.8 255,-222.8 255,-170.8 123,-170.8"/>
</g>
<!-- ArticleModule -->
<g id="node1" class="node">
<title>ArticleModule</title>
<polygon fill="#8dd3c7" stroke="black" points="238.42,-84.8 235.42,-88.8 214.42,-88.8 211.42,-84.8 139.58,-84.8 139.58,-48.8 238.42,-48.8 238.42,-84.8"/>
<text text-anchor="middle" x="189" y="-62.6" font-family="Times,serif" font-size="14.00">ArticleModule</text>
</g>
<!-- CommentModule -->
<g id="node3" class="node">
<title>CommentModule</title>
<polygon fill="#8dd3c7" stroke="black" points="246.27,-149.8 243.27,-153.8 222.27,-153.8 219.27,-149.8 131.73,-149.8 131.73,-113.8 246.27,-113.8 246.27,-149.8"/>
<text text-anchor="middle" x="189" y="-127.6" font-family="Times,serif" font-size="14.00">CommentModule</text>
</g>
<!-- ArticleModule&#45;&gt;CommentModule -->
<g id="edge1" class="edge">
<title>ArticleModule&#45;&gt;CommentModule</title>
<path fill="none" stroke="black" d="M189,-84.91C189,-84.91 189,-103.79 189,-103.79"/>
<polygon fill="black" stroke="black" points="185.5,-103.79 189,-113.79 192.5,-103.79 185.5,-103.79"/>
</g>
<!-- OptionModule -->
<g id="node2" class="node">
<title>OptionModule</title>
<polygon fill="#8dd3c7" stroke="black" points="122.44,-84.8 119.44,-88.8 98.44,-88.8 95.44,-84.8 23.56,-84.8 23.56,-48.8 122.44,-48.8 122.44,-84.8"/>
<text text-anchor="middle" x="73" y="-62.6" font-family="Times,serif" font-size="14.00">OptionModule</text>
</g>
<!-- OptionModule&#45;&gt;CommentModule -->
<g id="edge2" class="edge">
<title>OptionModule&#45;&gt;CommentModule</title>
<path fill="none" stroke="black" d="M122.4,-66.8C130.18,-66.8 135.7,-66.8 135.7,-66.8 135.7,-66.8 135.7,-103.69 135.7,-103.69"/>
<polygon fill="black" stroke="black" points="132.2,-103.69 135.7,-113.69 139.2,-103.69 132.2,-103.69"/>
</g>
<!-- CommentService  -->
<g id="node4" class="node">
<title>CommentService </title>
<polygon fill="#fb8072" stroke="black" points="247.2,-214.8 130.8,-214.8 130.8,-178.8 247.2,-178.8 247.2,-214.8"/>
<text text-anchor="middle" x="189" y="-192.6" font-family="Times,serif" font-size="14.00">CommentService </text>
</g>
<!-- CommentModule&#45;&gt;CommentService  -->
<g id="edge3" class="edge">
<title>CommentModule&#45;&gt;CommentService </title>
<path fill="none" stroke="black" stroke-dasharray="5,2" d="M189,-149.91C189,-149.91 189,-168.79 189,-168.79"/>
<polygon fill="black" stroke="black" points="185.5,-168.79 189,-178.79 192.5,-168.79 185.5,-168.79"/>
</g>
<!-- CommentService -->
<g id="node5" class="node">
<title>CommentService</title>
<ellipse fill="#fdb462" stroke="black" cx="340" cy="-66.8" rx="78.17" ry="18"/>
<text text-anchor="middle" x="340" y="-62.6" font-family="Times,serif" font-size="14.00">CommentService</text>
</g>
<!-- CommentService&#45;&gt;CommentModule -->
<g id="edge4" class="edge">
<title>CommentService&#45;&gt;CommentModule</title>
<path fill="none" stroke="black" d="M261.6,-66.8C250.24,-66.8 242.3,-66.8 242.3,-66.8 242.3,-66.8 242.3,-103.69 242.3,-103.69"/>
<polygon fill="black" stroke="black" points="238.8,-103.69 242.3,-113.69 245.8,-103.69 238.8,-103.69"/>
</g>
</g>
</svg>
