<?xml version="1.0" encoding="UTF-8" standalone="no"?>
<!DOCTYPE svg PUBLIC "-//W3C//DTD SVG 1.1//EN"
 "http://www.w3.org/Graphics/SVG/1.1/DTD/svg11.dtd">
<!-- Generated by graphviz version 2.47.0 (20210316.0004)
 -->
<!-- Title: dependencies Pages: 1 -->
<svg width="822pt" height="284pt"
 viewBox="0.00 0.00 822.00 284.00" xmlns="http://www.w3.org/2000/svg" xmlns:xlink="http://www.w3.org/1999/xlink">
<g id="graph0" class="graph" transform="scale(1 1) rotate(0) translate(4 280)">
<title>dependencies</title>
<polygon fill="white" stroke="transparent" points="-4,4 -4,-280 818,-280 818,4 -4,4"/>
<text text-anchor="start" x="386.01" y="-42.4" font-family="Times-12" font-weight="bold" font-size="14.00">Legend</text>
<polygon fill="#ffffb3" stroke="transparent" points="173,-10 173,-30 193,-30 193,-10 173,-10"/>
<text text-anchor="start" x="196.63" y="-15.4" font-family="Times-12" font-size="14.00"> &#160;Declarations</text>
<polygon fill="#8dd3c7" stroke="transparent" points="286,-10 286,-30 306,-30 306,-10 286,-10"/>
<text text-anchor="start" x="309.73" y="-15.4" font-family="Times-12" font-size="14.00"> &#160;Module</text>
<polygon fill="#80b1d3" stroke="transparent" points="372,-10 372,-30 392,-30 392,-10 372,-10"/>
<text text-anchor="start" x="395.78" y="-15.4" font-family="Times-12" font-size="14.00"> &#160;Bootstrap</text>
<polygon fill="#fdb462" stroke="transparent" points="469,-10 469,-30 489,-30 489,-10 469,-10"/>
<text text-anchor="start" x="492.67" y="-15.4" font-family="Times-12" font-size="14.00"> &#160;Providers</text>
<polygon fill="#fb8072" stroke="transparent" points="565,-10 565,-30 585,-30 585,-10 565,-10"/>
<text text-anchor="start" x="588.73" y="-15.4" font-family="Times-12" font-size="14.00"> &#160;Exports</text>
<g id="clust1" class="cluster">
<title>cluster_DisqusModule</title>
<polygon fill="none" stroke="black" stroke-dasharray="1,5" points="8,-70 8,-268 806,-268 806,-70 8,-70"/>
</g>
<g id="clust3" class="cluster">
<title>cluster_DisqusModule_imports</title>
<polygon fill="none" stroke="black" points="429,-78 429,-130 798,-130 798,-78 429,-78"/>
</g>
<g id="clust6" class="cluster">
<title>cluster_DisqusModule_providers</title>
<polygon fill="none" stroke="black" points="16,-78 16,-130 421,-130 421,-78 16,-78"/>
</g>
<g id="clust4" class="cluster">
<title>cluster_DisqusModule_exports</title>
<polygon fill="none" stroke="black" points="335,-208 335,-260 645,-260 645,-208 335,-208"/>
</g>
<!-- ArticleModule -->
<g id="node1" class="node">
<title>ArticleModule</title>
<polygon fill="#8dd3c7" stroke="black" points="790.42,-122 787.42,-126 766.42,-126 763.42,-122 691.58,-122 691.58,-86 790.42,-86 790.42,-122"/>
<text text-anchor="middle" x="741" y="-99.8" font-family="Times,serif" font-size="14.00">ArticleModule</text>
</g>
<!-- DisqusModule -->
<g id="node4" class="node">
<title>DisqusModule</title>
<polygon fill="#8dd3c7" stroke="black" points="538.44,-187 535.44,-191 514.44,-191 511.44,-187 439.56,-187 439.56,-151 538.44,-151 538.44,-187"/>
<text text-anchor="middle" x="489" y="-164.8" font-family="Times,serif" font-size="14.00">DisqusModule</text>
</g>
<!-- ArticleModule&#45;&gt;DisqusModule -->
<g id="edge1" class="edge">
<title>ArticleModule&#45;&gt;DisqusModule</title>
<path fill="none" stroke="black" d="M741,-122.28C741,-143.32 741,-175 741,-175 741,-175 548.49,-175 548.49,-175"/>
<polygon fill="black" stroke="black" points="548.49,-171.5 538.49,-175 548.49,-178.5 548.49,-171.5"/>
</g>
<!-- CommentModule -->
<g id="node2" class="node">
<title>CommentModule</title>
<polygon fill="#8dd3c7" stroke="black" points="673.27,-122 670.27,-126 649.27,-126 646.27,-122 558.73,-122 558.73,-86 673.27,-86 673.27,-122"/>
<text text-anchor="middle" x="616" y="-99.8" font-family="Times,serif" font-size="14.00">CommentModule</text>
</g>
<!-- CommentModule&#45;&gt;DisqusModule -->
<g id="edge2" class="edge">
<title>CommentModule&#45;&gt;DisqusModule</title>
<path fill="none" stroke="black" d="M597.81,-122.02C597.81,-139.37 597.81,-163 597.81,-163 597.81,-163 548.31,-163 548.31,-163"/>
<polygon fill="black" stroke="black" points="548.31,-159.5 538.31,-163 548.31,-166.5 548.31,-159.5"/>
</g>
<!-- OptionsModule -->
<g id="node3" class="node">
<title>OptionsModule</title>
<polygon fill="#8dd3c7" stroke="black" points="540.88,-122 537.88,-126 516.88,-126 513.88,-122 437.12,-122 437.12,-86 540.88,-86 540.88,-122"/>
<text text-anchor="middle" x="489" y="-99.8" font-family="Times,serif" font-size="14.00">OptionsModule</text>
</g>
<!-- OptionsModule&#45;&gt;DisqusModule -->
<g id="edge3" class="edge">
<title>OptionsModule&#45;&gt;DisqusModule</title>
<path fill="none" stroke="black" d="M489,-122.11C489,-122.11 489,-140.99 489,-140.99"/>
<polygon fill="black" stroke="black" points="485.5,-140.99 489,-150.99 492.5,-140.99 485.5,-140.99"/>
</g>
<!-- DisqusPrivateService  -->
<g id="node5" class="node">
<title>DisqusPrivateService </title>
<polygon fill="#fb8072" stroke="black" points="637.02,-252 496.98,-252 496.98,-216 637.02,-216 637.02,-252"/>
<text text-anchor="middle" x="567" y="-229.8" font-family="Times,serif" font-size="14.00">DisqusPrivateService </text>
</g>
<!-- DisqusModule&#45;&gt;DisqusPrivateService  -->
<g id="edge4" class="edge">
<title>DisqusModule&#45;&gt;DisqusPrivateService </title>
<path fill="none" stroke="black" stroke-dasharray="5,2" d="M517.6,-187.11C517.6,-187.11 517.6,-205.99 517.6,-205.99"/>
<polygon fill="black" stroke="black" points="514.1,-205.99 517.6,-215.99 521.1,-205.99 514.1,-205.99"/>
</g>
<!-- DisqusPublicService  -->
<g id="node6" class="node">
<title>DisqusPublicService </title>
<polygon fill="#fb8072" stroke="black" points="479.14,-252 342.86,-252 342.86,-216 479.14,-216 479.14,-252"/>
<text text-anchor="middle" x="411" y="-229.8" font-family="Times,serif" font-size="14.00">DisqusPublicService </text>
</g>
<!-- DisqusModule&#45;&gt;DisqusPublicService  -->
<g id="edge5" class="edge">
<title>DisqusModule&#45;&gt;DisqusPublicService </title>
<path fill="none" stroke="black" stroke-dasharray="5,2" d="M459.43,-187.11C459.43,-187.11 459.43,-205.99 459.43,-205.99"/>
<polygon fill="black" stroke="black" points="455.93,-205.99 459.43,-215.99 462.93,-205.99 455.93,-205.99"/>
</g>
<!-- DisqusPrivateService -->
<g id="node7" class="node">
<title>DisqusPrivateService</title>
<ellipse fill="#fdb462" stroke="black" cx="319" cy="-104" rx="94.33" ry="18"/>
<text text-anchor="middle" x="319" y="-99.8" font-family="Times,serif" font-size="14.00">DisqusPrivateService</text>
</g>
<!-- DisqusPrivateService&#45;&gt;DisqusModule -->
<g id="edge6" class="edge">
<title>DisqusPrivateService&#45;&gt;DisqusModule</title>
<path fill="none" stroke="black" d="M378.05,-118.28C378.05,-135.74 378.05,-163 378.05,-163 378.05,-163 429.69,-163 429.69,-163"/>
<polygon fill="black" stroke="black" points="429.69,-166.5 439.69,-163 429.69,-159.5 429.69,-166.5"/>
</g>
<!-- DisqusPublicService -->
<g id="node8" class="node">
<title>DisqusPublicService</title>
<ellipse fill="#fdb462" stroke="black" cx="115" cy="-104" rx="91.49" ry="18"/>
<text text-anchor="middle" x="115" y="-99.8" font-family="Times,serif" font-size="14.00">DisqusPublicService</text>
</g>
<!-- DisqusPublicService&#45;&gt;DisqusModule -->
<g id="edge7" class="edge">
<title>DisqusPublicService&#45;&gt;DisqusModule</title>
<path fill="none" stroke="black" d="M115,-122.28C115,-143.32 115,-175 115,-175 115,-175 429.72,-175 429.72,-175"/>
<polygon fill="black" stroke="black" points="429.72,-178.5 439.72,-175 429.72,-171.5 429.72,-178.5"/>
</g>
</g>
</svg>
