<?xml version="1.0" encoding="UTF-8" standalone="no"?>
<!DOCTYPE svg PUBLIC "-//W3C//DTD SVG 1.1//EN"
 "http://www.w3.org/Graphics/SVG/1.1/DTD/svg11.dtd">
<!-- Generated by graphviz version 2.47.0 (20210316.0004)
 -->
<!-- Title: dependencies Pages: 1 -->
<svg width="817pt" height="284pt"
 viewBox="0.00 0.00 817.00 284.00" xmlns="http://www.w3.org/2000/svg" xmlns:xlink="http://www.w3.org/1999/xlink">
<g id="graph0" class="graph" transform="scale(1 1) rotate(0) translate(4 280)">
<title>dependencies</title>
<polygon fill="white" stroke="transparent" points="-4,4 -4,-280 813,-280 813,4 -4,4"/>
<text text-anchor="start" x="383.51" y="-42.4" font-family="Times-12" font-weight="bold" font-size="14.00">Legend</text>
<polygon fill="#ffffb3" stroke="transparent" points="170.5,-10 170.5,-30 190.5,-30 190.5,-10 170.5,-10"/>
<text text-anchor="start" x="194.13" y="-15.4" font-family="Times-12" font-size="14.00"> &#160;Declarations</text>
<polygon fill="#8dd3c7" stroke="transparent" points="283.5,-10 283.5,-30 303.5,-30 303.5,-10 283.5,-10"/>
<text text-anchor="start" x="307.23" y="-15.4" font-family="Times-12" font-size="14.00"> &#160;Module</text>
<polygon fill="#80b1d3" stroke="transparent" points="369.5,-10 369.5,-30 389.5,-30 389.5,-10 369.5,-10"/>
<text text-anchor="start" x="393.28" y="-15.4" font-family="Times-12" font-size="14.00"> &#160;Bootstrap</text>
<polygon fill="#fdb462" stroke="transparent" points="466.5,-10 466.5,-30 486.5,-30 486.5,-10 466.5,-10"/>
<text text-anchor="start" x="490.17" y="-15.4" font-family="Times-12" font-size="14.00"> &#160;Providers</text>
<polygon fill="#fb8072" stroke="transparent" points="562.5,-10 562.5,-30 582.5,-30 582.5,-10 562.5,-10"/>
<text text-anchor="start" x="586.23" y="-15.4" font-family="Times-12" font-size="14.00"> &#160;Exports</text>
<g id="clust1" class="cluster">
<title>cluster_DisqusModule</title>
<polygon fill="none" stroke="black" stroke-dasharray="1,5" points="8,-70 8,-268 801,-268 801,-70 8,-70"/>
</g>
<g id="clust6" class="cluster">
<title>cluster_DisqusModule_providers</title>
<polygon fill="none" stroke="black" points="388,-78 388,-130 793,-130 793,-78 388,-78"/>
</g>
<g id="clust3" class="cluster">
<title>cluster_DisqusModule_imports</title>
<polygon fill="none" stroke="black" points="16,-78 16,-130 380,-130 380,-78 16,-78"/>
</g>
<g id="clust4" class="cluster">
<title>cluster_DisqusModule_exports</title>
<polygon fill="none" stroke="black" points="169,-208 169,-260 479,-260 479,-208 169,-208"/>
</g>
<!-- ArticleModule -->
<g id="node1" class="node">
<title>ArticleModule</title>
<polygon fill="#8dd3c7" stroke="black" points="372.42,-122 369.42,-126 348.42,-126 345.42,-122 273.58,-122 273.58,-86 372.42,-86 372.42,-122"/>
<text text-anchor="middle" x="323" y="-99.8" font-family="Times,serif" font-size="14.00">ArticleModule</text>
</g>
<!-- DisqusModule -->
<g id="node4" class="node">
<title>DisqusModule</title>
<polygon fill="#8dd3c7" stroke="black" points="372.44,-187 369.44,-191 348.44,-191 345.44,-187 273.56,-187 273.56,-151 372.44,-151 372.44,-187"/>
<text text-anchor="middle" x="323" y="-164.8" font-family="Times,serif" font-size="14.00">DisqusModule</text>
</g>
<!-- ArticleModule&#45;&gt;DisqusModule -->
<g id="edge1" class="edge">
<title>ArticleModule&#45;&gt;DisqusModule</title>
<path fill="none" stroke="black" d="M323,-122.11C323,-122.11 323,-140.99 323,-140.99"/>
<polygon fill="black" stroke="black" points="319.5,-140.99 323,-150.99 326.5,-140.99 319.5,-140.99"/>
</g>
<!-- CommentModule -->
<g id="node2" class="node">
<title>CommentModule</title>
<polygon fill="#8dd3c7" stroke="black" points="255.27,-122 252.27,-126 231.27,-126 228.27,-122 140.73,-122 140.73,-86 255.27,-86 255.27,-122"/>
<text text-anchor="middle" x="198" y="-99.8" font-family="Times,serif" font-size="14.00">CommentModule</text>
</g>
<!-- CommentModule&#45;&gt;DisqusModule -->
<g id="edge2" class="edge">
<title>CommentModule&#45;&gt;DisqusModule</title>
<path fill="none" stroke="black" d="M216.16,-122.02C216.16,-139.37 216.16,-163 216.16,-163 216.16,-163 263.64,-163 263.64,-163"/>
<polygon fill="black" stroke="black" points="263.64,-166.5 273.64,-163 263.64,-159.5 263.64,-166.5"/>
</g>
<!-- OptionModule -->
<g id="node3" class="node">
<title>OptionModule</title>
<polygon fill="#8dd3c7" stroke="black" points="122.44,-122 119.44,-126 98.44,-126 95.44,-122 23.56,-122 23.56,-86 122.44,-86 122.44,-122"/>
<text text-anchor="middle" x="73" y="-99.8" font-family="Times,serif" font-size="14.00">OptionModule</text>
</g>
<!-- OptionModule&#45;&gt;DisqusModule -->
<g id="edge3" class="edge">
<title>OptionModule&#45;&gt;DisqusModule</title>
<path fill="none" stroke="black" d="M73,-122.28C73,-143.32 73,-175 73,-175 73,-175 263.61,-175 263.61,-175"/>
<polygon fill="black" stroke="black" points="263.61,-178.5 273.61,-175 263.61,-171.5 263.61,-178.5"/>
</g>
<!-- DisqusPrivateService  -->
<g id="node5" class="node">
<title>DisqusPrivateService </title>
<polygon fill="#fb8072" stroke="black" points="471.02,-252 330.98,-252 330.98,-216 471.02,-216 471.02,-252"/>
<text text-anchor="middle" x="401" y="-229.8" font-family="Times,serif" font-size="14.00">DisqusPrivateService </text>
</g>
<!-- DisqusModule&#45;&gt;DisqusPrivateService  -->
<g id="edge4" class="edge">
<title>DisqusModule&#45;&gt;DisqusPrivateService </title>
<path fill="none" stroke="black" stroke-dasharray="5,2" d="M351.6,-187.11C351.6,-187.11 351.6,-205.99 351.6,-205.99"/>
<polygon fill="black" stroke="black" points="348.1,-205.99 351.6,-215.99 355.1,-205.99 348.1,-205.99"/>
</g>
<!-- DisqusPublicService  -->
<g id="node6" class="node">
<title>DisqusPublicService </title>
<polygon fill="#fb8072" stroke="black" points="313.14,-252 176.86,-252 176.86,-216 313.14,-216 313.14,-252"/>
<text text-anchor="middle" x="245" y="-229.8" font-family="Times,serif" font-size="14.00">DisqusPublicService </text>
</g>
<!-- DisqusModule&#45;&gt;DisqusPublicService  -->
<g id="edge5" class="edge">
<title>DisqusModule&#45;&gt;DisqusPublicService </title>
<path fill="none" stroke="black" stroke-dasharray="5,2" d="M293.43,-187.11C293.43,-187.11 293.43,-205.99 293.43,-205.99"/>
<polygon fill="black" stroke="black" points="289.93,-205.99 293.43,-215.99 296.93,-205.99 289.93,-205.99"/>
</g>
<!-- DisqusPrivateService -->
<g id="node7" class="node">
<title>DisqusPrivateService</title>
<ellipse fill="#fdb462" stroke="black" cx="691" cy="-104" rx="94.33" ry="18"/>
<text text-anchor="middle" x="691" y="-99.8" font-family="Times,serif" font-size="14.00">DisqusPrivateService</text>
</g>
<!-- DisqusPrivateService&#45;&gt;DisqusModule -->
<g id="edge6" class="edge">
<title>DisqusPrivateService&#45;&gt;DisqusModule</title>
<path fill="none" stroke="black" d="M691,-122.28C691,-143.32 691,-175 691,-175 691,-175 382.25,-175 382.25,-175"/>
<polygon fill="black" stroke="black" points="382.25,-171.5 372.25,-175 382.25,-178.5 382.25,-171.5"/>
</g>
<!-- DisqusPublicService -->
<g id="node8" class="node">
<title>DisqusPublicService</title>
<ellipse fill="#fdb462" stroke="black" cx="487" cy="-104" rx="91.49" ry="18"/>
<text text-anchor="middle" x="487" y="-99.8" font-family="Times,serif" font-size="14.00">DisqusPublicService</text>
</g>
<!-- DisqusPublicService&#45;&gt;DisqusModule -->
<g id="edge7" class="edge">
<title>DisqusPublicService&#45;&gt;DisqusModule</title>
<path fill="none" stroke="black" d="M433.26,-118.58C433.26,-136.06 433.26,-163 433.26,-163 433.26,-163 382.32,-163 382.32,-163"/>
<polygon fill="black" stroke="black" points="382.32,-159.5 372.32,-163 382.32,-166.5 382.32,-159.5"/>
</g>
</g>
</svg>
