<?xml version="1.0" encoding="UTF-8" standalone="no"?>
<!DOCTYPE svg PUBLIC "-//W3C//DTD SVG 1.1//EN"
 "http://www.w3.org/Graphics/SVG/1.1/DTD/svg11.dtd">
<!-- Generated by graphviz version 2.47.0 (20210316.0004)
 -->
<!-- Title: dependencies Pages: 1 -->
<svg width="817pt" height="284pt"
 viewBox="0.00 0.00 817.00 284.00" xmlns="http://www.w3.org/2000/svg" xmlns:xlink="http://www.w3.org/1999/xlink">
<g id="graph0" class="graph" transform="scale(1 1) rotate(0) translate(4 280)">
<title>dependencies</title>
<polygon fill="white" stroke="transparent" points="-4,4 -4,-280 813,-280 813,4 -4,4"/>
<text text-anchor="start" x="383.51" y="-42.4" font-family="Times-12" font-weight="bold" font-size="14.00">Legend</text>
<polygon fill="#ffffb3" stroke="transparent" points="170.5,-10 170.5,-30 190.5,-30 190.5,-10 170.5,-10"/>
<text text-anchor="start" x="194.13" y="-15.4" font-family="Times-12" font-size="14.00"> &#160;Declarations</text>
<polygon fill="#8dd3c7" stroke="transparent" points="283.5,-10 283.5,-30 303.5,-30 303.5,-10 283.5,-10"/>
<text text-anchor="start" x="307.23" y="-15.4" font-family="Times-12" font-size="14.00"> &#160;Module</text>
<polygon fill="#80b1d3" stroke="transparent" points="369.5,-10 369.5,-30 389.5,-30 389.5,-10 369.5,-10"/>
<text text-anchor="start" x="393.28" y="-15.4" font-family="Times-12" font-size="14.00"> &#160;Bootstrap</text>
<polygon fill="#fdb462" stroke="transparent" points="466.5,-10 466.5,-30 486.5,-30 486.5,-10 466.5,-10"/>
<text text-anchor="start" x="490.17" y="-15.4" font-family="Times-12" font-size="14.00"> &#160;Providers</text>
<polygon fill="#fb8072" stroke="transparent" points="562.5,-10 562.5,-30 582.5,-30 582.5,-10 562.5,-10"/>
<text text-anchor="start" x="586.23" y="-15.4" font-family="Times-12" font-size="14.00"> &#160;Exports</text>
<g id="clust1" class="cluster">
<title>cluster_DisqusModule</title>
<polygon fill="none" stroke="black" stroke-dasharray="1,5" points="8,-70 8,-268 801,-268 801,-70 8,-70"/>
</g>
<g id="clust3" class="cluster">
<title>cluster_DisqusModule_imports</title>
<polygon fill="none" stroke="black" points="429,-78 429,-130 793,-130 793,-78 429,-78"/>
</g>
<g id="clust4" class="cluster">
<title>cluster_DisqusModule_exports</title>
<polygon fill="none" stroke="black" points="332,-208 332,-260 642,-260 642,-208 332,-208"/>
</g>
<g id="clust6" class="cluster">
<title>cluster_DisqusModule_providers</title>
<polygon fill="none" stroke="black" points="16,-78 16,-130 421,-130 421,-78 16,-78"/>
</g>
<!-- ArticleModule -->
<g id="node1" class="node">
<title>ArticleModule</title>
<polygon fill="#8dd3c7" stroke="black" points="785.42,-122 782.42,-126 761.42,-126 758.42,-122 686.58,-122 686.58,-86 785.42,-86 785.42,-122"/>
<text text-anchor="middle" x="736" y="-99.8" font-family="Times,serif" font-size="14.00">ArticleModule</text>
</g>
<!-- DisqusModule -->
<g id="node4" class="node">
<title>DisqusModule</title>
<polygon fill="#8dd3c7" stroke="black" points="535.44,-187 532.44,-191 511.44,-191 508.44,-187 436.56,-187 436.56,-151 535.44,-151 535.44,-187"/>
<text text-anchor="middle" x="486" y="-164.8" font-family="Times,serif" font-size="14.00">DisqusModule</text>
</g>
<!-- ArticleModule&#45;&gt;DisqusModule -->
<g id="edge1" class="edge">
<title>ArticleModule&#45;&gt;DisqusModule</title>
<path fill="none" stroke="black" d="M736,-122.28C736,-143.32 736,-175 736,-175 736,-175 545.39,-175 545.39,-175"/>
<polygon fill="black" stroke="black" points="545.39,-171.5 535.39,-175 545.39,-178.5 545.39,-171.5"/>
</g>
<!-- CommentModule -->
<g id="node2" class="node">
<title>CommentModule</title>
<polygon fill="#8dd3c7" stroke="black" points="668.27,-122 665.27,-126 644.27,-126 641.27,-122 553.73,-122 553.73,-86 668.27,-86 668.27,-122"/>
<text text-anchor="middle" x="611" y="-99.8" font-family="Times,serif" font-size="14.00">CommentModule</text>
</g>
<!-- CommentModule&#45;&gt;DisqusModule -->
<g id="edge2" class="edge">
<title>CommentModule&#45;&gt;DisqusModule</title>
<path fill="none" stroke="black" d="M593.81,-122.02C593.81,-139.37 593.81,-163 593.81,-163 593.81,-163 545.49,-163 545.49,-163"/>
<polygon fill="black" stroke="black" points="545.49,-159.5 535.49,-163 545.49,-166.5 545.49,-159.5"/>
</g>
<!-- OptionModule -->
<g id="node3" class="node">
<title>OptionModule</title>
<polygon fill="#8dd3c7" stroke="black" points="535.44,-122 532.44,-126 511.44,-126 508.44,-122 436.56,-122 436.56,-86 535.44,-86 535.44,-122"/>
<text text-anchor="middle" x="486" y="-99.8" font-family="Times,serif" font-size="14.00">OptionModule</text>
</g>
<!-- OptionModule&#45;&gt;DisqusModule -->
<g id="edge3" class="edge">
<title>OptionModule&#45;&gt;DisqusModule</title>
<path fill="none" stroke="black" d="M486,-122.11C486,-122.11 486,-140.99 486,-140.99"/>
<polygon fill="black" stroke="black" points="482.5,-140.99 486,-150.99 489.5,-140.99 482.5,-140.99"/>
</g>
<!-- DisqusPrivateService  -->
<g id="node5" class="node">
<title>DisqusPrivateService </title>
<polygon fill="#fb8072" stroke="black" points="634.02,-252 493.98,-252 493.98,-216 634.02,-216 634.02,-252"/>
<text text-anchor="middle" x="564" y="-229.8" font-family="Times,serif" font-size="14.00">DisqusPrivateService </text>
</g>
<!-- DisqusModule&#45;&gt;DisqusPrivateService  -->
<g id="edge4" class="edge">
<title>DisqusModule&#45;&gt;DisqusPrivateService </title>
<path fill="none" stroke="black" stroke-dasharray="5,2" d="M514.6,-187.11C514.6,-187.11 514.6,-205.99 514.6,-205.99"/>
<polygon fill="black" stroke="black" points="511.1,-205.99 514.6,-215.99 518.1,-205.99 511.1,-205.99"/>
</g>
<!-- DisqusPublicService  -->
<g id="node6" class="node">
<title>DisqusPublicService </title>
<polygon fill="#fb8072" stroke="black" points="476.14,-252 339.86,-252 339.86,-216 476.14,-216 476.14,-252"/>
<text text-anchor="middle" x="408" y="-229.8" font-family="Times,serif" font-size="14.00">DisqusPublicService </text>
</g>
<!-- DisqusModule&#45;&gt;DisqusPublicService  -->
<g id="edge5" class="edge">
<title>DisqusModule&#45;&gt;DisqusPublicService </title>
<path fill="none" stroke="black" stroke-dasharray="5,2" d="M456.43,-187.11C456.43,-187.11 456.43,-205.99 456.43,-205.99"/>
<polygon fill="black" stroke="black" points="452.93,-205.99 456.43,-215.99 459.93,-205.99 452.93,-205.99"/>
</g>
<!-- DisqusPrivateService -->
<g id="node7" class="node">
<title>DisqusPrivateService</title>
<ellipse fill="#fdb462" stroke="black" cx="319" cy="-104" rx="94.33" ry="18"/>
<text text-anchor="middle" x="319" y="-99.8" font-family="Times,serif" font-size="14.00">DisqusPrivateService</text>
</g>
<!-- DisqusPrivateService&#45;&gt;DisqusModule -->
<g id="edge6" class="edge">
<title>DisqusPrivateService&#45;&gt;DisqusModule</title>
<path fill="none" stroke="black" d="M376.55,-118.28C376.55,-135.74 376.55,-163 376.55,-163 376.55,-163 426.72,-163 426.72,-163"/>
<polygon fill="black" stroke="black" points="426.72,-166.5 436.72,-163 426.72,-159.5 426.72,-166.5"/>
</g>
<!-- DisqusPublicService -->
<g id="node8" class="node">
<title>DisqusPublicService</title>
<ellipse fill="#fdb462" stroke="black" cx="115" cy="-104" rx="91.49" ry="18"/>
<text text-anchor="middle" x="115" y="-99.8" font-family="Times,serif" font-size="14.00">DisqusPublicService</text>
</g>
<!-- DisqusPublicService&#45;&gt;DisqusModule -->
<g id="edge7" class="edge">
<title>DisqusPublicService&#45;&gt;DisqusModule</title>
<path fill="none" stroke="black" d="M115,-122.28C115,-143.32 115,-175 115,-175 115,-175 426.73,-175 426.73,-175"/>
<polygon fill="black" stroke="black" points="426.73,-178.5 436.73,-175 426.73,-171.5 426.73,-178.5"/>
</g>
</g>
</svg>
