<?xml version="1.0" encoding="UTF-8" standalone="no"?>
<!DOCTYPE svg PUBLIC "-//W3C//DTD SVG 1.1//EN"
 "http://www.w3.org/Graphics/SVG/1.1/DTD/svg11.dtd">
<!-- Generated by graphviz version 2.47.3 (20210619.1520)
 -->
<!-- Title: dependencies Pages: 1 -->
<svg width="817pt" height="247pt"
 viewBox="0.00 0.00 817.00 246.80" xmlns="http://www.w3.org/2000/svg" xmlns:xlink="http://www.w3.org/1999/xlink">
<g id="graph0" class="graph" transform="scale(1 1) rotate(0) translate(4 242.8)">
<title>dependencies</title>
<polygon fill="white" stroke="transparent" points="-4,4 -4,-242.8 813,-242.8 813,4 -4,4"/>
<text text-anchor="middle" x="404.5" y="-8.2" font-family="sans-serif" font-size="14.00">dependencies</text>
<g id="clust1" class="cluster">
<title>cluster_DisqusModule</title>
<polygon fill="none" stroke="black" stroke-dasharray="1,5" points="8,-32.8 8,-230.8 801,-230.8 801,-32.8 8,-32.8"/>
</g>
<g id="clust4" class="cluster">
<title>cluster_DisqusModule_exports</title>
<polygon fill="none" stroke="black" points="169,-170.8 169,-222.8 479,-222.8 479,-170.8 169,-170.8"/>
</g>
<g id="clust6" class="cluster">
<title>cluster_DisqusModule_providers</title>
<polygon fill="none" stroke="black" points="388,-40.8 388,-92.8 793,-92.8 793,-40.8 388,-40.8"/>
</g>
<g id="clust3" class="cluster">
<title>cluster_DisqusModule_imports</title>
<polygon fill="none" stroke="black" points="16,-40.8 16,-92.8 380,-92.8 380,-40.8 16,-40.8"/>
</g>
<!-- ArticleModule -->
<g id="node1" class="node">
<title>ArticleModule</title>
<polygon fill="#8dd3c7" stroke="black" points="372.42,-84.8 369.42,-88.8 348.42,-88.8 345.42,-84.8 273.58,-84.8 273.58,-48.8 372.42,-48.8 372.42,-84.8"/>
<text text-anchor="middle" x="323" y="-62.6" font-family="Times,serif" font-size="14.00">ArticleModule</text>
</g>
<!-- DisqusModule -->
<g id="node4" class="node">
<title>DisqusModule</title>
<polygon fill="#8dd3c7" stroke="black" points="372.44,-149.8 369.44,-153.8 348.44,-153.8 345.44,-149.8 273.56,-149.8 273.56,-113.8 372.44,-113.8 372.44,-149.8"/>
<text text-anchor="middle" x="323" y="-127.6" font-family="Times,serif" font-size="14.00">DisqusModule</text>
</g>
<!-- ArticleModule&#45;&gt;DisqusModule -->
<g id="edge1" class="edge">
<title>ArticleModule&#45;&gt;DisqusModule</title>
<path fill="none" stroke="black" d="M323,-84.91C323,-84.91 323,-103.79 323,-103.79"/>
<polygon fill="black" stroke="black" points="319.5,-103.79 323,-113.79 326.5,-103.79 319.5,-103.79"/>
</g>
<!-- CommentModule -->
<g id="node2" class="node">
<title>CommentModule</title>
<polygon fill="#8dd3c7" stroke="black" points="255.27,-84.8 252.27,-88.8 231.27,-88.8 228.27,-84.8 140.73,-84.8 140.73,-48.8 255.27,-48.8 255.27,-84.8"/>
<text text-anchor="middle" x="198" y="-62.6" font-family="Times,serif" font-size="14.00">CommentModule</text>
</g>
<!-- CommentModule&#45;&gt;DisqusModule -->
<g id="edge2" class="edge">
<title>CommentModule&#45;&gt;DisqusModule</title>
<path fill="none" stroke="black" d="M216.16,-84.82C216.16,-102.17 216.16,-125.8 216.16,-125.8 216.16,-125.8 263.64,-125.8 263.64,-125.8"/>
<polygon fill="black" stroke="black" points="263.64,-129.3 273.64,-125.8 263.64,-122.3 263.64,-129.3"/>
</g>
<!-- OptionModule -->
<g id="node3" class="node">
<title>OptionModule</title>
<polygon fill="#8dd3c7" stroke="black" points="122.44,-84.8 119.44,-88.8 98.44,-88.8 95.44,-84.8 23.56,-84.8 23.56,-48.8 122.44,-48.8 122.44,-84.8"/>
<text text-anchor="middle" x="73" y="-62.6" font-family="Times,serif" font-size="14.00">OptionModule</text>
</g>
<!-- OptionModule&#45;&gt;DisqusModule -->
<g id="edge3" class="edge">
<title>OptionModule&#45;&gt;DisqusModule</title>
<path fill="none" stroke="black" d="M73,-85.08C73,-106.12 73,-137.8 73,-137.8 73,-137.8 263.61,-137.8 263.61,-137.8"/>
<polygon fill="black" stroke="black" points="263.61,-141.3 273.61,-137.8 263.61,-134.3 263.61,-141.3"/>
</g>
<!-- DisqusPrivateService  -->
<g id="node5" class="node">
<title>DisqusPrivateService </title>
<polygon fill="#fb8072" stroke="black" points="471.02,-214.8 330.98,-214.8 330.98,-178.8 471.02,-178.8 471.02,-214.8"/>
<text text-anchor="middle" x="401" y="-192.6" font-family="Times,serif" font-size="14.00">DisqusPrivateService </text>
</g>
<!-- DisqusModule&#45;&gt;DisqusPrivateService  -->
<g id="edge4" class="edge">
<title>DisqusModule&#45;&gt;DisqusPrivateService </title>
<path fill="none" stroke="black" stroke-dasharray="5,2" d="M351.6,-149.91C351.6,-149.91 351.6,-168.79 351.6,-168.79"/>
<polygon fill="black" stroke="black" points="348.1,-168.79 351.6,-178.79 355.1,-168.79 348.1,-168.79"/>
</g>
<!-- DisqusPublicService  -->
<g id="node6" class="node">
<title>DisqusPublicService </title>
<polygon fill="#fb8072" stroke="black" points="313.14,-214.8 176.86,-214.8 176.86,-178.8 313.14,-178.8 313.14,-214.8"/>
<text text-anchor="middle" x="245" y="-192.6" font-family="Times,serif" font-size="14.00">DisqusPublicService </text>
</g>
<!-- DisqusModule&#45;&gt;DisqusPublicService  -->
<g id="edge5" class="edge">
<title>DisqusModule&#45;&gt;DisqusPublicService </title>
<path fill="none" stroke="black" stroke-dasharray="5,2" d="M293.43,-149.91C293.43,-149.91 293.43,-168.79 293.43,-168.79"/>
<polygon fill="black" stroke="black" points="289.93,-168.79 293.43,-178.79 296.93,-168.79 289.93,-168.79"/>
</g>
<!-- DisqusPrivateService -->
<g id="node7" class="node">
<title>DisqusPrivateService</title>
<ellipse fill="#fdb462" stroke="black" cx="691" cy="-66.8" rx="94.33" ry="18"/>
<text text-anchor="middle" x="691" y="-62.6" font-family="Times,serif" font-size="14.00">DisqusPrivateService</text>
</g>
<!-- DisqusPrivateService&#45;&gt;DisqusModule -->
<g id="edge6" class="edge">
<title>DisqusPrivateService&#45;&gt;DisqusModule</title>
<path fill="none" stroke="black" d="M691,-85.08C691,-106.12 691,-137.8 691,-137.8 691,-137.8 382.25,-137.8 382.25,-137.8"/>
<polygon fill="black" stroke="black" points="382.25,-134.3 372.25,-137.8 382.25,-141.3 382.25,-134.3"/>
</g>
<!-- DisqusPublicService -->
<g id="node8" class="node">
<title>DisqusPublicService</title>
<ellipse fill="#fdb462" stroke="black" cx="487" cy="-66.8" rx="91.49" ry="18"/>
<text text-anchor="middle" x="487" y="-62.6" font-family="Times,serif" font-size="14.00">DisqusPublicService</text>
</g>
<!-- DisqusPublicService&#45;&gt;DisqusModule -->
<g id="edge7" class="edge">
<title>DisqusPublicService&#45;&gt;DisqusModule</title>
<path fill="none" stroke="black" d="M433.26,-81.38C433.26,-98.86 433.26,-125.8 433.26,-125.8 433.26,-125.8 382.32,-125.8 382.32,-125.8"/>
<polygon fill="black" stroke="black" points="382.32,-122.3 372.32,-125.8 382.32,-129.3 382.32,-122.3"/>
</g>
</g>
</svg>
