<?xml version="1.0" encoding="UTF-8" standalone="no"?>
<!DOCTYPE svg PUBLIC "-//W3C//DTD SVG 1.1//EN"
 "http://www.w3.org/Graphics/SVG/1.1/DTD/svg11.dtd">
<!-- Generated by graphviz version 2.47.0 (20210316.0004)
 -->
<!-- Title: dependencies Pages: 1 -->
<svg width="822pt" height="284pt"
 viewBox="0.00 0.00 822.00 284.00" xmlns="http://www.w3.org/2000/svg" xmlns:xlink="http://www.w3.org/1999/xlink">
<g id="graph0" class="graph" transform="scale(1 1) rotate(0) translate(4 280)">
<title>dependencies</title>
<polygon fill="white" stroke="transparent" points="-4,4 -4,-280 818,-280 818,4 -4,4"/>
<text text-anchor="start" x="386.01" y="-42.4" font-family="Times-12" font-weight="bold" font-size="14.00">Legend</text>
<polygon fill="#ffffb3" stroke="transparent" points="173,-10 173,-30 193,-30 193,-10 173,-10"/>
<text text-anchor="start" x="196.63" y="-15.4" font-family="Times-12" font-size="14.00"> &#160;Declarations</text>
<polygon fill="#8dd3c7" stroke="transparent" points="286,-10 286,-30 306,-30 306,-10 286,-10"/>
<text text-anchor="start" x="309.73" y="-15.4" font-family="Times-12" font-size="14.00"> &#160;Module</text>
<polygon fill="#80b1d3" stroke="transparent" points="372,-10 372,-30 392,-30 392,-10 372,-10"/>
<text text-anchor="start" x="395.78" y="-15.4" font-family="Times-12" font-size="14.00"> &#160;Bootstrap</text>
<polygon fill="#fdb462" stroke="transparent" points="469,-10 469,-30 489,-30 489,-10 469,-10"/>
<text text-anchor="start" x="492.67" y="-15.4" font-family="Times-12" font-size="14.00"> &#160;Providers</text>
<polygon fill="#fb8072" stroke="transparent" points="565,-10 565,-30 585,-30 585,-10 565,-10"/>
<text text-anchor="start" x="588.73" y="-15.4" font-family="Times-12" font-size="14.00"> &#160;Exports</text>
<g id="clust1" class="cluster">
<title>cluster_DisqusModule</title>
<polygon fill="none" stroke="black" stroke-dasharray="1,5" points="8,-70 8,-268 806,-268 806,-70 8,-70"/>
</g>
<g id="clust6" class="cluster">
<title>cluster_DisqusModule_providers</title>
<polygon fill="none" stroke="black" points="393,-78 393,-130 798,-130 798,-78 393,-78"/>
</g>
<g id="clust3" class="cluster">
<title>cluster_DisqusModule_imports</title>
<polygon fill="none" stroke="black" points="16,-78 16,-130 385,-130 385,-78 16,-78"/>
</g>
<g id="clust4" class="cluster">
<title>cluster_DisqusModule_exports</title>
<polygon fill="none" stroke="black" points="174,-208 174,-260 484,-260 484,-208 174,-208"/>
</g>
<!-- ArticleModule -->
<g id="node1" class="node">
<title>ArticleModule</title>
<polygon fill="#8dd3c7" stroke="black" points="377.42,-122 374.42,-126 353.42,-126 350.42,-122 278.58,-122 278.58,-86 377.42,-86 377.42,-122"/>
<text text-anchor="middle" x="328" y="-99.8" font-family="Times,serif" font-size="14.00">ArticleModule</text>
</g>
<!-- DisqusModule -->
<g id="node4" class="node">
<title>DisqusModule</title>
<polygon fill="#8dd3c7" stroke="black" points="377.44,-187 374.44,-191 353.44,-191 350.44,-187 278.56,-187 278.56,-151 377.44,-151 377.44,-187"/>
<text text-anchor="middle" x="328" y="-164.8" font-family="Times,serif" font-size="14.00">DisqusModule</text>
</g>
<!-- ArticleModule&#45;&gt;DisqusModule -->
<g id="edge1" class="edge">
<title>ArticleModule&#45;&gt;DisqusModule</title>
<path fill="none" stroke="black" d="M328,-122.11C328,-122.11 328,-140.99 328,-140.99"/>
<polygon fill="black" stroke="black" points="324.5,-140.99 328,-150.99 331.5,-140.99 324.5,-140.99"/>
</g>
<!-- CommentModule -->
<g id="node2" class="node">
<title>CommentModule</title>
<polygon fill="#8dd3c7" stroke="black" points="260.27,-122 257.27,-126 236.27,-126 233.27,-122 145.73,-122 145.73,-86 260.27,-86 260.27,-122"/>
<text text-anchor="middle" x="203" y="-99.8" font-family="Times,serif" font-size="14.00">CommentModule</text>
</g>
<!-- CommentModule&#45;&gt;DisqusModule -->
<g id="edge2" class="edge">
<title>CommentModule&#45;&gt;DisqusModule</title>
<path fill="none" stroke="black" d="M221.16,-122.02C221.16,-139.37 221.16,-163 221.16,-163 221.16,-163 268.64,-163 268.64,-163"/>
<polygon fill="black" stroke="black" points="268.64,-166.5 278.64,-163 268.64,-159.5 268.64,-166.5"/>
</g>
<!-- OptionsModule -->
<g id="node3" class="node">
<title>OptionsModule</title>
<polygon fill="#8dd3c7" stroke="black" points="127.88,-122 124.88,-126 103.88,-126 100.88,-122 24.12,-122 24.12,-86 127.88,-86 127.88,-122"/>
<text text-anchor="middle" x="76" y="-99.8" font-family="Times,serif" font-size="14.00">OptionsModule</text>
</g>
<!-- OptionsModule&#45;&gt;DisqusModule -->
<g id="edge3" class="edge">
<title>OptionsModule&#45;&gt;DisqusModule</title>
<path fill="none" stroke="black" d="M76,-122.28C76,-143.32 76,-175 76,-175 76,-175 268.51,-175 268.51,-175"/>
<polygon fill="black" stroke="black" points="268.51,-178.5 278.51,-175 268.51,-171.5 268.51,-178.5"/>
</g>
<!-- DisqusPrivateService  -->
<g id="node5" class="node">
<title>DisqusPrivateService </title>
<polygon fill="#fb8072" stroke="black" points="476.02,-252 335.98,-252 335.98,-216 476.02,-216 476.02,-252"/>
<text text-anchor="middle" x="406" y="-229.8" font-family="Times,serif" font-size="14.00">DisqusPrivateService </text>
</g>
<!-- DisqusModule&#45;&gt;DisqusPrivateService  -->
<g id="edge4" class="edge">
<title>DisqusModule&#45;&gt;DisqusPrivateService </title>
<path fill="none" stroke="black" stroke-dasharray="5,2" d="M356.6,-187.11C356.6,-187.11 356.6,-205.99 356.6,-205.99"/>
<polygon fill="black" stroke="black" points="353.1,-205.99 356.6,-215.99 360.1,-205.99 353.1,-205.99"/>
</g>
<!-- DisqusPublicService  -->
<g id="node6" class="node">
<title>DisqusPublicService </title>
<polygon fill="#fb8072" stroke="black" points="318.14,-252 181.86,-252 181.86,-216 318.14,-216 318.14,-252"/>
<text text-anchor="middle" x="250" y="-229.8" font-family="Times,serif" font-size="14.00">DisqusPublicService </text>
</g>
<!-- DisqusModule&#45;&gt;DisqusPublicService  -->
<g id="edge5" class="edge">
<title>DisqusModule&#45;&gt;DisqusPublicService </title>
<path fill="none" stroke="black" stroke-dasharray="5,2" d="M298.43,-187.11C298.43,-187.11 298.43,-205.99 298.43,-205.99"/>
<polygon fill="black" stroke="black" points="294.93,-205.99 298.43,-215.99 301.93,-205.99 294.93,-205.99"/>
</g>
<!-- DisqusPrivateService -->
<g id="node7" class="node">
<title>DisqusPrivateService</title>
<ellipse fill="#fdb462" stroke="black" cx="696" cy="-104" rx="94.33" ry="18"/>
<text text-anchor="middle" x="696" y="-99.8" font-family="Times,serif" font-size="14.00">DisqusPrivateService</text>
</g>
<!-- DisqusPrivateService&#45;&gt;DisqusModule -->
<g id="edge6" class="edge">
<title>DisqusPrivateService&#45;&gt;DisqusModule</title>
<path fill="none" stroke="black" d="M696,-122.28C696,-143.32 696,-175 696,-175 696,-175 387.25,-175 387.25,-175"/>
<polygon fill="black" stroke="black" points="387.25,-171.5 377.25,-175 387.25,-178.5 387.25,-171.5"/>
</g>
<!-- DisqusPublicService -->
<g id="node8" class="node">
<title>DisqusPublicService</title>
<ellipse fill="#fdb462" stroke="black" cx="492" cy="-104" rx="91.49" ry="18"/>
<text text-anchor="middle" x="492" y="-99.8" font-family="Times,serif" font-size="14.00">DisqusPublicService</text>
</g>
<!-- DisqusPublicService&#45;&gt;DisqusModule -->
<g id="edge7" class="edge">
<title>DisqusPublicService&#45;&gt;DisqusModule</title>
<path fill="none" stroke="black" d="M438.26,-118.58C438.26,-136.06 438.26,-163 438.26,-163 438.26,-163 387.32,-163 387.32,-163"/>
<polygon fill="black" stroke="black" points="387.32,-159.5 377.32,-163 387.32,-166.5 387.32,-159.5"/>
</g>
</g>
</svg>
