<?xml version="1.0" encoding="UTF-8" standalone="no"?>
<!DOCTYPE svg PUBLIC "-//W3C//DTD SVG 1.1//EN"
 "http://www.w3.org/Graphics/SVG/1.1/DTD/svg11.dtd">
<!-- Generated by graphviz version 2.47.3 (20210619.1520)
 -->
<!-- Title: dependencies Pages: 1 -->
<svg width="334pt" height="247pt"
 viewBox="0.00 0.00 334.00 246.80" xmlns="http://www.w3.org/2000/svg" xmlns:xlink="http://www.w3.org/1999/xlink">
<g id="graph0" class="graph" transform="scale(1 1) rotate(0) translate(4 242.8)">
<title>dependencies</title>
<polygon fill="white" stroke="transparent" points="-4,4 -4,-242.8 330,-242.8 330,4 -4,4"/>
<text text-anchor="middle" x="163" y="-8.2" font-family="sans-serif" font-size="14.00">dependencies</text>
<g id="clust1" class="cluster">
<title>cluster_CategoryModule</title>
<polygon fill="none" stroke="black" stroke-dasharray="1,5" points="8,-32.8 8,-230.8 318,-230.8 318,-32.8 8,-32.8"/>
</g>
<g id="clust4" class="cluster">
<title>cluster_CategoryModule_exports</title>
<polygon fill="none" stroke="black" points="89,-170.8 89,-222.8 217,-222.8 217,-170.8 89,-170.8"/>
</g>
<g id="clust6" class="cluster">
<title>cluster_CategoryModule_providers</title>
<polygon fill="none" stroke="black" points="144,-40.8 144,-92.8 310,-92.8 310,-40.8 144,-40.8"/>
</g>
<g id="clust3" class="cluster">
<title>cluster_CategoryModule_imports</title>
<polygon fill="none" stroke="black" points="16,-40.8 16,-92.8 136,-92.8 136,-40.8 16,-40.8"/>
</g>
<!-- ArchiveModule -->
<g id="node1" class="node">
<title>ArchiveModule</title>
<polygon fill="#8dd3c7" stroke="black" points="128.14,-84.8 125.14,-88.8 104.14,-88.8 101.14,-84.8 23.86,-84.8 23.86,-48.8 128.14,-48.8 128.14,-84.8"/>
<text text-anchor="middle" x="76" y="-62.6" font-family="Times,serif" font-size="14.00">ArchiveModule</text>
</g>
<!-- CategoryModule -->
<g id="node2" class="node">
<title>CategoryModule</title>
<polygon fill="#8dd3c7" stroke="black" points="208.37,-149.8 205.37,-153.8 184.37,-153.8 181.37,-149.8 97.63,-149.8 97.63,-113.8 208.37,-113.8 208.37,-149.8"/>
<text text-anchor="middle" x="153" y="-127.6" font-family="Times,serif" font-size="14.00">CategoryModule</text>
</g>
<!-- ArchiveModule&#45;&gt;CategoryModule -->
<g id="edge1" class="edge">
<title>ArchiveModule&#45;&gt;CategoryModule</title>
<path fill="none" stroke="black" d="M112.94,-84.91C112.94,-84.91 112.94,-103.79 112.94,-103.79"/>
<polygon fill="black" stroke="black" points="109.44,-103.79 112.94,-113.79 116.44,-103.79 109.44,-103.79"/>
</g>
<!-- CategoryService  -->
<g id="node3" class="node">
<title>CategoryService </title>
<polygon fill="#fb8072" stroke="black" points="209.29,-214.8 96.71,-214.8 96.71,-178.8 209.29,-178.8 209.29,-214.8"/>
<text text-anchor="middle" x="153" y="-192.6" font-family="Times,serif" font-size="14.00">CategoryService </text>
</g>
<!-- CategoryModule&#45;&gt;CategoryService  -->
<g id="edge2" class="edge">
<title>CategoryModule&#45;&gt;CategoryService </title>
<path fill="none" stroke="black" stroke-dasharray="5,2" d="M153,-149.91C153,-149.91 153,-168.79 153,-168.79"/>
<polygon fill="black" stroke="black" points="149.5,-168.79 153,-178.79 156.5,-168.79 149.5,-168.79"/>
</g>
<!-- CategoryService -->
<g id="node4" class="node">
<title>CategoryService</title>
<ellipse fill="#fdb462" stroke="black" cx="227" cy="-66.8" rx="75.28" ry="18"/>
<text text-anchor="middle" x="227" y="-62.6" font-family="Times,serif" font-size="14.00">CategoryService</text>
</g>
<!-- CategoryService&#45;&gt;CategoryModule -->
<g id="edge3" class="edge">
<title>CategoryService&#45;&gt;CategoryModule</title>
<path fill="none" stroke="black" d="M180.02,-80.9C180.02,-80.9 180.02,-103.52 180.02,-103.52"/>
<polygon fill="black" stroke="black" points="176.52,-103.52 180.02,-113.52 183.52,-103.52 176.52,-103.52"/>
</g>
</g>
</svg>
