<?xml version="1.0" encoding="UTF-8" standalone="no"?>
<!DOCTYPE svg PUBLIC "-//W3C//DTD SVG 1.1//EN"
 "http://www.w3.org/Graphics/SVG/1.1/DTD/svg11.dtd">
<!-- Generated by graphviz version 2.47.0 (20210316.0004)
 -->
<!-- Title: dependencies Pages: 1 -->
<svg width="524pt" height="284pt"
 viewBox="0.00 0.00 524.00 284.00" xmlns="http://www.w3.org/2000/svg" xmlns:xlink="http://www.w3.org/1999/xlink">
<g id="graph0" class="graph" transform="scale(1 1) rotate(0) translate(4 280)">
<title>dependencies</title>
<polygon fill="white" stroke="transparent" points="-4,4 -4,-280 520,-280 520,4 -4,4"/>
<text text-anchor="start" x="237.01" y="-42.4" font-family="Times-12" font-weight="bold" font-size="14.00">Legend</text>
<polygon fill="#ffffb3" stroke="transparent" points="24,-10 24,-30 44,-30 44,-10 24,-10"/>
<text text-anchor="start" x="47.63" y="-15.4" font-family="Times-12" font-size="14.00"> &#160;Declarations</text>
<polygon fill="#8dd3c7" stroke="transparent" points="137,-10 137,-30 157,-30 157,-10 137,-10"/>
<text text-anchor="start" x="160.73" y="-15.4" font-family="Times-12" font-size="14.00"> &#160;Module</text>
<polygon fill="#80b1d3" stroke="transparent" points="223,-10 223,-30 243,-30 243,-10 223,-10"/>
<text text-anchor="start" x="246.78" y="-15.4" font-family="Times-12" font-size="14.00"> &#160;Bootstrap</text>
<polygon fill="#fdb462" stroke="transparent" points="320,-10 320,-30 340,-30 340,-10 320,-10"/>
<text text-anchor="start" x="343.67" y="-15.4" font-family="Times-12" font-size="14.00"> &#160;Providers</text>
<polygon fill="#fb8072" stroke="transparent" points="416,-10 416,-30 436,-30 436,-10 416,-10"/>
<text text-anchor="start" x="439.73" y="-15.4" font-family="Times-12" font-size="14.00"> &#160;Exports</text>
<g id="clust1" class="cluster">
<title>cluster_AuthModule</title>
<polygon fill="none" stroke="black" stroke-dasharray="1,5" points="8,-70 8,-268 508,-268 508,-70 8,-70"/>
</g>
<g id="clust4" class="cluster">
<title>cluster_AuthModule_exports</title>
<polygon fill="none" stroke="black" points="53,-208 53,-260 420,-260 420,-208 53,-208"/>
</g>
<g id="clust6" class="cluster">
<title>cluster_AuthModule_providers</title>
<polygon fill="none" stroke="black" points="16,-78 16,-130 500,-130 500,-78 16,-78"/>
</g>
<!-- AuthAccessTokenService  -->
<g id="node1" class="node">
<title>AuthAccessTokenService </title>
<polygon fill="#fb8072" stroke="black" points="412.38,-252 247.62,-252 247.62,-216 412.38,-216 412.38,-252"/>
<text text-anchor="middle" x="330" y="-229.8" font-family="Times,serif" font-size="14.00">AuthAccessTokenService </text>
</g>
<!-- AuthRefreshTokenService  -->
<g id="node2" class="node">
<title>AuthRefreshTokenService </title>
<polygon fill="#fb8072" stroke="black" points="229.27,-252 60.73,-252 60.73,-216 229.27,-216 229.27,-252"/>
<text text-anchor="middle" x="145" y="-229.8" font-family="Times,serif" font-size="14.00">AuthRefreshTokenService </text>
</g>
<!-- AuthModule -->
<g id="node3" class="node">
<title>AuthModule</title>
<polygon fill="#8dd3c7" stroke="black" points="224.55,-187 221.55,-191 200.55,-191 197.55,-187 137.45,-187 137.45,-151 224.55,-151 224.55,-187"/>
<text text-anchor="middle" x="181" y="-164.8" font-family="Times,serif" font-size="14.00">AuthModule</text>
</g>
<!-- AuthModule&#45;&gt;AuthAccessTokenService  -->
<g id="edge1" class="edge">
<title>AuthModule&#45;&gt;AuthAccessTokenService </title>
<path fill="none" stroke="black" stroke-dasharray="5,2" d="M224.66,-175C243.3,-175 260.84,-175 260.84,-175 260.84,-175 260.84,-205.98 260.84,-205.98"/>
<polygon fill="black" stroke="black" points="257.34,-205.98 260.84,-215.98 264.34,-205.98 257.34,-205.98"/>
</g>
<!-- AuthModule&#45;&gt;AuthRefreshTokenService  -->
<g id="edge2" class="edge">
<title>AuthModule&#45;&gt;AuthRefreshTokenService </title>
<path fill="none" stroke="black" stroke-dasharray="5,2" d="M181,-187.11C181,-187.11 181,-205.99 181,-205.99"/>
<polygon fill="black" stroke="black" points="177.5,-205.99 181,-215.99 184.5,-205.99 177.5,-205.99"/>
</g>
<!-- AuthAccessTokenService -->
<g id="node4" class="node">
<title>AuthAccessTokenService</title>
<ellipse fill="#fdb462" stroke="black" cx="381" cy="-104" rx="111.14" ry="18"/>
<text text-anchor="middle" x="381" y="-99.8" font-family="Times,serif" font-size="14.00">AuthAccessTokenService</text>
</g>
<!-- AuthAccessTokenService&#45;&gt;AuthModule -->
<g id="edge3" class="edge">
<title>AuthAccessTokenService&#45;&gt;AuthModule</title>
<path fill="none" stroke="black" d="M341.06,-121.07C341.06,-138.49 341.06,-163 341.06,-163 341.06,-163 234.74,-163 234.74,-163"/>
<polygon fill="black" stroke="black" points="234.74,-159.5 224.74,-163 234.74,-166.5 234.74,-159.5"/>
</g>
<!-- AuthRefreshTokenService -->
<g id="node5" class="node">
<title>AuthRefreshTokenService</title>
<ellipse fill="#fdb462" stroke="black" cx="138" cy="-104" rx="114.01" ry="18"/>
<text text-anchor="middle" x="138" y="-99.8" font-family="Times,serif" font-size="14.00">AuthRefreshTokenService</text>
</g>
<!-- AuthRefreshTokenService&#45;&gt;AuthModule -->
<g id="edge4" class="edge">
<title>AuthRefreshTokenService&#45;&gt;AuthModule</title>
<path fill="none" stroke="black" d="M181,-120.74C181,-120.74 181,-140.72 181,-140.72"/>
<polygon fill="black" stroke="black" points="177.5,-140.72 181,-150.72 184.5,-140.72 177.5,-140.72"/>
</g>
</g>
</svg>
