<?xml version="1.0" encoding="UTF-8" standalone="no"?>
<!DOCTYPE svg PUBLIC "-//W3C//DTD SVG 1.1//EN"
 "http://www.w3.org/Graphics/SVG/1.1/DTD/svg11.dtd">
<!-- Generated by graphviz version 2.47.3 (20210619.1520)
 -->
<!-- Title: dependencies Pages: 1 -->
<svg width="198pt" height="247pt"
 viewBox="0.00 0.00 198.00 246.80" xmlns="http://www.w3.org/2000/svg" xmlns:xlink="http://www.w3.org/1999/xlink">
<g id="graph0" class="graph" transform="scale(1 1) rotate(0) translate(4 242.8)">
<title>dependencies</title>
<polygon fill="white" stroke="transparent" points="-4,4 -4,-242.8 194,-242.8 194,4 -4,4"/>
<text text-anchor="middle" x="95" y="-8.2" font-family="sans-serif" font-size="14.00">dependencies</text>
<g id="clust1" class="cluster">
<title>cluster_ArchiveModule</title>
<polygon fill="none" stroke="black" stroke-dasharray="1,5" points="8,-32.8 8,-230.8 182,-230.8 182,-32.8 8,-32.8"/>
</g>
<g id="clust4" class="cluster">
<title>cluster_ArchiveModule_exports</title>
<polygon fill="none" stroke="black" points="34,-170.8 34,-222.8 156,-222.8 156,-170.8 34,-170.8"/>
</g>
<g id="clust6" class="cluster">
<title>cluster_ArchiveModule_providers</title>
<polygon fill="none" stroke="black" points="16,-40.8 16,-92.8 174,-92.8 174,-40.8 16,-40.8"/>
</g>
<!-- ArchiveService  -->
<g id="node1" class="node">
<title>ArchiveService </title>
<polygon fill="#fb8072" stroke="black" points="148.07,-214.8 41.93,-214.8 41.93,-178.8 148.07,-178.8 148.07,-214.8"/>
<text text-anchor="middle" x="95" y="-192.6" font-family="Times,serif" font-size="14.00">ArchiveService </text>
</g>
<!-- ArchiveModule -->
<g id="node2" class="node">
<title>ArchiveModule</title>
<polygon fill="#8dd3c7" stroke="black" points="147.14,-149.8 144.14,-153.8 123.14,-153.8 120.14,-149.8 42.86,-149.8 42.86,-113.8 147.14,-113.8 147.14,-149.8"/>
<text text-anchor="middle" x="95" y="-127.6" font-family="Times,serif" font-size="14.00">ArchiveModule</text>
</g>
<!-- ArchiveModule&#45;&gt;ArchiveService  -->
<g id="edge1" class="edge">
<title>ArchiveModule&#45;&gt;ArchiveService </title>
<path fill="none" stroke="black" stroke-dasharray="5,2" d="M95,-149.91C95,-149.91 95,-168.79 95,-168.79"/>
<polygon fill="black" stroke="black" points="91.5,-168.79 95,-178.79 98.5,-168.79 91.5,-168.79"/>
</g>
<!-- ArchiveService -->
<g id="node3" class="node">
<title>ArchiveService</title>
<ellipse fill="#fdb462" stroke="black" cx="95" cy="-66.8" rx="71.18" ry="18"/>
<text text-anchor="middle" x="95" y="-62.6" font-family="Times,serif" font-size="14.00">ArchiveService</text>
</g>
<!-- ArchiveService&#45;&gt;ArchiveModule -->
<g id="edge2" class="edge">
<title>ArchiveService&#45;&gt;ArchiveModule</title>
<path fill="none" stroke="black" d="M95,-84.91C95,-84.91 95,-103.79 95,-103.79"/>
<polygon fill="black" stroke="black" points="91.5,-103.79 95,-113.79 98.5,-103.79 91.5,-103.79"/>
</g>
</g>
</svg>
