<?xml version="1.0" encoding="UTF-8" standalone="no"?>
<!DOCTYPE svg PUBLIC "-//W3C//DTD SVG 1.1//EN"
 "http://www.w3.org/Graphics/SVG/1.1/DTD/svg11.dtd">
<!-- Generated by graphviz version 2.47.0 (20210316.0004)
 -->
<!-- Title: dependencies Pages: 1 -->
<svg width="1416pt" height="211pt"
 viewBox="0.00 0.00 1416.00 211.00" xmlns="http://www.w3.org/2000/svg" xmlns:xlink="http://www.w3.org/1999/xlink">
<g id="graph0" class="graph" transform="scale(1 1) rotate(0) translate(4 207)">
<title>dependencies</title>
<polygon fill="white" stroke="transparent" points="-4,4 -4,-207 1412,-207 1412,4 -4,4"/>
<text text-anchor="start" x="683.01" y="-42.4" font-family="Times-12" font-weight="bold" font-size="14.00">Legend</text>
<polygon fill="#ffffb3" stroke="transparent" points="470,-10 470,-30 490,-30 490,-10 470,-10"/>
<text text-anchor="start" x="493.63" y="-15.4" font-family="Times-12" font-size="14.00"> &#160;Declarations</text>
<polygon fill="#8dd3c7" stroke="transparent" points="583,-10 583,-30 603,-30 603,-10 583,-10"/>
<text text-anchor="start" x="606.73" y="-15.4" font-family="Times-12" font-size="14.00"> &#160;Module</text>
<polygon fill="#80b1d3" stroke="transparent" points="669,-10 669,-30 689,-30 689,-10 669,-10"/>
<text text-anchor="start" x="692.78" y="-15.4" font-family="Times-12" font-size="14.00"> &#160;Bootstrap</text>
<polygon fill="#fdb462" stroke="transparent" points="766,-10 766,-30 786,-30 786,-10 766,-10"/>
<text text-anchor="start" x="789.67" y="-15.4" font-family="Times-12" font-size="14.00"> &#160;Providers</text>
<polygon fill="#fb8072" stroke="transparent" points="862,-10 862,-30 882,-30 882,-10 862,-10"/>
<text text-anchor="start" x="885.73" y="-15.4" font-family="Times-12" font-size="14.00"> &#160;Exports</text>
<g id="clust1" class="cluster">
<title>cluster_AccountModule</title>
<polygon fill="none" stroke="black" stroke-dasharray="1,5" points="8,-70 8,-195 1400,-195 1400,-70 8,-70"/>
</g>
<g id="clust6" class="cluster">
<title>cluster_AccountModule_providers</title>
<polygon fill="none" stroke="black" points="126,-78 126,-130 1392,-130 1392,-78 126,-78"/>
</g>
<g id="clust3" class="cluster">
<title>cluster_AccountModule_imports</title>
<polygon fill="none" stroke="black" points="16,-78 16,-130 118,-130 118,-78 16,-78"/>
</g>
<!-- UserModule -->
<g id="node1" class="node">
<title>UserModule</title>
<polygon fill="#8dd3c7" stroke="black" points="109.98,-122 106.98,-126 85.98,-126 82.98,-122 24.02,-122 24.02,-86 109.98,-86 109.98,-122"/>
<text text-anchor="middle" x="67" y="-99.8" font-family="Times,serif" font-size="14.00">UserModule</text>
</g>
<!-- AccountModule -->
<g id="node2" class="node">
<title>AccountModule</title>
<polygon fill="#8dd3c7" stroke="black" points="709.48,-187 706.48,-191 685.48,-191 682.48,-187 602.52,-187 602.52,-151 709.48,-151 709.48,-187"/>
<text text-anchor="middle" x="656" y="-164.8" font-family="Times,serif" font-size="14.00">AccountModule</text>
</g>
<!-- UserModule&#45;&gt;AccountModule -->
<g id="edge1" class="edge">
<title>UserModule&#45;&gt;AccountModule</title>
<path fill="none" stroke="black" d="M67,-122.29C67,-144.21 67,-178 67,-178 67,-178 592.43,-178 592.43,-178"/>
<polygon fill="black" stroke="black" points="592.43,-181.5 602.43,-178 592.43,-174.5 592.43,-181.5"/>
</g>
<!-- AccountActivityService -->
<g id="node3" class="node">
<title>AccountActivityService</title>
<ellipse fill="#fdb462" stroke="black" cx="1280" cy="-104" rx="104.21" ry="18"/>
<text text-anchor="middle" x="1280" y="-99.8" font-family="Times,serif" font-size="14.00">AccountActivityService</text>
</g>
<!-- AccountActivityService&#45;&gt;AccountModule -->
<g id="edge2" class="edge">
<title>AccountActivityService&#45;&gt;AccountModule</title>
<path fill="none" stroke="black" d="M1280,-122.29C1280,-144.21 1280,-178 1280,-178 1280,-178 719.74,-178 719.74,-178"/>
<polygon fill="black" stroke="black" points="719.74,-174.5 709.74,-178 719.74,-181.5 719.74,-174.5"/>
</g>
<!-- AccountIdentityService -->
<g id="node4" class="node">
<title>AccountIdentityService</title>
<ellipse fill="#fdb462" stroke="black" cx="1055" cy="-104" rx="102.99" ry="18"/>
<text text-anchor="middle" x="1055" y="-99.8" font-family="Times,serif" font-size="14.00">AccountIdentityService</text>
</g>
<!-- AccountIdentityService&#45;&gt;AccountModule -->
<g id="edge3" class="edge">
<title>AccountIdentityService&#45;&gt;AccountModule</title>
<path fill="none" stroke="black" d="M1055,-122.11C1055,-141.34 1055,-169 1055,-169 1055,-169 719.81,-169 719.81,-169"/>
<polygon fill="black" stroke="black" points="719.81,-165.5 709.81,-169 719.81,-172.5 719.81,-165.5"/>
</g>
<!-- GithubAuthService -->
<g id="node5" class="node">
<title>GithubAuthService</title>
<ellipse fill="#fdb462" stroke="black" cx="848" cy="-104" rx="86.26" ry="18"/>
<text text-anchor="middle" x="848" y="-99.8" font-family="Times,serif" font-size="14.00">GithubAuthService</text>
</g>
<!-- GithubAuthService&#45;&gt;AccountModule -->
<g id="edge4" class="edge">
<title>GithubAuthService&#45;&gt;AccountModule</title>
<path fill="none" stroke="black" d="M848,-122.03C848,-138.4 848,-160 848,-160 848,-160 719.48,-160 719.48,-160"/>
<polygon fill="black" stroke="black" points="719.48,-156.5 709.48,-160 719.48,-163.5 719.48,-156.5"/>
</g>
<!-- GoogleAuthService -->
<g id="node6" class="node">
<title>GoogleAuthService</title>
<ellipse fill="#fdb462" stroke="black" cx="656" cy="-104" rx="87.96" ry="18"/>
<text text-anchor="middle" x="656" y="-99.8" font-family="Times,serif" font-size="14.00">GoogleAuthService</text>
</g>
<!-- GoogleAuthService&#45;&gt;AccountModule -->
<g id="edge5" class="edge">
<title>GoogleAuthService&#45;&gt;AccountModule</title>
<path fill="none" stroke="black" d="M656,-122.11C656,-122.11 656,-140.99 656,-140.99"/>
<polygon fill="black" stroke="black" points="652.5,-140.99 656,-150.99 659.5,-140.99 652.5,-140.99"/>
</g>
<!-- UserAuthStateService -->
<g id="node7" class="node">
<title>UserAuthStateService</title>
<ellipse fill="#fdb462" stroke="black" cx="453" cy="-104" rx="96.68" ry="18"/>
<text text-anchor="middle" x="453" y="-99.8" font-family="Times,serif" font-size="14.00">UserAuthStateService</text>
</g>
<!-- UserAuthStateService&#45;&gt;AccountModule -->
<g id="edge6" class="edge">
<title>UserAuthStateService&#45;&gt;AccountModule</title>
<path fill="none" stroke="black" d="M453,-122.03C453,-138.4 453,-160 453,-160 453,-160 592.4,-160 592.4,-160"/>
<polygon fill="black" stroke="black" points="592.4,-163.5 602.4,-160 592.4,-156.5 592.4,-163.5"/>
</g>
<!-- UserAuthTokenService -->
<g id="node8" class="node">
<title>UserAuthTokenService</title>
<ellipse fill="#fdb462" stroke="black" cx="236" cy="-104" rx="102.41" ry="18"/>
<text text-anchor="middle" x="236" y="-99.8" font-family="Times,serif" font-size="14.00">UserAuthTokenService</text>
</g>
<!-- UserAuthTokenService&#45;&gt;AccountModule -->
<g id="edge7" class="edge">
<title>UserAuthTokenService&#45;&gt;AccountModule</title>
<path fill="none" stroke="black" d="M236,-122.11C236,-141.34 236,-169 236,-169 236,-169 592.38,-169 592.38,-169"/>
<polygon fill="black" stroke="black" points="592.38,-172.5 602.38,-169 592.38,-165.5 592.38,-172.5"/>
</g>
</g>
</svg>
