<?xml version="1.0" encoding="UTF-8" standalone="no"?>
<!DOCTYPE svg PUBLIC "-//W3C//DTD SVG 1.1//EN"
 "http://www.w3.org/Graphics/SVG/1.1/DTD/svg11.dtd">
<!-- Generated by graphviz version 2.47.0 (20210316.0004)
 -->
<!-- Title: dependencies Pages: 1 -->
<svg width="504pt" height="284pt"
 viewBox="0.00 0.00 504.00 284.00" xmlns="http://www.w3.org/2000/svg" xmlns:xlink="http://www.w3.org/1999/xlink">
<g id="graph0" class="graph" transform="scale(1 1) rotate(0) translate(4 280)">
<title>dependencies</title>
<polygon fill="white" stroke="transparent" points="-4,4 -4,-280 500,-280 500,4 -4,4"/>
<text text-anchor="start" x="227.01" y="-42.4" font-family="Times-12" font-weight="bold" font-size="14.00">Legend</text>
<polygon fill="#ffffb3" stroke="transparent" points="14,-10 14,-30 34,-30 34,-10 14,-10"/>
<text text-anchor="start" x="37.63" y="-15.4" font-family="Times-12" font-size="14.00"> &#160;Declarations</text>
<polygon fill="#8dd3c7" stroke="transparent" points="127,-10 127,-30 147,-30 147,-10 127,-10"/>
<text text-anchor="start" x="150.73" y="-15.4" font-family="Times-12" font-size="14.00"> &#160;Module</text>
<polygon fill="#80b1d3" stroke="transparent" points="213,-10 213,-30 233,-30 233,-10 213,-10"/>
<text text-anchor="start" x="236.78" y="-15.4" font-family="Times-12" font-size="14.00"> &#160;Bootstrap</text>
<polygon fill="#fdb462" stroke="transparent" points="310,-10 310,-30 330,-30 330,-10 310,-10"/>
<text text-anchor="start" x="333.67" y="-15.4" font-family="Times-12" font-size="14.00"> &#160;Providers</text>
<polygon fill="#fb8072" stroke="transparent" points="406,-10 406,-30 426,-30 426,-10 406,-10"/>
<text text-anchor="start" x="429.73" y="-15.4" font-family="Times-12" font-size="14.00"> &#160;Exports</text>
<g id="clust1" class="cluster">
<title>cluster_FeedbackModule</title>
<polygon fill="none" stroke="black" stroke-dasharray="1,5" points="66,-70 66,-268 430,-268 430,-70 66,-70"/>
</g>
<g id="clust4" class="cluster">
<title>cluster_FeedbackModule_exports</title>
<polygon fill="none" stroke="black" points="180,-208 180,-260 312,-260 312,-208 180,-208"/>
</g>
<g id="clust6" class="cluster">
<title>cluster_FeedbackModule_providers</title>
<polygon fill="none" stroke="black" points="74,-78 74,-130 422,-130 422,-78 74,-78"/>
</g>
<!-- FeedbackService  -->
<g id="node1" class="node">
<title>FeedbackService </title>
<polygon fill="#fb8072" stroke="black" points="303.62,-252 188.38,-252 188.38,-216 303.62,-216 303.62,-252"/>
<text text-anchor="middle" x="246" y="-229.8" font-family="Times,serif" font-size="14.00">FeedbackService </text>
</g>
<!-- FeedbackModule -->
<g id="node2" class="node">
<title>FeedbackModule</title>
<polygon fill="#8dd3c7" stroke="black" points="302.69,-187 299.69,-191 278.69,-191 275.69,-187 189.31,-187 189.31,-151 302.69,-151 302.69,-187"/>
<text text-anchor="middle" x="246" y="-164.8" font-family="Times,serif" font-size="14.00">FeedbackModule</text>
</g>
<!-- FeedbackModule&#45;&gt;FeedbackService  -->
<g id="edge1" class="edge">
<title>FeedbackModule&#45;&gt;FeedbackService </title>
<path fill="none" stroke="black" stroke-dasharray="5,2" d="M246,-187.11C246,-187.11 246,-205.99 246,-205.99"/>
<polygon fill="black" stroke="black" points="242.5,-205.99 246,-215.99 249.5,-205.99 242.5,-205.99"/>
</g>
<!-- FeedbackListener -->
<g id="node3" class="node">
<title>FeedbackListener</title>
<ellipse fill="#fdb462" stroke="black" cx="334" cy="-104" rx="79.85" ry="18"/>
<text text-anchor="middle" x="334" y="-99.8" font-family="Times,serif" font-size="14.00">FeedbackListener</text>
</g>
<!-- FeedbackListener&#45;&gt;FeedbackModule -->
<g id="edge2" class="edge">
<title>FeedbackListener&#45;&gt;FeedbackModule</title>
<path fill="none" stroke="black" d="M278.46,-117.15C278.46,-117.15 278.46,-140.69 278.46,-140.69"/>
<polygon fill="black" stroke="black" points="274.96,-140.69 278.46,-150.69 281.96,-140.69 274.96,-140.69"/>
</g>
<!-- FeedbackService -->
<g id="node4" class="node">
<title>FeedbackService</title>
<ellipse fill="#fdb462" stroke="black" cx="159" cy="-104" rx="76.98" ry="18"/>
<text text-anchor="middle" x="159" y="-99.8" font-family="Times,serif" font-size="14.00">FeedbackService</text>
</g>
<!-- FeedbackService&#45;&gt;FeedbackModule -->
<g id="edge3" class="edge">
<title>FeedbackService&#45;&gt;FeedbackModule</title>
<path fill="none" stroke="black" d="M212.7,-117.15C212.7,-117.15 212.7,-140.69 212.7,-140.69"/>
<polygon fill="black" stroke="black" points="209.2,-140.69 212.7,-150.69 216.2,-140.69 209.2,-140.69"/>
</g>
</g>
</svg>
