<?xml version="1.0" encoding="UTF-8" standalone="no"?>
<!DOCTYPE svg PUBLIC "-//W3C//DTD SVG 1.1//EN"
 "http://www.w3.org/Graphics/SVG/1.1/DTD/svg11.dtd">
<!-- Generated by graphviz version 2.47.3 (20210619.1520)
 -->
<!-- Title: dependencies Pages: 1 -->
<svg width="210pt" height="247pt"
 viewBox="0.00 0.00 210.00 246.80" xmlns="http://www.w3.org/2000/svg" xmlns:xlink="http://www.w3.org/1999/xlink">
<g id="graph0" class="graph" transform="scale(1 1) rotate(0) translate(4 242.8)">
<title>dependencies</title>
<polygon fill="white" stroke="transparent" points="-4,4 -4,-242.8 206,-242.8 206,4 -4,4"/>
<text text-anchor="middle" x="101" y="-8.2" font-family="sans-serif" font-size="14.00">dependencies</text>
<g id="clust1" class="cluster">
<title>cluster_FeedbackModule</title>
<polygon fill="none" stroke="black" stroke-dasharray="1,5" points="8,-32.8 8,-230.8 194,-230.8 194,-32.8 8,-32.8"/>
</g>
<g id="clust4" class="cluster">
<title>cluster_FeedbackModule_exports</title>
<polygon fill="none" stroke="black" points="35,-170.8 35,-222.8 167,-222.8 167,-170.8 35,-170.8"/>
</g>
<g id="clust6" class="cluster">
<title>cluster_FeedbackModule_providers</title>
<polygon fill="none" stroke="black" points="16,-40.8 16,-92.8 186,-92.8 186,-40.8 16,-40.8"/>
</g>
<!-- FeedbackService  -->
<g id="node1" class="node">
<title>FeedbackService </title>
<polygon fill="#fb8072" stroke="black" points="158.62,-214.8 43.38,-214.8 43.38,-178.8 158.62,-178.8 158.62,-214.8"/>
<text text-anchor="middle" x="101" y="-192.6" font-family="Times,serif" font-size="14.00">FeedbackService </text>
</g>
<!-- FeedbackModule -->
<g id="node2" class="node">
<title>FeedbackModule</title>
<polygon fill="#8dd3c7" stroke="black" points="157.69,-149.8 154.69,-153.8 133.69,-153.8 130.69,-149.8 44.31,-149.8 44.31,-113.8 157.69,-113.8 157.69,-149.8"/>
<text text-anchor="middle" x="101" y="-127.6" font-family="Times,serif" font-size="14.00">FeedbackModule</text>
</g>
<!-- FeedbackModule&#45;&gt;FeedbackService  -->
<g id="edge1" class="edge">
<title>FeedbackModule&#45;&gt;FeedbackService </title>
<path fill="none" stroke="black" stroke-dasharray="5,2" d="M101,-149.91C101,-149.91 101,-168.79 101,-168.79"/>
<polygon fill="black" stroke="black" points="97.5,-168.79 101,-178.79 104.5,-168.79 97.5,-168.79"/>
</g>
<!-- FeedbackService -->
<g id="node3" class="node">
<title>FeedbackService</title>
<ellipse fill="#fdb462" stroke="black" cx="101" cy="-66.8" rx="76.98" ry="18"/>
<text text-anchor="middle" x="101" y="-62.6" font-family="Times,serif" font-size="14.00">FeedbackService</text>
</g>
<!-- FeedbackService&#45;&gt;FeedbackModule -->
<g id="edge2" class="edge">
<title>FeedbackService&#45;&gt;FeedbackModule</title>
<path fill="none" stroke="black" d="M101,-84.91C101,-84.91 101,-103.79 101,-103.79"/>
<polygon fill="black" stroke="black" points="97.5,-103.79 101,-113.79 104.5,-103.79 97.5,-103.79"/>
</g>
</g>
</svg>
