<?xml version="1.0" encoding="UTF-8" standalone="no"?>
<!DOCTYPE svg PUBLIC "-//W3C//DTD SVG 1.1//EN"
 "http://www.w3.org/Graphics/SVG/1.1/DTD/svg11.dtd">
<!-- Generated by graphviz version 2.47.0 (20210316.0004)
 -->
<!-- Title: dependencies Pages: 1 -->
<svg width="504pt" height="284pt"
 viewBox="0.00 0.00 504.00 284.00" xmlns="http://www.w3.org/2000/svg" xmlns:xlink="http://www.w3.org/1999/xlink">
<g id="graph0" class="graph" transform="scale(1 1) rotate(0) translate(4 280)">
<title>dependencies</title>
<polygon fill="white" stroke="transparent" points="-4,4 -4,-280 500,-280 500,4 -4,4"/>
<text text-anchor="start" x="227.01" y="-42.4" font-family="Times-12" font-weight="bold" font-size="14.00">Legend</text>
<polygon fill="#ffffb3" stroke="transparent" points="14,-10 14,-30 34,-30 34,-10 14,-10"/>
<text text-anchor="start" x="37.63" y="-15.4" font-family="Times-12" font-size="14.00"> &#160;Declarations</text>
<polygon fill="#8dd3c7" stroke="transparent" points="127,-10 127,-30 147,-30 147,-10 127,-10"/>
<text text-anchor="start" x="150.73" y="-15.4" font-family="Times-12" font-size="14.00"> &#160;Module</text>
<polygon fill="#80b1d3" stroke="transparent" points="213,-10 213,-30 233,-30 233,-10 213,-10"/>
<text text-anchor="start" x="236.78" y="-15.4" font-family="Times-12" font-size="14.00"> &#160;Bootstrap</text>
<polygon fill="#fdb462" stroke="transparent" points="310,-10 310,-30 330,-30 330,-10 310,-10"/>
<text text-anchor="start" x="333.67" y="-15.4" font-family="Times-12" font-size="14.00"> &#160;Providers</text>
<polygon fill="#fb8072" stroke="transparent" points="406,-10 406,-30 426,-30 426,-10 406,-10"/>
<text text-anchor="start" x="429.73" y="-15.4" font-family="Times-12" font-size="14.00"> &#160;Exports</text>
<g id="clust1" class="cluster">
<title>cluster_FeedbackModule</title>
<polygon fill="none" stroke="black" stroke-dasharray="1,5" points="11,-70 11,-268 485,-268 485,-70 11,-70"/>
</g>
<g id="clust6" class="cluster">
<title>cluster_FeedbackModule_providers</title>
<polygon fill="none" stroke="black" points="129,-78 129,-130 477,-130 477,-78 129,-78"/>
</g>
<g id="clust4" class="cluster">
<title>cluster_FeedbackModule_exports</title>
<polygon fill="none" stroke="black" points="148,-208 148,-260 280,-260 280,-208 148,-208"/>
</g>
<g id="clust3" class="cluster">
<title>cluster_FeedbackModule_imports</title>
<polygon fill="none" stroke="black" points="19,-78 19,-130 121,-130 121,-78 19,-78"/>
</g>
<!-- UserModule -->
<g id="node1" class="node">
<title>UserModule</title>
<polygon fill="#8dd3c7" stroke="black" points="112.98,-122 109.98,-126 88.98,-126 85.98,-122 27.02,-122 27.02,-86 112.98,-86 112.98,-122"/>
<text text-anchor="middle" x="70" y="-99.8" font-family="Times,serif" font-size="14.00">UserModule</text>
</g>
<!-- FeedbackModule -->
<g id="node2" class="node">
<title>FeedbackModule</title>
<polygon fill="#8dd3c7" stroke="black" points="270.69,-187 267.69,-191 246.69,-191 243.69,-187 157.31,-187 157.31,-151 270.69,-151 270.69,-187"/>
<text text-anchor="middle" x="214" y="-164.8" font-family="Times,serif" font-size="14.00">FeedbackModule</text>
</g>
<!-- UserModule&#45;&gt;FeedbackModule -->
<g id="edge1" class="edge">
<title>UserModule&#45;&gt;FeedbackModule</title>
<path fill="none" stroke="black" d="M70,-122.11C70,-141.34 70,-169 70,-169 70,-169 147.09,-169 147.09,-169"/>
<polygon fill="black" stroke="black" points="147.09,-172.5 157.09,-169 147.09,-165.5 147.09,-172.5"/>
</g>
<!-- FeedbackService  -->
<g id="node3" class="node">
<title>FeedbackService </title>
<polygon fill="#fb8072" stroke="black" points="271.62,-252 156.38,-252 156.38,-216 271.62,-216 271.62,-252"/>
<text text-anchor="middle" x="214" y="-229.8" font-family="Times,serif" font-size="14.00">FeedbackService </text>
</g>
<!-- FeedbackModule&#45;&gt;FeedbackService  -->
<g id="edge2" class="edge">
<title>FeedbackModule&#45;&gt;FeedbackService </title>
<path fill="none" stroke="black" stroke-dasharray="5,2" d="M214,-187.11C214,-187.11 214,-205.99 214,-205.99"/>
<polygon fill="black" stroke="black" points="210.5,-205.99 214,-215.99 217.5,-205.99 210.5,-205.99"/>
</g>
<!-- FeedbackListener -->
<g id="node4" class="node">
<title>FeedbackListener</title>
<ellipse fill="#fdb462" stroke="black" cx="389" cy="-104" rx="79.85" ry="18"/>
<text text-anchor="middle" x="389" y="-99.8" font-family="Times,serif" font-size="14.00">FeedbackListener</text>
</g>
<!-- FeedbackListener&#45;&gt;FeedbackModule -->
<g id="edge3" class="edge">
<title>FeedbackListener&#45;&gt;FeedbackModule</title>
<path fill="none" stroke="black" d="M389,-122.11C389,-141.34 389,-169 389,-169 389,-169 280.82,-169 280.82,-169"/>
<polygon fill="black" stroke="black" points="280.82,-165.5 270.82,-169 280.82,-172.5 280.82,-165.5"/>
</g>
<!-- FeedbackService -->
<g id="node5" class="node">
<title>FeedbackService</title>
<ellipse fill="#fdb462" stroke="black" cx="214" cy="-104" rx="76.98" ry="18"/>
<text text-anchor="middle" x="214" y="-99.8" font-family="Times,serif" font-size="14.00">FeedbackService</text>
</g>
<!-- FeedbackService&#45;&gt;FeedbackModule -->
<g id="edge4" class="edge">
<title>FeedbackService&#45;&gt;FeedbackModule</title>
<path fill="none" stroke="black" d="M214,-122.11C214,-122.11 214,-140.99 214,-140.99"/>
<polygon fill="black" stroke="black" points="210.5,-140.99 214,-150.99 217.5,-140.99 210.5,-140.99"/>
</g>
</g>
</svg>
