<?xml version="1.0" encoding="UTF-8" standalone="no"?>
<!DOCTYPE svg PUBLIC "-//W3C//DTD SVG 1.1//EN"
 "http://www.w3.org/Graphics/SVG/1.1/DTD/svg11.dtd">
<!-- Generated by graphviz version 2.47.3 (20210619.1520)
 -->
<!-- Title: dependencies Pages: 1 -->
<svg width="520pt" height="174pt"
 viewBox="0.00 0.00 520.00 173.80" xmlns="http://www.w3.org/2000/svg" xmlns:xlink="http://www.w3.org/1999/xlink">
<g id="graph0" class="graph" transform="scale(1 1) rotate(0) translate(4 169.8)">
<title>dependencies</title>
<polygon fill="white" stroke="transparent" points="-4,4 -4,-169.8 516,-169.8 516,4 -4,4"/>
<text text-anchor="middle" x="256" y="-8.2" font-family="sans-serif" font-size="14.00">dependencies</text>
<g id="clust1" class="cluster">
<title>cluster_VoteModule</title>
<polygon fill="none" stroke="black" stroke-dasharray="1,5" points="8,-32.8 8,-157.8 504,-157.8 504,-32.8 8,-32.8"/>
</g>
<g id="clust3" class="cluster">
<title>cluster_VoteModule_imports</title>
<polygon fill="none" stroke="black" points="16,-40.8 16,-92.8 496,-92.8 496,-40.8 16,-40.8"/>
</g>
<!-- ArticleModule -->
<g id="node1" class="node">
<title>ArticleModule</title>
<polygon fill="#8dd3c7" stroke="black" points="488.42,-84.8 485.42,-88.8 464.42,-88.8 461.42,-84.8 389.58,-84.8 389.58,-48.8 488.42,-48.8 488.42,-84.8"/>
<text text-anchor="middle" x="439" y="-62.6" font-family="Times,serif" font-size="14.00">ArticleModule</text>
</g>
<!-- VoteModule -->
<g id="node5" class="node">
<title>VoteModule</title>
<polygon fill="#8dd3c7" stroke="black" points="294.26,-149.8 291.26,-153.8 270.26,-153.8 267.26,-149.8 207.74,-149.8 207.74,-113.8 294.26,-113.8 294.26,-149.8"/>
<text text-anchor="middle" x="251" y="-127.6" font-family="Times,serif" font-size="14.00">VoteModule</text>
</g>
<!-- ArticleModule&#45;&gt;VoteModule -->
<g id="edge1" class="edge">
<title>ArticleModule&#45;&gt;VoteModule</title>
<path fill="none" stroke="black" d="M439,-84.91C439,-104.14 439,-131.8 439,-131.8 439,-131.8 304.6,-131.8 304.6,-131.8"/>
<polygon fill="black" stroke="black" points="304.6,-128.3 294.6,-131.8 304.6,-135.3 304.6,-128.3"/>
</g>
<!-- CommentModule -->
<g id="node2" class="node">
<title>CommentModule</title>
<polygon fill="#8dd3c7" stroke="black" points="371.27,-84.8 368.27,-88.8 347.27,-88.8 344.27,-84.8 256.73,-84.8 256.73,-48.8 371.27,-48.8 371.27,-84.8"/>
<text text-anchor="middle" x="314" y="-62.6" font-family="Times,serif" font-size="14.00">CommentModule</text>
</g>
<!-- CommentModule&#45;&gt;VoteModule -->
<g id="edge2" class="edge">
<title>CommentModule&#45;&gt;VoteModule</title>
<path fill="none" stroke="black" d="M275.5,-84.91C275.5,-84.91 275.5,-103.79 275.5,-103.79"/>
<polygon fill="black" stroke="black" points="272,-103.79 275.5,-113.79 279,-103.79 272,-103.79"/>
</g>
<!-- DisqusModule -->
<g id="node3" class="node">
<title>DisqusModule</title>
<polygon fill="#8dd3c7" stroke="black" points="238.44,-84.8 235.44,-88.8 214.44,-88.8 211.44,-84.8 139.56,-84.8 139.56,-48.8 238.44,-48.8 238.44,-84.8"/>
<text text-anchor="middle" x="189" y="-62.6" font-family="Times,serif" font-size="14.00">DisqusModule</text>
</g>
<!-- DisqusModule&#45;&gt;VoteModule -->
<g id="edge3" class="edge">
<title>DisqusModule&#45;&gt;VoteModule</title>
<path fill="none" stroke="black" d="M222.92,-84.91C222.92,-84.91 222.92,-103.79 222.92,-103.79"/>
<polygon fill="black" stroke="black" points="219.42,-103.79 222.92,-113.79 226.42,-103.79 219.42,-103.79"/>
</g>
<!-- OptionModule -->
<g id="node4" class="node">
<title>OptionModule</title>
<polygon fill="#8dd3c7" stroke="black" points="122.44,-84.8 119.44,-88.8 98.44,-88.8 95.44,-84.8 23.56,-84.8 23.56,-48.8 122.44,-48.8 122.44,-84.8"/>
<text text-anchor="middle" x="73" y="-62.6" font-family="Times,serif" font-size="14.00">OptionModule</text>
</g>
<!-- OptionModule&#45;&gt;VoteModule -->
<g id="edge4" class="edge">
<title>OptionModule&#45;&gt;VoteModule</title>
<path fill="none" stroke="black" d="M73,-84.91C73,-104.14 73,-131.8 73,-131.8 73,-131.8 197.46,-131.8 197.46,-131.8"/>
<polygon fill="black" stroke="black" points="197.46,-135.3 207.46,-131.8 197.46,-128.3 197.46,-135.3"/>
</g>
</g>
</svg>
