<?xml version="1.0" encoding="UTF-8" standalone="no"?>
<!DOCTYPE svg PUBLIC "-//W3C//DTD SVG 1.1//EN"
 "http://www.w3.org/Graphics/SVG/1.1/DTD/svg11.dtd">
<!-- Generated by graphviz version 2.47.3 (20210619.1520)
 -->
<!-- Title: dependencies Pages: 1 -->
<svg width="662pt" height="174pt"
 viewBox="0.00 0.00 662.00 173.80" xmlns="http://www.w3.org/2000/svg" xmlns:xlink="http://www.w3.org/1999/xlink">
<g id="graph0" class="graph" transform="scale(1 1) rotate(0) translate(4 169.8)">
<title>dependencies</title>
<polygon fill="white" stroke="transparent" points="-4,4 -4,-169.8 658,-169.8 658,4 -4,4"/>
<text text-anchor="middle" x="327" y="-8.2" font-family="sans-serif" font-size="14.00">dependencies</text>
<g id="clust1" class="cluster">
<title>cluster_VoteModule</title>
<polygon fill="none" stroke="black" stroke-dasharray="1,5" points="8,-32.8 8,-157.8 646,-157.8 646,-32.8 8,-32.8"/>
</g>
<g id="clust3" class="cluster">
<title>cluster_VoteModule_imports</title>
<polygon fill="none" stroke="black" points="158,-40.8 158,-92.8 638,-92.8 638,-40.8 158,-40.8"/>
</g>
<g id="clust6" class="cluster">
<title>cluster_VoteModule_providers</title>
<polygon fill="none" stroke="black" points="16,-40.8 16,-92.8 150,-92.8 150,-40.8 16,-40.8"/>
</g>
<!-- ArticleModule -->
<g id="node1" class="node">
<title>ArticleModule</title>
<polygon fill="#8dd3c7" stroke="black" points="630.42,-84.8 627.42,-88.8 606.42,-88.8 603.42,-84.8 531.58,-84.8 531.58,-48.8 630.42,-48.8 630.42,-84.8"/>
<text text-anchor="middle" x="581" y="-62.6" font-family="Times,serif" font-size="14.00">ArticleModule</text>
</g>
<!-- VoteModule -->
<g id="node5" class="node">
<title>VoteModule</title>
<polygon fill="#8dd3c7" stroke="black" points="374.26,-149.8 371.26,-153.8 350.26,-153.8 347.26,-149.8 287.74,-149.8 287.74,-113.8 374.26,-113.8 374.26,-149.8"/>
<text text-anchor="middle" x="331" y="-127.6" font-family="Times,serif" font-size="14.00">VoteModule</text>
</g>
<!-- ArticleModule&#45;&gt;VoteModule -->
<g id="edge1" class="edge">
<title>ArticleModule&#45;&gt;VoteModule</title>
<path fill="none" stroke="black" d="M581,-85.08C581,-106.12 581,-137.8 581,-137.8 581,-137.8 384.55,-137.8 384.55,-137.8"/>
<polygon fill="black" stroke="black" points="384.55,-134.3 374.55,-137.8 384.55,-141.3 384.55,-134.3"/>
</g>
<!-- CommentModule -->
<g id="node2" class="node">
<title>CommentModule</title>
<polygon fill="#8dd3c7" stroke="black" points="513.27,-84.8 510.27,-88.8 489.27,-88.8 486.27,-84.8 398.73,-84.8 398.73,-48.8 513.27,-48.8 513.27,-84.8"/>
<text text-anchor="middle" x="456" y="-62.6" font-family="Times,serif" font-size="14.00">CommentModule</text>
</g>
<!-- CommentModule&#45;&gt;VoteModule -->
<g id="edge2" class="edge">
<title>CommentModule&#45;&gt;VoteModule</title>
<path fill="none" stroke="black" d="M456,-84.82C456,-102.17 456,-125.8 456,-125.8 456,-125.8 384.37,-125.8 384.37,-125.8"/>
<polygon fill="black" stroke="black" points="384.37,-122.3 374.37,-125.8 384.37,-129.3 384.37,-122.3"/>
</g>
<!-- DisqusModule -->
<g id="node3" class="node">
<title>DisqusModule</title>
<polygon fill="#8dd3c7" stroke="black" points="380.44,-84.8 377.44,-88.8 356.44,-88.8 353.44,-84.8 281.56,-84.8 281.56,-48.8 380.44,-48.8 380.44,-84.8"/>
<text text-anchor="middle" x="331" y="-62.6" font-family="Times,serif" font-size="14.00">DisqusModule</text>
</g>
<!-- DisqusModule&#45;&gt;VoteModule -->
<g id="edge3" class="edge">
<title>DisqusModule&#45;&gt;VoteModule</title>
<path fill="none" stroke="black" d="M331,-84.91C331,-84.91 331,-103.79 331,-103.79"/>
<polygon fill="black" stroke="black" points="327.5,-103.79 331,-113.79 334.5,-103.79 327.5,-103.79"/>
</g>
<!-- OptionModule -->
<g id="node4" class="node">
<title>OptionModule</title>
<polygon fill="#8dd3c7" stroke="black" points="264.44,-84.8 261.44,-88.8 240.44,-88.8 237.44,-84.8 165.56,-84.8 165.56,-48.8 264.44,-48.8 264.44,-84.8"/>
<text text-anchor="middle" x="215" y="-62.6" font-family="Times,serif" font-size="14.00">OptionModule</text>
</g>
<!-- OptionModule&#45;&gt;VoteModule -->
<g id="edge4" class="edge">
<title>OptionModule&#45;&gt;VoteModule</title>
<path fill="none" stroke="black" d="M215,-84.82C215,-102.17 215,-125.8 215,-125.8 215,-125.8 277.48,-125.8 277.48,-125.8"/>
<polygon fill="black" stroke="black" points="277.48,-129.3 287.48,-125.8 277.48,-122.3 277.48,-129.3"/>
</g>
<!-- VoteService -->
<g id="node6" class="node">
<title>VoteService</title>
<ellipse fill="#fdb462" stroke="black" cx="83" cy="-66.8" rx="58.53" ry="18"/>
<text text-anchor="middle" x="83" y="-62.6" font-family="Times,serif" font-size="14.00">VoteService</text>
</g>
<!-- VoteService&#45;&gt;VoteModule -->
<g id="edge5" class="edge">
<title>VoteService&#45;&gt;VoteModule</title>
<path fill="none" stroke="black" d="M83,-85.08C83,-106.12 83,-137.8 83,-137.8 83,-137.8 277.52,-137.8 277.52,-137.8"/>
<polygon fill="black" stroke="black" points="277.52,-141.3 287.52,-137.8 277.52,-134.3 277.52,-141.3"/>
</g>
</g>
</svg>
