<?xml version="1.0" encoding="UTF-8" standalone="no"?>
<!DOCTYPE svg PUBLIC "-//W3C//DTD SVG 1.1//EN"
 "http://www.w3.org/Graphics/SVG/1.1/DTD/svg11.dtd">
<!-- Generated by graphviz version 2.47.0 (20210316.0004)
 -->
<!-- Title: dependencies Pages: 1 -->
<svg width="546pt" height="284pt"
 viewBox="0.00 0.00 546.00 284.00" xmlns="http://www.w3.org/2000/svg" xmlns:xlink="http://www.w3.org/1999/xlink">
<g id="graph0" class="graph" transform="scale(1 1) rotate(0) translate(4 280)">
<title>dependencies</title>
<polygon fill="white" stroke="transparent" points="-4,4 -4,-280 542,-280 542,4 -4,4"/>
<text text-anchor="start" x="248.01" y="-42.4" font-family="Times-12" font-weight="bold" font-size="14.00">Legend</text>
<polygon fill="#ffffb3" stroke="transparent" points="35,-10 35,-30 55,-30 55,-10 35,-10"/>
<text text-anchor="start" x="58.63" y="-15.4" font-family="Times-12" font-size="14.00"> &#160;Declarations</text>
<polygon fill="#8dd3c7" stroke="transparent" points="148,-10 148,-30 168,-30 168,-10 148,-10"/>
<text text-anchor="start" x="171.73" y="-15.4" font-family="Times-12" font-size="14.00"> &#160;Module</text>
<polygon fill="#80b1d3" stroke="transparent" points="234,-10 234,-30 254,-30 254,-10 234,-10"/>
<text text-anchor="start" x="257.78" y="-15.4" font-family="Times-12" font-size="14.00"> &#160;Bootstrap</text>
<polygon fill="#fdb462" stroke="transparent" points="331,-10 331,-30 351,-30 351,-10 331,-10"/>
<text text-anchor="start" x="354.67" y="-15.4" font-family="Times-12" font-size="14.00"> &#160;Providers</text>
<polygon fill="#fb8072" stroke="transparent" points="427,-10 427,-30 447,-30 447,-10 427,-10"/>
<text text-anchor="start" x="450.73" y="-15.4" font-family="Times-12" font-size="14.00"> &#160;Exports</text>
<g id="clust1" class="cluster">
<title>cluster_VoteModule</title>
<polygon fill="none" stroke="black" stroke-dasharray="1,5" points="8,-70 8,-268 530,-268 530,-70 8,-70"/>
</g>
<g id="clust3" class="cluster">
<title>cluster_VoteModule_imports</title>
<polygon fill="none" stroke="black" points="158,-78 158,-130 522,-130 522,-78 158,-78"/>
</g>
<g id="clust4" class="cluster">
<title>cluster_VoteModule_exports</title>
<polygon fill="none" stroke="black" points="225,-208 225,-260 329,-260 329,-208 225,-208"/>
</g>
<g id="clust6" class="cluster">
<title>cluster_VoteModule_providers</title>
<polygon fill="none" stroke="black" points="16,-78 16,-130 150,-130 150,-78 16,-78"/>
</g>
<!-- ArticleModule -->
<g id="node1" class="node">
<title>ArticleModule</title>
<polygon fill="#8dd3c7" stroke="black" points="514.42,-122 511.42,-126 490.42,-126 487.42,-122 415.58,-122 415.58,-86 514.42,-86 514.42,-122"/>
<text text-anchor="middle" x="465" y="-99.8" font-family="Times,serif" font-size="14.00">ArticleModule</text>
</g>
<!-- VoteModule -->
<g id="node4" class="node">
<title>VoteModule</title>
<polygon fill="#8dd3c7" stroke="black" points="320.26,-187 317.26,-191 296.26,-191 293.26,-187 233.74,-187 233.74,-151 320.26,-151 320.26,-187"/>
<text text-anchor="middle" x="277" y="-164.8" font-family="Times,serif" font-size="14.00">VoteModule</text>
</g>
<!-- ArticleModule&#45;&gt;VoteModule -->
<g id="edge1" class="edge">
<title>ArticleModule&#45;&gt;VoteModule</title>
<path fill="none" stroke="black" d="M465,-122.11C465,-141.34 465,-169 465,-169 465,-169 330.6,-169 330.6,-169"/>
<polygon fill="black" stroke="black" points="330.6,-165.5 320.6,-169 330.6,-172.5 330.6,-165.5"/>
</g>
<!-- CommentModule -->
<g id="node2" class="node">
<title>CommentModule</title>
<polygon fill="#8dd3c7" stroke="black" points="397.27,-122 394.27,-126 373.27,-126 370.27,-122 282.73,-122 282.73,-86 397.27,-86 397.27,-122"/>
<text text-anchor="middle" x="340" y="-99.8" font-family="Times,serif" font-size="14.00">CommentModule</text>
</g>
<!-- CommentModule&#45;&gt;VoteModule -->
<g id="edge2" class="edge">
<title>CommentModule&#45;&gt;VoteModule</title>
<path fill="none" stroke="black" d="M301.5,-122.11C301.5,-122.11 301.5,-140.99 301.5,-140.99"/>
<polygon fill="black" stroke="black" points="298,-140.99 301.5,-150.99 305,-140.99 298,-140.99"/>
</g>
<!-- DisqusModule -->
<g id="node3" class="node">
<title>DisqusModule</title>
<polygon fill="#8dd3c7" stroke="black" points="264.44,-122 261.44,-126 240.44,-126 237.44,-122 165.56,-122 165.56,-86 264.44,-86 264.44,-122"/>
<text text-anchor="middle" x="215" y="-99.8" font-family="Times,serif" font-size="14.00">DisqusModule</text>
</g>
<!-- DisqusModule&#45;&gt;VoteModule -->
<g id="edge3" class="edge">
<title>DisqusModule&#45;&gt;VoteModule</title>
<path fill="none" stroke="black" d="M248.92,-122.11C248.92,-122.11 248.92,-140.99 248.92,-140.99"/>
<polygon fill="black" stroke="black" points="245.42,-140.99 248.92,-150.99 252.42,-140.99 245.42,-140.99"/>
</g>
<!-- VoteService  -->
<g id="node5" class="node">
<title>VoteService </title>
<polygon fill="#fb8072" stroke="black" points="321.19,-252 232.81,-252 232.81,-216 321.19,-216 321.19,-252"/>
<text text-anchor="middle" x="277" y="-229.8" font-family="Times,serif" font-size="14.00">VoteService </text>
</g>
<!-- VoteModule&#45;&gt;VoteService  -->
<g id="edge4" class="edge">
<title>VoteModule&#45;&gt;VoteService </title>
<path fill="none" stroke="black" stroke-dasharray="5,2" d="M277,-187.11C277,-187.11 277,-205.99 277,-205.99"/>
<polygon fill="black" stroke="black" points="273.5,-205.99 277,-215.99 280.5,-205.99 273.5,-205.99"/>
</g>
<!-- VoteService -->
<g id="node6" class="node">
<title>VoteService</title>
<ellipse fill="#fdb462" stroke="black" cx="83" cy="-104" rx="58.53" ry="18"/>
<text text-anchor="middle" x="83" y="-99.8" font-family="Times,serif" font-size="14.00">VoteService</text>
</g>
<!-- VoteService&#45;&gt;VoteModule -->
<g id="edge5" class="edge">
<title>VoteService&#45;&gt;VoteModule</title>
<path fill="none" stroke="black" d="M83,-122.11C83,-141.34 83,-169 83,-169 83,-169 223.46,-169 223.46,-169"/>
<polygon fill="black" stroke="black" points="223.46,-172.5 233.46,-169 223.46,-165.5 223.46,-172.5"/>
</g>
</g>
</svg>
