<?xml version="1.0" encoding="UTF-8" standalone="no"?>
<!DOCTYPE svg PUBLIC "-//W3C//DTD SVG 1.1//EN"
 "http://www.w3.org/Graphics/SVG/1.1/DTD/svg11.dtd">
<!-- Generated by graphviz version 2.47.0 (20210316.0004)
 -->
<!-- Title: dependencies Pages: 1 -->
<svg width="673pt" height="284pt"
 viewBox="0.00 0.00 673.00 284.00" xmlns="http://www.w3.org/2000/svg" xmlns:xlink="http://www.w3.org/1999/xlink">
<g id="graph0" class="graph" transform="scale(1 1) rotate(0) translate(4 280)">
<title>dependencies</title>
<polygon fill="white" stroke="transparent" points="-4,4 -4,-280 669,-280 669,4 -4,4"/>
<text text-anchor="start" x="311.51" y="-42.4" font-family="Times-12" font-weight="bold" font-size="14.00">Legend</text>
<polygon fill="#ffffb3" stroke="transparent" points="98.5,-10 98.5,-30 118.5,-30 118.5,-10 98.5,-10"/>
<text text-anchor="start" x="122.13" y="-15.4" font-family="Times-12" font-size="14.00"> &#160;Declarations</text>
<polygon fill="#8dd3c7" stroke="transparent" points="211.5,-10 211.5,-30 231.5,-30 231.5,-10 211.5,-10"/>
<text text-anchor="start" x="235.23" y="-15.4" font-family="Times-12" font-size="14.00"> &#160;Module</text>
<polygon fill="#80b1d3" stroke="transparent" points="297.5,-10 297.5,-30 317.5,-30 317.5,-10 297.5,-10"/>
<text text-anchor="start" x="321.28" y="-15.4" font-family="Times-12" font-size="14.00"> &#160;Bootstrap</text>
<polygon fill="#fdb462" stroke="transparent" points="394.5,-10 394.5,-30 414.5,-30 414.5,-10 394.5,-10"/>
<text text-anchor="start" x="418.17" y="-15.4" font-family="Times-12" font-size="14.00"> &#160;Providers</text>
<polygon fill="#fb8072" stroke="transparent" points="490.5,-10 490.5,-30 510.5,-30 510.5,-10 490.5,-10"/>
<text text-anchor="start" x="514.23" y="-15.4" font-family="Times-12" font-size="14.00"> &#160;Exports</text>
<g id="clust1" class="cluster">
<title>cluster_VoteModule</title>
<polygon fill="none" stroke="black" stroke-dasharray="1,5" points="8,-70 8,-268 657,-268 657,-70 8,-70"/>
</g>
<g id="clust4" class="cluster">
<title>cluster_VoteModule_exports</title>
<polygon fill="none" stroke="black" points="297,-208 297,-260 401,-260 401,-208 297,-208"/>
</g>
<g id="clust3" class="cluster">
<title>cluster_VoteModule_imports</title>
<polygon fill="none" stroke="black" points="298,-78 298,-130 649,-130 649,-78 298,-78"/>
</g>
<g id="clust6" class="cluster">
<title>cluster_VoteModule_providers</title>
<polygon fill="none" stroke="black" points="16,-78 16,-130 290,-130 290,-78 16,-78"/>
</g>
<!-- ArticleModule -->
<g id="node1" class="node">
<title>ArticleModule</title>
<polygon fill="#8dd3c7" stroke="black" points="641.42,-122 638.42,-126 617.42,-126 614.42,-122 542.58,-122 542.58,-86 641.42,-86 641.42,-122"/>
<text text-anchor="middle" x="592" y="-99.8" font-family="Times,serif" font-size="14.00">ArticleModule</text>
</g>
<!-- VoteModule -->
<g id="node4" class="node">
<title>VoteModule</title>
<polygon fill="#8dd3c7" stroke="black" points="392.26,-187 389.26,-191 368.26,-191 365.26,-187 305.74,-187 305.74,-151 392.26,-151 392.26,-187"/>
<text text-anchor="middle" x="349" y="-164.8" font-family="Times,serif" font-size="14.00">VoteModule</text>
</g>
<!-- ArticleModule&#45;&gt;VoteModule -->
<g id="edge1" class="edge">
<title>ArticleModule&#45;&gt;VoteModule</title>
<path fill="none" stroke="black" d="M592,-122.28C592,-143.32 592,-175 592,-175 592,-175 402.44,-175 402.44,-175"/>
<polygon fill="black" stroke="black" points="402.44,-171.5 392.44,-175 402.44,-178.5 402.44,-171.5"/>
</g>
<!-- CommentModule -->
<g id="node2" class="node">
<title>CommentModule</title>
<polygon fill="#8dd3c7" stroke="black" points="524.27,-122 521.27,-126 500.27,-126 497.27,-122 409.73,-122 409.73,-86 524.27,-86 524.27,-122"/>
<text text-anchor="middle" x="467" y="-99.8" font-family="Times,serif" font-size="14.00">CommentModule</text>
</g>
<!-- CommentModule&#45;&gt;VoteModule -->
<g id="edge2" class="edge">
<title>CommentModule&#45;&gt;VoteModule</title>
<path fill="none" stroke="black" d="M467,-122.02C467,-139.37 467,-163 467,-163 467,-163 402.27,-163 402.27,-163"/>
<polygon fill="black" stroke="black" points="402.27,-159.5 392.27,-163 402.27,-166.5 402.27,-159.5"/>
</g>
<!-- UserModule -->
<g id="node3" class="node">
<title>UserModule</title>
<polygon fill="#8dd3c7" stroke="black" points="391.98,-122 388.98,-126 367.98,-126 364.98,-122 306.02,-122 306.02,-86 391.98,-86 391.98,-122"/>
<text text-anchor="middle" x="349" y="-99.8" font-family="Times,serif" font-size="14.00">UserModule</text>
</g>
<!-- UserModule&#45;&gt;VoteModule -->
<g id="edge3" class="edge">
<title>UserModule&#45;&gt;VoteModule</title>
<path fill="none" stroke="black" d="M349,-122.11C349,-122.11 349,-140.99 349,-140.99"/>
<polygon fill="black" stroke="black" points="345.5,-140.99 349,-150.99 352.5,-140.99 345.5,-140.99"/>
</g>
<!-- VoteService  -->
<g id="node5" class="node">
<title>VoteService </title>
<polygon fill="#fb8072" stroke="black" points="393.19,-252 304.81,-252 304.81,-216 393.19,-216 393.19,-252"/>
<text text-anchor="middle" x="349" y="-229.8" font-family="Times,serif" font-size="14.00">VoteService </text>
</g>
<!-- VoteModule&#45;&gt;VoteService  -->
<g id="edge4" class="edge">
<title>VoteModule&#45;&gt;VoteService </title>
<path fill="none" stroke="black" stroke-dasharray="5,2" d="M349,-187.11C349,-187.11 349,-205.99 349,-205.99"/>
<polygon fill="black" stroke="black" points="345.5,-205.99 349,-215.99 352.5,-205.99 345.5,-205.99"/>
</g>
<!-- VoteListener -->
<g id="node6" class="node">
<title>VoteListener</title>
<ellipse fill="#fdb462" stroke="black" cx="221" cy="-104" rx="61.39" ry="18"/>
<text text-anchor="middle" x="221" y="-99.8" font-family="Times,serif" font-size="14.00">VoteListener</text>
</g>
<!-- VoteListener&#45;&gt;VoteModule -->
<g id="edge5" class="edge">
<title>VoteListener&#45;&gt;VoteModule</title>
<path fill="none" stroke="black" d="M221,-122.02C221,-139.37 221,-163 221,-163 221,-163 295.67,-163 295.67,-163"/>
<polygon fill="black" stroke="black" points="295.67,-166.5 305.67,-163 295.67,-159.5 295.67,-166.5"/>
</g>
<!-- VoteService -->
<g id="node7" class="node">
<title>VoteService</title>
<ellipse fill="#fdb462" stroke="black" cx="83" cy="-104" rx="58.53" ry="18"/>
<text text-anchor="middle" x="83" y="-99.8" font-family="Times,serif" font-size="14.00">VoteService</text>
</g>
<!-- VoteService&#45;&gt;VoteModule -->
<g id="edge6" class="edge">
<title>VoteService&#45;&gt;VoteModule</title>
<path fill="none" stroke="black" d="M83,-122.28C83,-143.32 83,-175 83,-175 83,-175 295.67,-175 295.67,-175"/>
<polygon fill="black" stroke="black" points="295.67,-178.5 305.67,-175 295.67,-171.5 295.67,-178.5"/>
</g>
</g>
</svg>
