<?xml version="1.0" encoding="UTF-8" standalone="no"?>
<!DOCTYPE svg PUBLIC "-//W3C//DTD SVG 1.1//EN"
 "http://www.w3.org/Graphics/SVG/1.1/DTD/svg11.dtd">
<!-- Generated by graphviz version 2.47.0 (20210316.0004)
 -->
<!-- Title: dependencies Pages: 1 -->
<svg width="662pt" height="211pt"
 viewBox="0.00 0.00 662.00 211.00" xmlns="http://www.w3.org/2000/svg" xmlns:xlink="http://www.w3.org/1999/xlink">
<g id="graph0" class="graph" transform="scale(1 1) rotate(0) translate(4 207)">
<title>dependencies</title>
<polygon fill="white" stroke="transparent" points="-4,4 -4,-207 658,-207 658,4 -4,4"/>
<text text-anchor="start" x="306.01" y="-42.4" font-family="Times-12" font-weight="bold" font-size="14.00">Legend</text>
<polygon fill="#ffffb3" stroke="transparent" points="93,-10 93,-30 113,-30 113,-10 93,-10"/>
<text text-anchor="start" x="116.63" y="-15.4" font-family="Times-12" font-size="14.00"> &#160;Declarations</text>
<polygon fill="#8dd3c7" stroke="transparent" points="206,-10 206,-30 226,-30 226,-10 206,-10"/>
<text text-anchor="start" x="229.73" y="-15.4" font-family="Times-12" font-size="14.00"> &#160;Module</text>
<polygon fill="#80b1d3" stroke="transparent" points="292,-10 292,-30 312,-30 312,-10 292,-10"/>
<text text-anchor="start" x="315.78" y="-15.4" font-family="Times-12" font-size="14.00"> &#160;Bootstrap</text>
<polygon fill="#fdb462" stroke="transparent" points="389,-10 389,-30 409,-30 409,-10 389,-10"/>
<text text-anchor="start" x="412.67" y="-15.4" font-family="Times-12" font-size="14.00"> &#160;Providers</text>
<polygon fill="#fb8072" stroke="transparent" points="485,-10 485,-30 505,-30 505,-10 485,-10"/>
<text text-anchor="start" x="508.73" y="-15.4" font-family="Times-12" font-size="14.00"> &#160;Exports</text>
<g id="clust1" class="cluster">
<title>cluster_VoteModule</title>
<polygon fill="none" stroke="black" stroke-dasharray="1,5" points="8,-70 8,-195 646,-195 646,-70 8,-70"/>
</g>
<g id="clust6" class="cluster">
<title>cluster_VoteModule_providers</title>
<polygon fill="none" stroke="black" points="504,-78 504,-130 638,-130 638,-78 504,-78"/>
</g>
<g id="clust3" class="cluster">
<title>cluster_VoteModule_imports</title>
<polygon fill="none" stroke="black" points="16,-78 16,-130 496,-130 496,-78 16,-78"/>
</g>
<!-- ArticleModule -->
<g id="node1" class="node">
<title>ArticleModule</title>
<polygon fill="#8dd3c7" stroke="black" points="488.42,-122 485.42,-126 464.42,-126 461.42,-122 389.58,-122 389.58,-86 488.42,-86 488.42,-122"/>
<text text-anchor="middle" x="439" y="-99.8" font-family="Times,serif" font-size="14.00">ArticleModule</text>
</g>
<!-- VoteModule -->
<g id="node5" class="node">
<title>VoteModule</title>
<polygon fill="#8dd3c7" stroke="black" points="357.26,-187 354.26,-191 333.26,-191 330.26,-187 270.74,-187 270.74,-151 357.26,-151 357.26,-187"/>
<text text-anchor="middle" x="314" y="-164.8" font-family="Times,serif" font-size="14.00">VoteModule</text>
</g>
<!-- ArticleModule&#45;&gt;VoteModule -->
<g id="edge1" class="edge">
<title>ArticleModule&#45;&gt;VoteModule</title>
<path fill="none" stroke="black" d="M439,-122.02C439,-139.37 439,-163 439,-163 439,-163 367.37,-163 367.37,-163"/>
<polygon fill="black" stroke="black" points="367.37,-159.5 357.37,-163 367.37,-166.5 367.37,-159.5"/>
</g>
<!-- CommentModule -->
<g id="node2" class="node">
<title>CommentModule</title>
<polygon fill="#8dd3c7" stroke="black" points="371.27,-122 368.27,-126 347.27,-126 344.27,-122 256.73,-122 256.73,-86 371.27,-86 371.27,-122"/>
<text text-anchor="middle" x="314" y="-99.8" font-family="Times,serif" font-size="14.00">CommentModule</text>
</g>
<!-- CommentModule&#45;&gt;VoteModule -->
<g id="edge2" class="edge">
<title>CommentModule&#45;&gt;VoteModule</title>
<path fill="none" stroke="black" d="M314,-122.11C314,-122.11 314,-140.99 314,-140.99"/>
<polygon fill="black" stroke="black" points="310.5,-140.99 314,-150.99 317.5,-140.99 310.5,-140.99"/>
</g>
<!-- DisqusModule -->
<g id="node3" class="node">
<title>DisqusModule</title>
<polygon fill="#8dd3c7" stroke="black" points="238.44,-122 235.44,-126 214.44,-126 211.44,-122 139.56,-122 139.56,-86 238.44,-86 238.44,-122"/>
<text text-anchor="middle" x="189" y="-99.8" font-family="Times,serif" font-size="14.00">DisqusModule</text>
</g>
<!-- DisqusModule&#45;&gt;VoteModule -->
<g id="edge3" class="edge">
<title>DisqusModule&#45;&gt;VoteModule</title>
<path fill="none" stroke="black" d="M189,-122.02C189,-139.37 189,-163 189,-163 189,-163 260.63,-163 260.63,-163"/>
<polygon fill="black" stroke="black" points="260.63,-166.5 270.63,-163 260.63,-159.5 260.63,-166.5"/>
</g>
<!-- OptionModule -->
<g id="node4" class="node">
<title>OptionModule</title>
<polygon fill="#8dd3c7" stroke="black" points="122.44,-122 119.44,-126 98.44,-126 95.44,-122 23.56,-122 23.56,-86 122.44,-86 122.44,-122"/>
<text text-anchor="middle" x="73" y="-99.8" font-family="Times,serif" font-size="14.00">OptionModule</text>
</g>
<!-- OptionModule&#45;&gt;VoteModule -->
<g id="edge4" class="edge">
<title>OptionModule&#45;&gt;VoteModule</title>
<path fill="none" stroke="black" d="M73,-122.28C73,-143.32 73,-175 73,-175 73,-175 260.64,-175 260.64,-175"/>
<polygon fill="black" stroke="black" points="260.64,-178.5 270.64,-175 260.64,-171.5 260.64,-178.5"/>
</g>
<!-- VoteService -->
<g id="node6" class="node">
<title>VoteService</title>
<ellipse fill="#fdb462" stroke="black" cx="571" cy="-104" rx="58.53" ry="18"/>
<text text-anchor="middle" x="571" y="-99.8" font-family="Times,serif" font-size="14.00">VoteService</text>
</g>
<!-- VoteService&#45;&gt;VoteModule -->
<g id="edge5" class="edge">
<title>VoteService&#45;&gt;VoteModule</title>
<path fill="none" stroke="black" d="M571,-122.28C571,-143.32 571,-175 571,-175 571,-175 367.31,-175 367.31,-175"/>
<polygon fill="black" stroke="black" points="367.31,-171.5 357.31,-175 367.31,-178.5 367.31,-171.5"/>
</g>
</g>
</svg>
