<?xml version="1.0" encoding="UTF-8" standalone="no"?>
<!DOCTYPE svg PUBLIC "-//W3C//DTD SVG 1.1//EN"
 "http://www.w3.org/Graphics/SVG/1.1/DTD/svg11.dtd">
<!-- Generated by graphviz version 2.47.0 (20210316.0004)
 -->
<!-- Title: dependencies Pages: 1 -->
<svg width="673pt" height="284pt"
 viewBox="0.00 0.00 673.00 284.00" xmlns="http://www.w3.org/2000/svg" xmlns:xlink="http://www.w3.org/1999/xlink">
<g id="graph0" class="graph" transform="scale(1 1) rotate(0) translate(4 280)">
<title>dependencies</title>
<polygon fill="white" stroke="transparent" points="-4,4 -4,-280 669,-280 669,4 -4,4"/>
<text text-anchor="start" x="311.51" y="-42.4" font-family="Times-12" font-weight="bold" font-size="14.00">Legend</text>
<polygon fill="#ffffb3" stroke="transparent" points="98.5,-10 98.5,-30 118.5,-30 118.5,-10 98.5,-10"/>
<text text-anchor="start" x="122.13" y="-15.4" font-family="Times-12" font-size="14.00"> &#160;Declarations</text>
<polygon fill="#8dd3c7" stroke="transparent" points="211.5,-10 211.5,-30 231.5,-30 231.5,-10 211.5,-10"/>
<text text-anchor="start" x="235.23" y="-15.4" font-family="Times-12" font-size="14.00"> &#160;Module</text>
<polygon fill="#80b1d3" stroke="transparent" points="297.5,-10 297.5,-30 317.5,-30 317.5,-10 297.5,-10"/>
<text text-anchor="start" x="321.28" y="-15.4" font-family="Times-12" font-size="14.00"> &#160;Bootstrap</text>
<polygon fill="#fdb462" stroke="transparent" points="394.5,-10 394.5,-30 414.5,-30 414.5,-10 394.5,-10"/>
<text text-anchor="start" x="418.17" y="-15.4" font-family="Times-12" font-size="14.00"> &#160;Providers</text>
<polygon fill="#fb8072" stroke="transparent" points="490.5,-10 490.5,-30 510.5,-30 510.5,-10 490.5,-10"/>
<text text-anchor="start" x="514.23" y="-15.4" font-family="Times-12" font-size="14.00"> &#160;Exports</text>
<g id="clust1" class="cluster">
<title>cluster_VoteModule</title>
<polygon fill="none" stroke="black" stroke-dasharray="1,5" points="8,-70 8,-268 657,-268 657,-70 8,-70"/>
</g>
<g id="clust6" class="cluster">
<title>cluster_VoteModule_providers</title>
<polygon fill="none" stroke="black" points="375,-78 375,-130 649,-130 649,-78 375,-78"/>
</g>
<g id="clust3" class="cluster">
<title>cluster_VoteModule_imports</title>
<polygon fill="none" stroke="black" points="16,-78 16,-130 367,-130 367,-78 16,-78"/>
</g>
<g id="clust4" class="cluster">
<title>cluster_VoteModule_exports</title>
<polygon fill="none" stroke="black" points="258,-208 258,-260 362,-260 362,-208 258,-208"/>
</g>
<!-- ArticleModule -->
<g id="node1" class="node">
<title>ArticleModule</title>
<polygon fill="#8dd3c7" stroke="black" points="359.42,-122 356.42,-126 335.42,-126 332.42,-122 260.58,-122 260.58,-86 359.42,-86 359.42,-122"/>
<text text-anchor="middle" x="310" y="-99.8" font-family="Times,serif" font-size="14.00">ArticleModule</text>
</g>
<!-- VoteModule -->
<g id="node4" class="node">
<title>VoteModule</title>
<polygon fill="#8dd3c7" stroke="black" points="353.26,-187 350.26,-191 329.26,-191 326.26,-187 266.74,-187 266.74,-151 353.26,-151 353.26,-187"/>
<text text-anchor="middle" x="310" y="-164.8" font-family="Times,serif" font-size="14.00">VoteModule</text>
</g>
<!-- ArticleModule&#45;&gt;VoteModule -->
<g id="edge1" class="edge">
<title>ArticleModule&#45;&gt;VoteModule</title>
<path fill="none" stroke="black" d="M310,-122.11C310,-122.11 310,-140.99 310,-140.99"/>
<polygon fill="black" stroke="black" points="306.5,-140.99 310,-150.99 313.5,-140.99 306.5,-140.99"/>
</g>
<!-- CommentModule -->
<g id="node2" class="node">
<title>CommentModule</title>
<polygon fill="#8dd3c7" stroke="black" points="242.27,-122 239.27,-126 218.27,-126 215.27,-122 127.73,-122 127.73,-86 242.27,-86 242.27,-122"/>
<text text-anchor="middle" x="185" y="-99.8" font-family="Times,serif" font-size="14.00">CommentModule</text>
</g>
<!-- CommentModule&#45;&gt;VoteModule -->
<g id="edge2" class="edge">
<title>CommentModule&#45;&gt;VoteModule</title>
<path fill="none" stroke="black" d="M185,-122.02C185,-139.37 185,-163 185,-163 185,-163 256.63,-163 256.63,-163"/>
<polygon fill="black" stroke="black" points="256.63,-166.5 266.63,-163 256.63,-159.5 256.63,-166.5"/>
</g>
<!-- UserModule -->
<g id="node3" class="node">
<title>UserModule</title>
<polygon fill="#8dd3c7" stroke="black" points="109.98,-122 106.98,-126 85.98,-126 82.98,-122 24.02,-122 24.02,-86 109.98,-86 109.98,-122"/>
<text text-anchor="middle" x="67" y="-99.8" font-family="Times,serif" font-size="14.00">UserModule</text>
</g>
<!-- UserModule&#45;&gt;VoteModule -->
<g id="edge3" class="edge">
<title>UserModule&#45;&gt;VoteModule</title>
<path fill="none" stroke="black" d="M67,-122.28C67,-143.32 67,-175 67,-175 67,-175 256.56,-175 256.56,-175"/>
<polygon fill="black" stroke="black" points="256.56,-178.5 266.56,-175 256.56,-171.5 256.56,-178.5"/>
</g>
<!-- VoteService  -->
<g id="node5" class="node">
<title>VoteService </title>
<polygon fill="#fb8072" stroke="black" points="354.19,-252 265.81,-252 265.81,-216 354.19,-216 354.19,-252"/>
<text text-anchor="middle" x="310" y="-229.8" font-family="Times,serif" font-size="14.00">VoteService </text>
</g>
<!-- VoteModule&#45;&gt;VoteService  -->
<g id="edge4" class="edge">
<title>VoteModule&#45;&gt;VoteService </title>
<path fill="none" stroke="black" stroke-dasharray="5,2" d="M310,-187.11C310,-187.11 310,-205.99 310,-205.99"/>
<polygon fill="black" stroke="black" points="306.5,-205.99 310,-215.99 313.5,-205.99 306.5,-205.99"/>
</g>
<!-- VoteListener -->
<g id="node6" class="node">
<title>VoteListener</title>
<ellipse fill="#fdb462" stroke="black" cx="580" cy="-104" rx="61.39" ry="18"/>
<text text-anchor="middle" x="580" y="-99.8" font-family="Times,serif" font-size="14.00">VoteListener</text>
</g>
<!-- VoteListener&#45;&gt;VoteModule -->
<g id="edge5" class="edge">
<title>VoteListener&#45;&gt;VoteModule</title>
<path fill="none" stroke="black" d="M580,-122.28C580,-143.32 580,-175 580,-175 580,-175 363.38,-175 363.38,-175"/>
<polygon fill="black" stroke="black" points="363.38,-171.5 353.38,-175 363.38,-178.5 363.38,-171.5"/>
</g>
<!-- VoteService -->
<g id="node7" class="node">
<title>VoteService</title>
<ellipse fill="#fdb462" stroke="black" cx="442" cy="-104" rx="58.53" ry="18"/>
<text text-anchor="middle" x="442" y="-99.8" font-family="Times,serif" font-size="14.00">VoteService</text>
</g>
<!-- VoteService&#45;&gt;VoteModule -->
<g id="edge6" class="edge">
<title>VoteService&#45;&gt;VoteModule</title>
<path fill="none" stroke="black" d="M442,-122.02C442,-139.37 442,-163 442,-163 442,-163 363.59,-163 363.59,-163"/>
<polygon fill="black" stroke="black" points="363.59,-159.5 353.59,-163 363.59,-166.5 363.59,-159.5"/>
</g>
</g>
</svg>
