<?xml version="1.0" encoding="UTF-8" standalone="no"?>
<!DOCTYPE svg PUBLIC "-//W3C//DTD SVG 1.1//EN"
 "http://www.w3.org/Graphics/SVG/1.1/DTD/svg11.dtd">
<!-- Generated by graphviz version 2.47.0 (20210316.0004)
 -->
<!-- Title: dependencies Pages: 1 -->
<svg width="504pt" height="284pt"
 viewBox="0.00 0.00 504.00 284.00" xmlns="http://www.w3.org/2000/svg" xmlns:xlink="http://www.w3.org/1999/xlink">
<g id="graph0" class="graph" transform="scale(1 1) rotate(0) translate(4 280)">
<title>dependencies</title>
<polygon fill="white" stroke="transparent" points="-4,4 -4,-280 500,-280 500,4 -4,4"/>
<text text-anchor="start" x="227.01" y="-42.4" font-family="Times-12" font-weight="bold" font-size="14.00">Legend</text>
<polygon fill="#ffffb3" stroke="transparent" points="14,-10 14,-30 34,-30 34,-10 14,-10"/>
<text text-anchor="start" x="37.63" y="-15.4" font-family="Times-12" font-size="14.00"> &#160;Declarations</text>
<polygon fill="#8dd3c7" stroke="transparent" points="127,-10 127,-30 147,-30 147,-10 127,-10"/>
<text text-anchor="start" x="150.73" y="-15.4" font-family="Times-12" font-size="14.00"> &#160;Module</text>
<polygon fill="#80b1d3" stroke="transparent" points="213,-10 213,-30 233,-30 233,-10 213,-10"/>
<text text-anchor="start" x="236.78" y="-15.4" font-family="Times-12" font-size="14.00"> &#160;Bootstrap</text>
<polygon fill="#fdb462" stroke="transparent" points="310,-10 310,-30 330,-30 330,-10 310,-10"/>
<text text-anchor="start" x="333.67" y="-15.4" font-family="Times-12" font-size="14.00"> &#160;Providers</text>
<polygon fill="#fb8072" stroke="transparent" points="406,-10 406,-30 426,-30 426,-10 406,-10"/>
<text text-anchor="start" x="429.73" y="-15.4" font-family="Times-12" font-size="14.00"> &#160;Exports</text>
<g id="clust1" class="cluster">
<title>cluster_TagModule</title>
<polygon fill="none" stroke="black" stroke-dasharray="1,5" points="113,-70 113,-268 383,-268 383,-70 113,-70"/>
</g>
<g id="clust6" class="cluster">
<title>cluster_TagModule_providers</title>
<polygon fill="none" stroke="black" points="249,-78 249,-130 375,-130 375,-78 249,-78"/>
</g>
<g id="clust3" class="cluster">
<title>cluster_TagModule_imports</title>
<polygon fill="none" stroke="black" points="121,-78 121,-130 241,-130 241,-78 121,-78"/>
</g>
<g id="clust4" class="cluster">
<title>cluster_TagModule_exports</title>
<polygon fill="none" stroke="black" points="196,-208 196,-260 296,-260 296,-208 196,-208"/>
</g>
<!-- ArchiveModule -->
<g id="node1" class="node">
<title>ArchiveModule</title>
<polygon fill="#8dd3c7" stroke="black" points="233.14,-122 230.14,-126 209.14,-126 206.14,-122 128.86,-122 128.86,-86 233.14,-86 233.14,-122"/>
<text text-anchor="middle" x="181" y="-99.8" font-family="Times,serif" font-size="14.00">ArchiveModule</text>
</g>
<!-- TagModule -->
<g id="node2" class="node">
<title>TagModule</title>
<polygon fill="#8dd3c7" stroke="black" points="286.82,-187 283.82,-191 262.82,-191 259.82,-187 205.18,-187 205.18,-151 286.82,-151 286.82,-187"/>
<text text-anchor="middle" x="246" y="-164.8" font-family="Times,serif" font-size="14.00">TagModule</text>
</g>
<!-- ArchiveModule&#45;&gt;TagModule -->
<g id="edge1" class="edge">
<title>ArchiveModule&#45;&gt;TagModule</title>
<path fill="none" stroke="black" d="M219.33,-122.11C219.33,-122.11 219.33,-140.99 219.33,-140.99"/>
<polygon fill="black" stroke="black" points="215.83,-140.99 219.33,-150.99 222.83,-140.99 215.83,-140.99"/>
</g>
<!-- TagService  -->
<g id="node3" class="node">
<title>TagService </title>
<polygon fill="#fb8072" stroke="black" points="287.75,-252 204.25,-252 204.25,-216 287.75,-216 287.75,-252"/>
<text text-anchor="middle" x="246" y="-229.8" font-family="Times,serif" font-size="14.00">TagService </text>
</g>
<!-- TagModule&#45;&gt;TagService  -->
<g id="edge2" class="edge">
<title>TagModule&#45;&gt;TagService </title>
<path fill="none" stroke="black" stroke-dasharray="5,2" d="M246,-187.11C246,-187.11 246,-205.99 246,-205.99"/>
<polygon fill="black" stroke="black" points="242.5,-205.99 246,-215.99 249.5,-205.99 242.5,-205.99"/>
</g>
<!-- TagService -->
<g id="node4" class="node">
<title>TagService</title>
<ellipse fill="#fdb462" stroke="black" cx="312" cy="-104" rx="55.01" ry="18"/>
<text text-anchor="middle" x="312" y="-99.8" font-family="Times,serif" font-size="14.00">TagService</text>
</g>
<!-- TagService&#45;&gt;TagModule -->
<g id="edge3" class="edge">
<title>TagService&#45;&gt;TagModule</title>
<path fill="none" stroke="black" d="M271.83,-116.53C271.83,-116.53 271.83,-140.85 271.83,-140.85"/>
<polygon fill="black" stroke="black" points="268.33,-140.85 271.83,-150.85 275.33,-140.85 268.33,-140.85"/>
</g>
</g>
</svg>
