<?xml version="1.0" encoding="UTF-8" standalone="no"?>
<!DOCTYPE svg PUBLIC "-//W3C//DTD SVG 1.1//EN"
 "http://www.w3.org/Graphics/SVG/1.1/DTD/svg11.dtd">
<!-- Generated by graphviz version 2.47.3 (20210619.1520)
 -->
<!-- Title: dependencies Pages: 1 -->
<svg width="294pt" height="247pt"
 viewBox="0.00 0.00 294.00 246.80" xmlns="http://www.w3.org/2000/svg" xmlns:xlink="http://www.w3.org/1999/xlink">
<g id="graph0" class="graph" transform="scale(1 1) rotate(0) translate(4 242.8)">
<title>dependencies</title>
<polygon fill="white" stroke="transparent" points="-4,4 -4,-242.8 290,-242.8 290,4 -4,4"/>
<text text-anchor="middle" x="143" y="-8.2" font-family="sans-serif" font-size="14.00">dependencies</text>
<g id="clust1" class="cluster">
<title>cluster_TagModule</title>
<polygon fill="none" stroke="black" stroke-dasharray="1,5" points="8,-32.8 8,-230.8 278,-230.8 278,-32.8 8,-32.8"/>
</g>
<g id="clust4" class="cluster">
<title>cluster_TagModule_exports</title>
<polygon fill="none" stroke="black" points="91,-170.8 91,-222.8 191,-222.8 191,-170.8 91,-170.8"/>
</g>
<g id="clust6" class="cluster">
<title>cluster_TagModule_providers</title>
<polygon fill="none" stroke="black" points="144,-40.8 144,-92.8 270,-92.8 270,-40.8 144,-40.8"/>
</g>
<g id="clust3" class="cluster">
<title>cluster_TagModule_imports</title>
<polygon fill="none" stroke="black" points="16,-40.8 16,-92.8 136,-92.8 136,-40.8 16,-40.8"/>
</g>
<!-- ArchiveModule -->
<g id="node1" class="node">
<title>ArchiveModule</title>
<polygon fill="#8dd3c7" stroke="black" points="128.14,-84.8 125.14,-88.8 104.14,-88.8 101.14,-84.8 23.86,-84.8 23.86,-48.8 128.14,-48.8 128.14,-84.8"/>
<text text-anchor="middle" x="76" y="-62.6" font-family="Times,serif" font-size="14.00">ArchiveModule</text>
</g>
<!-- TagModule -->
<g id="node2" class="node">
<title>TagModule</title>
<polygon fill="#8dd3c7" stroke="black" points="181.82,-149.8 178.82,-153.8 157.82,-153.8 154.82,-149.8 100.18,-149.8 100.18,-113.8 181.82,-113.8 181.82,-149.8"/>
<text text-anchor="middle" x="141" y="-127.6" font-family="Times,serif" font-size="14.00">TagModule</text>
</g>
<!-- ArchiveModule&#45;&gt;TagModule -->
<g id="edge1" class="edge">
<title>ArchiveModule&#45;&gt;TagModule</title>
<path fill="none" stroke="black" d="M114.33,-84.91C114.33,-84.91 114.33,-103.79 114.33,-103.79"/>
<polygon fill="black" stroke="black" points="110.83,-103.79 114.33,-113.79 117.83,-103.79 110.83,-103.79"/>
</g>
<!-- TagService  -->
<g id="node3" class="node">
<title>TagService </title>
<polygon fill="#fb8072" stroke="black" points="182.75,-214.8 99.25,-214.8 99.25,-178.8 182.75,-178.8 182.75,-214.8"/>
<text text-anchor="middle" x="141" y="-192.6" font-family="Times,serif" font-size="14.00">TagService </text>
</g>
<!-- TagModule&#45;&gt;TagService  -->
<g id="edge2" class="edge">
<title>TagModule&#45;&gt;TagService </title>
<path fill="none" stroke="black" stroke-dasharray="5,2" d="M141,-149.91C141,-149.91 141,-168.79 141,-168.79"/>
<polygon fill="black" stroke="black" points="137.5,-168.79 141,-178.79 144.5,-168.79 137.5,-168.79"/>
</g>
<!-- TagService -->
<g id="node4" class="node">
<title>TagService</title>
<ellipse fill="#fdb462" stroke="black" cx="207" cy="-66.8" rx="55.01" ry="18"/>
<text text-anchor="middle" x="207" y="-62.6" font-family="Times,serif" font-size="14.00">TagService</text>
</g>
<!-- TagService&#45;&gt;TagModule -->
<g id="edge3" class="edge">
<title>TagService&#45;&gt;TagModule</title>
<path fill="none" stroke="black" d="M166.83,-79.33C166.83,-79.33 166.83,-103.65 166.83,-103.65"/>
<polygon fill="black" stroke="black" points="163.33,-103.65 166.83,-113.65 170.33,-103.65 163.33,-103.65"/>
</g>
</g>
</svg>
