<?xml version="1.0" encoding="UTF-8" standalone="no"?>
<!DOCTYPE svg PUBLIC "-//W3C//DTD SVG 1.1//EN"
 "http://www.w3.org/Graphics/SVG/1.1/DTD/svg11.dtd">
<!-- Generated by graphviz version 2.47.0 (20210316.0004)
 -->
<!-- Title: dependencies Pages: 1 -->
<svg width="980pt" height="284pt"
 viewBox="0.00 0.00 980.00 284.00" xmlns="http://www.w3.org/2000/svg" xmlns:xlink="http://www.w3.org/1999/xlink">
<g id="graph0" class="graph" transform="scale(1 1) rotate(0) translate(4 280)">
<title>dependencies</title>
<polygon fill="white" stroke="transparent" points="-4,4 -4,-280 976,-280 976,4 -4,4"/>
<text text-anchor="start" x="465.01" y="-42.4" font-family="Times-12" font-weight="bold" font-size="14.00">Legend</text>
<polygon fill="#ffffb3" stroke="transparent" points="252,-10 252,-30 272,-30 272,-10 252,-10"/>
<text text-anchor="start" x="275.63" y="-15.4" font-family="Times-12" font-size="14.00"> &#160;Declarations</text>
<polygon fill="#8dd3c7" stroke="transparent" points="365,-10 365,-30 385,-30 385,-10 365,-10"/>
<text text-anchor="start" x="388.73" y="-15.4" font-family="Times-12" font-size="14.00"> &#160;Module</text>
<polygon fill="#80b1d3" stroke="transparent" points="451,-10 451,-30 471,-30 471,-10 451,-10"/>
<text text-anchor="start" x="474.78" y="-15.4" font-family="Times-12" font-size="14.00"> &#160;Bootstrap</text>
<polygon fill="#fdb462" stroke="transparent" points="548,-10 548,-30 568,-30 568,-10 548,-10"/>
<text text-anchor="start" x="571.67" y="-15.4" font-family="Times-12" font-size="14.00"> &#160;Providers</text>
<polygon fill="#fb8072" stroke="transparent" points="644,-10 644,-30 664,-30 664,-10 644,-10"/>
<text text-anchor="start" x="667.73" y="-15.4" font-family="Times-12" font-size="14.00"> &#160;Exports</text>
<g id="clust1" class="cluster">
<title>cluster_SystemModule</title>
<polygon fill="none" stroke="black" stroke-dasharray="1,5" points="8,-70 8,-268 964,-268 964,-70 8,-70"/>
</g>
<g id="clust4" class="cluster">
<title>cluster_SystemModule_exports</title>
<polygon fill="none" stroke="black" points="395,-208 395,-260 665,-260 665,-208 395,-208"/>
</g>
<g id="clust3" class="cluster">
<title>cluster_SystemModule_imports</title>
<polygon fill="none" stroke="black" points="374,-78 374,-130 956,-130 956,-78 374,-78"/>
</g>
<g id="clust6" class="cluster">
<title>cluster_SystemModule_providers</title>
<polygon fill="none" stroke="black" points="16,-78 16,-130 366,-130 366,-78 16,-78"/>
</g>
<!-- ArticleModule -->
<g id="node1" class="node">
<title>ArticleModule</title>
<polygon fill="#8dd3c7" stroke="black" points="948.42,-122 945.42,-126 924.42,-126 921.42,-122 849.58,-122 849.58,-86 948.42,-86 948.42,-122"/>
<text text-anchor="middle" x="899" y="-99.8" font-family="Times,serif" font-size="14.00">ArticleModule</text>
</g>
<!-- SystemModule -->
<g id="node6" class="node">
<title>SystemModule</title>
<polygon fill="#8dd3c7" stroke="black" points="577.27,-187 574.27,-191 553.27,-191 550.27,-187 476.73,-187 476.73,-151 577.27,-151 577.27,-187"/>
<text text-anchor="middle" x="527" y="-164.8" font-family="Times,serif" font-size="14.00">SystemModule</text>
</g>
<!-- ArticleModule&#45;&gt;SystemModule -->
<g id="edge1" class="edge">
<title>ArticleModule&#45;&gt;SystemModule</title>
<path fill="none" stroke="black" d="M899,-122.28C899,-143.32 899,-175 899,-175 899,-175 587.56,-175 587.56,-175"/>
<polygon fill="black" stroke="black" points="587.56,-171.5 577.56,-175 587.56,-178.5 587.56,-171.5"/>
</g>
<!-- CommentModule -->
<g id="node2" class="node">
<title>CommentModule</title>
<polygon fill="#8dd3c7" stroke="black" points="831.27,-122 828.27,-126 807.27,-126 804.27,-122 716.73,-122 716.73,-86 831.27,-86 831.27,-122"/>
<text text-anchor="middle" x="774" y="-99.8" font-family="Times,serif" font-size="14.00">CommentModule</text>
</g>
<!-- CommentModule&#45;&gt;SystemModule -->
<g id="edge2" class="edge">
<title>CommentModule&#45;&gt;SystemModule</title>
<path fill="none" stroke="black" d="M774,-122.02C774,-139.37 774,-163 774,-163 774,-163 587.28,-163 587.28,-163"/>
<polygon fill="black" stroke="black" points="587.28,-159.5 577.28,-163 587.28,-166.5 587.28,-159.5"/>
</g>
<!-- FeedbackModule -->
<g id="node3" class="node">
<title>FeedbackModule</title>
<polygon fill="#8dd3c7" stroke="black" points="698.69,-122 695.69,-126 674.69,-126 671.69,-122 585.31,-122 585.31,-86 698.69,-86 698.69,-122"/>
<text text-anchor="middle" x="642" y="-99.8" font-family="Times,serif" font-size="14.00">FeedbackModule</text>
</g>
<!-- FeedbackModule&#45;&gt;SystemModule -->
<g id="edge3" class="edge">
<title>FeedbackModule&#45;&gt;SystemModule</title>
<path fill="none" stroke="black" d="M585.27,-104C577.72,-104 572.52,-104 572.52,-104 572.52,-104 572.52,-140.89 572.52,-140.89"/>
<polygon fill="black" stroke="black" points="569.02,-140.89 572.52,-150.89 576.02,-140.89 569.02,-140.89"/>
</g>
<!-- TagModule -->
<g id="node4" class="node">
<title>TagModule</title>
<polygon fill="#8dd3c7" stroke="black" points="567.82,-122 564.82,-126 543.82,-126 540.82,-122 486.18,-122 486.18,-86 567.82,-86 567.82,-122"/>
<text text-anchor="middle" x="527" y="-99.8" font-family="Times,serif" font-size="14.00">TagModule</text>
</g>
<!-- TagModule&#45;&gt;SystemModule -->
<g id="edge4" class="edge">
<title>TagModule&#45;&gt;SystemModule</title>
<path fill="none" stroke="black" d="M527,-122.11C527,-122.11 527,-140.99 527,-140.99"/>
<polygon fill="black" stroke="black" points="523.5,-140.99 527,-150.99 530.5,-140.99 523.5,-140.99"/>
</g>
<!-- VoteModule -->
<g id="node5" class="node">
<title>VoteModule</title>
<polygon fill="#8dd3c7" stroke="black" points="468.26,-122 465.26,-126 444.26,-126 441.26,-122 381.74,-122 381.74,-86 468.26,-86 468.26,-122"/>
<text text-anchor="middle" x="425" y="-99.8" font-family="Times,serif" font-size="14.00">VoteModule</text>
</g>
<!-- VoteModule&#45;&gt;SystemModule -->
<g id="edge5" class="edge">
<title>VoteModule&#45;&gt;SystemModule</title>
<path fill="none" stroke="black" d="M468.38,-104C475.96,-104 481.48,-104 481.48,-104 481.48,-104 481.48,-140.89 481.48,-140.89"/>
<polygon fill="black" stroke="black" points="477.98,-140.89 481.48,-150.89 484.98,-140.89 477.98,-140.89"/>
</g>
<!-- DBBackupService  -->
<g id="node7" class="node">
<title>DBBackupService </title>
<polygon fill="#fb8072" stroke="black" points="656.69,-252 533.31,-252 533.31,-216 656.69,-216 656.69,-252"/>
<text text-anchor="middle" x="595" y="-229.8" font-family="Times,serif" font-size="14.00">DBBackupService </text>
</g>
<!-- SystemModule&#45;&gt;DBBackupService  -->
<g id="edge6" class="edge">
<title>SystemModule&#45;&gt;DBBackupService </title>
<path fill="none" stroke="black" stroke-dasharray="5,2" d="M555.27,-187.11C555.27,-187.11 555.27,-205.99 555.27,-205.99"/>
<polygon fill="black" stroke="black" points="551.77,-205.99 555.27,-215.99 558.77,-205.99 551.77,-205.99"/>
</g>
<!-- StatisticsService  -->
<g id="node8" class="node">
<title>StatisticsService </title>
<polygon fill="#fb8072" stroke="black" points="515.03,-252 402.97,-252 402.97,-216 515.03,-216 515.03,-252"/>
<text text-anchor="middle" x="459" y="-229.8" font-family="Times,serif" font-size="14.00">StatisticsService </text>
</g>
<!-- SystemModule&#45;&gt;StatisticsService  -->
<g id="edge7" class="edge">
<title>SystemModule&#45;&gt;StatisticsService </title>
<path fill="none" stroke="black" stroke-dasharray="5,2" d="M495.81,-187.11C495.81,-187.11 495.81,-205.99 495.81,-205.99"/>
<polygon fill="black" stroke="black" points="492.31,-205.99 495.81,-215.99 499.31,-205.99 492.31,-205.99"/>
</g>
<!-- DBBackupService -->
<g id="node9" class="node">
<title>DBBackupService</title>
<ellipse fill="#fdb462" stroke="black" cx="275" cy="-104" rx="82.81" ry="18"/>
<text text-anchor="middle" x="275" y="-99.8" font-family="Times,serif" font-size="14.00">DBBackupService</text>
</g>
<!-- DBBackupService&#45;&gt;SystemModule -->
<g id="edge8" class="edge">
<title>DBBackupService&#45;&gt;SystemModule</title>
<path fill="none" stroke="black" d="M275,-122.02C275,-139.37 275,-163 275,-163 275,-163 466.61,-163 466.61,-163"/>
<polygon fill="black" stroke="black" points="466.61,-166.5 476.61,-163 466.61,-159.5 466.61,-166.5"/>
</g>
<!-- StatisticsService -->
<g id="node10" class="node">
<title>StatisticsService</title>
<ellipse fill="#fdb462" stroke="black" cx="99" cy="-104" rx="74.73" ry="18"/>
<text text-anchor="middle" x="99" y="-99.8" font-family="Times,serif" font-size="14.00">StatisticsService</text>
</g>
<!-- StatisticsService&#45;&gt;SystemModule -->
<g id="edge9" class="edge">
<title>StatisticsService&#45;&gt;SystemModule</title>
<path fill="none" stroke="black" d="M99,-122.28C99,-143.32 99,-175 99,-175 99,-175 466.64,-175 466.64,-175"/>
<polygon fill="black" stroke="black" points="466.64,-178.5 476.64,-175 466.64,-171.5 466.64,-178.5"/>
</g>
</g>
</svg>
