<?xml version="1.0" encoding="UTF-8" standalone="no"?>
<!DOCTYPE svg PUBLIC "-//W3C//DTD SVG 1.1//EN"
 "http://www.w3.org/Graphics/SVG/1.1/DTD/svg11.dtd">
<!-- Generated by graphviz version 2.47.0 (20210316.0004)
 -->
<!-- Title: dependencies Pages: 1 -->
<svg width="980pt" height="284pt"
 viewBox="0.00 0.00 980.00 284.00" xmlns="http://www.w3.org/2000/svg" xmlns:xlink="http://www.w3.org/1999/xlink">
<g id="graph0" class="graph" transform="scale(1 1) rotate(0) translate(4 280)">
<title>dependencies</title>
<polygon fill="white" stroke="transparent" points="-4,4 -4,-280 976,-280 976,4 -4,4"/>
<text text-anchor="start" x="465.01" y="-42.4" font-family="Times-12" font-weight="bold" font-size="14.00">Legend</text>
<polygon fill="#ffffb3" stroke="transparent" points="252,-10 252,-30 272,-30 272,-10 252,-10"/>
<text text-anchor="start" x="275.63" y="-15.4" font-family="Times-12" font-size="14.00"> &#160;Declarations</text>
<polygon fill="#8dd3c7" stroke="transparent" points="365,-10 365,-30 385,-30 385,-10 365,-10"/>
<text text-anchor="start" x="388.73" y="-15.4" font-family="Times-12" font-size="14.00"> &#160;Module</text>
<polygon fill="#80b1d3" stroke="transparent" points="451,-10 451,-30 471,-30 471,-10 451,-10"/>
<text text-anchor="start" x="474.78" y="-15.4" font-family="Times-12" font-size="14.00"> &#160;Bootstrap</text>
<polygon fill="#fdb462" stroke="transparent" points="548,-10 548,-30 568,-30 568,-10 548,-10"/>
<text text-anchor="start" x="571.67" y="-15.4" font-family="Times-12" font-size="14.00"> &#160;Providers</text>
<polygon fill="#fb8072" stroke="transparent" points="644,-10 644,-30 664,-30 664,-10 644,-10"/>
<text text-anchor="start" x="667.73" y="-15.4" font-family="Times-12" font-size="14.00"> &#160;Exports</text>
<g id="clust1" class="cluster">
<title>cluster_SystemModule</title>
<polygon fill="none" stroke="black" stroke-dasharray="1,5" points="8,-70 8,-268 964,-268 964,-70 8,-70"/>
</g>
<g id="clust6" class="cluster">
<title>cluster_SystemModule_providers</title>
<polygon fill="none" stroke="black" points="606,-78 606,-130 956,-130 956,-78 606,-78"/>
</g>
<g id="clust3" class="cluster">
<title>cluster_SystemModule_imports</title>
<polygon fill="none" stroke="black" points="16,-78 16,-130 598,-130 598,-78 16,-78"/>
</g>
<g id="clust4" class="cluster">
<title>cluster_SystemModule_exports</title>
<polygon fill="none" stroke="black" points="284,-208 284,-260 554,-260 554,-208 284,-208"/>
</g>
<!-- ArticleModule -->
<g id="node1" class="node">
<title>ArticleModule</title>
<polygon fill="#8dd3c7" stroke="black" points="590.42,-122 587.42,-126 566.42,-126 563.42,-122 491.58,-122 491.58,-86 590.42,-86 590.42,-122"/>
<text text-anchor="middle" x="541" y="-99.8" font-family="Times,serif" font-size="14.00">ArticleModule</text>
</g>
<!-- SystemModule -->
<g id="node6" class="node">
<title>SystemModule</title>
<polygon fill="#8dd3c7" stroke="black" points="466.27,-187 463.27,-191 442.27,-191 439.27,-187 365.73,-187 365.73,-151 466.27,-151 466.27,-187"/>
<text text-anchor="middle" x="416" y="-164.8" font-family="Times,serif" font-size="14.00">SystemModule</text>
</g>
<!-- ArticleModule&#45;&gt;SystemModule -->
<g id="edge1" class="edge">
<title>ArticleModule&#45;&gt;SystemModule</title>
<path fill="none" stroke="black" d="M518.82,-122.03C518.82,-138.4 518.82,-160 518.82,-160 518.82,-160 476.5,-160 476.5,-160"/>
<polygon fill="black" stroke="black" points="476.5,-156.5 466.5,-160 476.5,-163.5 476.5,-156.5"/>
</g>
<!-- CommentModule -->
<g id="node2" class="node">
<title>CommentModule</title>
<polygon fill="#8dd3c7" stroke="black" points="473.27,-122 470.27,-126 449.27,-126 446.27,-122 358.73,-122 358.73,-86 473.27,-86 473.27,-122"/>
<text text-anchor="middle" x="416" y="-99.8" font-family="Times,serif" font-size="14.00">CommentModule</text>
</g>
<!-- CommentModule&#45;&gt;SystemModule -->
<g id="edge2" class="edge">
<title>CommentModule&#45;&gt;SystemModule</title>
<path fill="none" stroke="black" d="M416,-122.11C416,-122.11 416,-140.99 416,-140.99"/>
<polygon fill="black" stroke="black" points="412.5,-140.99 416,-150.99 419.5,-140.99 412.5,-140.99"/>
</g>
<!-- FeedbackModule -->
<g id="node3" class="node">
<title>FeedbackModule</title>
<polygon fill="#8dd3c7" stroke="black" points="340.69,-122 337.69,-126 316.69,-126 313.69,-122 227.31,-122 227.31,-86 340.69,-86 340.69,-122"/>
<text text-anchor="middle" x="284" y="-99.8" font-family="Times,serif" font-size="14.00">FeedbackModule</text>
</g>
<!-- FeedbackModule&#45;&gt;SystemModule -->
<g id="edge3" class="edge">
<title>FeedbackModule&#45;&gt;SystemModule</title>
<path fill="none" stroke="black" d="M316.29,-122.03C316.29,-138.4 316.29,-160 316.29,-160 316.29,-160 355.56,-160 355.56,-160"/>
<polygon fill="black" stroke="black" points="355.56,-163.5 365.56,-160 355.56,-156.5 355.56,-163.5"/>
</g>
<!-- TagModule -->
<g id="node4" class="node">
<title>TagModule</title>
<polygon fill="#8dd3c7" stroke="black" points="209.82,-122 206.82,-126 185.82,-126 182.82,-122 128.18,-122 128.18,-86 209.82,-86 209.82,-122"/>
<text text-anchor="middle" x="169" y="-99.8" font-family="Times,serif" font-size="14.00">TagModule</text>
</g>
<!-- TagModule&#45;&gt;SystemModule -->
<g id="edge4" class="edge">
<title>TagModule&#45;&gt;SystemModule</title>
<path fill="none" stroke="black" d="M169,-122.11C169,-141.34 169,-169 169,-169 169,-169 355.72,-169 355.72,-169"/>
<polygon fill="black" stroke="black" points="355.72,-172.5 365.72,-169 355.72,-165.5 355.72,-172.5"/>
</g>
<!-- VoteModule -->
<g id="node5" class="node">
<title>VoteModule</title>
<polygon fill="#8dd3c7" stroke="black" points="110.26,-122 107.26,-126 86.26,-126 83.26,-122 23.74,-122 23.74,-86 110.26,-86 110.26,-122"/>
<text text-anchor="middle" x="67" y="-99.8" font-family="Times,serif" font-size="14.00">VoteModule</text>
</g>
<!-- VoteModule&#45;&gt;SystemModule -->
<g id="edge5" class="edge">
<title>VoteModule&#45;&gt;SystemModule</title>
<path fill="none" stroke="black" d="M67,-122.29C67,-144.21 67,-178 67,-178 67,-178 355.63,-178 355.63,-178"/>
<polygon fill="black" stroke="black" points="355.63,-181.5 365.63,-178 355.63,-174.5 355.63,-181.5"/>
</g>
<!-- DBBackupService  -->
<g id="node7" class="node">
<title>DBBackupService </title>
<polygon fill="#fb8072" stroke="black" points="545.69,-252 422.31,-252 422.31,-216 545.69,-216 545.69,-252"/>
<text text-anchor="middle" x="484" y="-229.8" font-family="Times,serif" font-size="14.00">DBBackupService </text>
</g>
<!-- SystemModule&#45;&gt;DBBackupService  -->
<g id="edge6" class="edge">
<title>SystemModule&#45;&gt;DBBackupService </title>
<path fill="none" stroke="black" stroke-dasharray="5,2" d="M444.27,-187.11C444.27,-187.11 444.27,-205.99 444.27,-205.99"/>
<polygon fill="black" stroke="black" points="440.77,-205.99 444.27,-215.99 447.77,-205.99 440.77,-205.99"/>
</g>
<!-- StatisticsService  -->
<g id="node8" class="node">
<title>StatisticsService </title>
<polygon fill="#fb8072" stroke="black" points="404.03,-252 291.97,-252 291.97,-216 404.03,-216 404.03,-252"/>
<text text-anchor="middle" x="348" y="-229.8" font-family="Times,serif" font-size="14.00">StatisticsService </text>
</g>
<!-- SystemModule&#45;&gt;StatisticsService  -->
<g id="edge7" class="edge">
<title>SystemModule&#45;&gt;StatisticsService </title>
<path fill="none" stroke="black" stroke-dasharray="5,2" d="M384.81,-187.11C384.81,-187.11 384.81,-205.99 384.81,-205.99"/>
<polygon fill="black" stroke="black" points="381.31,-205.99 384.81,-215.99 388.31,-205.99 381.31,-205.99"/>
</g>
<!-- DBBackupService -->
<g id="node9" class="node">
<title>DBBackupService</title>
<ellipse fill="#fdb462" stroke="black" cx="865" cy="-104" rx="82.81" ry="18"/>
<text text-anchor="middle" x="865" y="-99.8" font-family="Times,serif" font-size="14.00">DBBackupService</text>
</g>
<!-- DBBackupService&#45;&gt;SystemModule -->
<g id="edge8" class="edge">
<title>DBBackupService&#45;&gt;SystemModule</title>
<path fill="none" stroke="black" d="M865,-122.29C865,-144.21 865,-178 865,-178 865,-178 476.63,-178 476.63,-178"/>
<polygon fill="black" stroke="black" points="476.63,-174.5 466.63,-178 476.63,-181.5 476.63,-174.5"/>
</g>
<!-- StatisticsService -->
<g id="node10" class="node">
<title>StatisticsService</title>
<ellipse fill="#fdb462" stroke="black" cx="689" cy="-104" rx="74.73" ry="18"/>
<text text-anchor="middle" x="689" y="-99.8" font-family="Times,serif" font-size="14.00">StatisticsService</text>
</g>
<!-- StatisticsService&#45;&gt;SystemModule -->
<g id="edge9" class="edge">
<title>StatisticsService&#45;&gt;SystemModule</title>
<path fill="none" stroke="black" d="M689,-122.11C689,-141.34 689,-169 689,-169 689,-169 476.39,-169 476.39,-169"/>
<polygon fill="black" stroke="black" points="476.39,-165.5 466.39,-169 476.39,-172.5 476.39,-165.5"/>
</g>
</g>
</svg>
