<?xml version="1.0" encoding="UTF-8" standalone="no"?>
<!DOCTYPE svg PUBLIC "-//W3C//DTD SVG 1.1//EN"
 "http://www.w3.org/Graphics/SVG/1.1/DTD/svg11.dtd">
<!-- Generated by graphviz version 2.47.0 (20210316.0004)
 -->
<!-- Title: dependencies Pages: 1 -->
<svg width="504pt" height="284pt"
 viewBox="0.00 0.00 504.00 284.00" xmlns="http://www.w3.org/2000/svg" xmlns:xlink="http://www.w3.org/1999/xlink">
<g id="graph0" class="graph" transform="scale(1 1) rotate(0) translate(4 280)">
<title>dependencies</title>
<polygon fill="white" stroke="transparent" points="-4,4 -4,-280 500,-280 500,4 -4,4"/>
<text text-anchor="start" x="227.01" y="-42.4" font-family="Times-12" font-weight="bold" font-size="14.00">Legend</text>
<polygon fill="#ffffb3" stroke="transparent" points="14,-10 14,-30 34,-30 34,-10 14,-10"/>
<text text-anchor="start" x="37.63" y="-15.4" font-family="Times-12" font-size="14.00"> &#160;Declarations</text>
<polygon fill="#8dd3c7" stroke="transparent" points="127,-10 127,-30 147,-30 147,-10 127,-10"/>
<text text-anchor="start" x="150.73" y="-15.4" font-family="Times-12" font-size="14.00"> &#160;Module</text>
<polygon fill="#80b1d3" stroke="transparent" points="213,-10 213,-30 233,-30 233,-10 213,-10"/>
<text text-anchor="start" x="236.78" y="-15.4" font-family="Times-12" font-size="14.00"> &#160;Bootstrap</text>
<polygon fill="#fdb462" stroke="transparent" points="310,-10 310,-30 330,-30 330,-10 310,-10"/>
<text text-anchor="start" x="333.67" y="-15.4" font-family="Times-12" font-size="14.00"> &#160;Providers</text>
<polygon fill="#fb8072" stroke="transparent" points="406,-10 406,-30 426,-30 426,-10 406,-10"/>
<text text-anchor="start" x="429.73" y="-15.4" font-family="Times-12" font-size="14.00"> &#160;Exports</text>
<g id="clust1" class="cluster">
<title>cluster_AdminModule</title>
<polygon fill="none" stroke="black" stroke-dasharray="1,5" points="87,-70 87,-268 409,-268 409,-70 87,-70"/>
</g>
<g id="clust6" class="cluster">
<title>cluster_AdminModule_providers</title>
<polygon fill="none" stroke="black" points="95,-78 95,-130 401,-130 401,-78 95,-78"/>
</g>
<g id="clust4" class="cluster">
<title>cluster_AdminModule_exports</title>
<polygon fill="none" stroke="black" points="189,-208 189,-260 305,-260 305,-208 189,-208"/>
</g>
<!-- AdminService  -->
<g id="node1" class="node">
<title>AdminService </title>
<polygon fill="#fb8072" stroke="black" points="297.37,-252 196.63,-252 196.63,-216 297.37,-216 297.37,-252"/>
<text text-anchor="middle" x="247" y="-229.8" font-family="Times,serif" font-size="14.00">AdminService </text>
</g>
<!-- AdminModule -->
<g id="node2" class="node">
<title>AdminModule</title>
<polygon fill="#8dd3c7" stroke="black" points="296.44,-187 293.44,-191 272.44,-191 269.44,-187 197.56,-187 197.56,-151 296.44,-151 296.44,-187"/>
<text text-anchor="middle" x="247" y="-164.8" font-family="Times,serif" font-size="14.00">AdminModule</text>
</g>
<!-- AdminModule&#45;&gt;AdminService  -->
<g id="edge1" class="edge">
<title>AdminModule&#45;&gt;AdminService </title>
<path fill="none" stroke="black" stroke-dasharray="5,2" d="M247,-187.11C247,-187.11 247,-205.99 247,-205.99"/>
<polygon fill="black" stroke="black" points="243.5,-205.99 247,-215.99 250.5,-205.99 243.5,-205.99"/>
</g>
<!-- AdminListener -->
<g id="node3" class="node">
<title>AdminListener</title>
<ellipse fill="#fdb462" stroke="black" cx="324" cy="-104" rx="69.5" ry="18"/>
<text text-anchor="middle" x="324" y="-99.8" font-family="Times,serif" font-size="14.00">AdminListener</text>
</g>
<!-- AdminListener&#45;&gt;AdminModule -->
<g id="edge2" class="edge">
<title>AdminListener&#45;&gt;AdminModule</title>
<path fill="none" stroke="black" d="M275.36,-117.15C275.36,-117.15 275.36,-140.69 275.36,-140.69"/>
<polygon fill="black" stroke="black" points="271.86,-140.69 275.36,-150.69 278.86,-140.69 271.86,-140.69"/>
</g>
<!-- AdminService -->
<g id="node4" class="node">
<title>AdminService</title>
<ellipse fill="#fdb462" stroke="black" cx="170" cy="-104" rx="66.63" ry="18"/>
<text text-anchor="middle" x="170" y="-99.8" font-family="Times,serif" font-size="14.00">AdminService</text>
</g>
<!-- AdminService&#45;&gt;AdminModule -->
<g id="edge3" class="edge">
<title>AdminService&#45;&gt;AdminModule</title>
<path fill="none" stroke="black" d="M217.3,-116.84C217.3,-116.84 217.3,-140.52 217.3,-140.52"/>
<polygon fill="black" stroke="black" points="213.8,-140.52 217.3,-150.52 220.8,-140.52 213.8,-140.52"/>
</g>
</g>
</svg>
