<?xml version="1.0" encoding="UTF-8" standalone="no"?>
<!DOCTYPE svg PUBLIC "-//W3C//DTD SVG 1.1//EN"
 "http://www.w3.org/Graphics/SVG/1.1/DTD/svg11.dtd">
<!-- Generated by graphviz version 2.47.0 (20210316.0004)
 -->
<!-- Title: dependencies Pages: 1 -->
<svg width="590pt" height="284pt"
 viewBox="0.00 0.00 590.00 284.00" xmlns="http://www.w3.org/2000/svg" xmlns:xlink="http://www.w3.org/1999/xlink">
<g id="graph0" class="graph" transform="scale(1 1) rotate(0) translate(4 280)">
<title>dependencies</title>
<polygon fill="white" stroke="transparent" points="-4,4 -4,-280 586,-280 586,4 -4,4"/>
<text text-anchor="start" x="270.01" y="-42.4" font-family="Times-12" font-weight="bold" font-size="14.00">Legend</text>
<polygon fill="#ffffb3" stroke="transparent" points="57,-10 57,-30 77,-30 77,-10 57,-10"/>
<text text-anchor="start" x="80.63" y="-15.4" font-family="Times-12" font-size="14.00"> &#160;Declarations</text>
<polygon fill="#8dd3c7" stroke="transparent" points="170,-10 170,-30 190,-30 190,-10 170,-10"/>
<text text-anchor="start" x="193.73" y="-15.4" font-family="Times-12" font-size="14.00"> &#160;Module</text>
<polygon fill="#80b1d3" stroke="transparent" points="256,-10 256,-30 276,-30 276,-10 256,-10"/>
<text text-anchor="start" x="279.78" y="-15.4" font-family="Times-12" font-size="14.00"> &#160;Bootstrap</text>
<polygon fill="#fdb462" stroke="transparent" points="353,-10 353,-30 373,-30 373,-10 353,-10"/>
<text text-anchor="start" x="376.67" y="-15.4" font-family="Times-12" font-size="14.00"> &#160;Providers</text>
<polygon fill="#fb8072" stroke="transparent" points="449,-10 449,-30 469,-30 469,-10 449,-10"/>
<text text-anchor="start" x="472.73" y="-15.4" font-family="Times-12" font-size="14.00"> &#160;Exports</text>
<g id="clust1" class="cluster">
<title>cluster_AdminModule</title>
<polygon fill="none" stroke="black" stroke-dasharray="1,5" points="8,-70 8,-268 574,-268 574,-70 8,-70"/>
</g>
<g id="clust4" class="cluster">
<title>cluster_AdminModule_exports</title>
<polygon fill="none" stroke="black" points="221,-208 221,-260 375,-260 375,-208 221,-208"/>
</g>
<g id="clust6" class="cluster">
<title>cluster_AdminModule_providers</title>
<polygon fill="none" stroke="black" points="16,-78 16,-130 566,-130 566,-78 16,-78"/>
</g>
<!-- AdminProfileService  -->
<g id="node1" class="node">
<title>AdminProfileService </title>
<polygon fill="#fb8072" stroke="black" points="367.47,-252 228.53,-252 228.53,-216 367.47,-216 367.47,-252"/>
<text text-anchor="middle" x="298" y="-229.8" font-family="Times,serif" font-size="14.00">AdminProfileService </text>
</g>
<!-- AdminModule -->
<g id="node2" class="node">
<title>AdminModule</title>
<polygon fill="#8dd3c7" stroke="black" points="347.44,-187 344.44,-191 323.44,-191 320.44,-187 248.56,-187 248.56,-151 347.44,-151 347.44,-187"/>
<text text-anchor="middle" x="298" y="-164.8" font-family="Times,serif" font-size="14.00">AdminModule</text>
</g>
<!-- AdminModule&#45;&gt;AdminProfileService  -->
<g id="edge1" class="edge">
<title>AdminModule&#45;&gt;AdminProfileService </title>
<path fill="none" stroke="black" stroke-dasharray="5,2" d="M298,-187.11C298,-187.11 298,-205.99 298,-205.99"/>
<polygon fill="black" stroke="black" points="294.5,-205.99 298,-215.99 301.5,-205.99 294.5,-205.99"/>
</g>
<!-- AdminAuthService -->
<g id="node3" class="node">
<title>AdminAuthService</title>
<ellipse fill="#fdb462" stroke="black" cx="472" cy="-104" rx="86.26" ry="18"/>
<text text-anchor="middle" x="472" y="-99.8" font-family="Times,serif" font-size="14.00">AdminAuthService</text>
</g>
<!-- AdminAuthService&#45;&gt;AdminModule -->
<g id="edge2" class="edge">
<title>AdminAuthService&#45;&gt;AdminModule</title>
<path fill="none" stroke="black" d="M472,-122.11C472,-141.34 472,-169 472,-169 472,-169 357.4,-169 357.4,-169"/>
<polygon fill="black" stroke="black" points="357.4,-165.5 347.4,-169 357.4,-172.5 357.4,-165.5"/>
</g>
<!-- AdminListener -->
<g id="node4" class="node">
<title>AdminListener</title>
<ellipse fill="#fdb462" stroke="black" cx="298" cy="-104" rx="69.5" ry="18"/>
<text text-anchor="middle" x="298" y="-99.8" font-family="Times,serif" font-size="14.00">AdminListener</text>
</g>
<!-- AdminListener&#45;&gt;AdminModule -->
<g id="edge3" class="edge">
<title>AdminListener&#45;&gt;AdminModule</title>
<path fill="none" stroke="black" d="M298,-122.11C298,-122.11 298,-140.99 298,-140.99"/>
<polygon fill="black" stroke="black" points="294.5,-140.99 298,-150.99 301.5,-140.99 294.5,-140.99"/>
</g>
<!-- AdminProfileService -->
<g id="node5" class="node">
<title>AdminProfileService</title>
<ellipse fill="#fdb462" stroke="black" cx="117" cy="-104" rx="93.19" ry="18"/>
<text text-anchor="middle" x="117" y="-99.8" font-family="Times,serif" font-size="14.00">AdminProfileService</text>
</g>
<!-- AdminProfileService&#45;&gt;AdminModule -->
<g id="edge4" class="edge">
<title>AdminProfileService&#45;&gt;AdminModule</title>
<path fill="none" stroke="black" d="M117,-122.11C117,-141.34 117,-169 117,-169 117,-169 238.54,-169 238.54,-169"/>
<polygon fill="black" stroke="black" points="238.54,-172.5 248.54,-169 238.54,-165.5 238.54,-172.5"/>
</g>
</g>
</svg>
